<svg width="96" height="216" viewBox="0 0 96 216" fill="none" xmlns="http://www.w3.org/2000/svg">
<mask id="path-1-inside-1_52_134" fill="white">
<path d="M38.8377 62.2035H40.5516C41.6746 62.2035 42.3989 62.5274 42.7244 63.1752C42.8448 63.4193 42.9051 63.6618 42.9051 63.9027C42.9051 64.1436 42.879 64.3357 42.8269 64.4789C42.7781 64.6189 42.7114 64.7474 42.6268 64.8646C42.4672 65.086 42.2557 65.2748 41.992 65.431V65.4506C42.4803 65.5905 42.84 65.8363 43.0711 66.1879C43.2469 66.4548 43.3348 66.751 43.3348 67.0765C43.3348 67.4021 43.2697 67.6836 43.1394 67.9213C43.0125 68.1589 42.8351 68.3575 42.6072 68.517C42.1417 68.8392 41.52 69.0004 40.742 69.0004H38.8377V62.2035ZM40.7371 65.1674C41.2612 65.1674 41.6144 64.9607 41.7967 64.5472C41.8585 64.4008 41.8894 64.238 41.8894 64.059C41.8894 63.8767 41.8667 63.7204 41.8211 63.5902C41.7755 63.4567 41.7023 63.3428 41.6014 63.2484C41.3865 63.0466 41.0626 62.9457 40.6297 62.9457H39.8143V65.1674H40.7371ZM42.3191 67.0961C42.3191 66.3051 41.8439 65.9095 40.8934 65.9095H39.8143V68.2582H40.742C41.4581 68.2582 41.9415 68.0417 42.1922 67.6088C42.2768 67.4623 42.3191 67.2914 42.3191 67.0961ZM47.1824 68.2386C48.2501 68.2386 48.784 67.5827 48.784 66.2709V62.2035H49.7605V66.2709C49.7605 67.2312 49.518 67.9506 49.033 68.4291C48.5935 68.862 47.9767 69.0785 47.1824 69.0785C45.9552 69.0785 45.1593 68.5723 44.7947 67.5599C44.6645 67.2051 44.5994 66.7754 44.5994 66.2709V62.2035H45.576V66.2709C45.576 67.5827 46.1115 68.2386 47.1824 68.2386ZM55.1414 68.5267C54.9103 68.6895 54.6141 68.8181 54.2527 68.9125C53.8914 69.0036 53.4487 69.0492 52.9246 69.0492C52.4038 69.0492 51.8781 69.0183 51.3475 68.9564V68.0092C51.8227 68.1166 52.3012 68.1703 52.783 68.1703C53.2648 68.1703 53.6261 68.1442 53.867 68.0922C54.1079 68.0368 54.3016 67.9652 54.448 67.8773C54.7182 67.7146 54.8533 67.503 54.8533 67.2426C54.8533 67.0407 54.8012 66.8845 54.6971 66.7738C54.531 66.6013 54.2918 66.4434 53.9793 66.3002L52.7293 65.7289C52.2996 65.5271 51.9952 65.3399 51.8162 65.1674C51.4321 64.7963 51.24 64.3666 51.24 63.8783C51.24 63.377 51.4581 62.9717 51.8943 62.6625C52.3728 62.3239 53.0532 62.1547 53.9353 62.1547C54.505 62.1547 55.0258 62.1774 55.4978 62.223V63.1556C55.0975 63.0645 54.6499 63.0189 54.1551 63.0189C53.6635 63.0189 53.3055 63.045 53.0809 63.097C52.8595 63.1459 52.6853 63.2094 52.5584 63.2875C52.3273 63.4307 52.2117 63.6195 52.2117 63.8539C52.2117 64.0817 52.285 64.2705 52.4314 64.4203C52.5616 64.5472 52.7993 64.6937 53.1443 64.8597L54.4285 65.4701C54.8549 65.6719 55.1528 65.8623 55.3221 66.0414C55.4946 66.2204 55.6215 66.4011 55.7029 66.5834C55.7843 66.7624 55.825 66.9789 55.825 67.2328C55.825 67.4834 55.7697 67.7211 55.659 67.9457C55.5483 68.167 55.3758 68.3607 55.1414 68.5267Z"/>
</mask>
<path d="M38.8377 62.2035H40.5516C41.6746 62.2035 42.3989 62.5274 42.7244 63.1752C42.8448 63.4193 42.9051 63.6618 42.9051 63.9027C42.9051 64.1436 42.879 64.3357 42.8269 64.4789C42.7781 64.6189 42.7114 64.7474 42.6268 64.8646C42.4672 65.086 42.2557 65.2748 41.992 65.431V65.4506C42.4803 65.5905 42.84 65.8363 43.0711 66.1879C43.2469 66.4548 43.3348 66.751 43.3348 67.0765C43.3348 67.4021 43.2697 67.6836 43.1394 67.9213C43.0125 68.1589 42.8351 68.3575 42.6072 68.517C42.1417 68.8392 41.52 69.0004 40.742 69.0004H38.8377V62.2035ZM40.7371 65.1674C41.2612 65.1674 41.6144 64.9607 41.7967 64.5472C41.8585 64.4008 41.8894 64.238 41.8894 64.059C41.8894 63.8767 41.8667 63.7204 41.8211 63.5902C41.7755 63.4567 41.7023 63.3428 41.6014 63.2484C41.3865 63.0466 41.0626 62.9457 40.6297 62.9457H39.8143V65.1674H40.7371ZM42.3191 67.0961C42.3191 66.3051 41.8439 65.9095 40.8934 65.9095H39.8143V68.2582H40.742C41.4581 68.2582 41.9415 68.0417 42.1922 67.6088C42.2768 67.4623 42.3191 67.2914 42.3191 67.0961ZM47.1824 68.2386C48.2501 68.2386 48.784 67.5827 48.784 66.2709V62.2035H49.7605V66.2709C49.7605 67.2312 49.518 67.9506 49.033 68.4291C48.5935 68.862 47.9767 69.0785 47.1824 69.0785C45.9552 69.0785 45.1593 68.5723 44.7947 67.5599C44.6645 67.2051 44.5994 66.7754 44.5994 66.2709V62.2035H45.576V66.2709C45.576 67.5827 46.1115 68.2386 47.1824 68.2386ZM55.1414 68.5267C54.9103 68.6895 54.6141 68.8181 54.2527 68.9125C53.8914 69.0036 53.4487 69.0492 52.9246 69.0492C52.4038 69.0492 51.8781 69.0183 51.3475 68.9564V68.0092C51.8227 68.1166 52.3012 68.1703 52.783 68.1703C53.2648 68.1703 53.6261 68.1442 53.867 68.0922C54.1079 68.0368 54.3016 67.9652 54.448 67.8773C54.7182 67.7146 54.8533 67.503 54.8533 67.2426C54.8533 67.0407 54.8012 66.8845 54.6971 66.7738C54.531 66.6013 54.2918 66.4434 53.9793 66.3002L52.7293 65.7289C52.2996 65.5271 51.9952 65.3399 51.8162 65.1674C51.4321 64.7963 51.24 64.3666 51.24 63.8783C51.24 63.377 51.4581 62.9717 51.8943 62.6625C52.3728 62.3239 53.0532 62.1547 53.9353 62.1547C54.505 62.1547 55.0258 62.1774 55.4978 62.223V63.1556C55.0975 63.0645 54.6499 63.0189 54.1551 63.0189C53.6635 63.0189 53.3055 63.045 53.0809 63.097C52.8595 63.1459 52.6853 63.2094 52.5584 63.2875C52.3273 63.4307 52.2117 63.6195 52.2117 63.8539C52.2117 64.0817 52.285 64.2705 52.4314 64.4203C52.5616 64.5472 52.7993 64.6937 53.1443 64.8597L54.4285 65.4701C54.8549 65.6719 55.1528 65.8623 55.3221 66.0414C55.4946 66.2204 55.6215 66.4011 55.7029 66.5834C55.7843 66.7624 55.825 66.9789 55.825 67.2328C55.825 67.4834 55.7697 67.7211 55.659 67.9457C55.5483 68.167 55.3758 68.3607 55.1414 68.5267Z" fill="#0056B3"/>
<path d="M38.8377 62.2035V60.2035H36.8377V62.2035H38.8377ZM42.7244 63.1752L44.518 62.2903L44.5148 62.2837L44.5115 62.2772L42.7244 63.1752ZM42.8269 64.4789L40.9474 63.7954L40.9429 63.8077L40.9385 63.8201L42.8269 64.4789ZM42.6268 64.8646L41.0054 63.6936L41.0041 63.6954L42.6268 64.8646ZM41.992 65.431L40.9724 63.7104L39.992 64.2914V65.431H41.992ZM41.992 65.4506H39.992V66.9578L41.4409 67.3731L41.992 65.4506ZM43.0711 66.1879L41.3999 67.2865L41.4007 67.2878L43.0711 66.1879ZM43.1394 67.9213L41.3855 66.9602L41.3804 66.9695L41.3754 66.9788L43.1394 67.9213ZM42.6072 68.517L43.7457 70.1614L43.7541 70.1554L42.6072 68.517ZM38.8377 69.0004H36.8377V71.0004H38.8377V69.0004ZM41.7967 64.5472L43.6267 65.3542L43.633 65.3397L43.6392 65.3252L41.7967 64.5472ZM41.8211 63.5902L39.9284 64.2365L39.9309 64.2437L39.9334 64.2509L41.8211 63.5902ZM41.6014 63.2484L40.232 64.7061L40.235 64.709L41.6014 63.2484ZM39.8143 62.9457V60.9457H37.8143V62.9457H39.8143ZM39.8143 65.1674H37.8143V67.1674H39.8143V65.1674ZM39.8143 65.9095V63.9095H37.8143V65.9095H39.8143ZM39.8143 68.2582H37.8143V70.2582H39.8143V68.2582ZM42.1922 67.6088L43.923 68.6108L43.9239 68.6093L42.1922 67.6088ZM38.8377 62.2035V64.2035H40.5516V62.2035V60.2035H38.8377V62.2035ZM40.5516 62.2035V64.2035C40.7384 64.2035 40.8765 64.2171 40.9737 64.2342C41.0708 64.2512 41.1143 64.2694 41.1206 64.2722C41.1243 64.2738 41.0922 64.2597 41.047 64.2178C40.9999 64.1743 40.962 64.1223 40.9374 64.0732L42.7244 63.1752L44.5115 62.2772C43.6811 60.6247 41.974 60.2035 40.5516 60.2035V62.2035ZM42.7244 63.1752L40.9308 64.06C40.9332 64.0648 40.9262 64.0519 40.9189 64.0222C40.9113 63.9916 40.9051 63.9507 40.9051 63.9027H42.9051H44.9051C44.9051 63.3171 44.7564 62.7736 44.518 62.2903L42.7244 63.1752ZM42.9051 63.9027H40.9051C40.9051 63.9539 40.9021 63.97 40.9037 63.9587C40.9046 63.9521 40.9072 63.9347 40.9133 63.9084C40.9194 63.8823 40.9298 63.8436 40.9474 63.7954L42.8269 64.4789L44.7065 65.1624C44.8708 64.7106 44.9051 64.2574 44.9051 63.9027H42.9051ZM42.8269 64.4789L40.9385 63.8201C40.9518 63.7821 40.9738 63.7374 41.0054 63.6936L42.6268 64.8646L44.2481 66.0356C44.449 65.7575 44.6044 65.4557 44.7153 65.1376L42.8269 64.4789ZM42.6268 64.8646L41.0041 63.6954C41.0126 63.6836 41.0185 63.6785 41.0169 63.68C41.0148 63.6818 41.002 63.6929 40.9724 63.7104L41.992 65.431L43.0116 67.1516C43.4828 66.8724 43.9102 66.5045 44.2494 66.0339L42.6268 64.8646ZM41.992 65.431H39.992V65.4506H41.992H43.992V65.431H41.992ZM41.992 65.4506L41.4409 67.3731C41.5127 67.3937 41.523 67.4072 41.4997 67.3912C41.488 67.3833 41.4709 67.3699 41.4517 67.3505C41.4323 67.3309 41.4147 67.3091 41.3999 67.2865L43.0711 66.1879L44.7423 65.0892C44.1966 64.2591 43.3917 63.7713 42.5431 63.528L41.992 65.4506ZM43.0711 66.1879L41.4007 67.2878C41.3844 67.263 41.3653 67.2256 41.3515 67.1791C41.3377 67.1329 41.3348 67.0961 41.3348 67.0765H43.3348H45.3348C45.3348 66.3677 45.1364 65.6877 44.7414 65.0879L43.0711 66.1879ZM43.3348 67.0765H41.3348C41.3348 67.1064 41.3318 67.1055 41.3373 67.0813C41.3433 67.0557 41.357 67.0122 41.3855 66.9602L43.1394 67.9213L44.8934 68.8823C45.2146 68.2962 45.3348 67.6706 45.3348 67.0765H43.3348ZM43.1394 67.9213L41.3754 66.9788C41.3861 66.9589 41.4011 66.9367 41.4197 66.9159C41.4382 66.8953 41.4536 66.8832 41.4603 66.8785L42.6072 68.517L43.7541 70.1554C44.2309 69.8217 44.6235 69.3878 44.9035 68.8637L43.1394 67.9213ZM42.6072 68.517L41.4688 66.8726C41.4418 66.8913 41.2614 67.0004 40.742 67.0004V69.0004V71.0004C41.7786 71.0004 42.8416 70.7872 43.7456 70.1614L42.6072 68.517ZM40.742 69.0004V67.0004H38.8377V69.0004V71.0004H40.742V69.0004ZM38.8377 69.0004H40.8377V62.2035H38.8377H36.8377V69.0004H38.8377ZM40.7371 65.1674V67.1674C41.2564 67.1674 41.8476 67.0648 42.4053 66.7384C42.9828 66.4005 43.3843 65.9038 43.6267 65.3542L41.7967 64.5472L39.9667 63.7403C40.0268 63.6041 40.1605 63.4175 40.3848 63.2862C40.4848 63.2277 40.5747 63.1972 40.6394 63.1819C40.6711 63.1745 40.6958 63.1708 40.7121 63.1691C40.7284 63.1674 40.7371 63.1674 40.7371 63.1674V65.1674ZM41.7967 64.5472L43.6392 65.3252C43.8173 64.9033 43.8894 64.4716 43.8894 64.059H41.8894H39.8894C39.8894 64.0044 39.8998 63.8982 39.9542 63.7693L41.7967 64.5472ZM41.8894 64.059H43.8894C43.8894 63.7197 43.8483 63.328 43.7088 62.9295L41.8211 63.5902L39.9334 64.2509C39.9083 64.1793 39.8978 64.1244 39.8933 64.0937C39.8888 64.063 39.8894 64.05 39.8894 64.059H41.8894ZM41.8211 63.5902L43.7138 62.9439C43.5645 62.5066 43.3133 62.1112 42.9677 61.7879L41.6014 63.2484L40.235 64.709C40.0913 64.5745 39.9866 64.4069 39.9284 64.2365L41.8211 63.5902ZM41.6014 63.2484L42.9707 61.7907C42.2431 61.1072 41.336 60.9457 40.6297 60.9457V62.9457V64.9457C40.6972 64.9457 40.6777 64.9543 40.6024 64.9308C40.519 64.9048 40.3763 64.8416 40.232 64.7061L41.6014 63.2484ZM40.6297 62.9457V60.9457H39.8143V62.9457V64.9457H40.6297V62.9457ZM39.8143 62.9457H37.8143V65.1674H39.8143H41.8143V62.9457H39.8143ZM39.8143 65.1674V67.1674H40.7371V65.1674V63.1674H39.8143V65.1674ZM42.3191 67.0961H44.3191C44.3191 66.2858 44.0581 65.348 43.242 64.6689C42.4963 64.0483 41.5966 63.9095 40.8934 63.9095V65.9095V67.9095C41.1406 67.9095 40.9539 67.9686 40.6834 67.7435C40.5381 67.6226 40.4332 67.4699 40.3734 67.3206C40.3459 67.252 40.3323 67.1951 40.3257 67.1564C40.3191 67.1181 40.3191 67.0966 40.3191 67.0961H42.3191ZM40.8934 65.9095V63.9095H39.8143V65.9095V67.9095H40.8934V65.9095ZM39.8143 65.9095H37.8143V68.2582H39.8143H41.8143V65.9095H39.8143ZM39.8143 68.2582V70.2582H40.742V68.2582V66.2582H39.8143V68.2582ZM40.742 68.2582V70.2582C41.8307 70.2582 43.1717 69.9086 43.923 68.6108L42.1922 67.6088L40.4613 66.6067C40.5041 66.5329 40.5627 66.4592 40.6353 66.395C40.7071 66.3315 40.7751 66.2925 40.8242 66.2705C40.9133 66.2306 40.912 66.2582 40.742 66.2582V68.2582ZM42.1922 67.6088L43.9239 68.6093C44.2099 68.1144 44.3191 67.5877 44.3191 67.0961H42.3191H40.3191C40.3191 66.9951 40.3437 66.8102 40.4605 66.6082L42.1922 67.6088ZM48.784 62.2035V60.2035H46.784V62.2035H48.784ZM49.7605 62.2035H51.7605V60.2035H49.7605V62.2035ZM49.033 68.4291L50.4366 69.8538L50.4376 69.8528L49.033 68.4291ZM44.7947 67.5599L46.6765 66.8823L46.6723 66.8709L44.7947 67.5599ZM44.5994 62.2035V60.2035H42.5994V62.2035H44.5994ZM45.576 62.2035H47.576V60.2035H45.576V62.2035ZM47.1824 68.2386V70.2386C48.1459 70.2386 49.1913 69.9226 49.9348 69.0092C50.6141 68.1746 50.784 67.1466 50.784 66.2709H48.784H46.784C46.784 66.4697 46.763 66.5735 46.7537 66.6081C46.7454 66.6384 46.7568 66.5771 46.8324 66.4842C46.9151 66.3827 47.0234 66.3065 47.1251 66.2649C47.2146 66.2282 47.2483 66.2386 47.1824 66.2386V68.2386ZM48.784 66.2709H50.784V62.2035H48.784H46.784V66.2709H48.784ZM48.784 62.2035V64.2035H49.7605V62.2035V60.2035H48.784V62.2035ZM49.7605 62.2035H47.7605V66.2709H49.7605H51.7605V62.2035H49.7605ZM49.7605 66.2709H47.7605C47.7605 66.5886 47.7197 66.7842 47.6834 66.8918C47.666 66.9436 47.6503 66.9729 47.6419 66.9868C47.6338 67 47.6293 67.0045 47.6284 67.0053L49.033 68.4291L50.4376 69.8528C51.437 68.8668 51.7605 67.544 51.7605 66.2709H49.7605ZM49.033 68.4291L47.6294 67.0043C47.6278 67.0059 47.6265 67.0071 47.6227 67.0094C47.6186 67.012 47.6054 67.0195 47.5785 67.029C47.523 67.0484 47.4009 67.0785 47.1824 67.0785V69.0785V71.0785C48.3444 71.0785 49.524 70.7529 50.4366 69.8538L49.033 68.4291ZM47.1824 69.0785V67.0785C47.0113 67.0785 46.8974 67.0607 46.8283 67.0434C46.7943 67.0349 46.7718 67.0267 46.7584 67.021C46.7451 67.0155 46.7392 67.0118 46.7384 67.0112C46.7377 67.0108 46.7389 67.0115 46.7406 67.0131C46.7423 67.0147 46.7415 67.0143 46.7381 67.0099C46.7321 67.002 46.7067 66.9665 46.6764 66.8823L44.7947 67.5599L42.913 68.2376C43.2233 69.0991 43.7682 69.8627 44.5918 70.3865C45.3939 70.8966 46.3012 71.0785 47.1824 71.0785V69.0785ZM44.7947 67.5599L46.6723 66.8709C46.6451 66.7969 46.5994 66.6143 46.5994 66.2709H44.5994H42.5994C42.5994 66.9365 42.6839 67.6133 42.9172 68.249L44.7947 67.5599ZM44.5994 66.2709H46.5994V62.2035H44.5994H42.5994V66.2709H44.5994ZM44.5994 62.2035V64.2035H45.576V62.2035V60.2035H44.5994V62.2035ZM45.576 62.2035H43.576V66.2709H45.576H47.576V62.2035H45.576ZM45.576 66.2709H43.576C43.576 67.1477 43.7467 68.1767 44.4283 69.0115C45.1732 69.924 46.2194 70.2386 47.1824 70.2386V68.2386V66.2386C47.115 66.2386 47.1473 66.228 47.2356 66.2641C47.2806 66.2824 47.3334 66.3103 47.3879 66.3504C47.4426 66.3906 47.4893 66.4359 47.5269 66.4819C47.6027 66.5747 47.6143 66.6363 47.6062 66.6066C47.5969 66.5726 47.576 66.4693 47.576 66.2709H45.576ZM55.1414 68.5267L56.293 70.162L56.2974 70.1588L55.1414 68.5267ZM54.2527 68.9125L54.7419 70.8517L54.7501 70.8497L54.7583 70.8475L54.2527 68.9125ZM51.3475 68.9564H49.3475V70.7368L51.1159 70.943L51.3475 68.9564ZM51.3475 68.0092L51.7884 66.0584L49.3475 65.5066V68.0092H51.3475ZM53.867 68.0922L54.2896 70.047L54.3022 70.0443L54.3148 70.0414L53.867 68.0922ZM54.448 67.8773L55.477 69.5923L55.4801 69.5905L54.448 67.8773ZM54.6971 66.7738L56.1535 65.4031L56.1459 65.395L56.1382 65.387L54.6971 66.7738ZM53.9793 66.3002L54.8126 64.482L54.8106 64.4811L53.9793 66.3002ZM52.7293 65.7289L51.879 67.5391L51.8885 67.5436L51.8979 67.5479L52.7293 65.7289ZM51.8162 65.1674L50.4266 66.6057L50.4284 66.6075L51.8162 65.1674ZM51.8943 62.6625L50.7392 61.0298L50.7376 61.0309L51.8943 62.6625ZM55.4978 62.223H57.4978V60.4068L55.6901 60.2323L55.4978 62.223ZM55.4978 63.1556L55.0539 65.1057L57.4978 65.6621V63.1556H55.4978ZM53.0809 63.097L53.5117 65.0501L53.5222 65.0478L53.5326 65.0454L53.0809 63.097ZM52.5584 63.2875L51.5102 61.5842L51.5049 61.5875L52.5584 63.2875ZM52.4314 64.4203L51.0018 65.8189L51.0183 65.8358L51.0352 65.8523L52.4314 64.4203ZM53.1443 64.8597L52.2772 66.662L52.2858 66.6661L53.1443 64.8597ZM54.4285 65.4701L53.57 67.2765L53.5729 67.2778L54.4285 65.4701ZM55.3221 66.0414L53.8688 67.4154L53.8753 67.4223L53.8819 67.4292L55.3221 66.0414ZM55.7029 66.5834L53.8766 67.3987L53.8822 67.411L55.7029 66.5834ZM55.659 67.9457L57.4479 68.8401L57.453 68.8297L55.659 67.9457ZM55.1414 68.5267L53.9898 66.8915C54.006 66.8801 53.9471 66.9252 53.7472 66.9774L54.2527 68.9125L54.7583 70.8475C55.281 70.711 55.8146 70.4988 56.293 70.1619L55.1414 68.5267ZM54.2527 68.9125L53.7635 66.9732C53.6122 67.0114 53.3448 67.0492 52.9246 67.0492V69.0492V71.0492C53.5525 71.0492 54.1706 70.9958 54.7419 70.8517L54.2527 68.9125ZM52.9246 69.0492V67.0492C52.4831 67.0492 52.0347 67.023 51.579 66.9699L51.3475 68.9564L51.1159 70.943C51.7214 71.0135 52.3244 71.0492 52.9246 71.0492V69.0492ZM51.3475 68.9564H53.3475V68.0092H51.3475H49.3475V68.9564H51.3475ZM51.3475 68.0092L50.9065 69.9599C51.5248 70.0997 52.1512 70.1703 52.783 70.1703V68.1703V66.1703C52.4513 66.1703 52.1206 66.1335 51.7884 66.0584L51.3475 68.0092ZM52.783 68.1703V70.1703C53.2994 70.1703 53.834 70.1455 54.2896 70.047L53.867 68.0922L53.4443 66.1373C53.4475 66.1366 53.3977 66.1468 53.2716 66.1559C53.1513 66.1646 52.9905 66.1703 52.783 66.1703V68.1703ZM53.867 68.0922L54.3148 70.0414C54.6774 69.9581 55.0894 69.8249 55.477 69.5923L54.448 67.8773L53.419 66.1623C53.4461 66.1461 53.4672 66.1355 53.4802 66.1294C53.4933 66.1232 53.5001 66.1208 53.4993 66.1211C53.4985 66.1214 53.4917 66.1238 53.478 66.1278C53.4642 66.1319 53.4449 66.137 53.4192 66.1429L53.867 68.0922ZM54.448 67.8773L55.4801 69.5905C56.2028 69.1551 56.8533 68.3614 56.8533 67.2426H54.8533H52.8533C52.8533 67.0064 52.9207 66.7484 53.0663 66.5203C53.2016 66.3083 53.3531 66.2021 53.416 66.1642L54.448 67.8773ZM54.8533 67.2426H56.8533C56.8533 66.7025 56.7087 65.9931 56.1535 65.4031L54.6971 66.7738L53.2407 68.1445C52.8937 67.7759 52.8533 67.3789 52.8533 67.2426H54.8533ZM54.6971 66.7738L56.1382 65.387C55.7403 64.9735 55.2618 64.6879 54.8126 64.482L53.9793 66.3002L53.146 68.1183C53.2269 68.1554 53.2723 68.1826 53.2916 68.1953C53.3113 68.2083 53.2931 68.1992 53.2559 68.1606L54.6971 66.7738ZM53.9793 66.3002L54.8106 64.4811L53.5606 63.9099L52.7293 65.7289L51.8979 67.5479L53.1479 68.1192L53.9793 66.3002ZM52.7293 65.7289L53.5796 63.9186C53.4119 63.8399 53.2981 63.7776 53.2264 63.7335C53.1485 63.6856 53.1558 63.6808 53.204 63.7272L51.8162 65.1674L50.4284 66.6075C50.8499 67.0137 51.3971 67.3128 51.879 67.5391L52.7293 65.7289ZM51.8162 65.1674L53.2058 63.729C53.173 63.6973 53.1886 63.7028 53.21 63.7506C53.22 63.7732 53.2283 63.7983 53.2337 63.8239C53.239 63.8493 53.24 63.8684 53.24 63.8783H51.24H49.24C49.24 64.9628 49.6929 65.8969 50.4266 66.6057L51.8162 65.1674ZM51.24 63.8783H53.24C53.24 63.9282 53.2262 64.032 53.1648 64.1461C53.1058 64.2557 53.0438 64.2992 53.051 64.294L51.8943 62.6625L50.7376 61.0309C49.8139 61.6858 49.24 62.6794 49.24 63.8783H51.24ZM51.8943 62.6625L53.0494 64.2952C53.0588 64.2886 53.2699 64.1547 53.9353 64.1547V62.1547V60.1547C52.8364 60.1547 51.6869 60.3593 50.7392 61.0298L51.8943 62.6625ZM53.9353 62.1547V64.1547C54.4531 64.1547 54.9087 64.1754 55.3056 64.2138L55.4978 62.223L55.6901 60.2323C55.143 60.1795 54.5569 60.1547 53.9353 60.1547V62.1547ZM55.4978 62.223H53.4978V63.1556H55.4978H57.4978V62.223H55.4978ZM55.4978 63.1556L55.9418 61.2055C55.3697 61.0753 54.7699 61.0189 54.1551 61.0189V63.0189V65.0189C54.5298 65.0189 54.8252 65.0537 55.0539 65.1057L55.4978 63.1556ZM54.1551 63.0189V61.0189C53.6424 61.0189 53.0903 61.0418 52.6291 61.1487L53.0809 63.097L53.5326 65.0454C53.5047 65.0518 53.5371 65.0423 53.6629 65.0332C53.7798 65.0247 53.9414 65.0189 54.1551 65.0189V63.0189ZM53.0809 63.097L52.65 61.144C52.3119 61.2186 51.8995 61.3446 51.5102 61.5842L52.5584 63.2875L53.6066 64.9908C53.5314 65.037 53.4795 65.0566 53.4691 65.0603C53.4574 65.0646 53.469 65.0595 53.5117 65.0501L53.0809 63.097ZM52.5584 63.2875L51.5049 61.5875C50.7962 62.0266 50.2117 62.806 50.2117 63.8539H52.2117H54.2117C54.2117 64.0826 54.1503 64.342 54.0042 64.5806C53.8658 64.8068 53.7024 64.9314 53.6119 64.9875L52.5584 63.2875ZM52.2117 63.8539H50.2117C50.2117 64.5542 50.4559 65.2609 51.0018 65.8189L52.4314 64.4203L53.8611 63.0217C53.9704 63.1334 54.0667 63.2765 54.1313 63.443C54.1946 63.6064 54.2117 63.7512 54.2117 63.8539H52.2117ZM52.4314 64.4203L51.0352 65.8523C51.4131 66.2207 51.9036 66.4823 52.2772 66.662L53.1443 64.8597L54.0114 63.0575C53.8802 62.9944 53.7995 62.9492 53.7568 62.9229C53.7365 62.9103 53.7332 62.9072 53.7424 62.9141C53.7504 62.92 53.7826 62.9443 53.8276 62.9883L52.4314 64.4203ZM53.1443 64.8597L52.2858 66.6661L53.57 67.2764L54.4285 65.4701L55.287 63.6637L54.0029 63.0534L53.1443 64.8597ZM54.4285 65.4701L53.5729 67.2778C53.7333 67.3537 53.8357 67.4118 53.8944 67.4493C53.9226 67.4673 53.933 67.4758 53.9303 67.4736C53.9282 67.472 53.9045 67.4532 53.8688 67.4154L55.3221 66.0414L56.7754 64.6674C56.343 64.21 55.768 63.8914 55.2841 63.6623L54.4285 65.4701ZM55.3221 66.0414L53.8819 67.4292C53.9055 67.4536 53.9128 67.4647 53.9103 67.461C53.9075 67.4571 53.8935 67.4365 53.8766 67.3987L55.7029 66.5834L57.5292 65.7681C57.3333 65.3292 57.0577 64.9602 56.7622 64.6536L55.3221 66.0414ZM55.7029 66.5834L53.8822 67.411C53.8163 67.2661 53.825 67.1846 53.825 67.2328H55.825H57.825C57.825 66.7732 57.7523 66.2587 57.5237 65.7558L55.7029 66.5834ZM55.825 67.2328H53.825C53.825 67.2096 53.8277 67.1793 53.8356 67.1454C53.8435 67.1115 53.8545 67.0829 53.865 67.0617L55.659 67.9457L57.453 68.8297C57.6993 68.3298 57.825 67.7897 57.825 67.2328H55.825ZM55.659 67.9457L53.8701 67.0513C53.8973 66.9968 53.9278 66.9551 53.9531 66.9267C53.9777 66.8992 53.9921 66.8899 53.9854 66.8947L55.1414 68.5267L56.2974 70.1588C56.7569 69.8333 57.168 69.3997 57.4478 68.8401L55.659 67.9457Z" fill="#0056B3" mask="url(#path-1-inside-1_52_134)"/>
<path d="M46.0076 215V72.0004H49.0076V215H46.0076Z" fill="#0056B3" fill-opacity="0.6" stroke="#0056B3" stroke-width="2"/>
<path d="M23.565 31.9397C23.5116 27.5023 27.0803 23.8694 31.5179 23.8437L63.0255 23.6608C67.4243 23.6352 71.0185 27.1659 71.0714 31.5644L71.4503 63.0703C71.5036 67.5077 67.9349 71.1406 63.4973 71.1663L31.9897 71.3492C27.5909 71.3747 23.9968 67.8441 23.9439 63.4456L23.565 31.9397Z" fill="#0056B3" fill-opacity="0.51"/>
<path d="M41.5076 60.5004C39.5076 60.5004 38.3797 59.0253 38.0076 56.0004H45.0076C44.5261 59.243 43.5076 60.5004 41.5076 60.5004Z" fill="#0056B3" stroke="#0056B3"/>
<path d="M53.5076 60.5004C51.5076 60.5004 50.3797 59.0253 50.0076 56.0004H57.0076C56.5261 59.243 55.5076 60.5004 53.5076 60.5004Z" fill="#0056B3" stroke="#0056B3"/>
<path d="M35.0076 51.0004V34.0004C35.0076 31.2389 37.2462 29.0004 40.0076 29.0004H55.0076C57.769 29.0004 60.0076 31.2389 60.0076 34.0004V51.0004C60.0076 53.7618 57.769 56.0004 55.0076 56.0004H40.0076C37.2462 56.0004 35.0076 53.7618 35.0076 51.0004Z" fill="white" stroke="#0056B3"/>
<rect x="37.0076" y="35.0004" width="21" height="9" fill="#0056B3"/>
<circle cx="55.5076" cy="47.5004" r="1.5" fill="#D9D9D9"/>
<circle cx="55.5076" cy="47.5004" r="1.5" fill="#0056B3"/>
<circle cx="39.5076" cy="47.5004" r="1.5" fill="#D9D9D9"/>
<circle cx="39.5076" cy="47.5004" r="1.5" fill="#0056B3"/>
<rect x="41.0076" y="32.0004" width="13" height="2" fill="#0056B3"/>
<rect x="44.0076" y="45.0004" width="7" height="2" fill="#8B9AB7"/>
</svg>
