<svg width="196" height="520" viewBox="0 0 196 520" fill="none" xmlns="http://www.w3.org/2000/svg">
<path d="M165.843 333.114C170.366 333.195 173.949 337.91 173.846 343.645L171.205 490.503C171.102 496.238 167.352 500.821 162.829 500.739L11.9162 498.025C7.39346 497.944 3.81069 493.229 3.91382 487.494L6.55475 340.637C6.65788 334.902 10.4079 330.319 14.9306 330.4L165.843 333.114Z" stroke="black" stroke-opacity="0.73" stroke-width="2"/>
<path d="M173.726 339.891C173.726 339.891 165.127 38.267 160.89 21.4799C156.652 4.69291 51.0852 -4.26666 44.3731 18.2209C37.6609 40.7085 7.4517 336.682 7.4517 336.682" stroke="black" stroke-opacity="0.73" stroke-width="2"/>
<rect x="0.980532" y="1.02011" width="139.543" height="76.6918" transform="matrix(0.999794 0.0202997 -0.0192623 0.999814 19.1062 344.935)" stroke="black" stroke-opacity="0.73" stroke-width="2"/>
<rect x="0.490266" y="0.510057" width="131.44" height="63.5977" transform="matrix(0.999794 0.0202997 -0.0192623 0.999814 23.2464 352.329)" stroke="black" stroke-opacity="0.73"/>
<ellipse cx="5.71491" cy="7.62824" rx="5.71491" ry="7.62824" transform="matrix(0.991542 -0.129783 0.0642761 0.997932 19.4565 452.911)" fill="black"/>
<path d="M25.1551 452.668C26.5286 452.489 27.858 453.068 28.8957 454.226C29.9335 455.384 30.6549 457.1 30.784 459.105C30.9132 461.11 30.4232 462.985 29.5506 464.393C28.6781 465.801 27.4449 466.716 26.0715 466.896C24.6981 467.076 23.3686 466.496 22.3309 465.338C21.2931 464.18 20.5717 462.463 20.4426 460.458C20.3135 458.454 20.8035 456.579 21.676 455.171C22.5485 453.763 23.7817 452.848 25.1551 452.668Z" stroke="black" stroke-opacity="0.73"/>
<ellipse cx="5.71491" cy="7.62824" rx="5.71491" ry="7.62824" transform="matrix(0.991542 -0.129783 0.0642761 0.997932 142.679 455.544)" fill="black"/>
<path d="M148.377 455.302C149.751 455.122 151.08 455.701 152.118 456.859C153.156 458.017 153.877 459.734 154.006 461.738C154.135 463.743 153.645 465.618 152.773 467.027C151.9 468.435 150.667 469.349 149.294 469.529C147.92 469.709 146.591 469.129 145.553 467.972C144.515 466.813 143.794 465.096 143.665 463.092C143.536 461.087 144.026 459.212 144.898 457.804C145.771 456.396 147.004 455.482 148.377 455.302Z" stroke="black" stroke-opacity="0.73"/>
<path d="M18.3777 430.538L43.6614 474.809L129.739 475.997L156.967 431.701C156.967 431.701 157.848 463.108 154.178 467.599C150.508 472.09 129.739 475.997 129.739 475.997L43.6614 474.809C43.6614 474.809 21.3914 470.31 19.3302 464.491C17.2689 458.673 18.3777 430.538 18.3777 430.538Z" fill="black" fill-opacity="0.63"/>
<path d="M43.6614 474.809L18.3777 430.538C18.3777 430.538 17.2689 458.673 19.3302 464.491C21.3914 470.31 43.6614 474.809 43.6614 474.809ZM43.6614 474.809L129.739 475.997M129.739 475.997L156.967 431.701C156.967 431.701 157.848 463.108 154.178 467.599C150.508 472.09 129.739 475.997 129.739 475.997ZM35.2453 86.4933C86.1382 73.758 114.276 74.933 165.245 89.9933" stroke="black" stroke-opacity="0.73"/>
<path d="M46.0003 460.827L127.657 462.302L125.87 466.246L124.082 470.189L50.6353 468.178L48.3178 464.502L46.0003 460.827Z" fill="black"/>
<path d="M48.3178 464.502L50.6353 468.178L124.082 470.189L125.87 466.246M48.3178 464.502L46.0003 460.827L127.657 462.302L125.87 466.246M48.3178 464.502L125.87 466.246" stroke="black" stroke-opacity="0.73"/>
<path d="M21.0309 202.236C80.3734 186.192 112.601 187.548 168.533 205.369" stroke="black" stroke-opacity="0.73"/>
<path d="M21.3215 212.594C80.6639 196.55 112.892 197.906 168.824 215.726" stroke="black" stroke-opacity="0.73"/>
<path d="M43.8904 498.382L18.5581 497.483C20.4108 513.347 19.0581 515.309 29.8179 515.457C40.5776 515.606 39.8016 513.378 43.8904 498.382Z" fill="black" stroke="black" stroke-opacity="0.73"/>
<path d="M154.669 500.508L129.337 499.61C131.189 515.474 129.837 517.435 140.596 517.584C151.356 517.732 150.58 515.505 154.669 500.508Z" fill="black" stroke="black" stroke-opacity="0.73"/>
<path d="M166.182 334.349L151.745 13.994L141.167 9.97235L127.245 7.49352L135.245 332.994L166.182 334.349Z" fill="black" fill-opacity="0.63"/>
<path d="M152.377 355.268L132.654 354.78L89.9629 417.664L112.745 418.993L152.377 355.268Z" fill="black" fill-opacity="0.63"/>
</svg>
