<svg width="151" height="237" viewBox="0 0 151 237" fill="none" xmlns="http://www.w3.org/2000/svg">
<mask id="path-1-inside-1_43_74" fill="white">
<path d="M51.2512 1.80409C47.8967 2.58768 44.1354 3.03677 43.0168 2.70276C39.9663 2.03533 31.2251 5.05481 27.2623 8.18249C23.706 11.0867 18.8331 21.1343 16.7047 30.2872C13.664 43.4584 12.9584 51.9407 12.6742 81.069C12.4826 97.5863 11.9856 113.546 11.6826 116.336L10.9747 121.582L6.3996 121.473C1.11276 121.254 -0.715896 123.153 0.405702 127.727C0.813881 129.848 2.44159 131.297 6.10295 133.192L11.1881 135.755L11.1962 147.139C11.2007 153.388 10.697 159.862 9.98658 161.648C7.44991 168.68 10.3285 213.431 13.9946 222.022C16.1331 226.93 19.3881 229.272 30.4729 233.505C38.3034 236.512 40.5404 236.957 42.7763 235.951C44.5042 235.28 47.4524 235.167 50.5028 235.723C57.0103 236.834 76.4287 236.82 82.9346 235.699C85.9842 235.139 88.8309 235.137 90.2548 235.917C94.7297 238.146 115.057 229.538 118.306 223.956C121.962 217.927 125.796 176.966 123.654 166.812C123.246 164.357 122.63 156.434 122.32 149.068L121.904 135.676L126.985 133.106C130.745 131.206 132.371 129.754 132.776 127.633C133.891 123.057 132.06 121.161 126.773 121.388C122.198 121.503 122.097 121.503 121.484 117.262C121.075 114.919 120.657 99.0716 120.442 81.9967C120.22 55.6587 119.808 48.9629 117.971 38.8084C115.113 23.4094 110.123 11.5831 104.834 7.5692C100.867 4.55877 92.3246 1.66322 90.0886 2.66922C89.3771 2.89293 85.6152 2.5608 81.7512 1.67075C72.8031 -0.220107 59.1798 -0.0987965 51.2512 1.80409ZM84.0908 3.45471C88.5649 4.56754 93.3454 7.46579 92.2277 8.47101C92.0245 8.58276 88.4658 8.13888 84.2968 7.24903C74.3321 5.3589 58.3704 5.37027 48.2051 7.38635C43.7324 8.28236 39.8696 9.06633 39.6663 9.06648C39.463 9.06662 39.8691 8.28511 40.5802 7.50339C44.5413 2.03207 68.6349 -0.105534 84.0908 3.45471ZM41.1888 5.60572C40.2746 6.7224 37.4291 8.28685 34.8879 9.06988C32.4485 9.85283 30.111 10.9705 29.8063 11.4171C29.0956 12.7569 29.6038 12.6449 33.7708 10.7447C38.9542 8.39737 39.8695 8.84313 34.9912 11.3019L30.926 13.4252L34.1791 13.0881C35.9074 12.9752 38.0419 12.3041 38.7531 11.634C42.8173 8.05981 65.4875 5.92321 79.214 7.92227C84.5012 8.69972 91.1101 9.47622 93.7535 9.58594C96.397 9.80726 98.939 10.2519 99.346 10.698C99.753 11.1441 98.8381 11.2564 97.3128 10.811C95.6859 10.4774 94.4659 10.5899 94.4663 11.1479C94.4674 12.7103 99.8598 18.2866 103.216 20.293C105.861 21.8535 106.471 22.9691 106.983 27.4329C107.903 34.5747 107.907 40.2664 106.992 40.2671C106.484 40.2674 105.161 38.3711 103.939 36.0284C99.4595 27.3266 85.9343 22.4258 66.5159 22.4396C47.0975 22.4534 33.5793 27.3736 29.1122 36.0817C27.8938 38.4262 26.5735 40.3244 26.1669 40.3247C25.1502 40.3254 25.2462 32.4016 26.157 26.486C26.7644 22.8027 27.5768 21.5745 31.3368 19.1166C35.6049 16.4351 38.5503 12.4153 35.3996 13.7568C34.5865 14.0922 32.8586 14.6514 31.4356 15.0988C29.4027 15.7699 29.1993 15.6585 30.4186 14.6532C31.6379 13.6479 31.5361 13.5364 29.8082 14.0956C27.9786 14.6549 27.6733 14.3203 28.0783 11.9764C28.7875 8.40461 30.3114 6.95269 35.6985 5.16322C42.1019 2.92662 43.322 3.03735 41.1888 5.60572ZM97.3087 5.11932C102.393 6.78974 105.446 10.024 104.126 12.3686C103.821 13.0384 104.025 13.4847 104.533 13.4843C105.143 13.4839 105.651 12.5907 105.65 11.5863C105.648 8.34984 110.023 13.8152 110.127 17.2748C110.23 18.7256 111.045 20.957 112.063 22.1839C115.929 26.8685 120.018 57.2213 119.319 75.413C119.018 81.5513 119.129 94.8318 119.645 104.764C120.059 114.808 120.166 123.29 119.76 123.625C119.252 123.848 118.846 125.411 118.746 127.085C118.645 128.759 118.23 116.818 117.812 100.524C117.185 76.5305 116.57 69.3884 114.938 62.805C113.817 58.2301 112.695 54.2133 112.289 53.8788C110.966 52.4289 108.122 55.779 105.178 62.0308C99.2899 74.646 100.416 85.2474 111.319 120.506C113.256 126.866 114.581 132.557 114.277 133.003C113.16 135.013 112.244 133.786 111.02 128.653C110.306 125.752 107.147 114.706 104.089 104.106C101.032 93.3939 98.1771 82.3473 97.87 79.4459C97.0512 71.7459 99.1794 62.2582 104.356 50.4248L109.025 39.9308L108.205 29.7756C107.794 24.1958 107.485 18.2811 107.382 16.4956C107.279 14.4868 106.871 13.5943 105.957 14.0413C105.245 14.3766 103.822 14.9357 102.908 15.2711C101.383 15.8302 101.281 15.7187 102.602 14.7133C104.33 13.3729 102.703 13.0392 100.772 14.3798C99.8575 15.0501 100.265 15.7194 102.095 16.6109C103.621 17.3911 104.536 17.502 104.129 16.8327C103.823 16.2749 103.925 15.7168 104.433 15.7164C104.941 15.7161 105.654 16.72 105.96 17.9474C106.265 19.1748 106.266 20.1792 105.961 20.1794C104.436 20.1805 97.7226 15.2748 98.1286 14.3817C98.4333 13.9351 98.0263 13.489 97.3146 13.3779C96.6029 13.3784 97.0093 12.9317 98.3305 12.3727C99.5502 11.8138 101.38 11.7009 102.295 12.0351C103.312 12.4808 103.719 12.2573 103.312 11.588C102.905 10.9186 100.565 9.80429 98.1248 9.02482C95.5826 8.24541 92.7348 6.68502 91.819 5.56964C89.6822 3.00432 90.4954 2.89213 97.3087 5.11932ZM26.656 13.4282C26.1479 13.7634 25.8436 14.768 25.9458 15.4376C26.048 16.2187 26.1505 17.3347 26.2526 18.0042C26.253 18.5622 27.0665 18.7848 27.9812 18.3378C29.0992 17.8906 29.2006 17.4441 28.3868 16.8867C27.7765 16.4407 28.6913 16.1052 30.4196 16.104C32.0463 16.1028 33.4698 16.325 33.4699 16.4366C33.4705 17.3294 27.1692 20.2356 26.4572 19.7897C25.44 19.0092 24.3275 27.2685 24.3334 35.5271C24.3368 40.326 25.0505 43.1155 27.7993 48.4705C32.89 58.7342 34.9288 66.4333 34.9357 76.0311C34.9408 83.2852 34.1302 87.0803 28.7548 105.275C25.3063 116.773 22.1627 128.047 21.7575 130.167C21.4541 132.4 20.6419 133.963 19.9301 133.74C18.3029 133.072 18.5056 132.179 24.8949 110.077C31.1826 88.0868 32.4975 78.5997 30.4577 69.5614C29.0297 62.9779 24.0414 53.7184 21.9064 53.72C19.6697 53.7215 16.8313 65.3302 16.8377 74.3699C16.7459 88.2087 17.4632 96.0203 18.9886 96.5772C19.8022 96.9115 20.5133 96.1297 20.9187 94.4554C21.628 91.1069 20.7107 87.871 19.2881 88.8765C18.6784 89.3233 18.2705 87.538 18.2681 84.1899C18.262 75.5966 22.317 59.2998 24.452 59.2982C25.367 59.2976 28.424 69.0048 28.4262 72.1296C28.4271 73.4689 27.3121 78.0454 25.8918 82.3989C21.9359 95.1243 19.0987 108.407 19.8125 111.42C20.1186 112.982 20.0176 113.875 19.4073 113.54C18.2884 112.76 17.3773 118.118 17.1807 127.604C17.0819 131.622 16.5764 135.64 16.0687 136.533C15.4593 137.426 15.3574 136.98 15.8644 135.194C16.4727 132.738 16.3709 132.627 14.8469 133.967C13.3228 135.307 12.7127 135.196 10.0679 133.077C8.23684 131.628 6.30461 130.848 5.28826 131.295C4.3735 131.631 3.86516 131.631 4.27159 131.296C4.57628 130.849 3.96532 129.511 2.94785 128.395C-0.206288 124.938 1.01268 123.486 7.21437 123.482L12.7044 123.478L12.7072 127.384C12.7094 130.509 13.1167 131.401 14.54 131.4C16.4717 131.399 16.3708 132.403 16.6585 108.186C16.6548 102.94 17.0585 98.8107 17.5671 99.1451C17.9739 99.368 18.2787 99.033 18.2783 98.475C18.2778 97.8054 17.8707 97.2476 17.2607 97.2481C16.6507 97.2485 16.1398 93.6776 16.0349 89.102C15.9301 84.7496 15.5267 89.3256 15.1273 99.4816C14.8295 109.638 14.6341 120.686 14.8398 124.034C14.9438 127.382 14.8433 128.945 14.6388 127.383C14.3327 125.82 13.7216 124.258 13.4163 123.812C13.0093 123.366 13.1045 114.326 13.5036 103.724C13.9028 93.1212 14.0964 79.5056 13.7872 73.5909C12.8606 57.2977 17.2105 26.8272 20.9689 22.1372C21.9847 21.0205 22.7966 18.8995 22.8971 17.337C22.9966 14.212 26.5514 9.29901 27.1628 11.3074C27.4684 12.0884 27.164 12.9815 26.656 13.4282ZM89.5974 26.7756C96.0041 29.0031 104.854 35.9161 103.33 37.5912C102.518 38.4846 98.3472 35.8092 96.2102 32.909C95.2942 31.5705 91.8359 29.2293 88.5816 27.8924C83.4966 25.6639 80.853 25.331 67.5347 25.3405C49.9462 25.2415 42.3224 27.0325 37.3447 32.6162C31.8589 38.535 26.4716 39.9896 31.4492 34.1828C34.5982 30.4977 41.0009 27.1451 48.9295 25.2422C58.5861 22.7801 80.6485 23.6571 89.5974 26.7756ZM86.8536 28.4516C89.701 29.454 93.0573 31.2372 94.4816 32.5754C96.5163 34.4712 96.6182 34.806 94.991 34.1375C79.5334 28.122 55.5396 27.6927 41.4117 33.0597C39.074 33.9542 36.9394 34.5137 36.7359 34.2906C35.8201 33.1753 44.2554 28.8168 49.9478 27.4735C58.3846 25.347 79.8368 25.8898 86.8536 28.4516ZM87.3652 33.0269C95.3984 35.1416 105.365 39.9334 106.078 42.165C106.384 42.946 105.573 45.625 104.253 47.858C99.6832 55.8966 97.047 65.831 97.0538 75.4288C97.0573 80.3393 97.4676 85.4727 97.8753 86.8116L98.6903 89.2663L66.462 89.4009C36.0635 89.4225 34.3352 89.4238 35.0455 87.526C35.5531 86.4096 36.0586 82.5032 36.3609 78.7085C36.8632 70.2264 34.6194 60.1838 29.9358 50.5894C28.1031 46.6846 26.7786 42.7795 26.9814 41.9981C28.0976 38.9841 42.8352 33.1703 55.3386 30.9293C60.828 30.0326 80.5523 31.2462 87.3652 33.0269ZM23.6366 56.3972C23.9423 57.2898 23.6381 58.5176 22.9269 59.1877C22.2158 59.8579 20.9977 62.5372 20.2878 65.1045C18.8679 69.9044 16.5327 74.2586 17.5462 69.9054C21.5 54.1667 22.3122 52.492 23.6366 56.3972ZM112.801 59.4585C113.413 62.1365 114.33 65.7071 114.84 67.4924C116.063 71.5092 116.063 71.5092 114.843 71.5101C114.334 71.5104 113.825 70.618 113.825 69.5019C113.824 68.3859 112.805 65.1502 111.481 62.3611C109.241 57.4522 108.934 54.774 110.764 54.7727C111.272 54.7723 112.189 56.8921 112.801 59.4585ZM110.668 62.1385C113.927 70.0599 116.381 90.4813 113.838 88.8091C112.414 87.8057 111.502 91.0428 112.216 94.502C113.236 98.9653 115.165 96.1739 115.974 89.0308L116.579 83.227L116.788 90.8158C116.894 96.0611 116.59 98.1817 115.776 97.7359C115.064 97.1784 114.862 98.6294 115.373 102.312C115.68 105.325 116.194 113.025 116.402 119.498C116.508 125.971 116.511 129.207 116.305 126.752C114.973 112.245 114.26 110.348 112.944 117.491C112.336 120.617 111.827 119.501 108.87 107.785C106.933 100.421 105.199 92.2749 104.892 89.7083C104.687 87.03 104.076 85.1332 103.669 85.4683C103.263 85.6918 103.16 84.6874 103.464 83.2364C103.667 81.6738 104.276 80.2226 104.682 79.8875C105.19 79.5523 105.292 80.445 104.887 81.7845C104.583 83.0124 104.787 83.9051 105.295 83.5699C105.803 83.1231 106.21 84.0156 106.313 85.2432C106.313 86.5824 107.64 92.7196 109.067 98.8567C110.597 104.994 111.821 111.243 111.924 112.805L111.926 115.595L112.941 112.804C114.158 109.455 113.136 101.309 111.611 102.426C110.9 102.761 110.798 102.538 111.204 101.868C112.22 99.9705 110.791 92.6057 109.47 93.4995C108.86 93.8347 108.758 93.6116 109.165 92.8301C109.571 92.1602 108.652 87.4736 107.226 82.5641C104.372 73.3032 104.267 68.2811 106.906 62.0295C108.327 58.4573 109.14 58.4567 110.668 62.1385ZM29.3451 77.5975C28.4307 78.491 28.329 78.3794 28.8362 76.8166C29.1404 75.7004 29.5458 73.9145 29.5451 72.9101C29.646 71.9056 29.9513 72.2402 30.1556 73.6909C30.4617 75.1415 30.0562 76.8158 29.3451 77.5975ZM103.356 73.9735C103.052 74.8665 102.747 74.5319 102.746 73.3043C102.643 72.0768 102.948 71.4069 103.253 71.8531C103.558 72.1877 103.661 73.1921 103.356 73.9735ZM28.438 88.6468C27.2241 97.241 20.6341 123.026 19.2119 124.589C18.7039 125.148 18.2966 124.143 18.2949 121.8C18.2932 119.456 18.5975 118.452 19.1064 119.232C20.1244 121.129 22.6546 105.056 21.7376 102.155C21.228 100.37 21.3295 100.258 22.3472 101.709C23.2632 103.047 23.4664 102.824 23.058 100.369C22.8533 98.4717 23.056 97.5788 23.6663 98.0247C24.2766 98.4707 24.4793 97.5777 24.173 95.7923C23.8668 94.1185 23.9678 93.114 24.3746 93.3369C25.4935 94.1174 26.6079 88.5365 25.7934 86.9746C25.2845 86.1938 25.5895 86.0819 26.4032 86.6394C27.4203 87.3083 27.6234 86.9733 27.2155 85.188C26.8077 83.6258 27.0106 82.9561 27.7226 83.5136C28.333 83.9595 28.5358 83.2898 28.128 81.616C27.7201 79.9423 27.8214 79.3842 28.5336 80.1649C29.2458 80.9456 29.1461 83.7358 28.438 88.6468ZM20.0035 94.1213C19.6991 94.9027 19.4953 94.3448 19.4942 92.7824C19.4931 91.22 19.696 90.6618 20.0015 91.3312C20.2054 92.1123 20.2064 93.4515 20.0035 94.1213ZM100.121 99.9791C101.548 105 104.301 115.6 106.34 123.411L110.112 137.693L107.978 139.592C103.609 143.501 94.2564 144.624 66.0947 144.644C37.9329 144.664 29.6972 143.666 25.3227 139.763L23.0847 137.867L26.3289 125.031C28.1539 117.998 30.8914 107.506 32.6155 101.59L35.5562 90.7621L66.5646 90.74L97.4714 90.718L100.121 99.9791ZM113.537 94.0546C113.233 94.836 113.029 94.2782 113.028 92.7157C113.027 91.1533 113.23 90.5952 113.535 91.2646C113.739 92.0456 113.74 93.3849 113.537 94.0546ZM102.36 102.991C102.056 103.884 101.751 103.549 101.75 102.322C101.647 101.094 101.952 100.424 102.257 100.87C102.562 101.205 102.665 102.209 102.36 102.991ZM29.3678 109.404C28.6579 111.971 27.9475 113.758 27.744 113.535C27.4389 113.312 27.8439 110.968 28.5538 108.512C29.2636 105.944 29.974 104.158 30.1775 104.381C30.4827 104.604 30.0777 106.948 29.3678 109.404ZM110.82 132.782C111.941 137.357 112.86 142.937 112.862 145.057C112.865 150.079 107.599 178.542 104.557 190.374L102.225 199.303L97.6514 200.646C91.5525 202.324 44.0742 202.581 36.3463 200.913L30.652 199.578L26.6738 181.055C21.1658 155.836 19.9404 148.248 20.6474 141.663C21.3548 135.636 26.4232 114.763 27.1355 115.544C27.3389 115.767 26.4273 120.455 24.9063 126.036C23.4869 131.617 22.3724 136.975 22.3731 137.979C22.3748 140.323 29.2904 143.554 37.1199 145.111C40.4753 145.667 50.2358 146.329 58.6743 146.547C67.2145 146.764 74.2299 147.205 74.2302 147.652C74.2306 148.21 72.7059 148.657 70.9776 148.658C68.0294 148.884 85.2124 150.657 92.8376 150.986C94.5661 151.097 95.278 151.543 94.6685 152.213C94.1606 152.771 89.1794 153.444 83.5879 153.783C74.235 154.348 73.1165 154.237 70.6749 152.007C67.6231 149.442 65.4877 148.885 66.7092 151.005C67.2182 151.897 66.9133 152.009 65.6929 151.564C64.676 151.118 61.1174 150.786 57.7624 150.788C49.4257 150.794 50.7466 149.789 59.9978 149.113C70.0624 148.436 70.3667 147.431 60.4034 147.55C52.575 147.555 44.3415 149.682 46.3758 151.02C46.8845 151.466 52.5781 151.908 58.8816 152.127C65.1852 152.345 70.5739 152.9 70.981 153.457C71.2864 154.015 70.7781 154.127 69.7612 153.793C68.8459 153.347 68.236 153.459 68.5413 153.905C68.7449 154.352 62.2382 154.356 54.1046 154.027C42.5142 153.478 37.9387 152.811 33.6674 151.029C27.8707 148.577 23.3945 144.675 23.3928 142.219C23.3922 141.438 22.9851 140.769 22.3751 140.769C18.1051 140.772 26.5499 149.918 33.2617 152.368C44.3464 156.601 80.8454 157.245 95.4827 153.44C102.598 151.649 107.984 148.52 110.218 144.948C111.945 142.156 111.74 139.924 107.662 124.415C106.031 118.166 104.705 112.587 104.807 112.14C104.907 110.801 108.474 122.74 110.82 132.782ZM114.879 122.512C114.78 125.637 114.577 126.307 113.864 124.968C113.05 123.406 113.554 118.384 114.469 118.383C114.673 118.383 114.878 120.28 114.879 122.512ZM132.164 125.067C132.165 125.736 131.251 127.188 130.235 128.305C129.117 129.533 128.61 130.873 128.915 131.319C129.322 131.765 129.017 131.765 128.305 131.319C127.593 130.873 125.459 131.544 123.528 132.885C120.48 135.008 119.666 135.12 118.242 133.893C116.818 132.555 116.716 132.667 117.328 135.121C117.94 137.465 117.838 137.576 116.922 135.903C115.599 133.672 117.325 130.211 119.358 130.991C120.07 131.325 120.476 129.874 120.474 127.419C120.472 123.624 120.675 123.401 124.538 122.84C128.706 122.168 132.163 123.169 132.164 125.067ZM19.4261 139.879C18.5132 142.892 18.719 146.24 20.3529 156.395C22.2931 168.335 28.2091 195.45 29.023 196.342C29.6335 197.012 26.078 201.032 24.858 201.033C23.4347 201.034 22.2125 197.91 23.0248 196.458C23.3293 195.788 24.1427 195.899 25.0583 196.68C25.8721 197.349 26.6857 197.795 26.9905 197.46C27.1937 197.236 25.2602 194.671 22.5131 191.771L17.6293 186.529L17.0097 173.026C15.5661 144.569 16.4719 131.622 19.5243 134.968C20.2365 135.749 20.2376 137.311 19.4261 139.879ZM116.533 161.349C116.037 178.424 115.432 185.455 114.417 187.13C113.097 189.475 104.462 198.855 104.156 198.409C104.055 198.298 105.068 193.61 106.386 188.14C107.704 182.559 110.237 170.393 111.856 160.905C114.388 146.73 114.792 143.047 113.875 140.034C112.448 135.348 113.565 132.781 115.702 135.792C116.923 137.577 117.028 141.706 116.533 161.349ZM15.3741 160.416C15.8965 180.281 15.6958 183.964 14.4765 184.969C12.4444 186.645 13.5726 200.483 16.3236 208.962C18.667 215.992 21.7192 219.003 29.6515 222.234C33.7194 223.905 35.6521 225.354 36.0599 227.028C36.3659 228.367 36.7731 229.148 37.0779 228.813C37.3826 228.478 37.3818 227.25 37.0758 225.911C36.668 224.349 34.7353 222.9 30.6674 221.228C27.5149 220.003 24.0569 218.108 22.9379 217.216C20.4963 214.986 20.9031 215.209 30.2595 219.443C36.4633 222.34 37.684 223.344 38.4995 226.468C39.1109 228.365 39.1119 229.816 38.705 229.481C38.1964 229.147 37.6884 229.482 37.4854 230.04C37.0797 231.38 28.4359 228.373 21.6215 224.583C13.9934 220.347 11.6489 211.644 10.5103 183.186C10.095 171.134 10.2945 165.777 11.2072 162.54C12.0187 159.972 12.5224 153.499 12.4162 147.138C12.3089 139.102 12.6119 136.312 13.5271 136.646C14.4423 136.869 14.9555 143.788 15.3741 160.416ZM120.488 147.172C120.493 153.087 121.108 160.452 121.923 163.354C124.268 172.392 122.057 207.771 118.505 217.037C117.794 218.711 117.998 218.934 119.014 218.264C121.859 216.253 116.274 224.962 113.225 227.308C108.856 230.547 93.8131 235.803 91.4742 235.024C89.9488 234.467 89.6432 233.686 90.2519 231.9C90.6577 230.56 91.0627 228.216 91.1632 226.654C91.1621 225.091 92.1766 222.077 93.3951 219.956C96.4413 214.597 97.1497 210.021 95.42 208.125C94.1991 206.786 92.5724 206.788 83.9317 208.245C71.2249 210.374 67.2599 210.489 68.9869 208.59C70.6123 206.803 70.5097 205.464 68.6797 205.465C67.8664 205.466 67.155 205.913 67.1555 206.583C67.1559 207.141 66.3429 207.699 65.4279 207.7C63.9029 207.701 63.8011 207.478 65.1221 206.584C66.4432 205.69 66.3414 205.467 64.918 205.468C62.783 205.47 62.5805 206.697 64.3102 208.593C66.0399 210.489 62.0748 210.381 49.4666 208.269C40.3155 206.713 39.1971 206.714 37.5717 208.389C35.8445 210.065 35.8447 210.399 37.7799 215.308C38.9003 218.209 40.3257 221.11 40.9364 222.002C41.5469 222.783 42.1584 224.792 42.2612 226.465C42.2624 228.139 42.6708 230.594 43.0784 231.822C44.3012 235.727 41.1496 235.952 31.8956 232.723C21.7264 229.159 17.6577 226.371 15.0106 221.128L12.9745 217.223L16.2308 221.35C21.1153 227.597 40.9459 235.395 40.6377 230.819C40.4312 226.467 36.7653 218.211 34.5278 216.985C33.2056 216.316 29.4425 214.31 26.2896 212.638C23.0351 210.966 19.475 208.514 18.254 207.064C15.7102 204.164 13.8728 193.786 14.8856 188.317L15.4933 185.08L17.3251 187.646C18.9536 190.1 19.0555 190.546 17.6339 192.891C16.2122 195.235 16.2126 195.793 17.7394 198.248C18.6555 199.809 19.8763 201.036 20.4863 201.036C21.2997 201.035 21.1976 200.477 20.3835 199.362C19.4677 198.246 19.4673 197.688 20.2806 197.688C20.8906 197.687 21.501 198.133 21.5014 198.803C21.6035 199.361 21.706 200.588 21.8082 201.258C21.9112 203.155 27.2996 203.263 27.9083 201.365C28.72 199.133 30.5504 199.689 30.5522 202.145C30.5535 204.042 30.0454 204.377 27.3 203.821C24.148 203.265 24.0464 203.377 25.8775 204.938C26.9965 205.83 28.7252 206.387 29.64 206.051C30.6564 205.716 31.6732 205.938 32.0803 206.496C32.4875 207.277 31.9793 207.389 30.8606 206.943C29.4369 206.386 29.6406 206.944 31.5738 209.063C32.9983 210.736 34.2191 211.851 34.3207 211.74C34.5239 211.516 33.9123 209.285 33.097 206.607C32.2818 203.929 31.6701 201.586 31.8733 201.362C32.0765 201.139 33.6017 201.473 35.2288 202.03C37.466 202.809 56.6822 204.358 66.6457 204.574C71.8308 204.682 94.9079 202.768 97.5507 201.985C99.482 201.537 101.21 201.201 101.414 201.424C101.617 201.536 101.009 203.88 100.197 206.559C99.3858 209.238 98.7774 211.471 98.9809 211.694C99.0827 211.805 100.302 210.688 101.724 209.013C103.654 206.891 103.857 206.333 102.434 206.892C101.316 207.339 100.808 207.228 101.214 206.447C101.62 205.888 102.637 205.664 103.654 205.999C104.569 206.333 106.297 205.773 107.414 204.88C109.243 203.316 109.04 203.316 105.584 203.877C102.229 204.326 101.924 204.214 102.431 202.093C103.039 199.526 104.564 199.079 105.379 201.31C106.499 204.434 113.919 201.862 115.949 197.508C116.863 195.722 116.76 194.606 115.641 192.709C114.318 190.478 114.317 189.92 115.942 187.464C117.669 185.119 117.872 185.007 118.585 186.792C119.604 189.805 117.276 204.315 115.346 206.66C112.908 209.675 106.099 213.921 101.017 215.487C96.9512 216.829 96.6466 217.387 94.6177 223.638C92.0822 232.233 92.0822 232.233 95.2339 232.231C101.436 232.227 118.001 223.063 117.998 219.492C117.998 218.934 116.982 219.604 115.864 220.945C112.207 225.3 95.6409 232.677 95.6389 229.999C95.6385 229.329 95.2316 228.995 94.7235 229.33C94.2154 229.777 94.2145 228.437 94.8231 226.428C95.6342 223.303 96.8535 222.297 103.053 219.391C112.403 215.144 112.81 214.92 110.372 217.154C109.254 218.048 105.798 219.947 102.648 221.177C98.5822 222.854 96.6516 224.306 96.246 225.869C95.942 227.208 95.9428 228.436 96.2481 228.771C96.5533 229.105 96.9594 228.324 97.2635 227.096C97.6691 225.533 99.8029 223.858 103.563 222.181C112.914 218.045 115.352 215.476 117.278 207.886C118.191 204.091 119.304 197.617 119.606 193.265C120.212 186.68 120.007 185.229 118.685 184.783C117.363 184.115 117.259 181.213 117.652 161.571C118.144 138.581 118.346 136.237 119.667 136.236C120.074 136.236 120.484 141.146 120.488 147.172ZM109.81 142.158C109.811 144.055 106.154 147.74 101.784 150.199C98.9382 151.763 97.9216 151.876 96.0908 150.761C94.7686 149.981 93.1418 149.759 92.4304 150.205C91.6175 150.876 91.4141 150.653 92.0233 149.648C92.6325 148.531 92.4291 148.308 91.1078 148.867C89.9898 149.314 89.583 149.203 90.0908 148.422C90.4969 147.64 88.3617 147.307 83.0752 147.645C78.907 147.871 75.6535 147.651 75.9581 147.092C76.1611 146.646 79.7192 146.308 83.6843 146.306C91.7159 146.188 103.101 144.06 106.251 142.049C108.893 140.373 109.808 140.372 109.81 142.158ZM22.4129 193.78C23.4305 195.119 23.2275 195.565 21.2964 196.459C18.2473 197.689 17.4336 197.132 18.0416 194.341C18.6497 191.662 20.6828 191.438 22.4129 193.78ZM115.235 194.16C115.541 195.499 114.831 197.286 113.307 198.849C111.986 200.189 110.868 200.86 110.868 200.19C110.867 199.52 111.781 198.292 113.001 197.51C115.033 195.946 115.033 195.946 112.593 195.948C111.17 195.949 110.255 196.284 110.459 196.731C111.171 197.958 109.648 200.972 108.327 200.973C105.48 200.975 105.783 198.743 109.034 195.504C112.997 191.484 114.521 191.259 115.235 194.16ZM51.5011 209.942C63.3975 211.719 78.6471 211.15 91.455 208.128C93.488 207.68 93.6914 207.791 92.4721 208.685C90.3382 210.249 75.4962 212.157 65.9395 212.164C57.0944 212.17 43.0629 210.171 40.7235 208.61C39.6046 207.83 39.9095 207.718 41.8415 208.163C43.3668 208.497 47.6373 209.275 51.5011 209.942ZM21.9172 211.525C23.9516 213.086 27.7148 215.204 30.3589 216.207C34.6302 217.989 37.0715 219.885 36.2588 220.778C36.0556 221.001 32.903 219.664 29.14 217.77C25.377 215.987 22.021 214.538 21.6145 214.762C21.2079 214.874 20.801 214.539 20.6989 213.981C20.6985 213.423 19.8845 212.531 18.9691 211.974C17.4435 211.082 16.6286 208.851 17.8486 208.85C18.0519 208.85 19.8828 210.076 21.9172 211.525ZM115.958 209.784C115.958 210.342 114.943 211.571 113.723 212.576C112.402 213.581 111.996 214.14 112.707 213.804C113.317 213.469 113.927 213.692 113.928 214.361C113.928 215.143 113.217 215.478 112.403 215.032C111.59 214.698 107.829 215.928 104.17 217.828C100.41 219.616 97.2592 220.958 97.0557 220.735C96.2417 219.842 98.6804 217.944 102.949 216.155C105.592 215.149 109.25 213.025 111.079 211.573C114.737 208.669 115.957 208.222 115.958 209.784ZM50.4861 212.175C62.7891 214.063 77.3271 213.495 91.8633 210.471C95.1162 209.799 95.6246 209.91 95.5242 211.696C95.5251 212.924 95.2203 213.259 95.0165 212.589C94.711 211.808 92.6777 211.921 88.2051 212.929C79.3616 215.167 54.3516 215.185 45.6067 213.071C41.1325 211.958 38.6924 211.737 38.6929 212.518C38.6934 213.187 38.3886 213.411 38.0833 212.965C36.8623 211.626 38.996 209.839 41.2331 210.395C42.4533 210.729 46.6222 211.508 50.4861 212.175ZM54.4535 215.631C63.1979 216.964 79.0574 216.283 87.596 214.269C93.9999 212.702 95.4241 213.817 93.1908 218.617C92.0742 220.961 90.3469 222.525 87.7041 223.308C81.6056 225.321 58.5275 225.896 49.9863 224.228C43.072 222.894 42.1567 222.448 40.426 219.213C38.0844 214.639 38.9982 212.852 43.1672 213.742C44.8958 214.187 49.9798 215.077 54.4535 215.631ZM46.1237 225.235C45.4122 225.459 44.1922 225.46 43.582 225.237C42.8701 224.903 43.3783 224.679 44.8016 224.678C46.225 224.677 46.7335 224.9 46.1237 225.235ZM89.8405 225.204C89.129 225.428 87.909 225.429 87.2988 225.206C86.5869 224.871 87.0951 224.648 88.5184 224.647C89.9418 224.646 90.4503 224.869 89.8405 225.204ZM53.7495 226.346C52.733 226.57 51.1063 226.571 50.1912 226.348C49.1743 226.014 49.9874 225.79 51.9191 225.789C53.8508 225.788 54.6643 226.01 53.7495 226.346ZM86.6895 226.211C90.2484 226.878 90.3501 226.989 89.3357 230.115C88.017 234.357 84.7642 235.029 66.6674 235.041C48.2657 235.055 45.3169 234.387 43.8903 229.812L42.7695 226.354L46.6334 227.132C54.4628 228.577 70.0182 229.124 77.8459 228.226C85.2671 227.439 85.5719 227.216 81.9114 226.549C79.3694 226.104 78.7592 225.77 80.3859 225.769C81.8091 225.656 84.5543 225.877 86.6895 226.211ZM72.5587 227.448C69.6105 227.674 64.7305 227.677 61.8837 227.456C58.9352 227.235 61.2734 227.122 67.1701 227.117C73.0668 227.113 75.4052 227.223 72.5587 227.448Z"/>
</mask>
<path d="M51.2512 1.80409C47.8967 2.58768 44.1354 3.03677 43.0168 2.70276C39.9663 2.03533 31.2251 5.05481 27.2623 8.18249C23.706 11.0867 18.8331 21.1343 16.7047 30.2872C13.664 43.4584 12.9584 51.9407 12.6742 81.069C12.4826 97.5863 11.9856 113.546 11.6826 116.336L10.9747 121.582L6.3996 121.473C1.11276 121.254 -0.715896 123.153 0.405702 127.727C0.813881 129.848 2.44159 131.297 6.10295 133.192L11.1881 135.755L11.1962 147.139C11.2007 153.388 10.697 159.862 9.98658 161.648C7.44991 168.68 10.3285 213.431 13.9946 222.022C16.1331 226.93 19.3881 229.272 30.4729 233.505C38.3034 236.512 40.5404 236.957 42.7763 235.951C44.5042 235.28 47.4524 235.167 50.5028 235.723C57.0103 236.834 76.4287 236.82 82.9346 235.699C85.9842 235.139 88.8309 235.137 90.2548 235.917C94.7297 238.146 115.057 229.538 118.306 223.956C121.962 217.927 125.796 176.966 123.654 166.812C123.246 164.357 122.63 156.434 122.32 149.068L121.904 135.676L126.985 133.106C130.745 131.206 132.371 129.754 132.776 127.633C133.891 123.057 132.06 121.161 126.773 121.388C122.198 121.503 122.097 121.503 121.484 117.262C121.075 114.919 120.657 99.0716 120.442 81.9967C120.22 55.6587 119.808 48.9629 117.971 38.8084C115.113 23.4094 110.123 11.5831 104.834 7.5692C100.867 4.55877 92.3246 1.66322 90.0886 2.66922C89.3771 2.89293 85.6152 2.5608 81.7512 1.67075C72.8031 -0.220107 59.1798 -0.0987965 51.2512 1.80409ZM84.0908 3.45471C88.5649 4.56754 93.3454 7.46579 92.2277 8.47101C92.0245 8.58276 88.4658 8.13888 84.2968 7.24903C74.3321 5.3589 58.3704 5.37027 48.2051 7.38635C43.7324 8.28236 39.8696 9.06633 39.6663 9.06648C39.463 9.06662 39.8691 8.28511 40.5802 7.50339C44.5413 2.03207 68.6349 -0.105534 84.0908 3.45471ZM41.1888 5.60572C40.2746 6.7224 37.4291 8.28685 34.8879 9.06988C32.4485 9.85283 30.111 10.9705 29.8063 11.4171C29.0956 12.7569 29.6038 12.6449 33.7708 10.7447C38.9542 8.39737 39.8695 8.84313 34.9912 11.3019L30.926 13.4252L34.1791 13.0881C35.9074 12.9752 38.0419 12.3041 38.7531 11.634C42.8173 8.05981 65.4875 5.92321 79.214 7.92227C84.5012 8.69972 91.1101 9.47622 93.7535 9.58594C96.397 9.80726 98.939 10.2519 99.346 10.698C99.753 11.1441 98.8381 11.2564 97.3128 10.811C95.6859 10.4774 94.4659 10.5899 94.4663 11.1479C94.4674 12.7103 99.8598 18.2866 103.216 20.293C105.861 21.8535 106.471 22.9691 106.983 27.4329C107.903 34.5747 107.907 40.2664 106.992 40.2671C106.484 40.2674 105.161 38.3711 103.939 36.0284C99.4595 27.3266 85.9343 22.4258 66.5159 22.4396C47.0975 22.4534 33.5793 27.3736 29.1122 36.0817C27.8938 38.4262 26.5735 40.3244 26.1669 40.3247C25.1502 40.3254 25.2462 32.4016 26.157 26.486C26.7644 22.8027 27.5768 21.5745 31.3368 19.1166C35.6049 16.4351 38.5503 12.4153 35.3996 13.7568C34.5865 14.0922 32.8586 14.6514 31.4356 15.0988C29.4027 15.7699 29.1993 15.6585 30.4186 14.6532C31.6379 13.6479 31.5361 13.5364 29.8082 14.0956C27.9786 14.6549 27.6733 14.3203 28.0783 11.9764C28.7875 8.40461 30.3114 6.95269 35.6985 5.16322C42.1019 2.92662 43.322 3.03735 41.1888 5.60572ZM97.3087 5.11932C102.393 6.78974 105.446 10.024 104.126 12.3686C103.821 13.0384 104.025 13.4847 104.533 13.4843C105.143 13.4839 105.651 12.5907 105.65 11.5863C105.648 8.34984 110.023 13.8152 110.127 17.2748C110.23 18.7256 111.045 20.957 112.063 22.1839C115.929 26.8685 120.018 57.2213 119.319 75.413C119.018 81.5513 119.129 94.8318 119.645 104.764C120.059 114.808 120.166 123.29 119.76 123.625C119.252 123.848 118.846 125.411 118.746 127.085C118.645 128.759 118.23 116.818 117.812 100.524C117.185 76.5305 116.57 69.3884 114.938 62.805C113.817 58.2301 112.695 54.2133 112.289 53.8788C110.966 52.4289 108.122 55.779 105.178 62.0308C99.2899 74.646 100.416 85.2474 111.319 120.506C113.256 126.866 114.581 132.557 114.277 133.003C113.16 135.013 112.244 133.786 111.02 128.653C110.306 125.752 107.147 114.706 104.089 104.106C101.032 93.3939 98.1771 82.3473 97.87 79.4459C97.0512 71.7459 99.1794 62.2582 104.356 50.4248L109.025 39.9308L108.205 29.7756C107.794 24.1958 107.485 18.2811 107.382 16.4956C107.279 14.4868 106.871 13.5943 105.957 14.0413C105.245 14.3766 103.822 14.9357 102.908 15.2711C101.383 15.8302 101.281 15.7187 102.602 14.7133C104.33 13.3729 102.703 13.0392 100.772 14.3798C99.8575 15.0501 100.265 15.7194 102.095 16.6109C103.621 17.3911 104.536 17.502 104.129 16.8327C103.823 16.2749 103.925 15.7168 104.433 15.7164C104.941 15.7161 105.654 16.72 105.96 17.9474C106.265 19.1748 106.266 20.1792 105.961 20.1794C104.436 20.1805 97.7226 15.2748 98.1286 14.3817C98.4333 13.9351 98.0263 13.489 97.3146 13.3779C96.6029 13.3784 97.0093 12.9317 98.3305 12.3727C99.5502 11.8138 101.38 11.7009 102.295 12.0351C103.312 12.4808 103.719 12.2573 103.312 11.588C102.905 10.9186 100.565 9.80429 98.1248 9.02482C95.5826 8.24541 92.7348 6.68502 91.819 5.56964C89.6822 3.00432 90.4954 2.89213 97.3087 5.11932ZM26.656 13.4282C26.1479 13.7634 25.8436 14.768 25.9458 15.4376C26.048 16.2187 26.1505 17.3347 26.2526 18.0042C26.253 18.5622 27.0665 18.7848 27.9812 18.3378C29.0992 17.8906 29.2006 17.4441 28.3868 16.8867C27.7765 16.4407 28.6913 16.1052 30.4196 16.104C32.0463 16.1028 33.4698 16.325 33.4699 16.4366C33.4705 17.3294 27.1692 20.2356 26.4572 19.7897C25.44 19.0092 24.3275 27.2685 24.3334 35.5271C24.3368 40.326 25.0505 43.1155 27.7993 48.4705C32.89 58.7342 34.9288 66.4333 34.9357 76.0311C34.9408 83.2852 34.1302 87.0803 28.7548 105.275C25.3063 116.773 22.1627 128.047 21.7575 130.167C21.4541 132.4 20.6419 133.963 19.9301 133.74C18.3029 133.072 18.5056 132.179 24.8949 110.077C31.1826 88.0868 32.4975 78.5997 30.4577 69.5614C29.0297 62.9779 24.0414 53.7184 21.9064 53.72C19.6697 53.7215 16.8313 65.3302 16.8377 74.3699C16.7459 88.2087 17.4632 96.0203 18.9886 96.5772C19.8022 96.9115 20.5133 96.1297 20.9187 94.4554C21.628 91.1069 20.7107 87.871 19.2881 88.8765C18.6784 89.3233 18.2705 87.538 18.2681 84.1899C18.262 75.5966 22.317 59.2998 24.452 59.2982C25.367 59.2976 28.424 69.0048 28.4262 72.1296C28.4271 73.4689 27.3121 78.0454 25.8918 82.3989C21.9359 95.1243 19.0987 108.407 19.8125 111.42C20.1186 112.982 20.0176 113.875 19.4073 113.54C18.2884 112.76 17.3773 118.118 17.1807 127.604C17.0819 131.622 16.5764 135.64 16.0687 136.533C15.4593 137.426 15.3574 136.98 15.8644 135.194C16.4727 132.738 16.3709 132.627 14.8469 133.967C13.3228 135.307 12.7127 135.196 10.0679 133.077C8.23684 131.628 6.30461 130.848 5.28826 131.295C4.3735 131.631 3.86516 131.631 4.27159 131.296C4.57628 130.849 3.96532 129.511 2.94785 128.395C-0.206288 124.938 1.01268 123.486 7.21437 123.482L12.7044 123.478L12.7072 127.384C12.7094 130.509 13.1167 131.401 14.54 131.4C16.4717 131.399 16.3708 132.403 16.6585 108.186C16.6548 102.94 17.0585 98.8107 17.5671 99.1451C17.9739 99.368 18.2787 99.033 18.2783 98.475C18.2778 97.8054 17.8707 97.2476 17.2607 97.2481C16.6507 97.2485 16.1398 93.6776 16.0349 89.102C15.9301 84.7496 15.5267 89.3256 15.1273 99.4816C14.8295 109.638 14.6341 120.686 14.8398 124.034C14.9438 127.382 14.8433 128.945 14.6388 127.383C14.3327 125.82 13.7216 124.258 13.4163 123.812C13.0093 123.366 13.1045 114.326 13.5036 103.724C13.9028 93.1212 14.0964 79.5056 13.7872 73.5909C12.8606 57.2977 17.2105 26.8272 20.9689 22.1372C21.9847 21.0205 22.7966 18.8995 22.8971 17.337C22.9966 14.212 26.5514 9.29901 27.1628 11.3074C27.4684 12.0884 27.164 12.9815 26.656 13.4282ZM89.5974 26.7756C96.0041 29.0031 104.854 35.9161 103.33 37.5912C102.518 38.4846 98.3472 35.8092 96.2102 32.909C95.2942 31.5705 91.8359 29.2293 88.5816 27.8924C83.4966 25.6639 80.853 25.331 67.5347 25.3405C49.9462 25.2415 42.3224 27.0325 37.3447 32.6162C31.8589 38.535 26.4716 39.9896 31.4492 34.1828C34.5982 30.4977 41.0009 27.1451 48.9295 25.2422C58.5861 22.7801 80.6485 23.6571 89.5974 26.7756ZM86.8536 28.4516C89.701 29.454 93.0573 31.2372 94.4816 32.5754C96.5163 34.4712 96.6182 34.806 94.991 34.1375C79.5334 28.122 55.5396 27.6927 41.4117 33.0597C39.074 33.9542 36.9394 34.5137 36.7359 34.2906C35.8201 33.1753 44.2554 28.8168 49.9478 27.4735C58.3846 25.347 79.8368 25.8898 86.8536 28.4516ZM87.3652 33.0269C95.3984 35.1416 105.365 39.9334 106.078 42.165C106.384 42.946 105.573 45.625 104.253 47.858C99.6832 55.8966 97.047 65.831 97.0538 75.4288C97.0573 80.3393 97.4676 85.4727 97.8753 86.8116L98.6903 89.2663L66.462 89.4009C36.0635 89.4225 34.3352 89.4238 35.0455 87.526C35.5531 86.4096 36.0586 82.5032 36.3609 78.7085C36.8632 70.2264 34.6194 60.1838 29.9358 50.5894C28.1031 46.6846 26.7786 42.7795 26.9814 41.9981C28.0976 38.9841 42.8352 33.1703 55.3386 30.9293C60.828 30.0326 80.5523 31.2462 87.3652 33.0269ZM23.6366 56.3972C23.9423 57.2898 23.6381 58.5176 22.9269 59.1877C22.2158 59.8579 20.9977 62.5372 20.2878 65.1045C18.8679 69.9044 16.5327 74.2586 17.5462 69.9054C21.5 54.1667 22.3122 52.492 23.6366 56.3972ZM112.801 59.4585C113.413 62.1365 114.33 65.7071 114.84 67.4924C116.063 71.5092 116.063 71.5092 114.843 71.5101C114.334 71.5104 113.825 70.618 113.825 69.5019C113.824 68.3859 112.805 65.1502 111.481 62.3611C109.241 57.4522 108.934 54.774 110.764 54.7727C111.272 54.7723 112.189 56.8921 112.801 59.4585ZM110.668 62.1385C113.927 70.0599 116.381 90.4813 113.838 88.8091C112.414 87.8057 111.502 91.0428 112.216 94.502C113.236 98.9653 115.165 96.1739 115.974 89.0308L116.579 83.227L116.788 90.8158C116.894 96.0611 116.59 98.1817 115.776 97.7359C115.064 97.1784 114.862 98.6294 115.373 102.312C115.68 105.325 116.194 113.025 116.402 119.498C116.508 125.971 116.511 129.207 116.305 126.752C114.973 112.245 114.26 110.348 112.944 117.491C112.336 120.617 111.827 119.501 108.87 107.785C106.933 100.421 105.199 92.2749 104.892 89.7083C104.687 87.03 104.076 85.1332 103.669 85.4683C103.263 85.6918 103.16 84.6874 103.464 83.2364C103.667 81.6738 104.276 80.2226 104.682 79.8875C105.19 79.5523 105.292 80.445 104.887 81.7845C104.583 83.0124 104.787 83.9051 105.295 83.5699C105.803 83.1231 106.21 84.0156 106.313 85.2432C106.313 86.5824 107.64 92.7196 109.067 98.8567C110.597 104.994 111.821 111.243 111.924 112.805L111.926 115.595L112.941 112.804C114.158 109.455 113.136 101.309 111.611 102.426C110.9 102.761 110.798 102.538 111.204 101.868C112.22 99.9705 110.791 92.6057 109.47 93.4995C108.86 93.8347 108.758 93.6116 109.165 92.8301C109.571 92.1602 108.652 87.4736 107.226 82.5641C104.372 73.3032 104.267 68.2811 106.906 62.0295C108.327 58.4573 109.14 58.4567 110.668 62.1385ZM29.3451 77.5975C28.4307 78.491 28.329 78.3794 28.8362 76.8166C29.1404 75.7004 29.5458 73.9145 29.5451 72.9101C29.646 71.9056 29.9513 72.2402 30.1556 73.6909C30.4617 75.1415 30.0562 76.8158 29.3451 77.5975ZM103.356 73.9735C103.052 74.8665 102.747 74.5319 102.746 73.3043C102.643 72.0768 102.948 71.4069 103.253 71.8531C103.558 72.1877 103.661 73.1921 103.356 73.9735ZM28.438 88.6468C27.2241 97.241 20.6341 123.026 19.2119 124.589C18.7039 125.148 18.2966 124.143 18.2949 121.8C18.2932 119.456 18.5975 118.452 19.1064 119.232C20.1244 121.129 22.6546 105.056 21.7376 102.155C21.228 100.37 21.3295 100.258 22.3472 101.709C23.2632 103.047 23.4664 102.824 23.058 100.369C22.8533 98.4717 23.056 97.5788 23.6663 98.0247C24.2766 98.4707 24.4793 97.5777 24.173 95.7923C23.8668 94.1185 23.9678 93.114 24.3746 93.3369C25.4935 94.1174 26.6079 88.5365 25.7934 86.9746C25.2845 86.1938 25.5895 86.0819 26.4032 86.6394C27.4203 87.3083 27.6234 86.9733 27.2155 85.188C26.8077 83.6258 27.0106 82.9561 27.7226 83.5136C28.333 83.9595 28.5358 83.2898 28.128 81.616C27.7201 79.9423 27.8214 79.3842 28.5336 80.1649C29.2458 80.9456 29.1461 83.7358 28.438 88.6468ZM20.0035 94.1213C19.6991 94.9027 19.4953 94.3448 19.4942 92.7824C19.4931 91.22 19.696 90.6618 20.0015 91.3312C20.2054 92.1123 20.2064 93.4515 20.0035 94.1213ZM100.121 99.9791C101.548 105 104.301 115.6 106.34 123.411L110.112 137.693L107.978 139.592C103.609 143.501 94.2564 144.624 66.0947 144.644C37.9329 144.664 29.6972 143.666 25.3227 139.763L23.0847 137.867L26.3289 125.031C28.1539 117.998 30.8914 107.506 32.6155 101.59L35.5562 90.7621L66.5646 90.74L97.4714 90.718L100.121 99.9791ZM113.537 94.0546C113.233 94.836 113.029 94.2782 113.028 92.7157C113.027 91.1533 113.23 90.5952 113.535 91.2646C113.739 92.0456 113.74 93.3849 113.537 94.0546ZM102.36 102.991C102.056 103.884 101.751 103.549 101.75 102.322C101.647 101.094 101.952 100.424 102.257 100.87C102.562 101.205 102.665 102.209 102.36 102.991ZM29.3678 109.404C28.6579 111.971 27.9475 113.758 27.744 113.535C27.4389 113.312 27.8439 110.968 28.5538 108.512C29.2636 105.944 29.974 104.158 30.1775 104.381C30.4827 104.604 30.0777 106.948 29.3678 109.404ZM110.82 132.782C111.941 137.357 112.86 142.937 112.862 145.057C112.865 150.079 107.599 178.542 104.557 190.374L102.225 199.303L97.6514 200.646C91.5525 202.324 44.0742 202.581 36.3463 200.913L30.652 199.578L26.6738 181.055C21.1658 155.836 19.9404 148.248 20.6474 141.663C21.3548 135.636 26.4232 114.763 27.1355 115.544C27.3389 115.767 26.4273 120.455 24.9063 126.036C23.4869 131.617 22.3724 136.975 22.3731 137.979C22.3748 140.323 29.2904 143.554 37.1199 145.111C40.4753 145.667 50.2358 146.329 58.6743 146.547C67.2145 146.764 74.2299 147.205 74.2302 147.652C74.2306 148.21 72.7059 148.657 70.9776 148.658C68.0294 148.884 85.2124 150.657 92.8376 150.986C94.5661 151.097 95.278 151.543 94.6685 152.213C94.1606 152.771 89.1794 153.444 83.5879 153.783C74.235 154.348 73.1165 154.237 70.6749 152.007C67.6231 149.442 65.4877 148.885 66.7092 151.005C67.2182 151.897 66.9133 152.009 65.6929 151.564C64.676 151.118 61.1174 150.786 57.7624 150.788C49.4257 150.794 50.7466 149.789 59.9978 149.113C70.0624 148.436 70.3667 147.431 60.4034 147.55C52.575 147.555 44.3415 149.682 46.3758 151.02C46.8845 151.466 52.5781 151.908 58.8816 152.127C65.1852 152.345 70.5739 152.9 70.981 153.457C71.2864 154.015 70.7781 154.127 69.7612 153.793C68.8459 153.347 68.236 153.459 68.5413 153.905C68.7449 154.352 62.2382 154.356 54.1046 154.027C42.5142 153.478 37.9387 152.811 33.6674 151.029C27.8707 148.577 23.3945 144.675 23.3928 142.219C23.3922 141.438 22.9851 140.769 22.3751 140.769C18.1051 140.772 26.5499 149.918 33.2617 152.368C44.3464 156.601 80.8454 157.245 95.4827 153.44C102.598 151.649 107.984 148.52 110.218 144.948C111.945 142.156 111.74 139.924 107.662 124.415C106.031 118.166 104.705 112.587 104.807 112.14C104.907 110.801 108.474 122.74 110.82 132.782ZM114.879 122.512C114.78 125.637 114.577 126.307 113.864 124.968C113.05 123.406 113.554 118.384 114.469 118.383C114.673 118.383 114.878 120.28 114.879 122.512ZM132.164 125.067C132.165 125.736 131.251 127.188 130.235 128.305C129.117 129.533 128.61 130.873 128.915 131.319C129.322 131.765 129.017 131.765 128.305 131.319C127.593 130.873 125.459 131.544 123.528 132.885C120.48 135.008 119.666 135.12 118.242 133.893C116.818 132.555 116.716 132.667 117.328 135.121C117.94 137.465 117.838 137.576 116.922 135.903C115.599 133.672 117.325 130.211 119.358 130.991C120.07 131.325 120.476 129.874 120.474 127.419C120.472 123.624 120.675 123.401 124.538 122.84C128.706 122.168 132.163 123.169 132.164 125.067ZM19.4261 139.879C18.5132 142.892 18.719 146.24 20.3529 156.395C22.2931 168.335 28.2091 195.45 29.023 196.342C29.6335 197.012 26.078 201.032 24.858 201.033C23.4347 201.034 22.2125 197.91 23.0248 196.458C23.3293 195.788 24.1427 195.899 25.0583 196.68C25.8721 197.349 26.6857 197.795 26.9905 197.46C27.1937 197.236 25.2602 194.671 22.5131 191.771L17.6293 186.529L17.0097 173.026C15.5661 144.569 16.4719 131.622 19.5243 134.968C20.2365 135.749 20.2376 137.311 19.4261 139.879ZM116.533 161.349C116.037 178.424 115.432 185.455 114.417 187.13C113.097 189.475 104.462 198.855 104.156 198.409C104.055 198.298 105.068 193.61 106.386 188.14C107.704 182.559 110.237 170.393 111.856 160.905C114.388 146.73 114.792 143.047 113.875 140.034C112.448 135.348 113.565 132.781 115.702 135.792C116.923 137.577 117.028 141.706 116.533 161.349ZM15.3741 160.416C15.8965 180.281 15.6958 183.964 14.4765 184.969C12.4444 186.645 13.5726 200.483 16.3236 208.962C18.667 215.992 21.7192 219.003 29.6515 222.234C33.7194 223.905 35.6521 225.354 36.0599 227.028C36.3659 228.367 36.7731 229.148 37.0779 228.813C37.3826 228.478 37.3818 227.25 37.0758 225.911C36.668 224.349 34.7353 222.9 30.6674 221.228C27.5149 220.003 24.0569 218.108 22.9379 217.216C20.4963 214.986 20.9031 215.209 30.2595 219.443C36.4633 222.34 37.684 223.344 38.4995 226.468C39.1109 228.365 39.1119 229.816 38.705 229.481C38.1964 229.147 37.6884 229.482 37.4854 230.04C37.0797 231.38 28.4359 228.373 21.6215 224.583C13.9934 220.347 11.6489 211.644 10.5103 183.186C10.095 171.134 10.2945 165.777 11.2072 162.54C12.0187 159.972 12.5224 153.499 12.4162 147.138C12.3089 139.102 12.6119 136.312 13.5271 136.646C14.4423 136.869 14.9555 143.788 15.3741 160.416ZM120.488 147.172C120.493 153.087 121.108 160.452 121.923 163.354C124.268 172.392 122.057 207.771 118.505 217.037C117.794 218.711 117.998 218.934 119.014 218.264C121.859 216.253 116.274 224.962 113.225 227.308C108.856 230.547 93.8131 235.803 91.4742 235.024C89.9488 234.467 89.6432 233.686 90.2519 231.9C90.6577 230.56 91.0627 228.216 91.1632 226.654C91.1621 225.091 92.1766 222.077 93.3951 219.956C96.4413 214.597 97.1497 210.021 95.42 208.125C94.1991 206.786 92.5724 206.788 83.9317 208.245C71.2249 210.374 67.2599 210.489 68.9869 208.59C70.6123 206.803 70.5097 205.464 68.6797 205.465C67.8664 205.466 67.155 205.913 67.1555 206.583C67.1559 207.141 66.3429 207.699 65.4279 207.7C63.9029 207.701 63.8011 207.478 65.1221 206.584C66.4432 205.69 66.3414 205.467 64.918 205.468C62.783 205.47 62.5805 206.697 64.3102 208.593C66.0399 210.489 62.0748 210.381 49.4666 208.269C40.3155 206.713 39.1971 206.714 37.5717 208.389C35.8445 210.065 35.8447 210.399 37.7799 215.308C38.9003 218.209 40.3257 221.11 40.9364 222.002C41.5469 222.783 42.1584 224.792 42.2612 226.465C42.2624 228.139 42.6708 230.594 43.0784 231.822C44.3012 235.727 41.1496 235.952 31.8956 232.723C21.7264 229.159 17.6577 226.371 15.0106 221.128L12.9745 217.223L16.2308 221.35C21.1153 227.597 40.9459 235.395 40.6377 230.819C40.4312 226.467 36.7653 218.211 34.5278 216.985C33.2056 216.316 29.4425 214.31 26.2896 212.638C23.0351 210.966 19.475 208.514 18.254 207.064C15.7102 204.164 13.8728 193.786 14.8856 188.317L15.4933 185.08L17.3251 187.646C18.9536 190.1 19.0555 190.546 17.6339 192.891C16.2122 195.235 16.2126 195.793 17.7394 198.248C18.6555 199.809 19.8763 201.036 20.4863 201.036C21.2997 201.035 21.1976 200.477 20.3835 199.362C19.4677 198.246 19.4673 197.688 20.2806 197.688C20.8906 197.687 21.501 198.133 21.5014 198.803C21.6035 199.361 21.706 200.588 21.8082 201.258C21.9112 203.155 27.2996 203.263 27.9083 201.365C28.72 199.133 30.5504 199.689 30.5522 202.145C30.5535 204.042 30.0454 204.377 27.3 203.821C24.148 203.265 24.0464 203.377 25.8775 204.938C26.9965 205.83 28.7252 206.387 29.64 206.051C30.6564 205.716 31.6732 205.938 32.0803 206.496C32.4875 207.277 31.9793 207.389 30.8606 206.943C29.4369 206.386 29.6406 206.944 31.5738 209.063C32.9983 210.736 34.2191 211.851 34.3207 211.74C34.5239 211.516 33.9123 209.285 33.097 206.607C32.2818 203.929 31.6701 201.586 31.8733 201.362C32.0765 201.139 33.6017 201.473 35.2288 202.03C37.466 202.809 56.6822 204.358 66.6457 204.574C71.8308 204.682 94.9079 202.768 97.5507 201.985C99.482 201.537 101.21 201.201 101.414 201.424C101.617 201.536 101.009 203.88 100.197 206.559C99.3858 209.238 98.7774 211.471 98.9809 211.694C99.0827 211.805 100.302 210.688 101.724 209.013C103.654 206.891 103.857 206.333 102.434 206.892C101.316 207.339 100.808 207.228 101.214 206.447C101.62 205.888 102.637 205.664 103.654 205.999C104.569 206.333 106.297 205.773 107.414 204.88C109.243 203.316 109.04 203.316 105.584 203.877C102.229 204.326 101.924 204.214 102.431 202.093C103.039 199.526 104.564 199.079 105.379 201.31C106.499 204.434 113.919 201.862 115.949 197.508C116.863 195.722 116.76 194.606 115.641 192.709C114.318 190.478 114.317 189.92 115.942 187.464C117.669 185.119 117.872 185.007 118.585 186.792C119.604 189.805 117.276 204.315 115.346 206.66C112.908 209.675 106.099 213.921 101.017 215.487C96.9512 216.829 96.6466 217.387 94.6177 223.638C92.0822 232.233 92.0822 232.233 95.2339 232.231C101.436 232.227 118.001 223.063 117.998 219.492C117.998 218.934 116.982 219.604 115.864 220.945C112.207 225.3 95.6409 232.677 95.6389 229.999C95.6385 229.329 95.2316 228.995 94.7235 229.33C94.2154 229.777 94.2145 228.437 94.8231 226.428C95.6342 223.303 96.8535 222.297 103.053 219.391C112.403 215.144 112.81 214.92 110.372 217.154C109.254 218.048 105.798 219.947 102.648 221.177C98.5822 222.854 96.6516 224.306 96.246 225.869C95.942 227.208 95.9428 228.436 96.2481 228.771C96.5533 229.105 96.9594 228.324 97.2635 227.096C97.6691 225.533 99.8029 223.858 103.563 222.181C112.914 218.045 115.352 215.476 117.278 207.886C118.191 204.091 119.304 197.617 119.606 193.265C120.212 186.68 120.007 185.229 118.685 184.783C117.363 184.115 117.259 181.213 117.652 161.571C118.144 138.581 118.346 136.237 119.667 136.236C120.074 136.236 120.484 141.146 120.488 147.172ZM109.81 142.158C109.811 144.055 106.154 147.74 101.784 150.199C98.9382 151.763 97.9216 151.876 96.0908 150.761C94.7686 149.981 93.1418 149.759 92.4304 150.205C91.6175 150.876 91.4141 150.653 92.0233 149.648C92.6325 148.531 92.4291 148.308 91.1078 148.867C89.9898 149.314 89.583 149.203 90.0908 148.422C90.4969 147.64 88.3617 147.307 83.0752 147.645C78.907 147.871 75.6535 147.651 75.9581 147.092C76.1611 146.646 79.7192 146.308 83.6843 146.306C91.7159 146.188 103.101 144.06 106.251 142.049C108.893 140.373 109.808 140.372 109.81 142.158ZM22.4129 193.78C23.4305 195.119 23.2275 195.565 21.2964 196.459C18.2473 197.689 17.4336 197.132 18.0416 194.341C18.6497 191.662 20.6828 191.438 22.4129 193.78ZM115.235 194.16C115.541 195.499 114.831 197.286 113.307 198.849C111.986 200.189 110.868 200.86 110.868 200.19C110.867 199.52 111.781 198.292 113.001 197.51C115.033 195.946 115.033 195.946 112.593 195.948C111.17 195.949 110.255 196.284 110.459 196.731C111.171 197.958 109.648 200.972 108.327 200.973C105.48 200.975 105.783 198.743 109.034 195.504C112.997 191.484 114.521 191.259 115.235 194.16ZM51.5011 209.942C63.3975 211.719 78.6471 211.15 91.455 208.128C93.488 207.68 93.6914 207.791 92.4721 208.685C90.3382 210.249 75.4962 212.157 65.9395 212.164C57.0944 212.17 43.0629 210.171 40.7235 208.61C39.6046 207.83 39.9095 207.718 41.8415 208.163C43.3668 208.497 47.6373 209.275 51.5011 209.942ZM21.9172 211.525C23.9516 213.086 27.7148 215.204 30.3589 216.207C34.6302 217.989 37.0715 219.885 36.2588 220.778C36.0556 221.001 32.903 219.664 29.14 217.77C25.377 215.987 22.021 214.538 21.6145 214.762C21.2079 214.874 20.801 214.539 20.6989 213.981C20.6985 213.423 19.8845 212.531 18.9691 211.974C17.4435 211.082 16.6286 208.851 17.8486 208.85C18.0519 208.85 19.8828 210.076 21.9172 211.525ZM115.958 209.784C115.958 210.342 114.943 211.571 113.723 212.576C112.402 213.581 111.996 214.14 112.707 213.804C113.317 213.469 113.927 213.692 113.928 214.361C113.928 215.143 113.217 215.478 112.403 215.032C111.59 214.698 107.829 215.928 104.17 217.828C100.41 219.616 97.2592 220.958 97.0557 220.735C96.2417 219.842 98.6804 217.944 102.949 216.155C105.592 215.149 109.25 213.025 111.079 211.573C114.737 208.669 115.957 208.222 115.958 209.784ZM50.4861 212.175C62.7891 214.063 77.3271 213.495 91.8633 210.471C95.1162 209.799 95.6246 209.91 95.5242 211.696C95.5251 212.924 95.2203 213.259 95.0165 212.589C94.711 211.808 92.6777 211.921 88.2051 212.929C79.3616 215.167 54.3516 215.185 45.6067 213.071C41.1325 211.958 38.6924 211.737 38.6929 212.518C38.6934 213.187 38.3886 213.411 38.0833 212.965C36.8623 211.626 38.996 209.839 41.2331 210.395C42.4533 210.729 46.6222 211.508 50.4861 212.175ZM54.4535 215.631C63.1979 216.964 79.0574 216.283 87.596 214.269C93.9999 212.702 95.4241 213.817 93.1908 218.617C92.0742 220.961 90.3469 222.525 87.7041 223.308C81.6056 225.321 58.5275 225.896 49.9863 224.228C43.072 222.894 42.1567 222.448 40.426 219.213C38.0844 214.639 38.9982 212.852 43.1672 213.742C44.8958 214.187 49.9798 215.077 54.4535 215.631ZM46.1237 225.235C45.4122 225.459 44.1922 225.46 43.582 225.237C42.8701 224.903 43.3783 224.679 44.8016 224.678C46.225 224.677 46.7335 224.9 46.1237 225.235ZM89.8405 225.204C89.129 225.428 87.909 225.429 87.2988 225.206C86.5869 224.871 87.0951 224.648 88.5184 224.647C89.9418 224.646 90.4503 224.869 89.8405 225.204ZM53.7495 226.346C52.733 226.57 51.1063 226.571 50.1912 226.348C49.1743 226.014 49.9874 225.79 51.9191 225.789C53.8508 225.788 54.6643 226.01 53.7495 226.346ZM86.6895 226.211C90.2484 226.878 90.3501 226.989 89.3357 230.115C88.017 234.357 84.7642 235.029 66.6674 235.041C48.2657 235.055 45.3169 234.387 43.8903 229.812L42.7695 226.354L46.6334 227.132C54.4628 228.577 70.0182 229.124 77.8459 228.226C85.2671 227.439 85.5719 227.216 81.9114 226.549C79.3694 226.104 78.7592 225.77 80.3859 225.769C81.8091 225.656 84.5543 225.877 86.6895 226.211ZM72.5587 227.448C69.6105 227.674 64.7305 227.677 61.8837 227.456C58.9352 227.235 61.2734 227.122 67.1701 227.117C73.0668 227.113 75.4052 227.223 72.5587 227.448Z" fill="black" fill-opacity="0.63" stroke="black" stroke-opacity="0.63" stroke-width="6" mask="url(#path-1-inside-1_43_74)"/>
<mask id="path-2-inside-2_43_74" fill="white">
<path d="M108.093 16.1601C108.196 17.0529 108.603 18.1686 108.908 18.6148C109.315 18.9493 109.417 18.5028 109.314 17.4985C109.212 16.6058 108.804 15.49 108.499 15.0438C108.092 14.7093 107.991 15.1558 108.093 16.1601Z"/>
</mask>
<path d="M108.093 16.1601C108.196 17.0529 108.603 18.1686 108.908 18.6148C109.315 18.9493 109.417 18.5028 109.314 17.4985C109.212 16.6058 108.804 15.49 108.499 15.0438C108.092 14.7093 107.991 15.1558 108.093 16.1601Z" fill="black" fill-opacity="0.63"/>
<path d="M108.093 16.1601L105.113 16.5017L105.111 16.483L105.109 16.4644L108.093 16.1601ZM108.908 18.6148L107.003 20.9322L106.674 20.6612L106.433 20.309L108.908 18.6148ZM109.314 17.4985L112.295 17.1569L112.297 17.1756L112.299 17.1943L109.314 17.4985ZM108.499 15.0438L110.404 12.7264L110.734 12.9974L110.975 13.3497L108.499 15.0438ZM108.093 16.1601L111.074 15.8186C111.094 15.9934 111.159 16.2786 111.263 16.5831C111.312 16.7259 111.359 16.8425 111.396 16.9231C111.44 17.0208 111.442 17.0047 111.384 16.9206L108.908 18.6148L106.433 20.309C106.054 19.7564 105.772 19.0692 105.586 18.5268C105.385 17.9386 105.195 17.2196 105.113 16.5017L108.093 16.1601ZM108.908 18.6148L110.814 16.2974C110.732 16.2302 110.535 16.0783 110.232 15.9479C109.925 15.8162 109.373 15.6493 108.68 15.7611C107.047 16.0245 106.532 17.3769 106.449 17.6326C106.338 17.9736 106.351 18.1984 106.351 18.119C106.352 18.0911 106.349 17.9934 106.33 17.8027L109.314 17.4985L112.299 17.1943C112.331 17.5058 112.354 17.8405 112.351 18.1683C112.349 18.4447 112.33 18.9485 112.156 19.4848C112.009 19.9359 111.399 21.4 109.636 21.6844C108.204 21.9154 107.215 21.1063 107.003 20.9322L108.908 18.6148ZM109.314 17.4985L106.334 17.84C106.314 17.6652 106.249 17.38 106.145 17.0755C106.096 16.9328 106.048 16.8162 106.012 16.7356C105.967 16.6378 105.966 16.6539 106.023 16.738L108.499 15.0438L110.975 13.3497C111.353 13.9022 111.635 14.5894 111.821 15.1319C112.022 15.72 112.212 16.439 112.295 17.1569L109.314 17.4985ZM108.499 15.0438L106.594 17.3612C106.676 17.4284 106.873 17.5803 107.176 17.7107C107.482 17.8425 108.035 18.0094 108.728 17.8976C110.36 17.6341 110.876 16.2817 110.959 16.026C111.069 15.6851 111.057 15.4602 111.056 15.5396C111.056 15.5676 111.058 15.6652 111.078 15.8559L108.093 16.1601L105.109 16.4644C105.077 16.1529 105.054 15.8181 105.056 15.4903C105.059 15.214 105.078 14.7101 105.252 14.1738C105.398 13.7227 106.009 12.2587 107.772 11.9742C109.203 11.7432 110.193 12.5523 110.404 12.7264L108.499 15.0438Z" fill="black" fill-opacity="0.63" mask="url(#path-2-inside-2_43_74)"/>
<path d="M111.472 49.3037C112.184 50.0844 112.998 50.4186 113.303 50.0836C113.607 49.7486 113.098 49.0793 112.082 48.7452C110.658 48.0766 110.556 48.1883 111.472 49.3037Z" fill="black" fill-opacity="0.63"/>
<path d="M111.998 49.3749C112.103 49.2624 112.18 49.1462 112.237 49.031C112.223 49.0452 112.207 49.0586 112.193 49.074C112.115 49.1601 112.049 49.2624 111.998 49.3749Z" stroke="black" stroke-opacity="0.63" stroke-width="3"/>
<mask id="path-6-inside-3_43_74" fill="white">
<path d="M24.2423 12.881C23.7354 14.8902 23.6353 17.1223 24.1433 16.6755C24.8543 15.7822 25.3604 12.657 24.7504 12.6574C24.5471 12.6576 24.3439 12.7693 24.2423 12.881Z"/>
</mask>
<path d="M24.2423 12.881C23.7354 14.8902 23.6353 17.1223 24.1433 16.6755C24.8543 15.7822 25.3604 12.657 24.7504 12.6574C24.5471 12.6576 24.3439 12.7693 24.2423 12.881Z" fill="black" fill-opacity="0.63"/>
<path d="M24.2423 12.881L21.3334 12.1471L21.5173 11.4183L22.0231 10.8623L24.2423 12.881ZM24.1433 16.6755L26.4906 18.5438L26.3246 18.7523L26.1245 18.9283L24.1433 16.6755ZM24.2423 12.881L27.1511 13.6149C26.9411 14.4475 26.8272 15.2932 26.8106 15.7983C26.7992 16.1431 26.8442 16.0121 26.7431 15.6799C26.7089 15.5676 26.6292 15.3352 26.4589 15.0647C26.2926 14.8008 25.9418 14.3461 25.3108 14.0341C23.7049 13.2399 22.4267 14.1901 22.1621 14.4228L24.1433 16.6755L26.1245 18.9283C25.7329 19.2727 24.3467 20.2509 22.651 19.4123C21.4039 18.7955 21.063 17.6237 21.0032 17.4274C20.7938 16.7396 20.8003 16.0088 20.8138 15.6002C20.8469 14.5987 21.0366 13.3237 21.3334 12.1471L24.2423 12.881ZM24.1433 16.6755L21.7961 14.8073C21.6364 15.0078 21.6684 15.0544 21.7746 14.7321C21.8563 14.4841 21.9311 14.1706 21.978 13.8694C22.0303 13.5339 22.0212 13.3862 22.0246 13.4245C22.0267 13.4475 22.0336 13.516 22.0565 13.6164C22.0775 13.709 22.1268 13.8956 22.2401 14.1244C22.3499 14.3462 22.5771 14.7233 23.0082 15.0592C23.4839 15.4299 24.0945 15.6579 24.7526 15.6574L24.7504 12.6574L24.7483 9.65744C26.4243 9.65624 27.3093 10.8403 27.6172 11.4622C27.9046 12.0427 27.9753 12.6028 28.0012 12.8944C28.059 13.5465 27.9934 14.2359 27.9065 14.7933C27.8143 15.385 27.6674 16.0202 27.4733 16.6095C27.3037 17.1244 27.0057 17.8966 26.4906 18.5438L24.1433 16.6755ZM24.7504 12.6574L24.7526 15.6574C25.1822 15.6571 25.5169 15.5449 25.7372 15.4411C25.9487 15.3414 26.2091 15.1772 26.4614 14.8997L24.2423 12.881L22.0231 10.8623C22.6209 10.2051 23.5997 9.65826 24.7483 9.65744L24.7504 12.6574Z" fill="black" fill-opacity="0.63" mask="url(#path-6-inside-3_43_74)"/>
<path d="M53.8172 35.9525C45.1764 37.1863 37.8583 39.87 33.6924 43.3326C30.441 46.0134 30.2376 46.0135 28.9146 44.1172C28.1004 42.8902 27.3885 42.5559 27.389 43.3371C27.3895 44.0067 27.8986 45.0108 28.4071 45.3452C30.6449 46.906 35.8394 60.183 38.1849 70.2255C39.5108 76.1395 41.1411 81.272 41.8531 81.7179C43.5823 82.9443 89.5358 82.9116 91.2633 81.6827C91.9746 81.2358 93.6992 75.9893 95.0168 70.185C96.3342 64.2692 97.855 58.3532 98.5658 57.125C99.378 55.4504 99.3766 53.5532 98.5611 50.5405C97.4395 45.9656 95.9131 43.9579 90.9293 40.9482C88.2847 39.276 88.183 39.1645 90.4201 39.8325C94.2843 40.9458 100.387 44.8475 101.1 46.7442C101.406 47.6368 101.102 49.0879 100.492 49.9811C99.7813 50.7629 99.477 51.7675 99.7822 52.1021C100.087 52.4367 101.408 50.7617 102.728 48.4171C105.571 43.2814 106.383 41.1604 104.25 44.0635C102.828 45.9618 102.625 45.9619 99.3693 43.2858C91.0277 36.3724 72.0138 33.3727 53.8172 35.9525ZM84.319 38.2744C86.2507 38.3847 87.2676 38.6071 86.4545 38.9425C85.438 39.2781 85.7435 39.9475 87.4726 40.9506C89.6085 42.1767 86.5586 42.4021 66.7336 42.5279C51.4836 42.5387 43.7566 42.2094 44.1627 41.4279C45.1781 39.53 43.1452 40.201 39.4871 42.8821C37.4548 44.3343 35.525 47.0142 34.9166 49.2466C33.8008 52.8187 33.6992 52.9304 32.5793 50.6991C31.9683 49.3604 31.7637 47.5749 32.068 46.5702C32.9811 43.8911 42.5345 39.197 45.585 39.8645C47.7203 40.3094 47.9236 40.1976 46.7029 39.3057C45.4822 38.3021 45.6854 38.0788 47.7191 38.6353C49.1427 38.9691 51.6842 38.7441 53.3105 38.1849C55.8514 37.1787 64.6965 37.284 84.319 38.2744ZM47.2147 44.2158C48.9432 44.4378 59.6181 44.207 71.1062 43.7524L91.9473 42.8447L94.7963 46.0791C96.8313 48.4213 97.5443 50.318 97.5467 53.6661C97.5484 56.1213 97.1432 58.1305 96.6349 58.1308C96.1265 58.1312 95.4166 60.5869 95.0122 63.7121C94.6076 66.7256 93.898 69.6278 93.3899 69.963C92.4753 70.5216 92.6775 68.8475 94.5018 60.9224C94.9072 59.0249 94.8037 56.4581 94.396 55.0076C93.581 52.7761 92.8692 52.5534 85.4475 52.5587C75.6875 52.5657 75.078 53.2357 76.2034 63.1675C76.7149 67.6312 76.5133 70.0866 75.802 70.6451C74.1762 71.8739 72.952 65.9599 74.1693 62.1645C75.488 57.9227 74.5722 56.8073 73.1518 60.9376C72.543 62.7237 72.3426 66.7415 72.752 70.6473L73.4683 77.1197L66.5549 77.1246L59.6416 77.1295L60.3486 70.6561C60.7525 66.7498 60.5463 62.7322 59.9351 60.947C58.5089 56.9304 57.6961 57.8238 58.7159 62.1755C59.8373 66.4156 58.8244 71.7732 57.197 70.6584C56.2816 70.101 56.1784 67.9806 56.785 63.1813C58.0996 53.2478 57.3874 52.5787 47.6274 52.5857C40.2057 52.5909 39.4942 52.8147 38.6824 55.0473C37.9723 57.2798 38.5861 62.5247 40.2171 68.6616C40.6248 70.0006 40.4217 70.4471 39.7098 70.0012C39.0994 69.5552 38.3858 66.7657 37.977 63.7527C37.5681 60.6282 36.9563 58.1734 36.448 58.1737C35.9396 58.1741 35.5315 56.1655 35.5299 53.8219C35.5261 48.5766 39.7915 41.989 42.5373 43.1031C43.4526 43.5489 45.5879 43.9937 47.2147 44.2158ZM55.8654 56.8207L55.8676 59.8339L48.0392 59.8395C40.1092 59.8451 38.6853 59.0649 40.0043 55.3811C40.4101 54.1532 42.4432 53.7054 48.2382 53.7012L55.8632 53.6958L55.8654 56.8207ZM93.2788 56.6824C93.5856 59.1374 93.3823 59.2492 85.4523 59.2548C77.3189 59.2606 77.2173 59.2607 77.2153 56.4706C77.2132 53.569 77.2132 53.569 85.1435 53.8981C92.3621 54.2278 92.9722 54.4506 93.2788 56.6824ZM92.4705 63.7139C92.4739 68.5128 91.4578 69.2947 84.8494 69.2994C78.1394 69.3042 77.2239 68.6353 77.2202 63.39C77.2185 61.0463 77.6251 60.9344 84.8437 61.2641C91.4523 61.5942 92.4692 61.9283 92.4705 63.7139ZM55.8697 62.8472C55.8703 63.6284 55.5665 65.4142 55.2626 66.8653C54.6543 69.2094 54.1461 69.4329 47.9441 69.1025C41.2339 68.7725 41.2339 68.7725 40.5196 65.0902L39.907 61.5193L47.8371 61.5137C53.6321 61.5095 55.8691 61.9544 55.8697 62.8472ZM92.6806 73.1999C92.073 76.5484 90.65 77.1075 82.0083 77.1136C74.18 77.1192 74.0783 77.1193 74.7881 74.5519C75.8022 70.8683 77.0219 70.421 85.3587 70.6383C92.374 70.9681 92.9842 71.1909 92.6806 73.1999ZM58.1146 74.3406C58.6249 77.1303 58.6249 77.1303 50.6949 77.1359C44.8999 77.1401 42.3579 76.6955 41.2386 75.357C38.288 72.2343 39.5075 71.5638 48.6576 71.5573C57.5026 71.551 57.706 71.6624 58.1146 74.3406ZM92.4806 77.8874C92.4807 77.999 91.7696 78.8923 90.8553 79.7858C89.5347 81.3491 85.7732 81.575 66.0498 81.5891C44.903 81.6041 42.6662 81.3825 41.7499 79.5975C40.9353 77.8125 42.3586 77.6999 66.657 77.6826C80.8904 77.6724 92.4805 77.7758 92.4806 77.8874Z" fill="black" fill-opacity="0.63"/>
<path d="M92.9018 61.194C92.9468 60.9972 92.991 60.796 93.0381 60.5914C93.0619 60.4786 93.0825 60.3627 93.1023 60.2447C93.0443 60.2671 92.987 60.291 92.9295 60.3102C92.5832 60.4259 92.1843 60.5067 91.7382 60.566C92.1517 60.7114 92.5529 60.9095 92.9018 61.194ZM41.8409 70.3623C42.2169 70.3068 42.614 70.262 43.0273 70.2267C42.6346 70.1593 42.2616 70.0714 41.9139 69.9511C41.9025 70.0831 41.8805 70.2217 41.8409 70.3623ZM55.1699 70.1955C55.1473 70.1194 55.1264 70.0419 55.1072 69.9632C54.9994 70.0358 54.8872 70.1029 54.7695 70.1636C54.9064 70.1732 55.0398 70.1838 55.1699 70.1955Z" stroke="black" stroke-opacity="0.63" stroke-width="3"/>
<mask id="path-10-inside-4_43_74" fill="white">
<path d="M47.5017 161.51C46.689 162.403 47.8094 165.304 48.9277 165.303C49.436 165.303 49.842 164.298 49.8411 163.07C49.8396 160.95 48.7207 160.169 47.5017 161.51Z"/>
</mask>
<path d="M47.5017 161.51C46.689 162.403 47.8094 165.304 48.9277 165.303C49.436 165.303 49.842 164.298 49.8411 163.07C49.8396 160.95 48.7207 160.169 47.5017 161.51Z" fill="black" fill-opacity="0.63"/>
<path d="M47.5017 161.51L45.2825 159.491L47.5017 161.51ZM47.5017 161.51L49.7208 163.528C50.0093 163.211 50.1293 162.897 50.178 162.719C50.2261 162.542 50.224 162.431 50.2237 162.417C50.2234 162.401 50.2297 162.504 50.2945 162.675C50.3611 162.85 50.4177 162.908 50.3784 162.863C50.3553 162.836 50.2515 162.721 50.0463 162.599C49.835 162.473 49.4485 162.303 48.9256 162.303L48.9277 165.303L48.9299 168.303C47.3569 168.304 46.3206 167.338 45.8592 166.81C45.3207 166.193 44.9383 165.47 44.6866 164.808C44.4331 164.142 44.2418 163.353 44.225 162.541C44.2101 161.819 44.326 160.542 45.2825 159.491L47.5017 161.51ZM48.9277 165.303L48.9256 162.303C47.989 162.304 47.3806 162.78 47.127 163.043C46.8829 163.295 46.8017 163.504 46.7972 163.515C46.7822 163.551 46.8414 163.396 46.8411 163.072L49.8411 163.07L52.8411 163.068C52.8418 163.972 52.6983 164.933 52.3535 165.779C52.1841 166.195 51.9062 166.731 51.4431 167.211C50.9703 167.7 50.1205 168.302 48.9299 168.303L48.9277 165.303ZM49.8411 163.07L46.8411 163.072C46.8409 162.787 46.8008 162.695 46.8186 162.745C46.8289 162.774 46.9639 163.15 47.4462 163.476C48.0233 163.867 48.7094 163.922 49.2362 163.765C49.6603 163.639 49.8047 163.436 49.7208 163.528L47.5017 161.51L45.2825 159.491C45.8082 158.913 46.5496 158.305 47.5264 158.014C48.6059 157.693 49.8003 157.825 50.8097 158.508C51.7244 159.127 52.2155 160.012 52.4741 160.741C52.7403 161.493 52.8406 162.294 52.8411 163.068L49.8411 163.07Z" fill="black" fill-opacity="0.63" mask="url(#path-10-inside-4_43_74)"/>
<mask id="path-12-inside-5_43_74" fill="white">
<path d="M83.3912 163.046C83.3921 164.274 83.7995 165.278 84.3078 165.278C85.4261 165.277 86.5424 162.374 85.7284 161.482C84.5075 160.144 83.3897 160.926 83.3912 163.046Z"/>
</mask>
<path d="M83.3912 163.046C83.3921 164.274 83.7995 165.278 84.3078 165.278C85.4261 165.277 86.5424 162.374 85.7284 161.482C84.5075 160.144 83.3897 160.926 83.3912 163.046Z" fill="black" fill-opacity="0.63"/>
<path d="M83.3912 163.046L86.3912 163.044C86.3914 163.368 86.4508 163.523 86.4357 163.486C86.4312 163.475 86.3497 163.267 86.1053 163.015C85.8513 162.752 85.2422 162.277 84.3057 162.278L84.3078 165.278L84.3099 168.278C83.1192 168.279 82.2686 167.678 81.7952 167.189C81.3314 166.71 81.0527 166.174 80.8827 165.759C80.5366 164.913 80.3918 163.953 80.3912 163.048L83.3912 163.046ZM84.3078 165.278L84.3057 162.278C83.7827 162.278 83.3965 162.449 83.1853 162.575C82.9803 162.698 82.8767 162.813 82.8536 162.84C82.8144 162.885 82.8709 162.827 82.9372 162.652C83.0019 162.481 83.008 162.377 83.0077 162.394C83.0074 162.408 83.0054 162.519 83.0538 162.695C83.1027 162.873 83.2232 163.187 83.5121 163.504L85.7284 161.482L87.9447 159.46C88.9027 160.51 89.0205 161.787 89.0066 162.509C88.9909 163.321 88.8007 164.11 88.5482 164.777C88.2974 165.439 87.916 166.163 87.3784 166.78C86.9178 167.309 85.8828 168.277 84.3099 168.278L84.3078 165.278ZM85.7284 161.482L83.5121 163.504C83.4282 163.412 83.5728 163.615 83.9971 163.741C84.5241 163.896 85.2101 163.841 85.7867 163.449C86.2685 163.122 86.403 162.746 86.4132 162.717C86.431 162.667 86.391 162.758 86.3912 163.044L83.3912 163.046L80.3912 163.048C80.3906 162.274 80.4898 161.473 80.7549 160.721C81.0124 159.991 81.5024 159.106 82.4161 158.485C83.4245 157.801 84.6188 157.668 85.6987 157.987C86.676 158.276 87.4182 158.883 87.9447 159.46L85.7284 161.482Z" fill="black" fill-opacity="0.63" mask="url(#path-12-inside-5_43_74)"/>
<mask id="path-14-inside-6_43_74" fill="white">
<path d="M44.7598 165.975C44.7612 167.873 50.4718 192.086 51.7961 195.88C54.3428 202.909 53.5257 197.553 50.3653 185.39C48.4286 178.361 46.8988 171.554 46.7962 170.326C46.7946 167.983 44.7583 163.855 44.7598 165.975Z"/>
</mask>
<path d="M44.7598 165.975C44.7612 167.873 50.4718 192.086 51.7961 195.88C54.3428 202.909 53.5257 197.553 50.3653 185.39C48.4286 178.361 46.8988 171.554 46.7962 170.326C46.7946 167.983 44.7583 163.855 44.7598 165.975Z" fill="black" fill-opacity="0.63"/>
<path d="M51.7961 195.88L48.9756 196.902L48.9696 196.885L48.9638 196.869L51.7961 195.88ZM50.3653 185.39L53.2576 184.593L53.2634 184.615L53.2689 184.636L50.3653 185.39ZM46.7962 170.326L43.8067 170.576L43.7963 170.453L43.7963 170.329L46.7962 170.326ZM44.7598 165.975L47.7598 165.973C47.7597 165.87 47.7787 166.142 47.9573 167.099C48.1091 167.912 48.3312 168.999 48.607 170.286C49.1576 172.856 49.908 176.158 50.7019 179.529C52.313 186.369 54.0312 193.18 54.6285 194.891L51.7961 195.88L48.9638 196.869C48.2367 194.786 46.4374 187.594 44.8618 180.904C44.0623 177.51 43.3021 174.166 42.7401 171.543C42.4597 170.234 42.2251 169.089 42.0592 168.2C41.92 167.455 41.7602 166.555 41.7598 165.978L44.7598 165.975ZM51.7961 195.88L54.6167 194.858C54.926 195.711 55.1698 196.337 55.3532 196.765C55.5865 197.31 55.6143 197.272 55.4529 197.066C55.402 197.001 55.2076 196.755 54.8647 196.521C54.5556 196.309 53.5991 195.76 52.3492 196.143C51.1301 196.517 50.647 197.473 50.5145 197.782C50.359 198.144 50.324 198.439 50.315 198.519C50.2866 198.769 50.3266 198.789 50.2506 198.253C49.9972 196.467 49.0477 192.248 47.4618 186.145L50.3653 185.39L53.2689 184.636C54.8433 190.695 55.8825 195.235 56.1911 197.41C56.2557 197.865 56.347 198.575 56.2768 199.195C56.2573 199.367 56.206 199.734 56.0284 200.148C55.8736 200.508 55.3626 201.495 54.1094 201.879C52.8255 202.273 51.8291 201.714 51.474 201.471C51.0852 201.204 50.8388 200.906 50.7299 200.767C50.3364 200.265 50.0349 199.587 49.8377 199.127C49.5907 198.55 49.303 197.805 48.9756 196.902L51.7961 195.88ZM50.3653 185.39L47.4731 186.187C46.4936 182.632 45.6172 179.134 44.9713 176.364C44.355 173.72 43.8805 171.46 43.8067 170.576L46.7962 170.326L49.7858 170.077C49.7851 170.068 49.7877 170.1 49.8007 170.189C49.8128 170.272 49.8305 170.382 49.8549 170.522C49.9037 170.801 49.9735 171.165 50.0641 171.609C50.2451 172.495 50.5 173.652 50.8146 175.001C51.4435 177.699 52.3004 181.119 53.2576 184.593L50.3653 185.39ZM46.7962 170.326L43.7963 170.329C43.7959 169.783 43.4824 168.629 43.0726 167.776C42.9841 167.592 42.9237 167.492 42.9042 167.462C42.8253 167.344 42.9902 167.649 43.4288 167.938C43.6583 168.089 44.3091 168.464 45.235 168.375C46.3203 168.27 47.0228 167.615 47.3625 167.092C47.6497 166.65 47.721 166.261 47.7384 166.161C47.7626 166.022 47.7598 165.946 47.7598 165.973L44.7598 165.975L41.7598 165.978C41.7596 165.74 41.7726 165.448 41.8264 165.137C41.8734 164.866 41.9884 164.351 42.3311 163.823C42.7263 163.215 43.4963 162.515 44.6591 162.403C45.6624 162.306 46.4006 162.711 46.7255 162.925C47.3547 163.338 47.7423 163.902 47.9019 164.142C48.1209 164.472 48.315 164.832 48.481 165.178C49.0894 166.445 49.795 168.526 49.7962 170.324L46.7962 170.326Z" fill="black" fill-opacity="0.63" mask="url(#path-14-inside-6_43_74)"/>
<mask id="path-16-inside-7_43_74" fill="white">
<path d="M86.5477 169.74C85.9396 172.531 84.115 180.009 82.4929 186.483C79.6543 197.757 79.0477 202.556 81.3812 195.859C83.4105 190.165 88.5792 167.172 88.1716 165.944C87.8661 165.275 87.2573 166.949 86.5477 169.74Z"/>
</mask>
<path d="M86.5477 169.74C85.9396 172.531 84.115 180.009 82.4929 186.483C79.6543 197.757 79.0477 202.556 81.3812 195.859C83.4105 190.165 88.5792 167.172 88.1716 165.944C87.8661 165.275 87.2573 166.949 86.5477 169.74Z" fill="black" fill-opacity="0.63"/>
<path d="M86.5477 169.74L83.6164 169.101L83.6274 169.051L83.6402 169.001L86.5477 169.74ZM82.4929 186.483L85.403 187.212L85.4021 187.216L82.4929 186.483ZM81.3812 195.859L78.5483 194.872L78.5518 194.861L78.5554 194.851L81.3812 195.859ZM88.1716 165.944L90.9009 164.699L90.9679 164.846L91.0188 164.999L88.1716 165.944ZM86.5477 169.74L89.4789 170.379C88.8592 173.223 87.0226 180.748 85.403 187.212L82.4929 186.483L79.5828 185.754C81.2073 179.27 83.0201 171.838 83.6164 169.101L86.5477 169.74ZM82.4929 186.483L85.4021 187.216C83.9767 192.877 83.1642 196.716 82.9757 198.271C82.9133 198.786 82.9779 198.631 82.9078 198.256C82.8869 198.145 82.8063 197.728 82.5084 197.267C82.1537 196.717 81.3297 195.917 80.0196 195.923C78.9784 195.928 78.3185 196.465 78.1467 196.611C77.9108 196.813 77.7751 196.998 77.7351 197.054C77.6188 197.216 77.66 197.205 77.8693 196.697C78.0405 196.282 78.2657 195.683 78.5483 194.872L81.3812 195.859L84.2142 196.846C83.9134 197.709 83.647 198.425 83.4159 198.985C83.2228 199.453 82.9507 200.078 82.6075 200.555C82.5108 200.69 82.3237 200.935 82.0418 201.175C81.824 201.361 81.1235 201.918 80.047 201.923C78.7016 201.929 77.8475 201.109 77.4681 200.522C77.1454 200.022 77.0453 199.548 77.0102 199.36C76.8831 198.681 76.9743 197.92 77.0193 197.549C77.2604 195.561 78.1704 191.364 79.5837 185.751L82.4929 186.483ZM81.3812 195.859L78.5554 194.851C79.4987 192.205 81.261 185.215 82.7641 178.565C83.5071 175.278 84.1704 172.147 84.6206 169.776C84.8467 168.585 85.0128 167.619 85.1092 166.932C85.1581 166.583 85.1826 166.352 85.1916 166.219C85.1962 166.15 85.1935 166.152 85.1948 166.202C85.1955 166.227 85.1979 166.294 85.2095 166.387C85.2194 166.467 85.2462 166.654 85.3245 166.89L88.1716 165.944L91.0188 164.999C91.1774 165.477 91.1891 165.905 91.1927 166.043C91.1982 166.251 91.1894 166.453 91.178 166.622C91.1551 166.963 91.1083 167.357 91.051 167.766C90.9348 168.593 90.7481 169.669 90.5153 170.895C90.0476 173.358 89.3683 176.562 88.6164 179.888C87.1297 186.466 85.2931 193.819 84.2071 196.866L81.3812 195.859ZM88.1716 165.944L85.4424 167.19C85.4924 167.3 85.9531 168.342 87.2576 168.696C88.7488 169.101 89.7568 168.228 89.9641 168.029C90.1167 167.883 90.2118 167.755 90.2562 167.692C90.3045 167.624 90.3312 167.576 90.3384 167.563C90.3505 167.541 90.3328 167.57 90.2887 167.678C90.0948 168.154 89.8075 169.094 89.4551 170.479L86.5477 169.74L83.6402 169.001C83.9975 167.596 84.3694 166.304 84.7337 165.411C84.8291 165.177 84.9448 164.919 85.083 164.668C85.1991 164.457 85.4324 164.061 85.8135 163.696C86.1319 163.391 87.2432 162.475 88.8289 162.906C90.228 163.285 90.7745 164.422 90.9009 164.699L88.1716 165.944Z" fill="black" fill-opacity="0.63" mask="url(#path-16-inside-7_43_74)"/>
<mask id="path-18-inside-8_43_74" fill="white">
<path d="M57.9975 195.317C57.9979 195.987 58.4052 196.768 59.0154 197.102C59.6256 197.437 59.727 196.99 59.4214 196.098C58.7083 194.089 57.9963 193.755 57.9975 195.317Z"/>
</mask>
<path d="M57.9975 195.317C57.9979 195.987 58.4052 196.768 59.0154 197.102C59.6256 197.437 59.727 196.99 59.4214 196.098C58.7083 194.089 57.9963 193.755 57.9975 195.317Z" fill="black" fill-opacity="0.63"/>
<path d="M59.4214 196.098L62.2484 195.094L62.2541 195.11L62.2596 195.126L59.4214 196.098ZM57.9975 195.317L60.9975 195.315C60.9973 195.076 60.9359 194.943 60.9004 194.879C60.8655 194.816 60.7496 194.632 60.457 194.471L59.0154 197.102L57.5738 199.733C55.8914 198.811 54.9986 196.95 54.9975 195.319L57.9975 195.317ZM59.0154 197.102L60.457 194.471C60.4466 194.466 59.9105 194.146 59.0896 194.226C58.6037 194.273 58.0495 194.461 57.5622 194.87C57.0922 195.265 56.8496 195.728 56.7299 196.07C56.5223 196.664 56.6041 197.111 56.6049 197.116C56.6167 197.196 56.624 197.189 56.5831 197.069L59.4214 196.098L62.2596 195.126C62.3715 195.453 62.4808 195.836 62.5405 196.24C62.5891 196.569 62.6648 197.275 62.3938 198.05C62.2424 198.483 61.9537 199.017 61.4231 199.463C60.875 199.924 60.2453 200.142 59.6689 200.198C58.667 200.295 57.8893 199.906 57.5738 199.733L59.0154 197.102ZM59.4214 196.098L56.5943 197.101C56.4539 196.706 56.3463 196.489 56.2996 196.408C56.2762 196.368 56.2962 196.411 56.3695 196.497C56.4215 196.558 56.6419 196.813 57.0537 197.028C57.5126 197.268 58.3793 197.526 59.3613 197.138C60.26 196.783 60.6674 196.112 60.8077 195.829C61.0543 195.331 60.9972 195.01 60.9975 195.315L57.9975 195.317L54.9975 195.319C54.9971 194.843 55.0286 193.979 55.4306 193.167C55.6487 192.726 56.1506 191.955 57.1576 191.558C58.248 191.127 59.237 191.4 59.8294 191.709C60.7811 192.205 61.2964 193.063 61.4962 193.409C61.7834 193.907 62.0323 194.485 62.2484 195.094L59.4214 196.098Z" fill="black" fill-opacity="0.63" mask="url(#path-18-inside-8_43_74)"/>
<mask id="path-20-inside-9_43_74" fill="white">
<path d="M116.35 189.138C116.046 190.031 116.25 191.705 116.861 192.82C117.777 194.494 117.879 194.27 117.978 191.145C117.975 187.351 117.263 186.459 116.35 189.138Z"/>
</mask>
<path d="M116.35 189.138C116.046 190.031 116.25 191.705 116.861 192.82C117.777 194.494 117.879 194.27 117.978 191.145C117.975 187.351 117.263 186.459 116.35 189.138Z" fill="black" fill-opacity="0.63"/>
<path d="M117.978 191.145L120.978 191.143L120.978 191.192L120.976 191.241L117.978 191.145ZM116.35 189.138L119.189 190.105C119.231 189.985 119.217 189.961 119.212 190.074C119.208 190.172 119.212 190.318 119.236 190.498C119.288 190.886 119.401 191.213 119.492 191.379L116.861 192.82L114.229 194.261C113.71 193.312 113.416 192.244 113.289 191.293C113.168 190.394 113.148 189.231 113.51 188.17L116.35 189.138ZM116.861 192.82L119.492 191.379C119.75 191.85 119.788 191.873 119.699 191.767C119.659 191.72 119.553 191.599 119.382 191.462C119.226 191.336 118.876 191.085 118.349 190.947C117.746 190.789 117.017 190.814 116.327 191.157C115.707 191.466 115.362 191.91 115.201 192.161C115.037 192.417 114.959 192.634 114.929 192.725C114.895 192.828 114.881 192.897 114.879 192.908C114.876 192.926 114.887 192.872 114.902 192.7C114.931 192.36 114.954 191.839 114.979 191.05L117.978 191.145L120.976 191.241C120.952 192.014 120.925 192.693 120.879 193.221C120.856 193.483 120.823 193.781 120.766 194.071C120.725 194.277 120.609 194.844 120.25 195.403C120.051 195.713 119.665 196.198 119 196.529C118.265 196.895 117.488 196.923 116.833 196.752C115.805 196.484 115.225 195.768 115.117 195.64C114.748 195.204 114.43 194.627 114.229 194.261L116.861 192.82ZM117.978 191.145L114.978 191.147C114.977 190.275 114.935 189.66 114.88 189.274C114.853 189.08 114.83 189.003 114.832 189.009C114.834 189.014 114.851 189.07 114.891 189.157C114.929 189.238 115.014 189.404 115.171 189.598C115.501 190.007 116.368 190.746 117.673 190.567C118.7 190.426 119.225 189.791 119.292 189.71C119.477 189.488 119.404 189.475 119.189 190.105L116.35 189.138L113.51 188.17C113.752 187.461 114.11 186.554 114.686 185.865C114.949 185.55 115.658 184.787 116.858 184.623C118.336 184.42 119.364 185.24 119.84 185.83C120.267 186.359 120.47 186.926 120.573 187.263C120.69 187.65 120.767 188.052 120.821 188.434C120.93 189.199 120.977 190.118 120.978 191.143L117.978 191.145Z" fill="black" fill-opacity="0.63" mask="url(#path-20-inside-9_43_74)"/>
<mask id="path-22-inside-10_43_74" fill="white">
<path d="M16.0048 189.432C15.5984 189.879 15.2944 191.33 15.2953 192.558C15.3985 194.678 15.3986 194.79 16.4139 192.892C17.5307 190.77 17.2238 188.092 16.0048 189.432Z"/>
</mask>
<path d="M16.0048 189.432C15.5984 189.879 15.2944 191.33 15.2953 192.558C15.3985 194.678 15.3986 194.79 16.4139 192.892C17.5307 190.77 17.2238 188.092 16.0048 189.432Z" fill="black" fill-opacity="0.63"/>
<path d="M15.2953 192.558L12.2989 192.703L12.2954 192.632L12.2953 192.56L15.2953 192.558ZM16.4139 192.892L19.0684 194.289L19.0638 194.298L19.0592 194.307L16.4139 192.892ZM16.0048 189.432L18.2239 191.451C18.3722 191.288 18.451 191.154 18.4791 191.103C18.5111 191.046 18.5208 191.018 18.5147 191.033C18.5012 191.067 18.4661 191.171 18.4264 191.351C18.3462 191.713 18.295 192.164 18.2953 192.555L15.2953 192.558L12.2953 192.56C12.2947 191.723 12.3951 190.835 12.5683 190.053C12.6552 189.661 12.7722 189.241 12.93 188.84C13.0676 188.489 13.3234 187.922 13.7856 187.414L16.0048 189.432ZM15.2953 192.558L18.2918 192.412C18.3198 192.989 18.3351 193.28 18.3532 193.446C18.3638 193.544 18.3593 193.431 18.3016 193.238C18.2728 193.141 18.1921 192.889 18.0078 192.595C17.8271 192.306 17.4072 191.757 16.6227 191.444C15.7624 191.102 14.9599 191.237 14.4331 191.453C13.9717 191.642 13.6831 191.901 13.5739 192.005C13.3556 192.212 13.259 192.382 13.3061 192.309C13.3689 192.212 13.4968 191.985 13.7686 191.477L16.4139 192.892L19.0592 194.307C18.8233 194.748 18.5704 195.218 18.3445 195.567C18.2471 195.718 18.0291 196.048 17.7081 196.353C17.5917 196.464 16.2597 197.758 14.4024 197.019C13.5829 196.692 13.1316 196.113 12.9226 195.779C12.7098 195.44 12.6038 195.127 12.5521 194.953C12.4487 194.607 12.4083 194.278 12.3885 194.096C12.3458 193.705 12.3224 193.187 12.2989 192.703L15.2953 192.558ZM16.4139 192.892L13.7593 191.494C13.8957 191.235 13.997 190.94 14.0547 190.66C14.1163 190.362 14.1043 190.202 14.1055 190.212C14.1056 190.212 14.121 190.37 14.228 190.608C14.3236 190.821 14.6249 191.388 15.3474 191.766C16.1872 192.206 17.0289 192.103 17.5658 191.881C18.0109 191.697 18.2227 191.452 18.2239 191.451L16.0048 189.432L13.7856 187.414C14.0915 187.077 14.5796 186.623 15.2705 186.337C16.0531 186.013 17.1101 185.916 18.1326 186.452C19.0379 186.926 19.4895 187.679 19.7008 188.149C19.9236 188.645 20.0202 189.132 20.0651 189.516C20.2339 190.964 19.8694 192.768 19.0684 194.289L16.4139 192.892Z" fill="black" fill-opacity="0.63" mask="url(#path-22-inside-10_43_74)"/>
<mask id="path-24-inside-11_43_74" fill="white">
<path d="M39.7117 215.419C39.7137 218.209 44.7983 219.991 55.8807 220.987C69.4033 222.205 87.804 220.741 91.2589 218.283C93.6977 216.496 94.4078 214.375 92.4761 214.377C91.9678 214.377 91.7649 214.935 92.0703 215.493C92.3757 216.162 91.4615 217.167 89.8353 217.95C85.9734 219.85 47.3399 219.877 43.7803 218.094C41.6445 216.98 42.2544 216.868 47.3382 217.534C56.3874 218.643 84.5488 218.177 88.0045 216.723L91.0536 215.494L87.4957 216.054C72.6539 218.297 47.8466 217.645 41.2363 214.859C40.4226 214.414 39.7112 214.749 39.7117 215.419Z"/>
</mask>
<path d="M39.7117 215.419C39.7137 218.209 44.7983 219.991 55.8807 220.987C69.4033 222.205 87.804 220.741 91.2589 218.283C93.6977 216.496 94.4078 214.375 92.4761 214.377C91.9678 214.377 91.7649 214.935 92.0703 215.493C92.3757 216.162 91.4615 217.167 89.8353 217.95C85.9734 219.85 47.3399 219.877 43.7803 218.094C41.6445 216.98 42.2544 216.868 47.3382 217.534C56.3874 218.643 84.5488 218.177 88.0045 216.723L91.0536 215.494L87.4957 216.054C72.6539 218.297 47.8466 217.645 41.2363 214.859C40.4226 214.414 39.7112 214.749 39.7117 215.419Z" fill="black" fill-opacity="0.63"/>
<path d="M55.8807 220.987L56.1494 217.999L56.1498 217.999L55.8807 220.987ZM91.2589 218.283L93.0323 220.703L93.0152 220.716L92.9979 220.728L91.2589 218.283ZM92.0703 215.493L94.7017 214.052L94.7541 214.148L94.7995 214.247L92.0703 215.493ZM89.8353 217.95L88.511 215.258L88.5228 215.252L88.5347 215.246L89.8353 217.95ZM43.7803 218.094L42.4366 220.776L42.4144 220.765L42.3924 220.754L43.7803 218.094ZM47.3382 217.534L46.9731 220.511L46.9608 220.51L46.9485 220.508L47.3382 217.534ZM88.0045 216.723L86.8415 213.958L86.8618 213.949L86.8823 213.941L88.0045 216.723ZM91.0536 215.494L90.5867 212.53L92.1757 218.276L91.0536 215.494ZM87.4957 216.054L87.9625 219.018L87.9532 219.019L87.9439 219.02L87.4957 216.054ZM41.2363 214.859L40.0714 217.624L39.9296 217.564L39.7947 217.49L41.2363 214.859ZM39.7117 215.419L42.7117 215.416C42.7114 215.068 42.5057 214.935 42.6679 215.078C42.8999 215.284 43.4662 215.641 44.6216 216.04C46.9191 216.835 50.6606 217.506 56.1494 217.999L55.8807 220.987L55.612 223.975C50.0184 223.472 45.6764 222.754 42.6605 221.711C41.1591 221.191 39.7613 220.518 38.693 219.573C37.5549 218.566 36.7129 217.165 36.7117 215.421L39.7117 215.419ZM55.8807 220.987L56.1498 217.999C62.7161 218.591 70.5267 218.533 77.1134 218.023C80.4052 217.768 83.3335 217.404 85.6109 216.968C86.7513 216.749 87.6833 216.521 88.3944 216.296C88.7482 216.183 89.0218 216.08 89.2244 215.99C89.3243 215.946 89.3984 215.908 89.4504 215.88C89.5033 215.851 89.5237 215.836 89.5199 215.839L91.2589 218.283L92.9979 220.728C92.1843 221.307 91.1662 221.711 90.2085 222.015C89.1992 222.335 88.0212 222.615 86.7394 222.861C84.1724 223.352 81.0076 223.739 77.577 224.005C70.7189 224.536 62.5679 224.602 55.6116 223.975L55.8807 220.987ZM91.2589 218.283L89.4855 215.864C89.9295 215.538 90.2496 215.23 90.4555 214.986C90.6822 214.717 90.6874 214.625 90.649 214.746C90.6257 214.818 90.3855 215.642 91.0287 216.515C91.3367 216.933 91.7172 217.162 92.0083 217.273C92.2782 217.376 92.4612 217.377 92.4783 217.377L92.4761 214.377L92.474 211.377C93.4042 211.376 94.881 211.628 95.8589 212.955C96.8361 214.281 96.6281 215.747 96.3639 216.573C95.8437 218.2 94.4741 219.647 93.0323 220.703L91.2589 218.283ZM92.4761 214.377L92.4783 217.377C92.9179 217.376 93.43 217.248 93.8962 216.916C94.3555 216.589 94.64 216.156 94.7875 215.751C95.0709 214.971 94.8626 214.346 94.7017 214.052L92.0703 215.493L89.4389 216.934C88.9726 216.082 88.713 214.899 89.1486 213.701C89.6426 212.342 90.9216 211.378 92.474 211.377L92.4761 214.377ZM92.0703 215.493L94.7995 214.247C95.7475 216.325 94.4714 218.065 93.8963 218.698C93.1578 219.51 92.1597 220.161 91.136 220.653L89.8353 217.95L88.5347 215.246C89.1371 214.956 89.4092 214.714 89.458 214.66C89.4828 214.633 89.345 214.769 89.2381 215.084C89.1167 215.441 89.0338 216.065 89.341 216.738L92.0703 215.493ZM89.8353 217.95L91.1597 220.642C90.5676 220.933 89.8866 221.105 89.3372 221.22C88.731 221.347 88.0277 221.456 87.2657 221.551C85.7384 221.742 83.8241 221.897 81.6822 222.02C77.3897 222.266 72.0289 222.392 66.7005 222.403C61.3718 222.414 56.0313 222.309 51.7785 222.087C49.6567 221.976 47.7675 221.834 46.2703 221.657C45.5238 221.569 44.8355 221.467 44.2451 221.347C43.7225 221.241 43.0341 221.076 42.4366 220.776L43.7803 218.094L45.1239 215.412C44.9714 215.335 45.002 215.379 45.4382 215.467C45.8067 215.542 46.3172 215.621 46.9753 215.699C48.2873 215.854 50.0305 215.987 52.0915 216.095C56.2043 216.31 61.4309 216.414 66.6883 216.403C71.946 216.392 77.1902 216.267 81.3389 216.029C83.4176 215.91 85.1829 215.765 86.5215 215.598C87.1925 215.514 87.7186 215.429 88.1044 215.348C88.5469 215.255 88.6203 215.204 88.511 215.258L89.8353 217.95ZM43.7803 218.094L42.3924 220.754C41.9452 220.52 41.1742 220.116 40.6451 219.609C40.4908 219.461 40.181 219.143 39.9435 218.661C39.6852 218.136 39.4067 217.165 39.8634 216.084C40.281 215.095 41.0574 214.644 41.4242 214.472C41.818 214.287 42.1756 214.216 42.3739 214.184C43.0646 214.073 43.9234 214.135 44.6031 214.195C45.4068 214.267 46.4492 214.391 47.7279 214.559L47.3382 217.534L46.9485 220.508C45.6853 220.343 44.745 220.232 44.0713 220.172C43.2735 220.101 43.1601 220.135 43.3298 220.108C43.3979 220.097 43.6534 220.054 43.9725 219.904C44.2647 219.767 44.9937 219.358 45.3905 218.419C45.8265 217.387 45.5536 216.472 45.3267 216.011C45.1206 215.593 44.8679 215.346 44.7954 215.276C44.6344 215.122 44.5379 215.079 44.6734 215.161C44.77 215.22 44.9282 215.309 45.1681 215.434L43.7803 218.094ZM47.3382 217.534L47.7033 214.556C51.9964 215.082 61.1094 215.25 69.7133 215.09C73.9836 215.011 78.0552 214.852 81.2537 214.627C82.8562 214.513 84.2064 214.386 85.2382 214.247C85.7546 214.178 86.1622 214.11 86.4658 214.047C86.8023 213.977 86.8924 213.937 86.8415 213.958L88.0045 216.723L89.1675 219.489C88.3176 219.846 87.1207 220.049 86.034 220.194C84.8289 220.356 83.3414 220.494 81.6764 220.612C78.34 220.847 74.1577 221.009 69.8245 221.089C61.2215 221.249 51.7292 221.094 46.9731 220.511L47.3382 217.534ZM88.0045 216.723L86.8823 213.941L89.9315 212.711L91.0536 215.494L92.1757 218.276L89.1266 219.506L88.0045 216.723ZM91.0536 215.494L91.5205 218.457L87.9625 219.018L87.4957 216.054L87.0288 213.091L90.5867 212.53L91.0536 215.494ZM87.4957 216.054L87.9439 219.02C80.2932 220.176 70.1935 220.575 61.2012 220.341C56.6944 220.224 52.413 219.947 48.8091 219.515C45.2964 219.094 42.1421 218.497 40.0714 217.624L41.2363 214.859L42.4012 212.095C43.6357 212.615 46.0611 213.143 49.5228 213.558C52.8931 213.962 56.9807 214.23 61.3571 214.343C70.1315 214.571 79.8563 214.174 87.0474 213.088L87.4957 216.054ZM41.2363 214.859L39.7947 217.49C39.9528 217.577 40.5213 217.811 41.2828 217.506C41.6694 217.352 42.051 217.069 42.329 216.654C42.6076 216.237 42.7119 215.792 42.7117 215.416L39.7117 215.419L36.7117 215.421C36.7106 213.884 37.6116 212.512 39.0545 211.935C40.375 211.407 41.7061 211.696 42.6779 212.229L41.2363 214.859Z" fill="black" fill-opacity="0.63" mask="url(#path-24-inside-11_43_74)"/>
<path d="M94.6908 144.294L97.3596 91.3232L99.3595 91.3485L110.759 138.996L102.709 142.895L94.6908 144.294Z" fill="black" fill-opacity="0.63"/>
<path d="M38.8869 9.57858L43.9623 3.64217L55.9866 1.79382L68.0046 0.445422L79.9847 2.09679L89.4587 4.21655L94.9014 8.78562L89.4019 8.71619L81.4151 7.61528L67.9288 6.44494L54.4173 7.27444L38.8869 9.57858Z" fill="black" fill-opacity="0.63"/>
<path d="M113.158 147.027L91.4651 201.758L79.4426 203.464L92.071 153.761L113.158 147.027Z" fill="black" fill-opacity="0.63"/>
<path d="M85.2583 59.6679L85.3403 53.1684L93.3271 54.2693L93.7955 56.7754L93.7387 61.2751L93.1693 66.7683L91.6316 69.7491L85.132 69.6671L85.2583 59.6679Z" fill="black" fill-opacity="0.63"/>
<path d="M61.1645 225.377L66.2335 219.94L88.2444 219.218L92.7819 216.275L94.8196 213.301L95.2943 215.307L92.2188 221.269L90.1874 223.743L74.1635 225.541L61.1645 225.377Z" fill="black" fill-opacity="0.63"/>
<path d="M108.509 39.9599L106.73 22.436L96.8381 13.8105L96.3634 11.8043L78.8837 10.0835L69.3403 13.4633L77.3396 13.5643L74.7136 23.532L93.1743 26.7653L102.091 33.3784L106.484 41.9345L108.509 39.9599Z" fill="black" fill-opacity="0.63"/>
</svg>
