<svg width="57" height="162" viewBox="0 0 57 162" fill="none" xmlns="http://www.w3.org/2000/svg">
<g id="cyclist-dark-blue" opacity="0.69">
<path d="M34.8163 30.855C35.062 31.9641 36.2266 35.8003 36.5548 36.9577C36.7746 37.7034 37.0235 38.5343 37.3072 39.251C37.6303 40.0442 37.998 40.8901 38.7343 41.1568" fill="white"/>
<path d="M34.8163 30.855C35.062 31.9641 36.2266 35.8003 36.5548 36.9577C36.7746 37.7034 37.0235 38.5343 37.3072 39.251C37.6303 40.0442 37.998 40.8901 38.7343 41.1568" stroke="#0056B3" stroke-width="2.75" stroke-miterlimit="10" stroke-linecap="round" stroke-linejoin="round"/>
<path d="M51.8143 66.0443C51.8652 63.5735 51.7997 61.0504 51.3984 58.614C50.9856 55.8979 49.7434 52.1639 48.9727 49.513C48.5289 47.978 48.1679 46.3762 47.9337 44.7886C47.6731 43.143 47.4877 40.6485 47.2745 38.9846C47.2068 38.4856 47.1257 37.9689 47.0069 37.481C46.9247 37.1489 46.8101 36.7696 46.6421 36.4927C46.6216 36.4601 46.6147 36.4492 46.6147 36.4492C46.5938 36.4183 46.5867 36.4084 46.5867 36.4084C46.558 36.37 46.5492 36.3588 46.5492 36.3588C46.5224 36.3268 46.5133 36.3165 46.5133 36.3165C46.4859 36.2873 46.4765 36.278 46.4765 36.278C46.448 36.2514 46.4386 36.2429 46.4386 36.2429C46.4095 36.219 46.3995 36.2115 46.3995 36.2115C46.3694 36.19 46.3594 36.1835 46.3594 36.1835C46.3284 36.1646 46.318 36.1585 46.318 36.1585C46.286 36.142 46.2753 36.1368 46.2753 36.1368C46.2424 36.1227 46.2311 36.1182 46.2311 36.1182C46.1971 36.1065 46.1855 36.1027 46.1855 36.1027C46.1503 36.0929 46.1384 36.0901 46.1384 36.0901C46.1022 36.0828 46.0896 36.0803 46.0896 36.0803C46.0648 36.0764 46.0522 36.0749 46.0522 36.0749C46.0267 36.072 46.0138 36.0709 46.0138 36.0709C45.6993 36.0533 45.4325 36.1372 45.1512 36.2138C44.7829 36.3189 43.443 36.7646 43.0572 36.8892C42.0918 37.2217 41.0337 37.5948 40.1063 38.025C39.7052 38.2158 39.2515 38.4379 38.9123 38.7251C38.8796 38.7543 38.8691 38.764 38.8691 38.764C38.839 38.7929 38.8295 38.8026 38.8295 38.8026C38.7936 38.8409 38.7876 38.8476 38.7876 38.8476C38.7596 38.8812 38.7542 38.888 38.7542 38.888C38.7293 38.9213 38.7249 38.928 38.7249 38.928C38.7032 38.9613 38.6994 38.968 38.6994 38.968C38.6809 39.0017 38.6773 39.0084 38.6773 39.0084C38.6617 39.0428 38.6584 39.0496 38.6584 39.0496C38.6453 39.0846 38.6427 39.0917 38.6427 39.0917C38.632 39.1275 38.6301 39.1349 38.6301 39.1349C38.6216 39.172 38.62 39.1795 38.62 39.1795C38.6134 39.218 38.6124 39.2258 38.6124 39.2258C38.6094 39.2497 38.6077 39.2656 38.6077 39.2656C38.6049 39.2987 38.6041 39.3156 38.6041 39.3156C38.6001 39.3975 38.6029 39.4759 38.6045 39.5216C38.6423 40.3816 38.7188 41.2618 38.8881 42.1032C39.149 43.4623 39.5898 44.805 40.0758 46.0894C40.5214 47.264 41.3602 49.2883 41.7685 50.469C42.1371 51.4918 43.1156 54.7429 43.4548 55.8223C43.816 56.9939 45.1244 60.5566 45.5552 61.7631C45.79 62.4427 46.0537 63.2208 46.2299 63.9168C46.3799 64.4814 46.538 65.3129 46.6539 65.8937" fill="white"/>
<path d="M51.8143 66.0443C51.8652 63.5735 51.7997 61.0504 51.3984 58.614C50.9856 55.8979 49.7434 52.1639 48.9727 49.513C48.5289 47.978 48.1679 46.3762 47.9337 44.7886C47.6731 43.143 47.4877 40.6485 47.2745 38.9846C47.2068 38.4856 47.1257 37.9689 47.0069 37.481C46.9247 37.1489 46.8101 36.7696 46.6421 36.4927C46.6216 36.4601 46.6147 36.4492 46.6147 36.4492C46.5938 36.4183 46.5867 36.4084 46.5867 36.4084C46.558 36.37 46.5492 36.3588 46.5492 36.3588C46.5224 36.3268 46.5133 36.3165 46.5133 36.3165C46.4859 36.2873 46.4765 36.278 46.4765 36.278C46.448 36.2514 46.4386 36.2429 46.4386 36.2429C46.4095 36.219 46.3995 36.2115 46.3995 36.2115C46.3694 36.19 46.3594 36.1835 46.3594 36.1835C46.3284 36.1646 46.318 36.1585 46.318 36.1585C46.286 36.142 46.2753 36.1368 46.2753 36.1368C46.2424 36.1227 46.2311 36.1182 46.2311 36.1182C46.1971 36.1065 46.1855 36.1027 46.1855 36.1027C46.1503 36.0929 46.1384 36.0901 46.1384 36.0901C46.1022 36.0828 46.0896 36.0803 46.0896 36.0803C46.0648 36.0764 46.0522 36.0749 46.0522 36.0749C46.0267 36.072 46.0138 36.0709 46.0138 36.0709C45.6993 36.0533 45.4325 36.1372 45.1512 36.2138C44.7829 36.3189 43.443 36.7646 43.0572 36.8892C42.0918 37.2217 41.0337 37.5948 40.1063 38.025C39.7052 38.2158 39.2515 38.4379 38.9123 38.7251C38.8796 38.7543 38.8691 38.764 38.8691 38.764C38.839 38.7929 38.8295 38.8026 38.8295 38.8026C38.7936 38.8409 38.7876 38.8476 38.7876 38.8476C38.7596 38.8812 38.7542 38.888 38.7542 38.888C38.7293 38.9213 38.7249 38.928 38.7249 38.928C38.7032 38.9613 38.6994 38.968 38.6994 38.968C38.6809 39.0017 38.6773 39.0084 38.6773 39.0084C38.6617 39.0428 38.6584 39.0496 38.6584 39.0496C38.6453 39.0846 38.6427 39.0917 38.6427 39.0917C38.632 39.1275 38.6301 39.1349 38.6301 39.1349C38.6216 39.172 38.62 39.1795 38.62 39.1795C38.6134 39.218 38.6124 39.2258 38.6124 39.2258C38.6094 39.2497 38.6077 39.2656 38.6077 39.2656C38.6049 39.2987 38.6041 39.3156 38.6041 39.3156C38.6001 39.3975 38.6029 39.4759 38.6045 39.5216C38.6423 40.3816 38.7188 41.2618 38.8881 42.1032C39.149 43.4623 39.5898 44.805 40.0758 46.0894C40.5214 47.264 41.3602 49.2883 41.7685 50.469C42.1371 51.4918 43.1156 54.7429 43.4548 55.8223C43.816 56.9939 45.1244 60.5566 45.5552 61.7631C45.79 62.4427 46.0537 63.2208 46.2299 63.9168C46.3799 64.4814 46.538 65.3129 46.6539 65.8937" stroke="#0056B3" stroke-width="2.75" stroke-miterlimit="10" stroke-linecap="round" stroke-linejoin="round"/>
<path d="M12.0053 61.2871C12.063 60.4546 12.1277 59.4784 12.2524 58.6622C12.4002 57.663 12.7879 55.8427 12.9375 54.8465C13.0795 53.9507 13.1596 53.0182 13.1637 52.1099C13.171 51.1559 13.1021 50.1557 13.0148 49.2057C12.8923 47.9213 12.7108 46.5989 12.4395 45.3415" fill="white"/>
<path d="M12.0053 61.2871C12.063 60.4546 12.1277 59.4784 12.2524 58.6622C12.4002 57.663 12.7879 55.8427 12.9375 54.8465C13.0795 53.9507 13.1596 53.0182 13.1637 52.1099C13.171 51.1559 13.1021 50.1557 13.0148 49.2057C12.8923 47.9213 12.7108 46.5989 12.4395 45.3415" stroke="#0056B3" stroke-width="2.75" stroke-miterlimit="10" stroke-linecap="round" stroke-linejoin="round"/>
<path d="M13.7327 40.7554C13.8663 40.7009 13.9853 40.6359 14.0844 40.5649C14.1154 40.5422 14.1256 40.5345 14.1256 40.5345C14.156 40.5104 14.1658 40.5023 14.1658 40.5023C14.1956 40.4768 14.2054 40.4681 14.2054 40.4681C14.2346 40.4413 14.2441 40.4322 14.2441 40.4322C14.2727 40.404 14.2819 40.3943 14.2819 40.3943C14.3099 40.3644 14.3188 40.3543 14.3188 40.3543C14.3458 40.3228 14.3547 40.312 14.3547 40.312C14.3811 40.2787 14.3897 40.2673 14.3897 40.2673C14.4135 40.2347 14.4253 40.2178 14.4253 40.2178C14.4486 40.1835 14.46 40.166 14.46 40.166C14.6157 39.9159 14.6951 39.7001 14.7841 39.4292C14.8957 39.0783 14.98 38.6921 15.0539 38.3294C15.1571 37.8026 15.3284 36.857 15.4677 36.3501C15.6466 35.652 15.9585 34.7335 16.1609 34.0401" fill="white"/>
<path d="M13.7327 40.7554C13.8663 40.7009 13.9853 40.6359 14.0844 40.5649C14.1154 40.5422 14.1256 40.5345 14.1256 40.5345C14.156 40.5104 14.1658 40.5023 14.1658 40.5023C14.1956 40.4768 14.2054 40.4681 14.2054 40.4681C14.2346 40.4413 14.2441 40.4322 14.2441 40.4322C14.2727 40.404 14.2819 40.3943 14.2819 40.3943C14.3099 40.3644 14.3188 40.3543 14.3188 40.3543C14.3458 40.3228 14.3547 40.312 14.3547 40.312C14.3811 40.2787 14.3897 40.2673 14.3897 40.2673C14.4135 40.2347 14.4253 40.2178 14.4253 40.2178C14.4486 40.1835 14.46 40.166 14.46 40.166C14.6157 39.9159 14.6951 39.7001 14.7841 39.4292C14.8957 39.0783 14.98 38.6921 15.0539 38.3294C15.1571 37.8026 15.3284 36.857 15.4677 36.3501C15.6466 35.652 15.9585 34.7335 16.1609 34.0401" stroke="#0056B3" stroke-width="2.75" stroke-miterlimit="10" stroke-linecap="round" stroke-linejoin="round"/>
<path d="M3.88236 64.8811C3.70642 62.8361 3.65439 60.6922 3.68546 58.6386C3.71067 57.0641 3.77148 55.3648 3.91536 53.8011C3.98021 53.1025 4.06968 52.3558 4.19115 51.6668C4.31644 50.9315 4.59074 49.7361 4.75134 48.9973C5.2828 46.543 5.29693 43.9837 5.22561 41.4775C5.202 40.8134 5.09249 39.2281 5.12382 38.5875C5.13804 38.2501 5.18127 37.8682 5.3086 37.5675C5.32559 37.5288 5.33455 37.5099 5.33455 37.5099C5.35279 37.4725 5.36238 37.4543 5.36238 37.4543C5.38218 37.4186 5.39239 37.4011 5.39239 37.4011C5.41344 37.3668 5.41886 37.3584 5.41886 37.3584C5.44116 37.3254 5.4469 37.3173 5.4469 37.3173C5.47649 37.278 5.48253 37.2702 5.48253 37.2702C5.514 37.2329 5.52067 37.2256 5.52067 37.2256C5.55433 37.1903 5.56099 37.1832 5.56099 37.1832C5.59747 37.1494 5.60508 37.1427 5.60508 37.1427C5.63615 37.1165 5.64407 37.1105 5.64407 37.1105C5.6767 37.0861 5.68494 37.08 5.68494 37.08C5.71881 37.0569 5.72767 37.0513 5.72767 37.0513C5.76311 37.0296 5.77198 37.0245 5.77198 37.0245C5.9931 36.8984 6.23283 36.8529 6.45632 36.8312C6.72202 36.8082 6.96665 36.8213 7.22787 36.8493C7.9202 36.9293 8.60981 37.1209 9.27723 37.3296C10.2516 37.6427 11.2374 38.0182 12.1532 38.4946C12.6141 38.7409 13.1033 39.0226 13.4784 39.4002C13.514 39.4377 13.5312 39.4567 13.5312 39.4567C13.564 39.4942 13.5796 39.5129 13.5796 39.5129C13.6095 39.5503 13.622 39.5667 13.622 39.5667C13.646 39.5996 13.6575 39.616 13.6575 39.616C13.6793 39.6489 13.6896 39.6652 13.6896 39.6652C13.7092 39.6979 13.7182 39.7145 13.7182 39.7145C13.7356 39.7471 13.7396 39.7556 13.7396 39.7556C13.7551 39.7882 13.7588 39.7967 13.7588 39.7967C13.7728 39.8296 13.7759 39.8377 13.7759 39.8377C13.7879 39.8706 13.791 39.8787 13.791 39.8787C13.8014 39.9116 13.8039 39.9198 13.8039 39.9198C13.8128 39.9526 13.8149 39.9608 13.8149 39.9608C13.8222 39.9936 13.824 40.0021 13.824 40.0021C13.8301 40.0353 13.8313 40.0434 13.8313 40.0434C13.8358 40.0766 13.8366 40.085 13.8366 40.085C13.8395 40.1186 13.8404 40.1267 13.8404 40.1267C13.8421 40.1602 13.8426 40.1771 13.8426 40.1771C13.8426 40.2109 13.8422 40.2278 13.8422 40.2278C13.8407 40.2619 13.8396 40.2792 13.8396 40.2792C13.8368 40.3137 13.8348 40.3309 13.8348 40.3309C13.8304 40.3657 13.8281 40.3829 13.8281 40.3829C13.7887 40.6288 13.7101 40.8254 13.6329 41.024C13.4638 41.4333 13.2346 41.9669 13.1098 42.389C12.8828 43.1226 12.7142 43.9191 12.5648 44.6758C12.3643 45.7356 11.9879 48.0033 11.7232 49.0149C11.5048 49.8624 11.2287 50.8705 11.0997 51.7323C10.9583 52.596 10.6904 54.7327 10.5414 55.5916C10.4311 56.2668 10.267 57.0461 10.1142 57.7142C9.92307 58.5383 9.37362 60.707 9.23964 61.5082C9.14622 62.0293 9.08818 62.5788 9.05643 63.1081L9.01013 64.0192" fill="white"/>
<path d="M3.88236 64.8811C3.70642 62.8361 3.65439 60.6922 3.68546 58.6386C3.71067 57.0641 3.77148 55.3648 3.91536 53.8011C3.98021 53.1025 4.06968 52.3558 4.19115 51.6668C4.31644 50.9315 4.59074 49.7361 4.75134 48.9973C5.2828 46.543 5.29693 43.9837 5.22561 41.4775C5.202 40.8134 5.09249 39.2281 5.12382 38.5875C5.13804 38.2501 5.18127 37.8682 5.3086 37.5675C5.32559 37.5288 5.33455 37.5099 5.33455 37.5099C5.35279 37.4725 5.36238 37.4543 5.36238 37.4543C5.38218 37.4186 5.39239 37.4011 5.39239 37.4011C5.41344 37.3668 5.41886 37.3584 5.41886 37.3584C5.44116 37.3254 5.4469 37.3173 5.4469 37.3173C5.47649 37.278 5.48253 37.2702 5.48253 37.2702C5.514 37.2329 5.52067 37.2256 5.52067 37.2256C5.55433 37.1903 5.56099 37.1832 5.56099 37.1832C5.59747 37.1494 5.60508 37.1427 5.60508 37.1427C5.63615 37.1165 5.64407 37.1105 5.64407 37.1105C5.6767 37.0861 5.68494 37.08 5.68494 37.08C5.71881 37.0569 5.72767 37.0513 5.72767 37.0513C5.76311 37.0296 5.77198 37.0245 5.77198 37.0245C5.9931 36.8984 6.23283 36.8529 6.45632 36.8312C6.72202 36.8082 6.96665 36.8213 7.22787 36.8493C7.9202 36.9293 8.60981 37.1209 9.27723 37.3296C10.2516 37.6427 11.2374 38.0182 12.1532 38.4946C12.6141 38.7409 13.1033 39.0226 13.4784 39.4002C13.514 39.4377 13.5312 39.4567 13.5312 39.4567C13.564 39.4942 13.5796 39.5129 13.5796 39.5129C13.6095 39.5503 13.622 39.5667 13.622 39.5667C13.646 39.5996 13.6575 39.616 13.6575 39.616C13.6793 39.6489 13.6896 39.6652 13.6896 39.6652C13.7092 39.6979 13.7182 39.7145 13.7182 39.7145C13.7356 39.7471 13.7396 39.7556 13.7396 39.7556C13.7551 39.7882 13.7588 39.7967 13.7588 39.7967C13.7728 39.8296 13.7759 39.8377 13.7759 39.8377C13.7879 39.8706 13.791 39.8787 13.791 39.8787C13.8014 39.9116 13.8039 39.9198 13.8039 39.9198C13.8128 39.9526 13.8149 39.9608 13.8149 39.9608C13.8222 39.9936 13.824 40.0021 13.824 40.0021C13.8301 40.0353 13.8313 40.0434 13.8313 40.0434C13.8358 40.0766 13.8366 40.085 13.8366 40.085C13.8395 40.1186 13.8404 40.1267 13.8404 40.1267C13.8421 40.1602 13.8426 40.1771 13.8426 40.1771C13.8426 40.2109 13.8422 40.2278 13.8422 40.2278C13.8407 40.2619 13.8396 40.2792 13.8396 40.2792C13.8368 40.3137 13.8348 40.3309 13.8348 40.3309C13.8304 40.3657 13.8281 40.3829 13.8281 40.3829C13.7887 40.6288 13.7101 40.8254 13.6329 41.024C13.4638 41.4333 13.2346 41.9669 13.1098 42.389C12.8828 43.1226 12.7142 43.9191 12.5648 44.6758C12.3643 45.7356 11.9879 48.0033 11.7232 49.0149C11.5048 49.8624 11.2287 50.8705 11.0997 51.7323C10.9583 52.596 10.6904 54.7327 10.5414 55.5916C10.4311 56.2668 10.267 57.0461 10.1142 57.7142C9.92307 58.5383 9.37362 60.707 9.23964 61.5082C9.14622 62.0293 9.08818 62.5788 9.05643 63.1081L9.01013 64.0192" stroke="#0056B3" stroke-width="2.75" stroke-miterlimit="10" stroke-linecap="round" stroke-linejoin="round"/>
<path d="M19.7223 22.9582C19.3747 24.2109 19.3539 25.5436 19.454 26.8369C19.5208 27.6606 19.6594 28.5305 20.1188 29.2141C20.5754 29.8852 21.233 30.2318 21.9324 30.4958C22.8634 30.8306 23.8543 30.967 24.8333 30.9978C26.2756 31.0392 27.9627 30.7744 28.8658 29.4403C29.2907 28.8277 29.5495 28.0975 29.7044 27.3567C29.812 26.835 29.8677 26.298 29.8687 25.7637C29.8703 25.1745 29.7967 24.5794 29.6921 24.002L29.4267 22.6269C29.1417 21.0471 29.0259 19.413 29.0719 17.8046" fill="white"/>
<path d="M19.7223 22.9582C19.3747 24.2109 19.3539 25.5436 19.454 26.8369C19.5208 27.6606 19.6594 28.5305 20.1188 29.2141C20.5754 29.8852 21.233 30.2318 21.9324 30.4958C22.8634 30.8306 23.8543 30.967 24.8333 30.9978C26.2756 31.0392 27.9627 30.7744 28.8658 29.4403C29.2907 28.8277 29.5495 28.0975 29.7044 27.3567C29.812 26.835 29.8677 26.298 29.8687 25.7637C29.8703 25.1745 29.7967 24.5794 29.6921 24.002L29.4267 22.6269C29.1417 21.0471 29.0259 19.413 29.0719 17.8046" stroke="#0056B3" stroke-width="2.75" stroke-miterlimit="10" stroke-linecap="round" stroke-linejoin="round"/>
<path d="M40.7134 65.1877C40.9893 64.3981 41.2532 63.5766 41.2934 62.7283C41.3589 61.6108 40.9453 60.2964 40.7103 59.2144C40.5164 58.3682 40.3871 57.4923 40.3764 56.6196C40.3412 54.5784 40.7216 52.3975 40.7226 50.3562L40.7287 47.697" fill="white"/>
<path d="M40.7134 65.1877C40.9893 64.3981 41.2532 63.5766 41.2934 62.7283C41.3589 61.6108 40.9453 60.2964 40.7103 59.2144C40.5164 58.3682 40.3871 57.4923 40.3764 56.6196C40.3412 54.5784 40.7216 52.3975 40.7226 50.3562L40.7287 47.697" stroke="#0056B3" stroke-width="2.75" stroke-miterlimit="10" stroke-linecap="round" stroke-linejoin="round"/>
<path d="M17.0706 15.6912L16.8596 15.5242C16.8164 15.4897 16.731 15.4167 16.7075 15.3938C16.6709 15.3594 16.659 15.3475 16.659 15.3475C16.6234 15.3113 16.6119 15.2991 16.6119 15.2991C16.5775 15.2613 16.5663 15.2483 16.5663 15.2483C16.5441 15.2218 16.5332 15.2082 16.5332 15.2082C16.512 15.1806 16.5014 15.1663 16.5014 15.1663C16.4808 15.1374 16.4708 15.1228 16.4708 15.1228C16.4512 15.0926 16.4413 15.0773 16.4413 15.0773C16.4223 15.0457 16.4133 15.0294 16.4133 15.0294C16.3953 14.9961 16.3866 14.9791 16.3866 14.9791C16.3695 14.9442 16.3615 14.9265 16.3615 14.9265C16.3457 14.8899 16.3379 14.8712 16.3379 14.8712C16.2194 14.5585 16.1913 14.2793 16.1606 13.9672C16.127 13.6146 16.1111 12.8116 16.0984 12.4455C16.0788 11.5546 15.9016 10.54 15.7549 9.65993C15.6777 9.17234 15.601 8.6462 15.5727 8.15324C15.5546 7.83756 15.5521 7.46689 15.6141 7.17144C15.6229 7.13227 15.6262 7.11945 15.6262 7.11945C15.6359 7.08164 15.6395 7.0695 15.6395 7.0695C15.6492 7.0371 15.6543 7.02159 15.6543 7.02159C15.665 6.99089 15.6704 6.97571 15.6704 6.97571C15.6817 6.94604 15.6878 6.93154 15.6878 6.93154C15.7 6.90323 15.7064 6.88907 15.7064 6.88907C15.7256 6.84762 15.74 6.82135 15.7467 6.80821C15.8342 6.64925 15.9375 6.52152 16.0327 6.38595C16.1977 6.15453 16.3081 5.92608 16.4268 5.67469C16.627 5.24298 16.9053 4.59238 17.138 4.18934C17.5551 3.43157 18.1834 2.74069 18.9106 2.37827C19.876 1.88982 21.0443 1.79253 22.085 1.59246C22.6619 1.48829 23.3638 1.25554 23.9312 1.45027C24.2975 1.57447 24.6451 1.83515 24.9769 2.02673C25.2967 2.22227 25.6441 2.34971 25.9887 2.39427C26.375 2.45335 26.8401 2.46771 27.2125 2.57843C27.8411 2.75975 28.2801 3.26565 28.7527 3.69808C28.9 3.83651 29.0916 3.99286 29.2467 4.09685C29.3605 4.17415 29.6184 4.34352 29.7151 4.42374C29.7599 4.45992 29.7884 4.4855 29.8021 4.49778C29.8297 4.5237 29.8431 4.53665 29.8431 4.53665C29.8697 4.56357 29.8825 4.5772 29.8825 4.5772C29.9078 4.60512 29.92 4.61941 29.92 4.61941C29.9496 4.65617 29.9555 4.66365 29.9555 4.66365C29.9836 4.70208 29.9889 4.7099 29.9889 4.7099C30.01 4.74219 30.015 4.75035 30.015 4.75035C30.0325 4.7799 30.0387 4.79077 30.0387 4.79077C30.0564 4.82371 30.062 4.83491 30.062 4.83491C30.0784 4.86919 30.084 4.88107 30.084 4.88107C30.0994 4.9167 30.1044 4.92892 30.1044 4.92892C30.2344 5.2681 30.2585 5.57435 30.2962 5.92196C30.3582 6.84469 30.5395 8.01927 30.683 8.93653C30.7334 9.31197 30.7886 9.72296 30.7762 10.0986C30.7652 10.4797 30.6557 10.8319 30.5894 11.1889C30.4348 12.0494 30.3617 13.0354 30.2836 13.9097" fill="white"/>
<path d="M17.0706 15.6912L16.8596 15.5242C16.8164 15.4897 16.731 15.4167 16.7075 15.3938C16.6709 15.3594 16.659 15.3475 16.659 15.3475C16.6234 15.3113 16.6119 15.2991 16.6119 15.2991C16.5775 15.2613 16.5663 15.2483 16.5663 15.2483C16.5441 15.2218 16.5332 15.2082 16.5332 15.2082C16.512 15.1806 16.5014 15.1663 16.5014 15.1663C16.4808 15.1374 16.4708 15.1228 16.4708 15.1228C16.4512 15.0926 16.4413 15.0773 16.4413 15.0773C16.4223 15.0457 16.4133 15.0294 16.4133 15.0294C16.3953 14.9961 16.3866 14.9791 16.3866 14.9791C16.3695 14.9442 16.3615 14.9265 16.3615 14.9265C16.3457 14.8899 16.3379 14.8712 16.3379 14.8712C16.2194 14.5585 16.1913 14.2793 16.1606 13.9672C16.127 13.6146 16.1111 12.8116 16.0984 12.4455C16.0788 11.5546 15.9016 10.54 15.7549 9.65993C15.6777 9.17234 15.601 8.6462 15.5727 8.15324C15.5546 7.83756 15.5521 7.46689 15.6141 7.17144C15.6229 7.13227 15.6262 7.11945 15.6262 7.11945C15.6359 7.08164 15.6395 7.0695 15.6395 7.0695C15.6492 7.0371 15.6543 7.02159 15.6543 7.02159C15.665 6.99089 15.6704 6.97571 15.6704 6.97571C15.6817 6.94604 15.6878 6.93154 15.6878 6.93154C15.7 6.90323 15.7064 6.88907 15.7064 6.88907C15.7256 6.84762 15.74 6.82135 15.7467 6.80821C15.8342 6.64925 15.9375 6.52152 16.0327 6.38595C16.1977 6.15453 16.3081 5.92608 16.4268 5.67469C16.627 5.24298 16.9053 4.59238 17.138 4.18934C17.5551 3.43157 18.1834 2.74069 18.9106 2.37827C19.876 1.88982 21.0443 1.79253 22.085 1.59246C22.6619 1.48829 23.3638 1.25554 23.9312 1.45027C24.2975 1.57447 24.6451 1.83515 24.9769 2.02673C25.2967 2.22227 25.6441 2.34971 25.9887 2.39427C26.375 2.45335 26.8401 2.46771 27.2125 2.57843C27.8411 2.75975 28.2801 3.26565 28.7527 3.69808C28.9 3.83651 29.0916 3.99286 29.2467 4.09685C29.3605 4.17415 29.6184 4.34352 29.7151 4.42374C29.7599 4.45992 29.7884 4.4855 29.8021 4.49778C29.8297 4.5237 29.8431 4.53665 29.8431 4.53665C29.8697 4.56357 29.8825 4.5772 29.8825 4.5772C29.9078 4.60512 29.92 4.61941 29.92 4.61941C29.9496 4.65617 29.9555 4.66365 29.9555 4.66365C29.9836 4.70208 29.9889 4.7099 29.9889 4.7099C30.01 4.74219 30.015 4.75035 30.015 4.75035C30.0325 4.7799 30.0387 4.79077 30.0387 4.79077C30.0564 4.82371 30.062 4.83491 30.062 4.83491C30.0784 4.86919 30.084 4.88107 30.084 4.88107C30.0994 4.9167 30.1044 4.92892 30.1044 4.92892C30.2344 5.2681 30.2585 5.57435 30.2962 5.92196C30.3582 6.84469 30.5395 8.01927 30.683 8.93653C30.7334 9.31197 30.7886 9.72296 30.7762 10.0986C30.7652 10.4797 30.6557 10.8319 30.5894 11.1889C30.4348 12.0494 30.3617 13.0354 30.2836 13.9097" stroke="#0056B3" stroke-width="2.75" stroke-miterlimit="10" stroke-linecap="round" stroke-linejoin="round"/>
<path d="M18.504 20.7536C18.5355 20.8346 18.7147 21.3386 18.7483 21.4322C18.9546 22.008 19.2606 22.614 19.7226 22.9584C20.0501 23.2088 20.3911 23.3517 20.7685 23.4669C21.2421 23.6071 21.738 23.6745 22.2282 23.7009C22.8019 23.7282 23.3863 23.708 23.9546 23.6159C24.4618 23.5315 24.9663 23.3768 25.415 23.1042C26.4651 22.4815 26.978 21.2334 27.4012 20.0891L27.8546 18.7864C27.9144 18.6219 27.9995 18.4094 28.0809 18.265C28.102 18.2283 28.1128 18.2101 28.1128 18.2101C28.1345 18.1754 28.1457 18.1586 28.1457 18.1586C28.168 18.1263 28.1794 18.1105 28.1794 18.1105C28.2084 18.0732 28.2144 18.0658 28.2144 18.0658C28.2446 18.0312 28.2506 18.0248 28.2506 18.0248C28.2821 17.9932 28.2884 17.9872 28.2884 17.9872C28.3211 17.9587 28.3277 17.9533 28.3277 17.9533C28.3616 17.9279 28.3686 17.9232 28.3686 17.9232C28.404 17.9008 28.4113 17.8968 28.4113 17.8968C28.441 17.8815 28.4486 17.8778 28.4486 17.8778C28.4793 17.8645 28.4872 17.8616 28.4872 17.8616C28.5181 17.8506 28.526 17.8483 28.526 17.8483C28.5573 17.8398 28.5651 17.8378 28.5651 17.8378C28.5973 17.8309 28.6055 17.8293 28.6055 17.8293C28.6304 17.8251 28.6472 17.8225 28.6472 17.8225C28.8845 17.7936 29.1165 17.822 29.3272 17.7804C29.3641 17.7725 29.3733 17.7706 29.3733 17.7706C29.4096 17.761 29.4187 17.7584 29.4187 17.7584C29.4547 17.7468 29.4635 17.7439 29.4635 17.7439C29.4989 17.7303 29.5075 17.7266 29.5075 17.7266C29.5419 17.7106 29.5504 17.7063 29.5504 17.7063C29.5843 17.688 29.5925 17.683 29.5925 17.683C29.6254 17.6616 29.6337 17.6559 29.6337 17.6559C29.6653 17.6321 29.6714 17.6271 29.6714 17.6271C29.7059 17.5969 29.7116 17.5919 29.7116 17.5919C29.7453 17.5586 29.7561 17.5469 29.7561 17.5469C29.7885 17.5099 29.799 17.4972 29.799 17.4972C29.82 17.4706 29.8302 17.4572 29.8302 17.4572C29.8505 17.4289 29.8604 17.4144 29.8604 17.4144C29.8802 17.3848 29.89 17.3697 29.89 17.3697C30.0466 17.1125 30.1205 16.8905 30.2019 16.6189C30.2847 16.33 30.346 16.0258 30.3942 15.7282C30.4591 15.2728 30.5399 14.7563 30.5122 14.2989C30.5084 14.2627 30.5063 14.2451 30.5063 14.2451C30.5015 14.2112 30.5 14.2027 30.5 14.2027C30.4939 14.1709 30.4924 14.1631 30.4924 14.1631C30.4833 14.1258 30.4814 14.1187 30.4814 14.1187C30.4707 14.0848 30.4682 14.0784 30.4682 14.0784C30.4515 14.039 30.4499 14.0363 30.4499 14.0363C30.4269 13.9976 30.425 13.9952 30.425 13.9952C30.3897 13.9564 30.3879 13.9543 30.3879 13.9543C30.3528 13.9307 30.3506 13.9297 30.3506 13.9297C30.3154 13.9162 30.3129 13.9155 30.3129 13.9155C30.277 13.9088 30.2739 13.9088 30.2739 13.9088C30.238 13.9075 30.2317 13.9078 30.2317 13.9078C30.1995 13.9106 30.1929 13.9116 30.1929 13.9116C30.1591 13.9177 30.1522 13.919 30.1522 13.919C30.1169 13.9282 30.1096 13.9302 30.1096 13.9302C30.0727 13.9425 30.0575 13.9477 30.0575 13.9477C30.0266 13.96 30.0111 13.9667 30.0111 13.9667C29.9791 13.981 29.963 13.9886 29.963 13.9886C29.4926 14.2211 29.1538 14.6169 28.7574 14.9196C28.7318 14.9374 28.7191 14.9457 28.7191 14.9457C28.6824 14.9684 28.6764 14.9718 28.6764 14.9718C28.6416 14.9901 28.6359 14.9928 28.6359 14.9928C28.6005 15.007 28.598 15.0077 28.598 15.0077C28.5627 15.0166 28.5602 15.0169 28.5602 15.0169C28.5233 15.018 28.5211 15.0176 28.5211 15.0176C28.4847 15.0065 28.4828 15.0055 28.4828 15.0055C28.4471 14.9761 28.4455 14.9741 28.4455 14.9741C28.42 14.9357 28.4187 14.9329 28.4187 14.9329C28.402 14.8953 28.3999 14.8892 28.3999 14.8892C28.3876 14.8515 28.3857 14.8448 28.3857 14.8448C28.3784 14.817 28.375 14.8024 28.375 14.8024C28.3686 14.7723 28.3656 14.7567 28.3656 14.7567C28.3216 14.5003 28.3221 14.1003 28.3076 13.8448C28.2914 13.4957 28.2071 12.7439 28.1723 12.3872L28.055 10.997C28.0091 10.5282 27.9507 10.0421 27.8456 9.58443C27.7785 9.29274 27.6792 8.96867 27.5404 8.71464C27.5183 8.67524 27.5071 8.65622 27.5071 8.65622C27.4776 8.60729 27.4623 8.58485 27.4511 8.56786C27.4233 8.52808 27.4137 8.51549 27.4137 8.51549C27.3847 8.47773 27.375 8.46548 27.375 8.46548C27.345 8.42975 27.3351 8.41783 27.3351 8.41783C27.3041 8.38378 27.2938 8.37254 27.2938 8.37254C27.2619 8.34017 27.2513 8.3296 27.2513 8.3296C27.2185 8.29892 27.2075 8.28869 27.2075 8.28869C27.174 8.25935 27.1625 8.24979 27.1625 8.24979C27.128 8.2218 27.1161 8.21291 27.1161 8.21291C26.8543 8.01511 26.5986 7.92455 26.3152 7.83142C25.9466 7.72208 25.0076 7.441 24.6483 7.34188C23.3845 6.98358 22.0543 6.83107 20.7544 7.0268C19.9317 7.15108 19.0311 7.41951 18.402 8.00995C17.9528 8.42149 17.7405 8.99954 17.6532 9.58429C17.5361 10.2781 17.5854 11.2081 17.5842 11.9156C17.583 12.1446 17.5778 12.3823 17.5512 12.6093C17.5189 12.8722 17.4689 13.066 17.3954 13.296C17.3041 13.5723 17.1698 13.918 17.1123 14.1979C17.0551 14.465 17.0403 14.6742 17.0358 14.9329C17.0331 15.7073 17.156 16.4834 17.309 17.2381C17.4807 18.0541 17.7023 18.8695 18.0265 19.6319C18.1318 19.8758 18.417 20.5135 18.504 20.7536Z" fill="white" stroke="#0056B3" stroke-width="2.75" stroke-miterlimit="10" stroke-linecap="round" stroke-linejoin="round"/>
<path d="M47.0717 37.7667C47.3622 37.2565 47.6121 36.6202 47.5117 36.0259C47.4171 35.4229 47.0959 34.7867 46.8926 34.2241C46.6263 33.5402 46.0977 31.6511 45.8752 30.9247C45.3681 29.2633 44.6881 27.6443 43.7665 26.1993C43.1903 25.2956 42.526 24.437 41.7315 23.745C41.3504 23.4131 40.9299 23.1272 40.4846 22.9056C39.2106 22.2699 37.7055 22.0846 36.3748 21.6278L33.8869 20.7765C33.1281 20.5327 32.3427 20.3052 31.5491 20.2541C30.7489 20.195 29.9312 20.3179 29.1415 20.4516" fill="white"/>
<path d="M47.0717 37.7667C47.3622 37.2565 47.6121 36.6202 47.5117 36.0259C47.4171 35.4229 47.0959 34.7867 46.8926 34.2241C46.6263 33.5402 46.0977 31.6511 45.8752 30.9247C45.3681 29.2633 44.6881 27.6443 43.7665 26.1993C43.1903 25.2956 42.526 24.437 41.7315 23.745C41.3504 23.4131 40.9299 23.1272 40.4846 22.9056C39.2106 22.2699 37.7055 22.0846 36.3748 21.6278L33.8869 20.7765C33.1281 20.5327 32.3427 20.3052 31.5491 20.2541C30.7489 20.195 29.9312 20.3179 29.1415 20.4516" stroke="#0056B3" stroke-width="2.75" stroke-miterlimit="10" stroke-linecap="round" stroke-linejoin="round"/>
<path d="M5.12951 39.4615L4.87382 39.33C4.8299 39.306 4.79227 39.2834 4.77409 39.2724C4.73772 39.2492 4.72582 39.241 4.72582 39.241C4.69042 39.216 4.67883 39.2075 4.67883 39.2075C4.6447 39.1805 4.63343 39.1713 4.63343 39.1713C4.60058 39.1423 4.58963 39.1324 4.58963 39.1324C4.55806 39.101 4.54806 39.0901 4.54806 39.0901C4.5184 39.0561 4.51341 39.0503 4.51341 39.0503C4.48534 39.0136 4.48066 39.0074 4.48066 39.0074C4.45419 38.968 4.44983 38.9612 4.44983 38.9612C4.42931 38.9262 4.42526 38.9187 4.42526 38.9187C4.40602 38.8814 4.39982 38.8682 4.39982 38.8682C4.38774 38.8414 4.38217 38.8278 4.38217 38.8278C4.37105 38.7996 4.36549 38.7854 4.36549 38.7854C4.35501 38.7559 4.35008 38.741 4.35008 38.741C4.26834 38.4732 4.2571 38.2526 4.24961 37.9962C4.24522 37.7029 4.26673 37.4011 4.29824 37.1098C4.41749 36.0505 4.67058 34.9955 4.9659 33.9774C5.19158 33.2115 5.70239 31.5673 5.94638 30.7961C6.61896 28.7551 7.36752 26.6633 8.67016 24.9802C9.36176 24.0812 10.2142 23.3271 11.1426 22.7257C11.977 22.1849 12.8811 21.7555 13.8224 21.4826C14.4743 21.2908 15.1644 21.1648 15.8339 21.065C16.6685 20.9469 17.6668 20.802 18.5044 20.7533" fill="white"/>
<path d="M5.12951 39.4615L4.87382 39.33C4.8299 39.306 4.79227 39.2834 4.77409 39.2724C4.73772 39.2492 4.72582 39.241 4.72582 39.241C4.69042 39.216 4.67883 39.2075 4.67883 39.2075C4.6447 39.1805 4.63343 39.1713 4.63343 39.1713C4.60058 39.1423 4.58963 39.1324 4.58963 39.1324C4.55806 39.101 4.54806 39.0901 4.54806 39.0901C4.5184 39.0561 4.51341 39.0503 4.51341 39.0503C4.48534 39.0136 4.48066 39.0074 4.48066 39.0074C4.45419 38.968 4.44983 38.9612 4.44983 38.9612C4.42931 38.9262 4.42526 38.9187 4.42526 38.9187C4.40602 38.8814 4.39982 38.8682 4.39982 38.8682C4.38774 38.8414 4.38217 38.8278 4.38217 38.8278C4.37105 38.7996 4.36549 38.7854 4.36549 38.7854C4.35501 38.7559 4.35008 38.741 4.35008 38.741C4.26834 38.4732 4.2571 38.2526 4.24961 37.9962C4.24522 37.7029 4.26673 37.4011 4.29824 37.1098C4.41749 36.0505 4.67058 34.9955 4.9659 33.9774C5.19158 33.2115 5.70239 31.5673 5.94638 30.7961C6.61896 28.7551 7.36752 26.6633 8.67016 24.9802C9.36176 24.0812 10.2142 23.3271 11.1426 22.7257C11.977 22.1849 12.8811 21.7555 13.8224 21.4826C14.4743 21.2908 15.1644 21.1648 15.8339 21.065C16.6685 20.9469 17.6668 20.802 18.5044 20.7533" stroke="#0056B3" stroke-width="2.75" stroke-miterlimit="10" stroke-linecap="round" stroke-linejoin="round"/>
<path d="M10.7306 64.1364C10.7637 63.8854 10.8432 63.2106 10.8828 62.9725C10.9486 62.5222 11.0907 62.0586 11.3822 61.7561C11.7235 61.3988 12.1053 61.2211 12.5241 61.0414C13.0406 60.8312 13.5845 60.6828 14.1261 60.5696C15.0602 60.3779 16.0175 60.2864 16.9684 60.2926C17.8528 60.3007 18.7463 60.3948 19.6024 60.6387C21.1461 61.0613 22.5949 62.0227 24.0164 62.7688C24.7392 63.1466 25.5006 63.4595 26.2857 63.6515C27.9063 64.0561 29.5976 64.1058 31.2556 64.0698C32.6301 64.0383 34.3141 63.903 35.684 63.9723C36.7495 64.026 37.8269 64.1698 38.8629 64.4449C39.3775 64.5844 39.8962 64.7602 40.3772 65.0019C40.7522 65.1888 41.1502 65.4508 41.4301 65.7546C41.7985 66.1487 42.009 66.6228 42.1267 67.1425" fill="white"/>
<path d="M10.7306 64.1364C10.7637 63.8854 10.8432 63.2106 10.8828 62.9725C10.9486 62.5222 11.0907 62.0586 11.3822 61.7561C11.7235 61.3988 12.1053 61.2211 12.5241 61.0414C13.0406 60.8312 13.5845 60.6828 14.1261 60.5696C15.0602 60.3779 16.0175 60.2864 16.9684 60.2926C17.8528 60.3007 18.7463 60.3948 19.6024 60.6387C21.1461 61.0613 22.5949 62.0227 24.0164 62.7688C24.7392 63.1466 25.5006 63.4595 26.2857 63.6515C27.9063 64.0561 29.5976 64.1058 31.2556 64.0698C32.6301 64.0383 34.3141 63.903 35.684 63.9723C36.7495 64.026 37.8269 64.1698 38.8629 64.4449C39.3775 64.5844 39.8962 64.7602 40.3772 65.0019C40.7522 65.1888 41.1502 65.4508 41.4301 65.7546C41.7985 66.1487 42.009 66.6228 42.1267 67.1425" stroke="#0056B3" stroke-width="2.75" stroke-miterlimit="10" stroke-linecap="round" stroke-linejoin="round"/>
<path d="M11.2429 78.8564C10.5121 77.5366 9.98943 76.0649 9.79315 74.5401C9.64643 73.3746 9.74285 72.1683 9.8585 71.0031" fill="white"/>
<path d="M11.2429 78.8564C10.5121 77.5366 9.98943 76.0649 9.79315 74.5401C9.64643 73.3746 9.74285 72.1683 9.8585 71.0031" stroke="#0056B3" stroke-width="2.75" stroke-miterlimit="10" stroke-linecap="round" stroke-linejoin="round"/>
<path d="M2.79733 66.6665L2.16371 66.6519C2.13788 66.6517 2.12528 66.6519 2.12528 66.6519C2.09944 66.6531 2.08683 66.6543 2.08683 66.6543C2.06129 66.6572 2.04836 66.6588 2.04836 66.6588C2.02282 66.663 2.0102 66.6653 2.0102 66.6653C1.98496 66.6708 1.97234 66.6741 1.97234 66.6741C1.9474 66.681 1.9351 66.685 1.9351 66.685C1.89846 66.6979 1.88645 66.7025 1.88645 66.7025C1.85074 66.7182 1.83904 66.7238 1.83904 66.7238C1.80426 66.7418 1.79287 66.7485 1.79287 66.7485C1.75932 66.7692 1.74856 66.7766 1.74856 66.7766C1.71657 66.7996 1.70612 66.8077 1.70612 66.8077C1.67569 66.8332 1.66585 66.8419 1.66585 66.8419C1.63698 66.8694 1.62777 66.8791 1.62777 66.8791C1.60077 66.9087 1.59219 66.9191 1.59219 66.9191C1.56707 66.9507 1.55911 66.9615 1.55911 66.9615C1.53618 66.9948 1.52885 67.0062 1.52885 67.0062C1.50811 67.0412 1.50172 67.053 1.50172 67.053C1.48317 67.0894 1.47772 67.1019 1.47772 67.1019C1.46168 67.1396 1.45686 67.1524 1.45686 67.1524C1.44334 67.1912 1.43914 67.2044 1.43914 67.2044C1.4317 67.2307 1.42813 67.2442 1.42813 67.2442C1.42195 67.2709 1.419 67.2844 1.419 67.2844C1.41407 67.3114 1.41177 67.3252 1.41177 67.3252C1.4081 67.3526 1.40673 67.3665 1.40673 67.3665C1.40431 67.3938 1.40358 67.4077 1.40358 67.4077C1.40242 67.4354 1.37505 68.7569 1.37505 68.7569C1.37483 68.7846 1.37504 68.7981 1.37504 68.7981C1.37609 68.8259 1.37725 68.8394 1.37725 68.8394C1.37988 68.8668 1.38134 68.8807 1.38134 68.8807C1.38523 68.9081 1.38733 68.9217 1.38733 68.9217C1.39248 68.9488 1.39552 68.9623 1.39552 68.9623C1.40193 68.9891 1.40562 69.0023 1.40562 69.0023C1.4176 69.0416 1.42191 69.0545 1.42191 69.0545C1.43642 69.0928 1.44169 69.1054 1.44169 69.1054C1.45841 69.1427 1.46461 69.1549 1.46461 69.1549C1.48387 69.1909 1.49071 69.2025 1.49071 69.2025C1.51218 69.2368 1.51965 69.248 1.51965 69.248C1.54334 69.2807 1.55146 69.2912 1.55146 69.2912C1.57705 69.3222 1.58611 69.3321 1.58611 69.3321C1.61361 69.361 1.6233 69.3702 1.6233 69.3702C1.6527 69.3972 1.66272 69.4057 1.66272 69.4057C1.69371 69.4303 1.70436 69.4381 1.70436 69.4381C1.73695 69.4604 1.74792 69.4672 1.74792 69.4672C1.78179 69.4871 1.79339 69.4929 1.79339 69.4929C1.82854 69.5101 1.84048 69.5153 1.84048 69.5153C1.87659 69.5298 1.88884 69.5342 1.88884 69.5342C1.91334 69.5422 1.92591 69.546 1.92591 69.546C1.95074 69.5526 1.96332 69.5558 1.96332 69.5558C1.98848 69.561 2.00138 69.5635 2.00138 69.5635C2.02686 69.5674 2.03976 69.5689 2.03976 69.5689C2.06525 69.5714 2.07816 69.5722 2.07816 69.5722C2.10398 69.5734 3.32871 69.6013 3.32871 69.6013" fill="white"/>
<path d="M2.79733 66.6665L2.16371 66.6519C2.13788 66.6517 2.12528 66.6519 2.12528 66.6519C2.09944 66.6531 2.08683 66.6543 2.08683 66.6543C2.06129 66.6572 2.04836 66.6588 2.04836 66.6588C2.02282 66.663 2.0102 66.6653 2.0102 66.6653C1.98496 66.6708 1.97234 66.6741 1.97234 66.6741C1.9474 66.681 1.9351 66.685 1.9351 66.685C1.89846 66.6979 1.88645 66.7025 1.88645 66.7025C1.85074 66.7182 1.83904 66.7238 1.83904 66.7238C1.80426 66.7418 1.79287 66.7485 1.79287 66.7485C1.75932 66.7692 1.74856 66.7766 1.74856 66.7766C1.71657 66.7996 1.70612 66.8077 1.70612 66.8077C1.67569 66.8332 1.66585 66.8419 1.66585 66.8419C1.63698 66.8694 1.62777 66.8791 1.62777 66.8791C1.60077 66.9087 1.59219 66.9191 1.59219 66.9191C1.56707 66.9507 1.55911 66.9615 1.55911 66.9615C1.53618 66.9948 1.52885 67.0062 1.52885 67.0062C1.50811 67.0412 1.50172 67.053 1.50172 67.053C1.48317 67.0894 1.47772 67.1019 1.47772 67.1019C1.46168 67.1396 1.45686 67.1524 1.45686 67.1524C1.44334 67.1912 1.43914 67.2044 1.43914 67.2044C1.4317 67.2307 1.42813 67.2442 1.42813 67.2442C1.42195 67.2709 1.419 67.2844 1.419 67.2844C1.41407 67.3114 1.41177 67.3252 1.41177 67.3252C1.4081 67.3526 1.40673 67.3665 1.40673 67.3665C1.40431 67.3938 1.40358 67.4077 1.40358 67.4077C1.40242 67.4354 1.37505 68.7569 1.37505 68.7569C1.37483 68.7846 1.37504 68.7981 1.37504 68.7981C1.37609 68.8259 1.37725 68.8394 1.37725 68.8394C1.37988 68.8668 1.38134 68.8807 1.38134 68.8807C1.38523 68.9081 1.38733 68.9217 1.38733 68.9217C1.39248 68.9488 1.39552 68.9623 1.39552 68.9623C1.40193 68.9891 1.40562 69.0023 1.40562 69.0023C1.4176 69.0416 1.42191 69.0545 1.42191 69.0545C1.43642 69.0928 1.44169 69.1054 1.44169 69.1054C1.45841 69.1427 1.46461 69.1549 1.46461 69.1549C1.48387 69.1909 1.49071 69.2025 1.49071 69.2025C1.51218 69.2368 1.51965 69.248 1.51965 69.248C1.54334 69.2807 1.55146 69.2912 1.55146 69.2912C1.57705 69.3222 1.58611 69.3321 1.58611 69.3321C1.61361 69.361 1.6233 69.3702 1.6233 69.3702C1.6527 69.3972 1.66272 69.4057 1.66272 69.4057C1.69371 69.4303 1.70436 69.4381 1.70436 69.4381C1.73695 69.4604 1.74792 69.4672 1.74792 69.4672C1.78179 69.4871 1.79339 69.4929 1.79339 69.4929C1.82854 69.5101 1.84048 69.5153 1.84048 69.5153C1.87659 69.5298 1.88884 69.5342 1.88884 69.5342C1.91334 69.5422 1.92591 69.546 1.92591 69.546C1.95074 69.5526 1.96332 69.5558 1.96332 69.5558C1.98848 69.561 2.00138 69.5635 2.00138 69.5635C2.02686 69.5674 2.03976 69.5689 2.03976 69.5689C2.06525 69.5714 2.07816 69.5722 2.07816 69.5722C2.10398 69.5734 3.32871 69.6013 3.32871 69.6013" stroke="#0056B3" stroke-width="2.75" stroke-miterlimit="10" stroke-linecap="round" stroke-linejoin="round"/>
<path d="M11.4347 69.7873L15.0632 69.8704L15.1242 66.9489L11.7234 66.8709" fill="white"/>
<path d="M11.4347 69.7873L15.0632 69.8704L15.1242 66.9489L11.7234 66.8709" stroke="#0056B3" stroke-width="2.75" stroke-miterlimit="10" stroke-linecap="round" stroke-linejoin="round"/>
<path d="M8.53494 64.0821C7.62489 64.2169 5.19413 64.6015 4.27493 64.7798C4.00329 64.8383 3.68604 64.9299 3.45737 65.0533C3.37325 65.098 3.30803 65.1415 3.25639 65.1803C3.22027 65.2088 3.20822 65.2185 3.20822 65.2185C3.17366 65.2483 3.16256 65.2587 3.16256 65.2587C3.13019 65.2903 3.1194 65.301 3.1194 65.301C3.08891 65.3342 3.07907 65.3453 3.07907 65.3453C3.05046 65.3799 3.04154 65.3921 3.04154 65.3921C3.01512 65.4287 3.00683 65.4412 3.00683 65.4412C2.98197 65.4802 2.97399 65.494 2.97399 65.494C2.95866 65.5216 2.95132 65.5354 2.95132 65.5354C2.93724 65.5637 2.9302 65.5782 2.9302 65.5782C2.91706 65.6075 2.91065 65.6224 2.91065 65.6224C2.89845 65.6527 2.89266 65.6679 2.89266 65.6679C2.88172 65.6989 2.87624 65.7148 2.87624 65.7148C2.86624 65.7468 2.86139 65.7627 2.86139 65.7627C2.77582 66.0799 2.78041 66.3458 2.7951 66.6503C2.81899 67.0702 2.9102 67.5849 2.97852 68.0024C3.11705 68.7553 3.2186 69.6898 3.67988 70.2896C3.71297 70.3294 3.72421 70.3423 3.72421 70.3423C3.75888 70.3801 3.77076 70.3924 3.77076 70.3924C3.80703 70.4278 3.81954 70.4394 3.81954 70.4394C3.84457 70.4616 3.8574 70.4725 3.8574 70.4725C3.88557 70.4954 3.89998 70.5067 3.89998 70.5067C3.92942 70.5282 3.94414 70.5388 3.94414 70.5388C3.97454 70.559 3.9899 70.5689 3.9899 70.5689C4.02125 70.5878 4.03694 70.597 4.03694 70.597C4.06925 70.6148 4.08556 70.6231 4.08556 70.6231C4.11882 70.6396 4.13546 70.6475 4.13546 70.6475C4.56333 70.8367 4.99542 70.8437 5.44603 70.86C5.89797 70.8655 6.58023 70.8643 7.02254 70.8947C7.54295 70.926 8.46609 71.0173 8.98317 71.031C9.56202 71.0418 10.2203 71.0391 10.7363 70.7437C10.7673 70.7247 10.7775 70.7183 10.7775 70.7183C10.8101 70.6966 10.8262 70.6855 10.8262 70.6855C10.8579 70.6625 10.8731 70.6507 10.8731 70.6507C10.9035 70.6266 10.9184 70.6139 10.9184 70.6139C10.9476 70.5884 10.9619 70.5753 10.9619 70.5753C10.9898 70.5485 11.0037 70.535 11.0037 70.535C11.0307 70.5072 11.0437 70.4927 11.0437 70.4927C11.0695 70.4635 11.0822 70.4487 11.0822 70.4487C11.107 70.4185 11.1191 70.403 11.1191 70.403C11.1429 70.3717 11.1544 70.3556 11.1544 70.3556C11.177 70.323 11.1882 70.3065 11.1882 70.3065C11.2098 70.2728 11.2207 70.256 11.2207 70.256C11.4198 69.9224 11.5016 69.601 11.5718 69.2279C11.6568 68.7466 11.6852 68.2358 11.7078 67.7466C11.7321 67.1286 11.7356 66.4928 11.6572 65.8797C11.603 65.4623 11.4998 64.9995 11.2914 64.651C11.2671 64.6119 11.2547 64.5925 11.2547 64.5925C11.2291 64.5551 11.2163 64.5368 11.2163 64.5368C11.1895 64.501 11.1761 64.4837 11.1761 64.4837C11.148 64.45 11.1411 64.4418 11.1411 64.4418C11.1046 64.402 11.0918 64.3887 11.0918 64.3887C11.0652 64.3628 11.0518 64.3498 11.0518 64.3498C11.0242 64.3253 11.0102 64.3133 11.0102 64.3133C10.9817 64.2901 10.9673 64.2789 10.9673 64.2789C10.9378 64.257 10.9228 64.2467 10.9228 64.2467C10.8924 64.2265 10.877 64.2166 10.877 64.2166C10.8457 64.1978 10.83 64.1885 10.83 64.1885C10.798 64.1707 10.7817 64.1625 10.7817 64.1625C10.7487 64.146 10.7321 64.1381 10.7321 64.1381C10.6985 64.1229 10.6812 64.1157 10.6812 64.1157C10.3836 63.9961 10.1248 63.9731 9.81997 63.9668C9.4033 63.9619 8.95051 64.0251 8.53494 64.0821Z" fill="white" stroke="#0056B3" stroke-width="2.75" stroke-miterlimit="10" stroke-linecap="round" stroke-linejoin="round"/>
<path d="M45.1403 67.1196L41.3613 67.1487L41.3777 70.0708L44.735 70.0449" fill="white"/>
<path d="M45.1403 67.1196L41.3613 67.1487L41.3777 70.0708L44.735 70.0449" stroke="#0056B3" stroke-width="2.75" stroke-miterlimit="10" stroke-linecap="round" stroke-linejoin="round"/>
<path d="M53.6171 69.977L54.3413 69.9714C54.3671 69.9705 54.3797 69.97 54.3797 69.97C54.4053 69.9678 54.4182 69.9665 54.4182 69.9665C54.4437 69.963 54.4563 69.9607 54.4563 69.9607C54.4816 69.9559 54.4942 69.9529 54.4942 69.9529C54.5191 69.9467 54.5318 69.9431 54.5318 69.9431C54.5687 69.9312 54.581 69.9269 54.581 69.9269C54.617 69.9122 54.629 69.9069 54.629 69.9069C54.6641 69.8896 54.6755 69.8836 54.6755 69.8836C54.7094 69.8639 54.7205 69.8569 54.7205 69.8569C54.7531 69.8345 54.7635 69.8268 54.7635 69.8268C54.7946 69.802 54.8047 69.7936 54.8047 69.7936C54.8342 69.7668 54.8437 69.7574 54.8437 69.7574C54.8802 69.7184 54.8888 69.7083 54.8888 69.7083C54.914 69.6767 54.9219 69.666 54.9219 69.666C54.9449 69.6327 54.9522 69.6212 54.9522 69.6212C54.9729 69.5862 54.9796 69.5744 54.9796 69.5744C54.9982 69.5381 55.0039 69.5259 55.0039 69.5259C55.0203 69.4882 55.0251 69.4757 55.0251 69.4757C55.0389 69.4369 55.0431 69.4237 55.0431 69.4237C55.0509 69.3974 55.0545 69.3843 55.0545 69.3843C55.061 69.3576 55.0639 69.3441 55.0639 69.3441C55.0691 69.3171 55.0711 69.3036 55.0711 69.3036C55.0748 69.2762 55.0765 69.2627 55.0765 69.2627C55.0789 69.2353 55.0799 69.2214 55.0799 69.2214C55.0811 69.1937 55.0815 69.1802 55.0815 69.1802C55.0816 69.1663 55.0741 67.8443 55.0741 67.8443C55.0733 67.8165 55.0728 67.803 55.0728 67.803C55.0708 67.7756 55.0696 67.7617 55.0696 67.7617C55.0664 67.7343 55.0643 67.7208 55.0643 67.7208C55.0598 67.6937 55.057 67.6801 55.057 67.6801C55.0513 67.6534 55.0479 67.6398 55.0479 67.6398C55.0369 67.6002 55.0329 67.5869 55.0329 67.5869C55.0193 67.5483 55.0144 67.5354 55.0144 67.5354C54.9983 67.4977 54.9927 67.4855 54.9927 67.4855C54.9744 67.4492 54.9679 67.4373 54.9679 67.4373C54.947 67.4023 54.9399 67.3911 54.9399 67.3911C54.9168 67.3578 54.909 67.3469 54.909 67.3469C54.8841 67.3152 54.8753 67.305 54.8753 67.305C54.8391 67.2659 54.8297 67.2567 54.8297 67.2567C54.8003 67.2297 54.7903 67.2212 54.7903 67.2212C54.7593 67.1966 54.7486 67.1887 54.7486 67.1887C54.7161 67.1665 54.7051 67.1593 54.7051 67.1593C54.6712 67.1395 54.6599 67.1333 54.6599 67.1333C54.6248 67.1158 54.6132 67.1106 54.6132 67.1106C54.5771 67.0958 54.5648 67.0913 54.5648 67.0913C54.5403 67.083 54.5281 67.0792 54.5281 67.0792C54.5032 67.0722 54.4906 67.0691 54.4906 67.0691C54.4655 67.0635 54.4529 67.0614 54.4529 67.0614C54.4274 67.0575 54.4148 67.0557 54.4148 67.0557C54.3893 67.0531 54.3764 67.052 54.3764 67.052C54.3506 67.0508 54.338 67.0503 54.338 67.0503C54.3251 67.0502 53.497 67.0568 53.497 67.0568" fill="white"/>
<path d="M53.6171 69.977L54.3413 69.9714C54.3671 69.9705 54.3797 69.97 54.3797 69.97C54.4053 69.9678 54.4182 69.9665 54.4182 69.9665C54.4437 69.963 54.4563 69.9607 54.4563 69.9607C54.4816 69.9559 54.4942 69.9529 54.4942 69.9529C54.5191 69.9467 54.5318 69.9431 54.5318 69.9431C54.5687 69.9312 54.581 69.9269 54.581 69.9269C54.617 69.9122 54.629 69.9069 54.629 69.9069C54.6641 69.8896 54.6755 69.8836 54.6755 69.8836C54.7094 69.8639 54.7205 69.8569 54.7205 69.8569C54.7531 69.8345 54.7635 69.8268 54.7635 69.8268C54.7946 69.802 54.8047 69.7936 54.8047 69.7936C54.8342 69.7668 54.8437 69.7574 54.8437 69.7574C54.8802 69.7184 54.8888 69.7083 54.8888 69.7083C54.914 69.6767 54.9219 69.666 54.9219 69.666C54.9449 69.6327 54.9522 69.6212 54.9522 69.6212C54.9729 69.5862 54.9796 69.5744 54.9796 69.5744C54.9982 69.5381 55.0039 69.5259 55.0039 69.5259C55.0203 69.4882 55.0251 69.4757 55.0251 69.4757C55.0389 69.4369 55.0431 69.4237 55.0431 69.4237C55.0509 69.3974 55.0545 69.3843 55.0545 69.3843C55.061 69.3576 55.0639 69.3441 55.0639 69.3441C55.0691 69.3171 55.0711 69.3036 55.0711 69.3036C55.0748 69.2762 55.0765 69.2627 55.0765 69.2627C55.0789 69.2353 55.0799 69.2214 55.0799 69.2214C55.0811 69.1937 55.0815 69.1802 55.0815 69.1802C55.0816 69.1663 55.0741 67.8443 55.0741 67.8443C55.0733 67.8165 55.0728 67.803 55.0728 67.803C55.0708 67.7756 55.0696 67.7617 55.0696 67.7617C55.0664 67.7343 55.0643 67.7208 55.0643 67.7208C55.0598 67.6937 55.057 67.6801 55.057 67.6801C55.0513 67.6534 55.0479 67.6398 55.0479 67.6398C55.0369 67.6002 55.0329 67.5869 55.0329 67.5869C55.0193 67.5483 55.0144 67.5354 55.0144 67.5354C54.9983 67.4977 54.9927 67.4855 54.9927 67.4855C54.9744 67.4492 54.9679 67.4373 54.9679 67.4373C54.947 67.4023 54.9399 67.3911 54.9399 67.3911C54.9168 67.3578 54.909 67.3469 54.909 67.3469C54.8841 67.3152 54.8753 67.305 54.8753 67.305C54.8391 67.2659 54.8297 67.2567 54.8297 67.2567C54.8003 67.2297 54.7903 67.2212 54.7903 67.2212C54.7593 67.1966 54.7486 67.1887 54.7486 67.1887C54.7161 67.1665 54.7051 67.1593 54.7051 67.1593C54.6712 67.1395 54.6599 67.1333 54.6599 67.1333C54.6248 67.1158 54.6132 67.1106 54.6132 67.1106C54.5771 67.0958 54.5648 67.0913 54.5648 67.0913C54.5403 67.083 54.5281 67.0792 54.5281 67.0792C54.5032 67.0722 54.4906 67.0691 54.4906 67.0691C54.4655 67.0635 54.4529 67.0614 54.4529 67.0614C54.4274 67.0575 54.4148 67.0557 54.4148 67.0557C54.3893 67.0531 54.3764 67.052 54.3764 67.052C54.3506 67.0508 54.338 67.0503 54.338 67.0503C54.3251 67.0502 53.497 67.0568 53.497 67.0568" stroke="#0056B3" stroke-width="2.75" stroke-miterlimit="10" stroke-linecap="round" stroke-linejoin="round"/>
<path d="M46.6078 65.9069C46.2691 65.9991 45.8876 66.1703 45.6351 66.4028C45.5983 66.4366 45.5863 66.4484 45.5863 66.4484C45.5511 66.4833 45.5396 66.495 45.5396 66.495C45.506 66.531 45.4952 66.5431 45.4952 66.5431C45.4631 66.58 45.4526 66.5925 45.4526 66.5925C45.4221 66.6304 45.4122 66.6432 45.4122 66.6432C45.1274 67.0229 45.0089 67.4467 44.9035 67.8863C44.7985 68.3556 44.7413 68.8411 44.724 69.3232C44.715 69.5995 44.7192 69.8833 44.7445 70.1584C44.7697 70.4406 44.8288 70.7485 44.9499 70.9824C44.9657 71.013 44.9713 71.0229 44.9713 71.0229C44.994 71.0623 44.9999 71.0721 44.9999 71.0721C45.0242 71.1105 45.0304 71.1197 45.0304 71.1197C45.0562 71.1568 45.0631 71.1659 45.0631 71.1659C45.0909 71.2017 45.098 71.2105 45.098 71.2105C45.1277 71.2452 45.1352 71.2537 45.1352 71.2537C45.1667 71.2871 45.1749 71.2953 45.1749 71.2953C45.2083 71.3273 45.2168 71.3352 45.2168 71.3352C45.2521 71.3659 45.2612 71.3737 45.2612 71.3737C45.2891 71.3959 45.2988 71.4034 45.2988 71.4034C45.3279 71.425 45.3379 71.4322 45.3379 71.4322C45.3708 71.4544 45.3878 71.4653 45.3878 71.4653C45.4223 71.4866 45.4398 71.4972 45.4398 71.4972C45.7073 71.6477 45.9547 71.7142 46.2396 71.7786C46.6028 71.8561 46.9912 71.8986 47.3604 71.9325C48.5669 71.9982 50.1454 72.1813 51.3433 72.1779C51.8552 72.1636 52.4383 72.1156 52.8776 71.8315C52.9071 71.8114 52.9169 71.8044 52.9169 71.8044C52.9454 71.7833 52.9549 71.7763 52.9549 71.7763C52.9914 71.7468 53.0006 71.7394 53.0006 71.7394C53.0269 71.7163 53.0405 71.7039 53.0405 71.7039C53.0668 71.6784 53.0799 71.6653 53.0799 71.6653C53.105 71.6387 53.1173 71.625 53.1173 71.625C53.1412 71.5971 53.1529 71.583 53.1529 71.583C53.1758 71.554 53.1867 71.5393 53.1867 71.5393C53.2083 71.5093 53.2188 71.4938 53.2188 71.4938C53.2392 71.4629 53.2494 71.4471 53.2494 71.4471C53.2689 71.4151 53.2784 71.3986 53.2784 71.3986C53.297 71.3656 53.3059 71.3487 53.3059 71.3487C53.5435 70.8747 53.5806 70.3853 53.6265 69.8689C53.6431 69.5869 53.7426 68.3905 53.7383 68.1294C53.7415 67.8798 53.7112 67.5881 53.642 67.3789C53.6303 67.3433 53.6241 67.3256 53.6241 67.3256C53.6111 67.2904 53.6043 67.2731 53.6043 67.2731C53.5901 67.2385 53.5827 67.2212 53.5827 67.2212C53.5672 67.1869 53.5588 67.1699 53.5588 67.1699C53.5418 67.1363 53.5331 67.1193 53.5331 67.1193C53.5147 67.086 53.5051 67.0697 53.5051 67.0697C53.4852 67.0371 53.4749 67.0208 53.4749 67.0208C53.4534 66.9885 53.4425 66.9725 53.4425 66.9725C53.4195 66.9409 53.4076 66.9253 53.4076 66.9253C53.383 66.894 53.3702 66.8786 53.3702 66.8786C53.3439 66.848 53.3305 66.833 53.3305 66.833C53.3024 66.803 53.288 66.788 53.288 66.788C53.2583 66.7587 53.243 66.7441 53.243 66.7441C53.2114 66.7151 53.1951 66.7008 53.1951 66.7008C52.8991 66.4523 52.6121 66.3257 52.2739 66.1946C51.8712 66.0454 51.4465 65.9417 51.0272 65.8638C50.1729 65.7085 49.2899 65.6494 48.4235 65.6715C47.8151 65.6909 47.1983 65.7447 46.6078 65.9069Z" fill="white" stroke="#0056B3" stroke-width="2.75" stroke-miterlimit="10" stroke-linecap="round" stroke-linejoin="round"/>
<path d="M42.2234 70.0645L42.1202 72.0753C42.084 73.1014 42.0855 74.1512 42.2387 75.1666C42.3226 75.731 42.4683 76.2935 42.6409 76.8336C43.0992 78.2731 43.8067 79.7181 44.038 81.2299C44.1941 82.245 44.1304 83.2889 44.0237 84.3064L43.7231 86.8037C43.6462 87.5106 43.6095 88.2371 43.6403 88.9482C43.6734 89.9089 43.8177 91.0515 43.7799 92.0113C43.7236 93.7739 42.9047 95.3893 41.9529 96.7835" fill="white"/>
<path d="M42.2234 70.0645L42.1202 72.0753C42.084 73.1014 42.0855 74.1512 42.2387 75.1666C42.3226 75.731 42.4683 76.2935 42.6409 76.8336C43.0992 78.2731 43.8067 79.7181 44.038 81.2299C44.1941 82.245 44.1304 83.2889 44.0237 84.3064L43.7231 86.8037C43.6462 87.5106 43.6095 88.2371 43.6403 88.9482C43.6734 89.9089 43.8177 91.0515 43.7799 92.0113C43.7236 93.7739 42.9047 95.3893 41.9529 96.7835" stroke="#0056B3" stroke-width="2.75" stroke-miterlimit="10" stroke-linecap="round" stroke-linejoin="round"/>
<path d="M32.0759 95.2145C30.9285 94.0891 30.0658 92.6381 29.5754 91.0557Z" fill="white"/>
<path d="M32.0759 95.2145C30.9285 94.0891 30.0658 92.6381 29.5754 91.0557" stroke="#0056B3" stroke-width="2.75" stroke-miterlimit="10" stroke-linecap="round" stroke-linejoin="round"/>
<path d="M38.0867 136.713C38.808 132.664 39.7707 127.313 40.6766 123.334C41.0633 121.602 41.8256 118.785 42.1614 117.048C42.3583 116.037 42.5093 114.991 42.5729 113.96C42.7639 111.171 42.1475 107.779 41.801 105.004C41.6589 103.851 41.5553 102.653 41.5572 101.49C41.5531 100.174 41.6654 98.8285 41.845 97.5268C41.9419 96.844 42.1997 95.3305 42.2366 94.6646C42.264 94.2576 42.2607 93.8169 42.184 93.4196C42.1148 93.0423 41.9647 92.6901 41.7545 92.4146C41.3138 91.8444 40.73 91.5339 40.1098 91.2803C39.2955 90.9609 38.4281 90.789 37.5701 90.6715C36.3803 90.5177 35.1634 90.4577 33.9689 90.5873C33.3497 90.6644 32.6559 90.7849 32.1297 91.1397C32.0952 91.1648 32.0838 91.1732 32.0838 91.1732C32.0508 91.199 32.0404 91.2077 32.0404 91.2077C32.0039 91.2389 31.9918 91.2496 31.9918 91.2496C31.9576 91.2818 31.9465 91.2929 31.9465 91.2929C31.9144 91.3261 31.9042 91.3376 31.9042 91.3376C31.8744 91.3718 31.8648 91.3836 31.8648 91.3836C31.8372 91.4189 31.8286 91.431 31.8286 91.431C31.8031 91.4673 31.7951 91.4798 31.7951 91.4798C31.7718 91.5172 31.7642 91.5299 31.7642 91.5299C31.7428 91.5683 31.7361 91.5815 31.7361 91.5815C31.7166 91.6209 31.7105 91.6344 31.7105 91.6344C31.6986 91.6613 31.6929 91.6748 31.6929 91.6748C31.6819 91.7021 31.6768 91.716 31.6768 91.716C31.6668 91.744 31.662 91.7581 31.662 91.7581C31.5306 92.1761 31.5791 92.5854 31.6281 92.9875C31.8522 94.6214 32.8233 98.125 33.2118 99.7635C33.7733 102.132 34.2808 104.615 33.9484 107.066C33.6318 109.313 32.7912 111.58 32.5918 113.85C32.2319 117.473 33.067 122.56 33.4088 126.196C33.7246 129.432 33.9116 132.753 33.7473 136.005" fill="white"/>
<path d="M38.0867 136.713C38.808 132.664 39.7707 127.313 40.6766 123.334C41.0633 121.602 41.8256 118.785 42.1614 117.048C42.3583 116.037 42.5093 114.991 42.5729 113.96C42.7639 111.171 42.1475 107.779 41.801 105.004C41.6589 103.851 41.5553 102.653 41.5572 101.49C41.5531 100.174 41.6654 98.8285 41.845 97.5268C41.9419 96.844 42.1997 95.3305 42.2366 94.6646C42.264 94.2576 42.2607 93.8169 42.184 93.4196C42.1148 93.0423 41.9647 92.6901 41.7545 92.4146C41.3138 91.8444 40.73 91.5339 40.1098 91.2803C39.2955 90.9609 38.4281 90.789 37.5701 90.6715C36.3803 90.5177 35.1634 90.4577 33.9689 90.5873C33.3497 90.6644 32.6559 90.7849 32.1297 91.1397C32.0952 91.1648 32.0838 91.1732 32.0838 91.1732C32.0508 91.199 32.0404 91.2077 32.0404 91.2077C32.0039 91.2389 31.9918 91.2496 31.9918 91.2496C31.9576 91.2818 31.9465 91.2929 31.9465 91.2929C31.9144 91.3261 31.9042 91.3376 31.9042 91.3376C31.8744 91.3718 31.8648 91.3836 31.8648 91.3836C31.8372 91.4189 31.8286 91.431 31.8286 91.431C31.8031 91.4673 31.7951 91.4798 31.7951 91.4798C31.7718 91.5172 31.7642 91.5299 31.7642 91.5299C31.7428 91.5683 31.7361 91.5815 31.7361 91.5815C31.7166 91.6209 31.7105 91.6344 31.7105 91.6344C31.6986 91.6613 31.6929 91.6748 31.6929 91.6748C31.6819 91.7021 31.6768 91.716 31.6768 91.716C31.6668 91.744 31.662 91.7581 31.662 91.7581C31.5306 92.1761 31.5791 92.5854 31.6281 92.9875C31.8522 94.6214 32.8233 98.125 33.2118 99.7635C33.7733 102.132 34.2808 104.615 33.9484 107.066C33.6318 109.313 32.7912 111.58 32.5918 113.85C32.2319 117.473 33.067 122.56 33.4088 126.196C33.7246 129.432 33.9116 132.753 33.7473 136.005" stroke="#0056B3" stroke-width="2.75" stroke-miterlimit="10" stroke-linecap="round" stroke-linejoin="round"/>
<path d="M33.1384 148.802C33.1223 148.801 33.0351 148.799 33.0282 148.799C33.0033 148.8 32.9907 148.801 32.9907 148.801C32.9658 148.804 32.9532 148.805 32.9532 148.805C32.9283 148.809 32.916 148.811 32.916 148.811C32.879 148.82 32.867 148.822 32.867 148.822C32.8307 148.833 32.8191 148.837 32.8191 148.837C32.7837 148.851 32.772 148.856 32.772 148.856C32.7375 148.872 32.7261 148.878 32.7261 148.878C32.6929 148.897 32.6819 148.903 32.6819 148.903C32.6499 148.924 32.6394 148.932 32.6394 148.932C32.609 148.955 32.5989 148.963 32.5989 148.963C32.57 148.989 32.5605 148.998 32.5605 148.998C32.5246 149.035 32.5157 149.045 32.5157 149.045C32.4909 149.075 32.483 149.085 32.483 149.085C32.4601 149.117 32.4527 149.128 32.4527 149.128C32.432 149.162 32.4253 149.174 32.4253 149.174C32.4068 149.209 32.401 149.221 32.401 149.221C32.385 149.257 32.3799 149.27 32.3799 149.27C32.366 149.307 32.3618 149.32 32.3618 149.32C32.3505 149.358 32.3473 149.371 32.3473 149.371C32.3385 149.41 32.3358 149.423 32.3358 149.423C32.3315 149.45 32.3295 149.463 32.3295 149.463C32.3265 149.49 32.3251 149.504 32.3251 149.504C32.3234 149.53 32.323 149.544 32.323 149.544L32.2912 150.491C32.2907 150.517 32.2909 150.531 32.2909 150.531C32.2916 150.557 32.2925 150.571 32.2925 150.571C32.2945 150.597 32.2959 150.611 32.2959 150.611C32.3013 150.65 32.3037 150.663 32.3037 150.663C32.3116 150.702 32.3147 150.715 32.3147 150.715C32.3251 150.753 32.3291 150.766 32.3291 150.766C32.342 150.804 32.3466 150.816 32.3466 150.816C32.3618 150.853 32.3674 150.865 32.3674 150.865C32.3851 150.9 32.3913 150.912 32.3913 150.912C32.4112 150.946 32.418 150.956 32.418 150.956C32.4398 150.989 32.4476 150.999 32.4476 150.999C32.4716 151.03 32.4798 151.04 32.4798 151.04C32.5144 151.078 32.5235 151.087 32.5235 151.087C32.5517 151.113 32.5613 151.122 32.5613 151.122C32.5911 151.145 32.6011 151.153 32.6011 151.153C32.6324 151.175 32.6428 151.182 32.6428 151.182C32.6754 151.202 32.6864 151.208 32.6864 151.208C32.7199 151.225 32.7316 151.23 32.7316 151.23C32.7664 151.245 32.778 151.249 32.778 151.249C32.8135 151.261 32.8255 151.264 32.8255 151.264C32.8616 151.273 32.8739 151.276 32.8739 151.276C32.9107 151.282 32.923 151.284 32.923 151.284C32.9475 151.287 32.9601 151.288 32.9601 151.288C33.0231 151.289 39.8521 151.533 39.8849 151.531C39.9098 151.53 39.9224 151.529 39.9224 151.529C39.9473 151.526 39.9599 151.525 39.9599 151.525C39.9848 151.521 39.9971 151.519 39.9971 151.519C40.034 151.511 40.046 151.508 40.046 151.508C40.0823 151.497 40.094 151.493 40.094 151.493C40.1294 151.479 40.1411 151.474 40.1411 151.474C40.1755 151.458 40.1869 151.452 40.1869 151.452C40.2202 151.434 40.2312 151.427 40.2312 151.427C40.2632 151.406 40.2736 151.398 40.2736 151.398C40.3041 151.375 40.3142 151.367 40.3142 151.367C40.3431 151.341 40.3526 151.332 40.3526 151.332C40.3885 151.295 40.3974 151.285 40.3974 151.285C40.4221 151.255 40.4301 151.245 40.4301 151.245C40.453 151.213 40.4604 151.202 40.4604 151.202C40.4811 151.168 40.4878 151.157 40.4878 151.157C40.5063 151.121 40.5121 151.109 40.5121 151.109C40.5281 151.073 40.5332 151.06 40.5332 151.06C40.5471 151.023 40.5513 151.01 40.5513 151.01C40.5626 150.972 40.5658 150.959 40.5658 150.959C40.5746 150.92 40.5773 150.907 40.5773 150.907C40.5815 150.88 40.5835 150.867 40.5835 150.867C40.5866 150.84 40.5879 150.827 40.5879 150.827C40.5897 150.8 40.5901 150.786 40.5901 150.786L40.6036 150.387" fill="white"/>
<path d="M33.1384 148.802C33.1223 148.801 33.0351 148.799 33.0282 148.799C33.0033 148.8 32.9907 148.801 32.9907 148.801C32.9658 148.804 32.9532 148.805 32.9532 148.805C32.9283 148.809 32.916 148.811 32.916 148.811C32.879 148.82 32.867 148.822 32.867 148.822C32.8307 148.833 32.8191 148.837 32.8191 148.837C32.7837 148.851 32.772 148.856 32.772 148.856C32.7375 148.872 32.7261 148.878 32.7261 148.878C32.6929 148.897 32.6819 148.903 32.6819 148.903C32.6499 148.924 32.6394 148.932 32.6394 148.932C32.609 148.955 32.5989 148.963 32.5989 148.963C32.57 148.989 32.5605 148.998 32.5605 148.998C32.5246 149.035 32.5157 149.045 32.5157 149.045C32.4909 149.075 32.483 149.085 32.483 149.085C32.4601 149.117 32.4527 149.128 32.4527 149.128C32.432 149.162 32.4253 149.174 32.4253 149.174C32.4068 149.209 32.401 149.221 32.401 149.221C32.385 149.257 32.3799 149.27 32.3799 149.27C32.366 149.307 32.3618 149.32 32.3618 149.32C32.3505 149.358 32.3473 149.371 32.3473 149.371C32.3385 149.41 32.3358 149.423 32.3358 149.423C32.3315 149.45 32.3295 149.463 32.3295 149.463C32.3265 149.49 32.3251 149.504 32.3251 149.504C32.3234 149.53 32.323 149.544 32.323 149.544L32.2912 150.491C32.2907 150.517 32.2909 150.531 32.2909 150.531C32.2916 150.557 32.2925 150.571 32.2925 150.571C32.2945 150.597 32.2959 150.611 32.2959 150.611C32.3013 150.65 32.3037 150.663 32.3037 150.663C32.3116 150.702 32.3147 150.715 32.3147 150.715C32.3251 150.753 32.3291 150.766 32.3291 150.766C32.342 150.804 32.3466 150.816 32.3466 150.816C32.3618 150.853 32.3674 150.865 32.3674 150.865C32.3851 150.9 32.3913 150.912 32.3913 150.912C32.4112 150.946 32.418 150.956 32.418 150.956C32.4398 150.989 32.4476 150.999 32.4476 150.999C32.4716 151.03 32.4798 151.04 32.4798 151.04C32.5144 151.078 32.5235 151.087 32.5235 151.087C32.5517 151.113 32.5613 151.122 32.5613 151.122C32.5911 151.145 32.6011 151.153 32.6011 151.153C32.6324 151.175 32.6428 151.182 32.6428 151.182C32.6754 151.202 32.6864 151.208 32.6864 151.208C32.7199 151.225 32.7316 151.23 32.7316 151.23C32.7664 151.245 32.778 151.249 32.778 151.249C32.8135 151.261 32.8255 151.264 32.8255 151.264C32.8616 151.273 32.8739 151.276 32.8739 151.276C32.9107 151.282 32.923 151.284 32.923 151.284C32.9475 151.287 32.9601 151.288 32.9601 151.288C33.0231 151.289 39.8521 151.533 39.8849 151.531C39.9098 151.53 39.9224 151.529 39.9224 151.529C39.9473 151.526 39.9599 151.525 39.9599 151.525C39.9848 151.521 39.9971 151.519 39.9971 151.519C40.034 151.511 40.046 151.508 40.046 151.508C40.0823 151.497 40.094 151.493 40.094 151.493C40.1294 151.479 40.1411 151.474 40.1411 151.474C40.1755 151.458 40.1869 151.452 40.1869 151.452C40.2202 151.434 40.2312 151.427 40.2312 151.427C40.2632 151.406 40.2736 151.398 40.2736 151.398C40.3041 151.375 40.3142 151.367 40.3142 151.367C40.3431 151.341 40.3526 151.332 40.3526 151.332C40.3885 151.295 40.3974 151.285 40.3974 151.285C40.4221 151.255 40.4301 151.245 40.4301 151.245C40.453 151.213 40.4604 151.202 40.4604 151.202C40.4811 151.168 40.4878 151.157 40.4878 151.157C40.5063 151.121 40.5121 151.109 40.5121 151.109C40.5281 151.073 40.5332 151.06 40.5332 151.06C40.5471 151.023 40.5513 151.01 40.5513 151.01C40.5626 150.972 40.5658 150.959 40.5658 150.959C40.5746 150.92 40.5773 150.907 40.5773 150.907C40.5815 150.88 40.5835 150.867 40.5835 150.867C40.5866 150.84 40.5879 150.827 40.5879 150.827C40.5897 150.8 40.5901 150.786 40.5901 150.786L40.6036 150.387" stroke="#0056B3" stroke-width="2.75" stroke-miterlimit="10" stroke-linecap="round" stroke-linejoin="round"/>
<path d="M36.6362 150.486C35.8889 150.47 35.068 150.48 34.3333 150.34C34.2968 150.33 34.2877 150.328 34.2877 150.328C34.2512 150.316 34.2421 150.313 34.2421 150.313C34.206 150.299 34.1969 150.295 34.1969 150.295C34.1612 150.279 34.1521 150.274 34.1521 150.274C34.1166 150.255 34.1075 150.25 34.1075 150.25C34.0721 150.229 34.0633 150.223 34.0633 150.223C34.0282 150.199 34.0194 150.193 34.0194 150.193C33.9847 150.167 33.9759 150.16 33.9759 150.16C33.9415 150.132 33.9242 150.117 33.9242 150.117C33.8901 150.086 33.8729 150.069 33.8729 150.069C33.8392 150.035 33.8223 150.017 33.8223 150.017C33.4637 149.625 33.3051 149.157 33.0838 148.686C32.8491 148.187 32.5719 147.691 32.2398 147.261C32.217 147.227 32.2096 147.215 32.2096 147.215C32.1878 147.179 32.1806 147.166 32.1806 147.166C32.0281 146.888 31.9695 146.604 31.9238 146.319C31.8728 145.974 31.8582 145.616 31.8587 145.268C31.8678 144.324 31.986 143.152 32.0631 142.205C32.1968 140.947 32.315 139.368 32.553 138.133C32.6733 137.559 32.8255 136.931 33.1445 136.451C33.1671 136.419 33.1782 136.403 33.1782 136.403C33.2011 136.373 33.2126 136.359 33.2126 136.359C33.2358 136.33 33.2475 136.317 33.2475 136.317C33.2831 136.278 33.2949 136.266 33.2949 136.266C33.331 136.23 33.3434 136.219 33.3434 136.219C33.3805 136.188 33.3865 136.183 33.3865 136.183C33.4179 136.159 33.4242 136.155 33.4242 136.155C33.4559 136.133 33.4622 136.129 33.4622 136.129C33.4945 136.11 33.5008 136.106 33.5008 136.106C33.8944 135.913 34.2796 135.873 34.6845 135.854C35.2021 135.838 35.7252 135.894 36.2364 135.977C37.0144 136.106 37.8663 136.411 38.4204 137.017C38.758 137.391 38.9512 137.792 39.1235 138.246C39.383 138.956 39.518 139.718 39.6042 140.473C39.6754 141.103 39.7902 142.069 39.8803 142.691C39.9421 143.053 39.9821 143.51 40.1087 143.845C40.3934 144.553 40.9604 145.001 41.5042 145.431C41.8972 145.774 42.1481 146.17 42.3067 146.651C42.4852 147.189 42.501 147.774 42.4661 148.339C42.4397 148.792 42.3998 149.304 42.2549 149.723C42.2411 149.759 42.2366 149.771 42.2366 149.771C42.2225 149.805 42.2177 149.816 42.2177 149.816C42.2029 149.848 42.1978 149.858 42.1978 149.858C42.1774 149.898 42.1723 149.907 42.1723 149.907C42.1509 149.942 42.1455 149.951 42.1455 149.951C42.1174 149.99 42.112 149.997 42.112 149.997C42.0799 150.034 42.0768 150.037 42.0768 150.037C42.04 150.07 42.0368 150.072 42.0368 150.072C42.0013 150.096 41.9947 150.1 41.9947 150.1C41.9586 150.12 41.9507 150.124 41.9507 150.124C41.9267 150.135 41.91 150.143 41.91 150.143C41.6126 150.266 41.3333 150.301 41.0259 150.344C39.6093 150.489 38.0609 150.482 36.6362 150.486Z" fill="white" stroke="#0056B3" stroke-width="2.75" stroke-miterlimit="10" stroke-linecap="round" stroke-linejoin="round"/>
<path d="M20.308 81.5358L20.8205 81.5289C21.1705 81.5221 21.5743 81.4785 21.9027 81.3768C22.3323 81.2475 22.6705 81.0546 23.0418 80.82C23.4693 80.551 24.2268 79.9829 24.6482 79.6919C24.918 79.5079 25.2454 79.2865 25.539 79.1984C25.568 79.1902 25.5822 79.1866 25.5822 79.1866C25.6103 79.1797 25.6242 79.1768 25.6242 79.1768C25.6516 79.1712 25.6652 79.169 25.6652 79.169C25.692 79.1648 25.7052 79.1632 25.7052 79.1632C25.7314 79.1603 25.7446 79.1594 25.7446 79.1594C25.7705 79.1579 25.7831 79.1573 25.7831 79.1573C25.8083 79.1572 25.8209 79.1573 25.8209 79.1573C25.8457 79.1582 25.858 79.1589 25.858 79.1589C25.8945 79.1626 25.9065 79.164 25.9065 79.164C25.9423 79.1701 25.9543 79.1722 25.9543 79.1722C25.9895 79.1802 26.0011 79.1834 26.0011 79.1834C26.036 79.1938 26.0477 79.1976 26.0477 79.1976C26.0822 79.21 26.0938 79.2145 26.0938 79.2145C26.1284 79.229 26.1393 79.2341 26.1393 79.2341C26.1729 79.2503 26.1839 79.2558 26.1839 79.2558C26.2172 79.2736 26.2284 79.2798 26.2284 79.2798C26.2617 79.2993 26.2727 79.3062 26.2727 79.3062C26.3056 79.3274 26.3162 79.3346 26.3162 79.3346C26.3485 79.3571 26.3595 79.365 26.3595 79.365C26.3914 79.3892 26.4017 79.3974 26.4017 79.3974C26.4778 79.4586 26.5244 79.5042 26.5713 79.554C26.5987 79.5843 26.6078 79.5945 26.6078 79.5945C26.6343 79.6258 26.6431 79.6364 26.6431 79.6364C26.6684 79.6683 26.6768 79.6792 26.6768 79.6792C26.7008 79.7122 26.7086 79.7231 26.7086 79.7231C26.7313 79.7567 26.7385 79.768 26.7385 79.768" fill="white"/>
<path d="M20.308 81.5358L20.8205 81.5289C21.1705 81.5221 21.5743 81.4785 21.9027 81.3768C22.3323 81.2475 22.6705 81.0546 23.0418 80.82C23.4693 80.551 24.2268 79.9829 24.6482 79.6919C24.918 79.5079 25.2454 79.2865 25.539 79.1984C25.568 79.1902 25.5822 79.1866 25.5822 79.1866C25.6103 79.1797 25.6242 79.1768 25.6242 79.1768C25.6516 79.1712 25.6652 79.169 25.6652 79.169C25.692 79.1648 25.7052 79.1632 25.7052 79.1632C25.7314 79.1603 25.7446 79.1594 25.7446 79.1594C25.7705 79.1579 25.7831 79.1573 25.7831 79.1573C25.8083 79.1572 25.8209 79.1573 25.8209 79.1573C25.8457 79.1582 25.858 79.1589 25.858 79.1589C25.8945 79.1626 25.9065 79.164 25.9065 79.164C25.9423 79.1701 25.9543 79.1722 25.9543 79.1722C25.9895 79.1802 26.0011 79.1834 26.0011 79.1834C26.036 79.1938 26.0477 79.1976 26.0477 79.1976C26.0822 79.21 26.0938 79.2145 26.0938 79.2145C26.1284 79.229 26.1393 79.2341 26.1393 79.2341C26.1729 79.2503 26.1839 79.2558 26.1839 79.2558C26.2172 79.2736 26.2284 79.2798 26.2284 79.2798C26.2617 79.2993 26.2727 79.3062 26.2727 79.3062C26.3056 79.3274 26.3162 79.3346 26.3162 79.3346C26.3485 79.3571 26.3595 79.365 26.3595 79.365C26.3914 79.3892 26.4017 79.3974 26.4017 79.3974C26.4778 79.4586 26.5244 79.5042 26.5713 79.554C26.5987 79.5843 26.6078 79.5945 26.6078 79.5945C26.6343 79.6258 26.6431 79.6364 26.6431 79.6364C26.6684 79.6683 26.6768 79.6792 26.6768 79.6792C26.7008 79.7122 26.7086 79.7231 26.7086 79.7231C26.7313 79.7567 26.7385 79.768 26.7385 79.768" stroke="#0056B3" stroke-width="2.75" stroke-miterlimit="10" stroke-linecap="round" stroke-linejoin="round"/>
<path d="M16.8331 120.792L19.6136 120.89C19.6458 120.89 19.6536 120.89 19.6536 120.89C19.6864 120.888 19.6946 120.888 19.6946 120.888C19.7277 120.884 19.7362 120.883 19.7362 120.883C19.7696 120.877 19.7782 120.875 19.7782 120.875C19.8119 120.867 19.8204 120.864 19.8204 120.864C19.8542 120.854 19.8628 120.851 19.8628 120.851C19.8962 120.838 19.9048 120.835 19.9048 120.835C19.938 120.819 19.9462 120.815 19.9462 120.815C19.9788 120.798 19.9867 120.793 19.9867 120.793C20.0183 120.773 20.0259 120.768 20.0259 120.768C20.0563 120.745 20.0639 120.739 20.0639 120.739C20.1004 120.709 20.1074 120.702 20.1074 120.702C20.1416 120.668 20.148 120.661 20.148 120.661C20.1795 120.625 20.1855 120.617 20.1855 120.617C20.2141 120.579 20.2196 120.571 20.2196 120.571C20.2403 120.538 20.2454 120.53 20.2454 120.53C20.2639 120.496 20.2684 120.488 20.2684 120.488C20.2847 120.453 20.2886 120.445 20.2886 120.445C20.3027 120.41 20.3062 120.401 20.3062 120.401C20.3181 120.365 20.321 120.357 20.321 120.357C20.3311 120.321 20.333 120.312 20.333 120.312C20.3409 120.277 20.3425 120.267 20.3425 120.267C20.3481 120.232 20.3494 120.224 20.3494 120.224C20.3532 120.189 20.3539 120.18 20.3539 120.18C20.3557 120.146 20.3875 119.198 20.3875 119.198C20.3878 119.161 20.3878 119.152 20.3878 119.152C20.3862 119.115 20.3854 119.105 20.3854 119.105C20.3816 119.068 20.3804 119.058 20.3804 119.058C20.3744 119.021 20.3725 119.012 20.3725 119.012C20.3643 118.974 20.3619 118.965 20.3619 118.965C20.3514 118.929 20.3487 118.919 20.3487 118.919C20.336 118.884 20.3326 118.875 20.3326 118.875C20.3181 118.84 20.3141 118.831 20.3141 118.831C20.2976 118.797 20.2933 118.789 20.2933 118.789C20.275 118.756 20.2703 118.748 20.2703 118.748C20.2451 118.71 20.2398 118.702 20.2398 118.702C20.2123 118.666 20.2067 118.659 20.2067 118.659C20.177 118.625 20.1708 118.619 20.1708 118.619C20.1386 118.587 20.132 118.581 20.132 118.581C20.0976 118.552 20.0904 118.546 20.0904 118.546C20.0613 118.525 20.0537 118.52 20.0537 118.52C20.023 118.5 20.0155 118.495 20.0155 118.495C19.9838 118.478 19.9757 118.474 19.9757 118.474C19.943 118.458 19.9346 118.455 19.9346 118.455C19.9009 118.442 19.8925 118.438 19.8925 118.438C19.8582 118.428 19.8497 118.425 19.8497 118.425C19.8151 118.417 19.8067 118.415 19.8067 118.415C19.7721 118.408 19.7632 118.407 19.7632 118.407C19.7286 118.403 19.7198 118.403 19.7198 118.403C19.694 118.401 16.8329 118.301 16.8329 118.301" fill="white"/>
<path d="M16.8331 120.792L19.6136 120.89C19.6458 120.89 19.6536 120.89 19.6536 120.89C19.6864 120.888 19.6946 120.888 19.6946 120.888C19.7277 120.884 19.7362 120.883 19.7362 120.883C19.7696 120.877 19.7782 120.875 19.7782 120.875C19.8119 120.867 19.8204 120.864 19.8204 120.864C19.8542 120.854 19.8628 120.851 19.8628 120.851C19.8962 120.838 19.9048 120.835 19.9048 120.835C19.938 120.819 19.9462 120.815 19.9462 120.815C19.9788 120.798 19.9867 120.793 19.9867 120.793C20.0183 120.773 20.0259 120.768 20.0259 120.768C20.0563 120.745 20.0639 120.739 20.0639 120.739C20.1004 120.709 20.1074 120.702 20.1074 120.702C20.1416 120.668 20.148 120.661 20.148 120.661C20.1795 120.625 20.1855 120.617 20.1855 120.617C20.2141 120.579 20.2196 120.571 20.2196 120.571C20.2403 120.538 20.2454 120.53 20.2454 120.53C20.2639 120.496 20.2684 120.488 20.2684 120.488C20.2847 120.453 20.2886 120.445 20.2886 120.445C20.3027 120.41 20.3062 120.401 20.3062 120.401C20.3181 120.365 20.321 120.357 20.321 120.357C20.3311 120.321 20.333 120.312 20.333 120.312C20.3409 120.277 20.3425 120.267 20.3425 120.267C20.3481 120.232 20.3494 120.224 20.3494 120.224C20.3532 120.189 20.3539 120.18 20.3539 120.18C20.3557 120.146 20.3875 119.198 20.3875 119.198C20.3878 119.161 20.3878 119.152 20.3878 119.152C20.3862 119.115 20.3854 119.105 20.3854 119.105C20.3816 119.068 20.3804 119.058 20.3804 119.058C20.3744 119.021 20.3725 119.012 20.3725 119.012C20.3643 118.974 20.3619 118.965 20.3619 118.965C20.3514 118.929 20.3487 118.919 20.3487 118.919C20.336 118.884 20.3326 118.875 20.3326 118.875C20.3181 118.84 20.3141 118.831 20.3141 118.831C20.2976 118.797 20.2933 118.789 20.2933 118.789C20.275 118.756 20.2703 118.748 20.2703 118.748C20.2451 118.71 20.2398 118.702 20.2398 118.702C20.2123 118.666 20.2067 118.659 20.2067 118.659C20.177 118.625 20.1708 118.619 20.1708 118.619C20.1386 118.587 20.132 118.581 20.132 118.581C20.0976 118.552 20.0904 118.546 20.0904 118.546C20.0613 118.525 20.0537 118.52 20.0537 118.52C20.023 118.5 20.0155 118.495 20.0155 118.495C19.9838 118.478 19.9757 118.474 19.9757 118.474C19.943 118.458 19.9346 118.455 19.9346 118.455C19.9009 118.442 19.8925 118.438 19.8925 118.438C19.8582 118.428 19.8497 118.425 19.8497 118.425C19.8151 118.417 19.8067 118.415 19.8067 118.415C19.7721 118.408 19.7632 118.407 19.7632 118.407C19.7286 118.403 19.7198 118.403 19.7198 118.403C19.694 118.401 16.8329 118.301 16.8329 118.301" stroke="#0056B3" stroke-width="2.75" stroke-miterlimit="10" stroke-linecap="round" stroke-linejoin="round"/>
<path d="M21.9455 74.8318C21.8276 74.4437 21.6646 74.045 21.4726 73.6956C21.2123 73.2154 20.8796 72.8087 20.5148 72.4829C19.7355 71.7983 18.7649 71.3996 17.7834 71.1946C17.0101 71.0365 16.2116 71.0051 15.4279 71.0823C14.7417 71.1518 14.0545 71.3025 13.4137 71.5797C12.8167 71.8383 12.23 72.2366 11.8969 72.8026C11.6668 73.1911 11.5675 73.6236 11.517 74.0432C11.3916 75.1695 11.5943 76.3878 11.495 77.5156C11.4362 78.2037 11.2528 78.8781 11.0378 79.5271C10.6968 80.5404 10.263 81.6701 10.0216 82.7146C9.56793 84.6365 9.4921 86.6546 9.47707 88.6289C9.48015 92.1556 9.78222 95.7536 10.2089 99.248C10.3605 100.436 10.7932 103.426 10.8701 104.614C10.9151 105.28 10.8825 105.962 10.8548 106.624C10.8263 107.012 10.8365 107.456 10.9623 107.811C10.9753 107.846 10.9796 107.858 10.9796 107.858C10.9935 107.892 10.9981 107.903 10.9981 107.903C11.013 107.936 11.0183 107.947 11.0183 107.947C11.0344 107.979 11.04 107.99 11.04 107.99C11.0571 108.021 11.063 108.031 11.063 108.031C11.0814 108.062 11.0876 108.071 11.0876 108.071C11.1137 108.11 11.1206 108.119 11.1206 108.119C11.149 108.156 11.1562 108.165 11.1562 108.165C11.1896 108.203 11.1989 108.213 11.1989 108.213C11.2283 108.242 11.2383 108.252 11.2383 108.252C11.2693 108.279 11.28 108.288 11.28 108.288C11.3125 108.313 11.3238 108.321 11.3238 108.321C11.3583 108.345 11.3699 108.353 11.3699 108.353C11.4059 108.376 11.4181 108.383 11.4181 108.383C11.7042 108.545 12.0112 108.59 12.3004 108.624C12.7143 108.666 13.1852 108.665 13.6025 108.672C14.0349 108.674 14.504 108.672 14.933 108.625C15.229 108.593 15.5706 108.533 15.8232 108.41C15.8545 108.394 15.87 108.386 15.87 108.386C15.8997 108.369 15.9143 108.36 15.9143 108.36C15.9428 108.342 15.9564 108.333 15.9564 108.333C15.9833 108.315 15.9963 108.305 15.9963 108.305C16.0216 108.286 16.034 108.276 16.034 108.276C16.0695 108.245 16.0809 108.234 16.0809 108.234C16.1139 108.201 16.119 108.196 16.119 108.196C16.1495 108.161 16.1546 108.155 16.1546 108.155C16.1829 108.119 16.1921 108.107 16.1921 108.107C16.2183 108.068 16.2262 108.055 16.2262 108.055C16.2422 108.029 16.2498 108.015 16.2498 108.015C16.2645 107.987 16.2719 107.973 16.2719 107.973C16.2857 107.944 16.2924 107.929 16.2924 107.929C16.3052 107.9 16.3113 107.885 16.3113 107.885C16.3229 107.854 16.3287 107.838 16.3287 107.838C16.3393 107.806 16.3445 107.79 16.3445 107.79C16.4811 107.299 16.4484 106.838 16.4345 106.346C16.3554 105.026 16.255 103.576 16.3066 102.257C16.3476 100.931 16.4875 99.59 16.7594 98.2948C17.2013 96.1148 18.1794 93.4498 18.884 91.335C19.1878 90.4016 19.48 89.422 19.6427 88.4489C19.7616 87.7663 19.8095 87.0578 19.8139 86.3636C19.8239 84.8414 19.723 83.1175 20.2555 81.6812C20.5928 80.7007 21.2196 79.6631 21.7278 78.7687C21.9408 78.3879 22.1618 77.9479 22.2382 77.5176C22.3039 77.1545 22.2785 76.8202 22.2554 76.4609C22.2136 75.9079 22.1091 75.3576 21.9455 74.8318Z" fill="white" stroke="#0056B3" stroke-width="2.75" stroke-miterlimit="10" stroke-linecap="round" stroke-linejoin="round"/>
<path d="M10.7855 103.677C10.1678 104.636 9.6748 105.72 9.51697 106.882C9.42713 107.636 9.29619 111.14 9.23347 111.891C9.14768 113.105 8.99222 114.413 8.81738 115.616C8.56096 117.233 8.34453 118.895 8.3947 120.538C8.41367 121.15 8.44983 121.778 8.66153 122.353C8.85387 122.905 9.22815 123.39 9.6742 123.675C9.97349 123.873 10.2763 123.978 10.6021 124.095C11.5624 124.424 12.5885 124.525 13.5907 124.411C14.1556 124.348 14.7921 124.232 15.2664 123.908C15.3006 123.883 15.312 123.874 15.312 123.874C15.3446 123.849 15.3554 123.841 15.3554 123.841C15.3865 123.815 15.3966 123.806 15.3966 123.806C15.4261 123.779 15.4357 123.77 15.4357 123.77C15.754 123.446 15.9792 123.082 16.1983 122.684C16.3741 122.347 16.5685 121.963 16.6752 121.601C16.8525 120.982 16.8903 120.323 16.8936 119.679C16.8851 118.356 16.6867 116.866 16.6334 115.543C16.6172 115.114 16.5873 114.647 16.6221 114.22C16.6708 113.653 16.825 113.099 17.0271 112.574C17.1017 112.378 17.1964 112.176 17.264 111.983C17.3606 111.713 17.4346 111.427 17.4887 111.144C17.6736 110.196 17.626 109.201 17.5558 108.242C17.5101 107.635 17.4443 107.011 17.3342 106.414C17.2514 105.952 17.1241 105.461 16.8546 105.111C16.8231 105.071 16.8153 105.062 16.8153 105.062C16.7828 105.024 16.7744 105.015 16.7744 105.015C16.7409 104.98 16.7322 104.971 16.7322 104.971C16.6975 104.937 16.6887 104.929 16.6887 104.929C16.6531 104.898 16.644 104.89 16.644 104.89C16.6164 104.868 16.6074 104.861 16.6074 104.861C16.5792 104.84 16.5698 104.834 16.5698 104.834C16.5409 104.814 16.5312 104.808 16.5312 104.808C16.5017 104.79 16.492 104.784 16.492 104.784C16.4619 104.767 16.4519 104.762 16.4519 104.762C16.4211 104.746 16.4108 104.741 16.4108 104.741C16.3794 104.727 16.369 104.722 16.369 104.722" fill="white"/>
<path d="M10.7855 103.677C10.1678 104.636 9.6748 105.72 9.51697 106.882C9.42713 107.636 9.29619 111.14 9.23347 111.891C9.14768 113.105 8.99222 114.413 8.81738 115.616C8.56096 117.233 8.34453 118.895 8.3947 120.538C8.41367 121.15 8.44983 121.778 8.66153 122.353C8.85387 122.905 9.22815 123.39 9.6742 123.675C9.97349 123.873 10.2763 123.978 10.6021 124.095C11.5624 124.424 12.5885 124.525 13.5907 124.411C14.1556 124.348 14.7921 124.232 15.2664 123.908C15.3006 123.883 15.312 123.874 15.312 123.874C15.3446 123.849 15.3554 123.841 15.3554 123.841C15.3865 123.815 15.3966 123.806 15.3966 123.806C15.4261 123.779 15.4357 123.77 15.4357 123.77C15.754 123.446 15.9792 123.082 16.1983 122.684C16.3741 122.347 16.5685 121.963 16.6752 121.601C16.8525 120.982 16.8903 120.323 16.8936 119.679C16.8851 118.356 16.6867 116.866 16.6334 115.543C16.6172 115.114 16.5873 114.647 16.6221 114.22C16.6708 113.653 16.825 113.099 17.0271 112.574C17.1017 112.378 17.1964 112.176 17.264 111.983C17.3606 111.713 17.4346 111.427 17.4887 111.144C17.6736 110.196 17.626 109.201 17.5558 108.242C17.5101 107.635 17.4443 107.011 17.3342 106.414C17.2514 105.952 17.1241 105.461 16.8546 105.111C16.8231 105.071 16.8153 105.062 16.8153 105.062C16.7828 105.024 16.7744 105.015 16.7744 105.015C16.7409 104.98 16.7322 104.971 16.7322 104.971C16.6975 104.937 16.6887 104.929 16.6887 104.929C16.6531 104.898 16.644 104.89 16.644 104.89C16.6164 104.868 16.6074 104.861 16.6074 104.861C16.5792 104.84 16.5698 104.834 16.5698 104.834C16.5409 104.814 16.5312 104.808 16.5312 104.808C16.5017 104.79 16.492 104.784 16.492 104.784C16.4619 104.767 16.4519 104.762 16.4519 104.762C16.4211 104.746 16.4108 104.741 16.4108 104.741C16.3794 104.727 16.369 104.722 16.369 104.722" stroke="#0056B3" stroke-width="2.75" stroke-miterlimit="10" stroke-linecap="round" stroke-linejoin="round"/>
<path d="M20.3442 120.259L21.2242 120.267L24.0847 131.043L24.7493 131.048" fill="white"/>
<path d="M20.3442 120.259L21.2242 120.267L24.0847 131.043L24.7493 131.048" stroke="#0056B3" stroke-width="2.75" stroke-miterlimit="10" stroke-linecap="round" stroke-linejoin="round"/>
<path d="M20.3838 119.088L22.2634 119.106L24.7684 128.541" fill="white"/>
<path d="M20.3838 119.088L22.2634 119.106L24.7684 128.541" stroke="#0056B3" stroke-width="2.75" stroke-miterlimit="10" stroke-linecap="round" stroke-linejoin="round"/>
<path d="M32.335 149.431L31.4553 149.423L30.6472 131.865" fill="white"/>
<path d="M32.335 149.431L31.4553 149.423L30.6472 131.865" stroke="#0056B3" stroke-width="2.75" stroke-miterlimit="10" stroke-linecap="round" stroke-linejoin="round"/>
<path d="M32.296 150.602L30.4164 150.584L29.5544 131.857" fill="white"/>
<path d="M32.296 150.602L30.4164 150.584L29.5544 131.857" stroke="#0056B3" stroke-width="2.75" stroke-miterlimit="10" stroke-linecap="round" stroke-linejoin="round"/>
<path d="M26.3926 131.833L24.7434 131.82L24.964 102.84C24.9663 102.577 24.9738 102.221 24.9836 101.96C25.0139 101.164 25.0813 100.342 25.1972 99.5552C25.4103 98.1341 25.7843 96.7084 26.5008 95.4798" fill="white"/>
<path d="M26.3926 131.833L24.7434 131.82L24.964 102.84C24.9663 102.577 24.9738 102.221 24.9836 101.96C25.0139 101.164 25.0813 100.342 25.1972 99.5552C25.4103 98.1341 25.7843 96.7084 26.5008 95.4798" stroke="#0056B3" stroke-width="2.75" stroke-miterlimit="10" stroke-linecap="round" stroke-linejoin="round"/>
<path d="M29.1065 131.853L30.7556 131.866L30.9762 102.885C30.9779 102.623 30.9759 102.267 30.97 102.005C30.9518 101.209 30.8969 100.386 30.793 99.5978C30.6016 98.1736 30.2494 96.7424 29.5517 95.503" fill="white"/>
<path d="M29.1065 131.853L30.7556 131.866L30.9762 102.885C30.9779 102.623 30.9759 102.267 30.97 102.005C30.9518 101.209 30.8969 100.386 30.793 99.5978C30.6016 98.1736 30.2494 96.7424 29.5517 95.503" stroke="#0056B3" stroke-width="2.75" stroke-miterlimit="10" stroke-linecap="round" stroke-linejoin="round"/>
<path d="M26.6272 101.01C26.6278 100.928 26.6349 100.86 26.6413 100.812C26.6462 100.779 26.6489 100.762 26.6489 100.762C26.6548 100.728 26.6584 100.711 26.6584 100.711C26.6656 100.677 26.6695 100.66 26.6695 100.66C26.678 100.626 26.6825 100.609 26.6825 100.609C26.6922 100.575 26.6974 100.558 26.6974 100.558C26.7083 100.525 26.7141 100.508 26.7141 100.508C26.7264 100.474 26.7328 100.457 26.7328 100.457C26.7463 100.424 26.7533 100.408 26.7533 100.408C26.7681 100.375 26.7757 100.358 26.7757 100.358C26.7917 100.325 26.8001 100.309 26.8001 100.309C26.8173 100.277 26.8263 100.261 26.8263 100.261C26.8448 100.229 26.8543 100.214 26.8543 100.214C26.8741 100.183 26.884 100.168 26.884 100.168C26.9047 100.137 26.9155 100.123 26.9155 100.123C26.9375 100.093 26.9486 100.079 26.9486 100.079C26.9715 100.05 26.9832 100.037 26.9832 100.037C27.0074 100.009 27.0195 99.9956 27.0195 99.9956C27.0445 99.9691 27.0572 99.956 27.0572 99.956C27.0833 99.9305 27.0963 99.9181 27.0963 99.9181C27.1232 99.8939 27.1369 99.8819 27.1369 99.8819C27.1644 99.8587 27.1784 99.8473 27.1784 99.8473C27.2069 99.8256 27.2212 99.8149 27.2212 99.8149C27.2503 99.7941 27.2649 99.7841 27.2649 99.7841C27.2946 99.7647 27.3095 99.7553 27.3095 99.7553C27.3395 99.7373 27.3547 99.7286 27.3547 99.7286C27.3854 99.7119 27.4006 99.7039 27.4006 99.7039C27.4316 99.6886 27.4471 99.6813 27.4471 99.6813C27.4784 99.6673 27.4942 99.6607 27.4942 99.6607C27.5258 99.6481 27.5416 99.6421 27.5416 99.6421C27.5731 99.6309 27.5889 99.6256 27.5889 99.6256C27.6205 99.6157 27.6366 99.611 27.6366 99.611C27.6685 99.6025 27.6842 99.5986 27.6842 99.5986C27.7158 99.5914 27.7319 99.5881 27.7319 99.5881C27.7634 99.5819 27.7792 99.5793 27.7792 99.5793C27.9318 99.5544 28.0723 99.5596 28.1946 99.5798C28.2261 99.5854 28.2418 99.5886 28.2418 99.5886C28.2733 99.5956 28.289 99.5994 28.289 99.5994C28.3204 99.6078 28.3365 99.612 28.3365 99.612C28.3682 99.6213 28.3839 99.6265 28.3839 99.6265C28.4153 99.6373 28.4313 99.6431 28.4313 99.6431C28.4627 99.6552 28.4785 99.6618 28.4785 99.6618C28.5095 99.6752 28.5252 99.6824 28.5252 99.6824C28.5563 99.6972 28.5717 99.7051 28.5717 99.7051C28.6024 99.7212 28.6175 99.7298 28.6175 99.7298C28.6476 99.7473 28.6626 99.7565 28.6626 99.7565C28.6924 99.7753 28.7071 99.7852 28.7071 99.7852C28.7363 99.8054 28.7507 99.816 28.7507 99.816C28.7792 99.8375 28.7933 99.8485 28.7933 99.8485C28.8211 99.8713 28.8349 99.8829 28.8349 99.8829C28.8618 99.9068 28.8753 99.9191 28.8753 99.9191C28.9015 99.9443 28.9143 99.9569 28.9143 99.9569C28.9396 99.9832 28.9522 99.9964 28.9522 99.9964C28.9765 100.024 28.9884 100.038 28.9884 100.038C29.0118 100.066 29.023 100.08 29.023 100.08C29.0452 100.109 29.0561 100.124 29.0561 100.124C29.0772 100.154 29.0875 100.169 29.0875 100.169C29.1075 100.2 29.1171 100.216 29.1171 100.216C29.1358 100.247 29.1451 100.263 29.1451 100.263C29.1628 100.295 29.1712 100.311 29.1712 100.311C29.1876 100.344 29.1954 100.36 29.1954 100.36C29.2106 100.393 29.2177 100.409 29.2177 100.409C29.2316 100.443 29.2381 100.46 29.2381 100.46C29.2507 100.493 29.2566 100.51 29.2566 100.51C29.268 100.544 29.2732 100.561 29.2732 100.561C29.2834 100.595 29.288 100.612 29.288 100.612C29.2968 100.646 29.3008 100.663 29.3008 100.663C29.3084 100.697 29.3117 100.714 29.3117 100.714C29.3181 100.748 29.3211 100.765 29.3211 100.765C29.3262 100.799 29.3286 100.816 29.3286 100.816C29.3558 101.259 28.9166 158.13 28.8912 158.564C28.8863 158.597 28.8836 158.614 28.8836 158.614C28.8774 158.648 28.8741 158.665 28.8741 158.665C28.8669 158.699 28.863 158.716 28.863 158.716C28.8545 158.75 28.85 158.767 28.85 158.767C28.8403 158.801 28.8351 158.818 28.8351 158.818C28.8242 158.851 28.8184 158.868 28.8184 158.868C28.8061 158.902 28.7997 158.919 28.7997 158.919C28.7862 158.952 28.7792 158.968 28.7792 158.968C28.7644 159.002 28.7567 159.018 28.7567 159.018C28.7407 159.051 28.7324 159.067 28.7324 159.067C28.7152 159.099 28.7062 159.115 28.7062 159.115C28.6877 159.147 28.6782 159.162 28.6782 159.162C28.6584 159.193 28.6485 159.208 28.6485 159.208C28.6278 159.239 28.617 159.253 28.617 159.253C28.595 159.283 28.5839 159.297 28.5839 159.297C28.561 159.326 28.5492 159.339 28.5492 159.339C28.5251 159.367 28.513 159.38 28.513 159.38C28.4879 159.407 28.4753 159.42 28.4753 159.42C28.4492 159.446 28.4362 159.458 28.4362 159.458C28.4093 159.482 28.3956 159.494 28.3956 159.494C28.368 159.517 28.3541 159.529 28.3541 159.529C28.3256 159.55 28.3113 159.561 28.3113 159.561C28.2822 159.582 28.2676 159.592 28.2676 159.592C28.2379 159.611 28.223 159.621 28.223 159.621C28.1929 159.639 28.1778 159.647 28.1778 159.647C28.1471 159.664 28.1319 159.672 28.1319 159.672C28.1009 159.687 28.0854 159.695 28.0854 159.695C28.0541 159.709 28.0383 159.715 28.0383 159.715C28.0067 159.728 27.9909 159.734 27.9909 159.734C27.9594 159.745 27.9436 159.75 27.9436 159.75C27.912 159.76 27.8959 159.765 27.8959 159.765C27.864 159.774 27.8483 159.777 27.8483 159.777C27.8167 159.785 27.8009 159.788 27.8009 159.788C27.7694 159.794 27.7536 159.797 27.7536 159.797C27.601 159.822 27.4605 159.817 27.3385 159.797C27.307 159.791 27.2913 159.788 27.2913 159.788C27.2598 159.781 27.2441 159.777 27.2441 159.777C27.2127 159.769 27.1967 159.764 27.1967 159.764C27.1649 159.755 27.1492 159.75 27.1492 159.75C27.1178 159.739 27.1018 159.733 27.1018 159.733C27.0704 159.721 27.0547 159.715 27.0547 159.715C27.0236 159.701 27.0079 159.694 27.0079 159.694C26.9768 159.679 26.9614 159.671 26.9614 159.671C26.9307 159.655 26.9157 159.647 26.9157 159.647C26.8855 159.629 26.8705 159.62 26.8705 159.62C26.8407 159.601 26.826 159.591 26.826 159.591C26.7968 159.571 26.7824 159.56 26.7824 159.56C26.7539 159.539 26.7399 159.528 26.7399 159.528C26.712 159.505 26.6982 159.493 26.6982 159.493C26.6713 159.47 26.6579 159.457 26.6579 159.457C26.6316 159.432 26.6188 159.419 26.6188 159.419C26.5935 159.393 26.581 159.38 26.581 159.38C26.5566 159.353 26.5447 159.339 26.5447 159.339C26.5213 159.31 26.5101 159.296 26.5101 159.296C26.488 159.267 26.4771 159.252 26.4771 159.252C26.4559 159.222 26.4456 159.207 26.4456 159.207C26.4257 159.177 26.416 159.161 26.416 159.161C26.3973 159.13 26.388 159.114 26.388 159.114C26.3703 159.082 26.3619 159.065 26.3619 159.065C26.3455 159.033 26.3377 159.017 26.3377 159.017C26.3226 158.984 26.3154 158.967 26.3154 158.967C26.3015 158.934 26.295 158.917 26.295 158.917C26.2824 158.883 26.2765 158.866 26.2765 158.866C26.2651 158.832 26.2599 158.815 26.2599 158.815C26.2498 158.781 26.2452 158.764 26.2452 158.764C26.2363 158.73 26.2323 158.713 26.2323 158.713C26.2247 158.679 26.2214 158.662 26.2214 158.662C26.215 158.628 26.212 158.611 26.212 158.611C26.2069 158.577 26.2045 158.56 26.2045 158.56C26.1617 158.388 26.6406 101.191 26.6272 101.01Z" fill="white" stroke="#0056B3" stroke-width="2.75" stroke-miterlimit="10" stroke-linecap="round" stroke-linejoin="round"/>
<path d="M30.0204 94.1051L26.0535 94.075L26.0428 95.4764L30.0097 95.5065L30.0204 94.1051Z" fill="white" stroke="#0056B3" stroke-width="2.75" stroke-miterlimit="10" stroke-linecap="round" stroke-linejoin="round"/>
<path d="M29.6311 83.7894L26.6 83.7664L26.5215 94.0783L29.5526 94.1014L29.6311 83.7894Z" fill="white" stroke="#0056B3" stroke-width="2.75" stroke-miterlimit="10" stroke-linecap="round" stroke-linejoin="round"/>
<path d="M30.1096 82.3918L26.1427 82.3616L26.132 83.763L30.0989 83.7932L30.1096 82.3918Z" fill="white" stroke="#0056B3" stroke-width="2.75" stroke-miterlimit="10" stroke-linecap="round" stroke-linejoin="round"/>
<path d="M29.5793 74.3686L26.7944 74.3474L26.7334 82.3659L29.5183 82.3871L29.5793 74.3686Z" fill="white" stroke="#0056B3" stroke-width="2.75" stroke-miterlimit="10" stroke-linecap="round" stroke-linejoin="round"/>
<path d="M30.2207 71.8878C30.4711 71.8857 31.7068 71.9157 31.9248 71.8805C32.1603 71.8512 32.3945 71.786 32.6138 71.6883C32.804 71.6069 33.0389 71.4582 33.1917 71.3291C33.4269 71.132 36.0573 68.6819 36.223 68.5651C36.4644 68.3725 36.7297 68.2031 37.0025 68.0668C37.4136 67.8619 37.8578 67.7246 38.3071 67.6631C38.6642 67.5945 40.9601 67.6204 41.3634 67.6056" fill="white"/>
<path d="M30.2207 71.8878C30.4711 71.8857 31.7068 71.9157 31.9248 71.8805C32.1603 71.8512 32.3945 71.786 32.6138 71.6883C32.804 71.6069 33.0389 71.4582 33.1917 71.3291C33.4269 71.132 36.0573 68.6819 36.223 68.5651C36.4644 68.3725 36.7297 68.2031 37.0025 68.0668C37.4136 67.8619 37.8578 67.7246 38.3071 67.6631C38.6642 67.5945 40.9601 67.6204 41.3634 67.6056" stroke="#0056B3" stroke-width="2.75" stroke-miterlimit="10" stroke-linecap="round" stroke-linejoin="round"/>
<path d="M15.1147 67.4058C15.5304 67.4241 17.8148 67.4378 18.1699 67.5099C18.6185 67.5782 19.0602 67.7222 19.4681 67.9333C19.7392 68.0734 20.0015 68.2468 20.24 68.4435C20.3898 68.5518 23.0077 71.0595 23.1941 71.2233C23.406 71.4058 23.5677 71.5092 23.8012 71.6212C24.0187 71.7223 24.2519 71.7914 24.4873 71.8239C24.7109 71.8662 25.9457 71.8475 26.191 71.8572" fill="white"/>
<path d="M15.1147 67.4058C15.5304 67.4241 17.8148 67.4378 18.1699 67.5099C18.6185 67.5782 19.0602 67.7222 19.4681 67.9333C19.7392 68.0734 20.0015 68.2468 20.24 68.4435C20.3898 68.5518 23.0077 71.0595 23.1941 71.2233C23.406 71.4058 23.5677 71.5092 23.8012 71.6212C24.0187 71.7223 24.2519 71.7914 24.4873 71.8239C24.7109 71.8662 25.9457 71.8475 26.191 71.8572" stroke="#0056B3" stroke-width="2.75" stroke-miterlimit="10" stroke-linecap="round" stroke-linejoin="round"/>
<path d="M30.2054 73.896C30.568 73.893 31.7243 73.9275 32.0607 73.8841C32.392 73.8491 32.7252 73.7728 33.0407 73.6589C33.4302 73.5184 33.8046 73.3174 34.1429 73.067C34.6199 72.7273 36.996 70.4159 37.4815 70.0689C37.7019 69.9184 37.9105 69.8182 38.1565 69.7402C38.3235 69.6888 38.4989 69.6546 38.6722 69.6407C38.7265 69.6364 38.7926 69.6331 38.8471 69.6329L41.375 69.6136" fill="white"/>
<path d="M30.2054 73.896C30.568 73.893 31.7243 73.9275 32.0607 73.8841C32.392 73.8491 32.7252 73.7728 33.0407 73.6589C33.4302 73.5184 33.8046 73.3174 34.1429 73.067C34.6199 72.7273 36.996 70.4159 37.4815 70.0689C37.7019 69.9184 37.9105 69.8182 38.1565 69.7402C38.3235 69.6888 38.4989 69.6546 38.6722 69.6407C38.7265 69.6364 38.7926 69.6331 38.8471 69.6329L41.375 69.6136" stroke="#0056B3" stroke-width="2.75" stroke-miterlimit="10" stroke-linecap="round" stroke-linejoin="round"/>
<path d="M15.0726 69.4136L17.5999 69.4714C17.655 69.4728 17.7198 69.4763 17.7746 69.4818C17.9622 69.4998 18.1512 69.5412 18.3306 69.6034C18.5379 69.6753 18.7387 69.777 18.922 69.9028C19.4524 70.2843 21.7663 72.6226 22.2512 72.977C22.5857 73.2322 22.9573 73.4393 23.3443 73.5856C23.658 73.7043 23.99 73.786 24.3208 73.8257C24.6599 73.8767 25.8208 73.855 26.1757 73.8659" fill="white"/>
<path d="M15.0726 69.4136L17.5999 69.4714C17.655 69.4728 17.7198 69.4763 17.7746 69.4818C17.9622 69.4998 18.1512 69.5412 18.3306 69.6034C18.5379 69.6753 18.7387 69.777 18.922 69.9028C19.4524 70.2843 21.7663 72.6226 22.2512 72.977C22.5857 73.2322 22.9573 73.4393 23.3443 73.5856C23.658 73.7043 23.99 73.786 24.3208 73.8257C24.6599 73.8767 25.8208 73.855 26.1757 73.8659" stroke="#0056B3" stroke-width="2.75" stroke-miterlimit="10" stroke-linecap="round" stroke-linejoin="round"/>
<path d="M30.2243 71.4106L26.1947 71.3799L26.1721 74.3426L30.2017 74.3733L30.2243 71.4106Z" fill="white" stroke="#0056B3" stroke-width="2.75" stroke-miterlimit="10" stroke-linecap="round" stroke-linejoin="round"/>
</g>
</svg>
