<svg width="54" height="165" viewBox="0 0 54 165" fill="none" xmlns="http://www.w3.org/2000/svg">
<g opacity="0.69">
<path d="M29.7412 20.6052C29.7067 20.5889 29.698 20.5844 29.698 20.5844C29.657 20.5609 29.6491 20.556 29.6491 20.556C29.6106 20.5293 29.6034 20.5238 29.6034 20.5238C29.5674 20.494 29.5606 20.4877 29.5606 20.4877C29.5203 20.4486 29.5141 20.4416 29.5141 20.4416C29.4832 20.4063 29.4771 20.3987 29.4771 20.3987C29.4483 20.3609 29.4425 20.3529 29.4425 20.3529C29.4155 20.3127 29.4105 20.3044 29.4105 20.3044C29.3903 20.2708 29.3806 20.2534 29.3806 20.2534C29.3619 20.2184 29.3529 20.2004 29.3529 20.2004C29.3356 20.164 29.3274 20.1453 29.3274 20.1453C29.3115 20.1075 29.3036 20.0885 29.3036 20.0885C29.1017 19.5454 29.1003 18.9375 29.024 18.3733C28.92 17.5182 28.608 16.6213 28.5461 15.7614C28.514 15.3324 28.563 14.8794 28.6832 14.4815C28.8084 14.0546 29.0143 13.6501 29.2514 13.2709C29.548 12.7958 29.9683 12.2132 30.113 11.6829C30.1867 11.4275 30.186 11.1804 30.1551 10.9468C30.1133 10.6047 29.9921 10.2068 30.0064 9.8665C30.0086 9.82976 30.0093 9.81763 30.0093 9.81763C30.0129 9.78124 30.014 9.76911 30.014 9.76911C30.0187 9.73376 30.0205 9.72198 30.0205 9.72198C30.0266 9.68697 30.0291 9.67518 30.0291 9.67518C30.0367 9.64018 30.0396 9.62874 30.0396 9.62874C30.1274 9.25964 30.3768 8.93975 30.6154 8.68224C30.8928 8.39389 31.1271 8.1849 31.4348 7.97245C31.7212 7.77663 32.0548 7.62899 32.3762 7.56626C33.0585 7.4356 33.7603 7.56695 34.3656 7.80401C34.9522 8.03448 35.478 8.43998 36.0095 8.75641C36.423 9.00767 36.8674 9.20938 37.3295 9.34489C38.0097 9.55319 38.9083 9.71677 39.5906 9.91952C39.9807 10.0356 40.4183 10.1982 40.7177 10.4564C40.7591 10.4928 40.7793 10.5111 40.7793 10.5111C40.8181 10.5486 40.8369 10.5676 40.8369 10.5676C40.8732 10.6064 40.8905 10.6259 40.8905 10.6259C41.6181 11.4753 41.1431 12.6131 40.9286 13.5506C40.803 14.0473 40.7069 14.5983 40.6263 15.105C40.5094 15.8436 40.3571 16.935 40.1858 17.6541C40.0297 18.3327 39.8184 19.0165 39.5589 19.665C39.3239 20.2247 39.0771 20.8385 38.697 21.3185C38.6629 21.358 38.6456 21.3771 38.6456 21.3771C38.6114 21.4131 38.6028 21.4218 38.6028 21.4218C38.5682 21.4543 38.5596 21.4623 38.5596 21.4623C38.525 21.4918 38.5164 21.4984 38.5164 21.4984C38.4818 21.524 38.4732 21.5299 38.4732 21.5299C38.434 21.5542 38.4297 21.5569 38.4297 21.5569C38.3904 21.577 38.3861 21.5788 38.3861 21.5788C38.3469 21.594 38.3426 21.5954 38.3426 21.5954C38.3033 21.6058 38.299 21.6068 38.299 21.6068C38.2598 21.6124 38.2562 21.6127 38.2562 21.6127C38.2163 21.6134 38.2123 21.6131 38.2123 21.6131C38.172 21.6089 38.1684 21.6082 38.1684 21.6082C38.1281 21.5996 38.1205 21.5975 38.1205 21.5975C38.0835 21.5853 38.0759 21.5826 38.0759 21.5826C38.0385 21.567 38.0309 21.5635 38.0309 21.5635C37.9931 21.5448 37.9856 21.5406 37.9856 21.5406C37.955 21.5233 37.9399 21.5139 37.9399 21.5139C37.9089 21.4942 37.8934 21.4841 37.8934 21.4841C37.8297 21.4412 37.7668 21.3916 37.7326 21.3646C37.4641 21.1383 37.1201 20.8603 36.8243 20.714C36.3561 20.4662 35.8681 20.303 35.3524 20.1838C34.7913 20.0566 34.2094 19.9942 33.6329 20.0147C33.0682 20.0334 32.504 20.1318 31.9598 20.2756L31.1181 20.5061C30.7762 20.5945 30.3681 20.6939 30.0306 20.67C30 20.6673 29.9852 20.6659 29.9852 20.6659C29.9557 20.6621 29.9409 20.66 29.9409 20.66C29.9122 20.6551 29.8981 20.6524 29.8981 20.6524C29.8567 20.643 29.8431 20.6395 29.8431 20.6395C29.8035 20.6277 29.797 20.6257 29.797 20.6257C29.7596 20.6128 29.7535 20.6104 29.7412 20.6052Z" fill="white" stroke="#0056B3" stroke-width="2.75" stroke-miterlimit="10" stroke-linecap="round" stroke-linejoin="round"/>
<path d="M26.6667 18.4024C26.6034 18.4024 26.5544 18.3999 26.5271 18.3986C26.4803 18.3958 26.4526 18.3923 26.4371 18.3909C26.3965 18.3854 26.3831 18.3833 26.3831 18.3833C26.3457 18.376 26.3338 18.3733 26.3338 18.3733C26.2943 18.3625 26.2889 18.3611 26.2889 18.3611C26.2475 18.3466 26.2424 18.3445 26.2424 18.3445C26.2046 18.3268 26.2003 18.3247 26.2003 18.3247C26.1618 18.3015 26.1575 18.2987 26.1575 18.2987C26.1183 18.2682 26.1147 18.2651 26.1147 18.2651C26.0751 18.226 26.0719 18.2218 26.0719 18.2218C26.0416 18.1847 26.0348 18.176 26.0348 18.176C26.0089 18.139 26.0024 18.1293 26.0024 18.1293C25.8253 17.8409 25.7422 17.5758 25.6461 17.2774C25.5266 16.8826 25.436 16.4719 25.3679 16.0664C25.2625 15.4256 25.2049 14.7692 25.2398 14.1204C25.2646 13.6934 25.3373 13.1957 25.54 12.8252C25.5572 12.7944 25.5662 12.7795 25.5662 12.7795C25.5846 12.75 25.5939 12.7355 25.5939 12.7355C25.613 12.7074 25.6227 12.6935 25.6227 12.6935C25.6526 12.6537 25.663 12.6409 25.663 12.6409C25.6947 12.6038 25.7055 12.592 25.7055 12.592C25.7444 12.5525 25.7501 12.5469 25.7501 12.5469C25.7911 12.5109 25.7973 12.506 25.7973 12.506C25.8322 12.4793 25.8401 12.4738 25.8401 12.4738C25.8797 12.4478 25.8876 12.4426 25.8876 12.4426C25.9286 12.4194 25.9369 12.4152 25.9369 12.4152C25.979 12.3951 25.9876 12.3913 25.9876 12.3913C26.0222 12.3775 26.0308 12.374 26.0308 12.374C26.0661 12.3622 26.0747 12.3594 26.0747 12.3594C26.1104 12.3494 26.1194 12.3473 26.1194 12.3473C26.1553 12.3393 26.1643 12.3376 26.1643 12.3376C26.2007 12.3317 26.2097 12.3303 26.2097 12.3303C26.2464 12.3262 26.2554 12.3255 26.2554 12.3255C26.2921 12.3234 26.3014 12.323 26.3014 12.323C26.3382 12.323 26.3475 12.3234 26.3475 12.3234C26.3842 12.3255 26.3932 12.3262 26.3932 12.3262C26.4296 12.33 26.4389 12.3314 26.4389 12.3314C26.4753 12.3372 26.4843 12.339 26.4843 12.339C26.5203 12.347 26.5292 12.349 26.5292 12.349C26.5645 12.3587 26.5735 12.3615 26.5735 12.3615C26.6084 12.3733 26.6171 12.3764 26.6171 12.3764C26.6512 12.3903 26.6599 12.3937 26.6599 12.3937C26.7016 12.4135 26.7099 12.4177 26.7099 12.4177C26.7506 12.4405 26.7585 12.4454 26.7585 12.4454C26.7974 12.471 26.8053 12.4766 26.8053 12.4766C26.8427 12.505 26.8499 12.5112 26.8499 12.5112C26.8855 12.5428 26.8924 12.5494 26.8924 12.5494C26.9266 12.5844 26.932 12.5903 26.932 12.5903C26.9629 12.6266 26.9679 12.6329 26.9679 12.6329C26.9924 12.6651 27.0018 12.6786 27.0018 12.6786C27.0201 12.706 27.0291 12.7202 27.0291 12.7202C27.0467 12.749 27.055 12.7639 27.055 12.7639C27.0716 12.794 27.0795 12.8096 27.0795 12.8096C27.095 12.8412 27.1025 12.8571 27.1025 12.8571C27.1169 12.89 27.1241 12.9067 27.1241 12.9067C27.2785 13.3028 27.2947 13.6757 27.2979 14.085C27.2936 14.6708 27.2116 15.2686 27.109 15.8453C26.9449 16.8303 26.5965 18.0665 26.6534 19.0598C26.6782 19.5624 26.8121 20.0576 26.978 20.5328C27.0543 20.7574 27.3138 21.4363 27.3904 21.6612C27.4804 21.9156 27.7784 22.8711 27.8669 23.1255C28.0393 23.6319 28.2595 24.1809 28.5517 24.6279C29.1538 25.5609 30.0722 26.148 31.0939 26.5282C31.7751 26.7809 32.4949 26.9542 33.2175 27.0516C33.7818 27.125 34.3828 27.158 34.946 27.0859C35.4066 27.029 35.8327 26.8824 36.1951 26.6589C36.6439 26.3799 36.9609 26.0455 37.2812 25.6663C37.8649 24.9555 38.3486 24.1604 38.7571 23.3456C39.1957 22.4268 40.1789 20.1606 40.582 19.2414C40.8573 18.6166 41.1632 17.7858 41.4039 17.1446C41.567 16.7124 41.7577 16.2636 41.9876 15.8602C42.2615 15.3767 42.652 14.7792 42.815 14.2566C42.9622 13.8005 42.9982 13.2775 43.0838 12.81C43.1364 12.5078 43.2281 12.2097 43.3516 11.9366C43.5275 11.5363 43.7899 11.0684 43.8935 10.648C43.9788 10.3053 43.9738 10.01 43.9598 9.67587L43.922 9.04857C43.9079 8.78274 43.9122 8.50444 43.9504 8.24554C44.0062 7.84213 44.1289 7.37113 44.1728 6.96667C44.2315 6.47175 44.1724 6.0063 44.0533 5.53392C43.9594 5.17174 43.8234 4.78184 43.6445 4.45571C43.6207 4.41516 43.6128 4.40199 43.6128 4.40199C43.5884 4.36352 43.5797 4.35104 43.5797 4.35104C43.5538 4.31431 43.5452 4.30252 43.5452 4.30252C43.5182 4.26787 43.5088 4.25643 43.5088 4.25643C43.48 4.2235 43.4703 4.21276 43.4703 4.21276C43.4397 4.18157 43.4293 4.17152 43.4293 4.17152C43.3965 4.14206 43.3854 4.13235 43.3854 4.13235C43.3505 4.10463 43.3383 4.09527 43.3383 4.09527C43.3008 4.06893 43.2879 4.06027 43.2879 4.06027C43.2476 4.03531 43.2335 4.02734 43.2335 4.02734C43.2047 4.0114 43.1903 4.00377 43.1903 4.00377C43.1601 3.98852 43.1446 3.98124 43.1446 3.98124C43.1126 3.96669 43.0964 3.95976 43.0964 3.95976C42.8305 3.85163 42.6081 3.81142 42.3425 3.75771C41.8728 3.66933 41.2546 3.58372 40.7947 3.46727C40.4585 3.38409 40.1883 3.277 39.8975 3.1252C39.6128 2.97755 39.2954 2.77793 38.9946 2.66979C38.6019 2.52631 38.096 2.48784 37.6864 2.42511C37.4536 2.3908 37.1858 2.3402 36.9638 2.27677C36.5902 2.17557 35.9108 1.89866 35.5423 1.76107C35.1608 1.62105 34.7646 1.49524 34.3616 1.43008C34.0028 1.37186 33.6342 1.36111 33.2722 1.39161C32.614 1.44845 31.8763 1.65397 31.4005 2.08408C31.3591 2.12289 31.339 2.1423 31.339 2.1423C31.0673 2.41575 30.9215 2.69752 30.7704 3.02608C30.5015 3.64992 30.2219 4.35105 29.6925 4.80645C29.2866 5.161 28.7857 5.39355 28.3401 5.6826C27.8611 5.97996 27.4293 6.3657 27.1983 6.83913C26.7182 7.76831 26.7045 8.86869 26.4382 9.85817C26.1967 10.6837 25.9653 11.5609 25.9293 12.4194" fill="white"/>
<path d="M26.6667 18.4024C26.6034 18.4024 26.5544 18.3999 26.5271 18.3986C26.4803 18.3958 26.4526 18.3923 26.4371 18.3909C26.3965 18.3854 26.3831 18.3833 26.3831 18.3833C26.3457 18.376 26.3338 18.3733 26.3338 18.3733C26.2943 18.3625 26.2889 18.3611 26.2889 18.3611C26.2475 18.3466 26.2424 18.3445 26.2424 18.3445C26.2046 18.3268 26.2003 18.3247 26.2003 18.3247C26.1618 18.3015 26.1575 18.2987 26.1575 18.2987C26.1183 18.2682 26.1147 18.2651 26.1147 18.2651C26.0751 18.226 26.0719 18.2218 26.0719 18.2218C26.0416 18.1847 26.0348 18.176 26.0348 18.176C26.0089 18.139 26.0024 18.1293 26.0024 18.1293C25.8253 17.8409 25.7422 17.5758 25.6461 17.2774C25.5266 16.8826 25.436 16.4719 25.3679 16.0664C25.2625 15.4256 25.2049 14.7692 25.2398 14.1204C25.2646 13.6934 25.3373 13.1957 25.54 12.8252C25.5572 12.7944 25.5662 12.7795 25.5662 12.7795C25.5846 12.75 25.5939 12.7355 25.5939 12.7355C25.613 12.7074 25.6227 12.6935 25.6227 12.6935C25.6526 12.6537 25.663 12.6409 25.663 12.6409C25.6947 12.6038 25.7055 12.592 25.7055 12.592C25.7444 12.5525 25.7501 12.5469 25.7501 12.5469C25.7911 12.5109 25.7973 12.506 25.7973 12.506C25.8322 12.4793 25.8401 12.4738 25.8401 12.4738C25.8797 12.4478 25.8876 12.4426 25.8876 12.4426C25.9286 12.4194 25.9369 12.4152 25.9369 12.4152C25.979 12.3951 25.9876 12.3913 25.9876 12.3913C26.0222 12.3775 26.0308 12.374 26.0308 12.374C26.0661 12.3622 26.0747 12.3594 26.0747 12.3594C26.1104 12.3494 26.1194 12.3473 26.1194 12.3473C26.1553 12.3393 26.1643 12.3376 26.1643 12.3376C26.2007 12.3317 26.2097 12.3303 26.2097 12.3303C26.2464 12.3262 26.2554 12.3255 26.2554 12.3255C26.2921 12.3234 26.3014 12.323 26.3014 12.323C26.3382 12.323 26.3475 12.3234 26.3475 12.3234C26.3842 12.3255 26.3932 12.3262 26.3932 12.3262C26.4296 12.33 26.4389 12.3314 26.4389 12.3314C26.4753 12.3372 26.4843 12.339 26.4843 12.339C26.5203 12.347 26.5292 12.349 26.5292 12.349C26.5645 12.3587 26.5735 12.3615 26.5735 12.3615C26.6084 12.3733 26.6171 12.3764 26.6171 12.3764C26.6512 12.3903 26.6599 12.3937 26.6599 12.3937C26.7016 12.4135 26.7099 12.4177 26.7099 12.4177C26.7506 12.4405 26.7585 12.4454 26.7585 12.4454C26.7974 12.471 26.8053 12.4766 26.8053 12.4766C26.8427 12.505 26.8499 12.5112 26.8499 12.5112C26.8855 12.5428 26.8924 12.5494 26.8924 12.5494C26.9266 12.5844 26.932 12.5903 26.932 12.5903C26.9629 12.6266 26.9679 12.6329 26.9679 12.6329C26.9924 12.6651 27.0018 12.6786 27.0018 12.6786C27.0201 12.706 27.0291 12.7202 27.0291 12.7202C27.0467 12.749 27.055 12.7639 27.055 12.7639C27.0716 12.794 27.0795 12.8096 27.0795 12.8096C27.095 12.8412 27.1025 12.8571 27.1025 12.8571C27.1169 12.89 27.1241 12.9067 27.1241 12.9067C27.2785 13.3028 27.2947 13.6757 27.2979 14.085C27.2936 14.6708 27.2116 15.2686 27.109 15.8453C26.9449 16.8303 26.5965 18.0665 26.6534 19.0598C26.6782 19.5624 26.8121 20.0576 26.978 20.5328C27.0543 20.7574 27.3138 21.4363 27.3904 21.6612C27.4804 21.9156 27.7784 22.8711 27.8669 23.1255C28.0393 23.6319 28.2595 24.1809 28.5517 24.6279C29.1538 25.5609 30.0722 26.148 31.0939 26.5282C31.7751 26.7809 32.4949 26.9542 33.2175 27.0516C33.7818 27.125 34.3828 27.158 34.946 27.0859C35.4066 27.029 35.8327 26.8824 36.1951 26.6589C36.6439 26.3799 36.9609 26.0455 37.2812 25.6663C37.8649 24.9555 38.3486 24.1604 38.7571 23.3456C39.1957 22.4268 40.1789 20.1606 40.582 19.2414C40.8573 18.6166 41.1632 17.7858 41.4039 17.1446C41.567 16.7124 41.7577 16.2636 41.9876 15.8602C42.2615 15.3767 42.652 14.7792 42.815 14.2566C42.9622 13.8005 42.9982 13.2775 43.0838 12.81C43.1364 12.5078 43.2281 12.2097 43.3516 11.9366C43.5275 11.5363 43.7899 11.0684 43.8935 10.648C43.9788 10.3053 43.9738 10.01 43.9598 9.67587L43.922 9.04857C43.9079 8.78274 43.9122 8.50444 43.9504 8.24554C44.0062 7.84213 44.1289 7.37113 44.1728 6.96667C44.2315 6.47175 44.1724 6.0063 44.0533 5.53392C43.9594 5.17174 43.8234 4.78184 43.6445 4.45571C43.6207 4.41516 43.6128 4.40199 43.6128 4.40199C43.5884 4.36352 43.5797 4.35104 43.5797 4.35104C43.5538 4.31431 43.5452 4.30252 43.5452 4.30252C43.5182 4.26787 43.5088 4.25643 43.5088 4.25643C43.48 4.2235 43.4703 4.21276 43.4703 4.21276C43.4397 4.18157 43.4293 4.17152 43.4293 4.17152C43.3965 4.14206 43.3854 4.13235 43.3854 4.13235C43.3505 4.10463 43.3383 4.09527 43.3383 4.09527C43.3008 4.06893 43.2879 4.06027 43.2879 4.06027C43.2476 4.03531 43.2335 4.02734 43.2335 4.02734C43.2047 4.0114 43.1903 4.00377 43.1903 4.00377C43.1601 3.98852 43.1446 3.98124 43.1446 3.98124C43.1126 3.96669 43.0964 3.95976 43.0964 3.95976C42.8305 3.85163 42.6081 3.81142 42.3425 3.75771C41.8728 3.66933 41.2546 3.58372 40.7947 3.46727C40.4585 3.38409 40.1883 3.277 39.8975 3.1252C39.6128 2.97755 39.2954 2.77793 38.9946 2.66979C38.6019 2.52631 38.096 2.48784 37.6864 2.42511C37.4536 2.3908 37.1858 2.3402 36.9638 2.27677C36.5902 2.17557 35.9108 1.89866 35.5423 1.76107C35.1608 1.62105 34.7646 1.49524 34.3616 1.43008C34.0028 1.37186 33.6342 1.36111 33.2722 1.39161C32.614 1.44845 31.8763 1.65397 31.4005 2.08408C31.3591 2.12289 31.339 2.1423 31.339 2.1423C31.0673 2.41575 30.9215 2.69752 30.7704 3.02608C30.5015 3.64992 30.2219 4.35105 29.6925 4.80645C29.2866 5.161 28.7857 5.39355 28.3401 5.6826C27.8611 5.97996 27.4293 6.3657 27.1983 6.83913C26.7182 7.76831 26.7045 8.86869 26.4382 9.85817C26.1967 10.6837 25.9653 11.5609 25.9293 12.4194" stroke="#0056B3" stroke-width="2.75" stroke-miterlimit="10" stroke-linecap="round" stroke-linejoin="round"/>
<path d="M26.9015 20.3022C26.7784 20.793 26.6495 21.2987 26.4253 21.7558C25.9931 22.6105 25.3889 23.4312 25.1107 24.3572C24.8531 25.1526 24.9153 26.0142 25.1658 26.8041C25.4307 27.6438 25.8762 28.4295 26.42 29.131C27.1656 30.0924 28.1859 30.8639 29.3677 31.2597C31.1116 31.8499 33.1046 31.7747 34.7733 30.9966C35.4697 30.6719 36.1193 30.2324 36.6253 29.6654C36.9567 29.2963 37.2101 28.8627 37.3616 28.398C37.6045 27.7104 37.6408 26.8404 37.72 26.1196C37.7596 25.7414 37.8531 25.1824 37.9158 24.8029" fill="white"/>
<path d="M26.9015 20.3022C26.7784 20.793 26.6495 21.2987 26.4253 21.7558C25.9931 22.6105 25.3889 23.4312 25.1107 24.3572C24.8531 25.1526 24.9153 26.0142 25.1658 26.8041C25.4307 27.6438 25.8762 28.4295 26.42 29.131C27.1656 30.0924 28.1859 30.8639 29.3677 31.2597C31.1116 31.8499 33.1046 31.7747 34.7733 30.9966C35.4697 30.6719 36.1193 30.2324 36.6253 29.6654C36.9567 29.2963 37.2101 28.8627 37.3616 28.398C37.6045 27.7104 37.6408 26.8404 37.72 26.1196C37.7596 25.7414 37.8531 25.1824 37.9158 24.8029" stroke="#0056B3" stroke-width="2.75" stroke-miterlimit="10" stroke-linecap="round" stroke-linejoin="round"/>
<path d="M40.4132 36.0938C40.402 38.3102 40.7716 40.7899 41.0059 42.9976C41.0966 43.697 41.202 44.4207 41.3963 45.1003C41.5227 45.5349 41.7058 46.0177 42.0017 46.3567C42.0283 46.3865 42.042 46.4007 42.042 46.4007C42.0693 46.4288 42.083 46.4426 42.083 46.4426C42.1111 46.4693 42.1251 46.4825 42.1251 46.4825C42.1539 46.5078 42.1683 46.5203 42.1683 46.5203C42.1978 46.5445 42.2125 46.556 42.2125 46.556C42.2428 46.5788 42.2579 46.5899 42.2579 46.5899C42.2888 46.6114 42.3043 46.6218 42.3043 46.6218C42.336 46.6419 42.3518 46.6516 42.3518 46.6516C42.3842 46.6707 42.4008 46.6797 42.4008 46.6797C42.4339 46.6974 42.4508 46.706 42.4508 46.706C42.4846 46.7223 42.5019 46.7303 42.5019 46.7303C42.5364 46.7455 42.5541 46.7528 42.5541 46.7528C42.5897 46.767 42.6073 46.7736 42.6073 46.7736C42.6437 46.7864 42.662 46.7927 42.662 46.7927C43.0737 46.9216 43.444 46.9091 43.8575 46.8769C44.4441 46.8211 45.0419 46.6994 45.617 46.5768C47.0874 46.2486 48.5798 45.8295 49.9862 45.3007C50.6185 45.0501 51.3357 44.7732 51.8611 44.3542C51.9029 44.3181 51.923 44.3001 51.923 44.3001C51.9615 44.2637 51.9799 44.2457 51.9799 44.2457C52.0152 44.2089 52.0321 44.1906 52.0321 44.1906C52.0645 44.1531 52.072 44.1438 52.072 44.1438C52.1019 44.106 52.1091 44.0963 52.1091 44.0963C52.1364 44.0578 52.1433 44.0481 52.1433 44.0481C52.1685 44.009 52.1746 43.9989 52.1746 43.9989C52.1976 43.9587 52.203 43.9487 52.203 43.9487C52.2188 43.9178 52.2239 43.9078 52.2239 43.9078C52.2386 43.8766 52.2433 43.8658 52.2433 43.8658C52.2566 43.8339 52.2609 43.8232 52.2609 43.8232C52.2732 43.7906 52.2771 43.7795 52.2771 43.7795C52.3955 43.4205 52.3793 43.0853 52.3653 42.7249C52.2692 41.3126 51.6074 38.0988 51.3796 36.6563C51.1061 35.1764 50.7685 33.64 49.8599 32.3875C49.4568 31.8274 48.9609 31.3259 48.442 30.8646C47.9205 30.3929 46.7758 29.506 46.2172 29.0565C45.3463 28.3668 43.0201 26.3141 42.1553 25.5637L39.9939 23.7549C39.6672 23.4749 39.2986 23.1453 38.9902 22.8486" fill="white"/>
<path d="M40.4132 36.0938C40.402 38.3102 40.7716 40.7899 41.0059 42.9976C41.0966 43.697 41.202 44.4207 41.3963 45.1003C41.5227 45.5349 41.7058 46.0177 42.0017 46.3567C42.0283 46.3865 42.042 46.4007 42.042 46.4007C42.0693 46.4288 42.083 46.4426 42.083 46.4426C42.1111 46.4693 42.1251 46.4825 42.1251 46.4825C42.1539 46.5078 42.1683 46.5203 42.1683 46.5203C42.1978 46.5445 42.2125 46.556 42.2125 46.556C42.2428 46.5788 42.2579 46.5899 42.2579 46.5899C42.2888 46.6114 42.3043 46.6218 42.3043 46.6218C42.336 46.6419 42.3518 46.6516 42.3518 46.6516C42.3842 46.6707 42.4008 46.6797 42.4008 46.6797C42.4339 46.6974 42.4508 46.706 42.4508 46.706C42.4846 46.7223 42.5019 46.7303 42.5019 46.7303C42.5364 46.7455 42.5541 46.7528 42.5541 46.7528C42.5897 46.767 42.6073 46.7736 42.6073 46.7736C42.6437 46.7864 42.662 46.7927 42.662 46.7927C43.0737 46.9216 43.444 46.9091 43.8575 46.8769C44.4441 46.8211 45.0419 46.6994 45.617 46.5768C47.0874 46.2486 48.5798 45.8295 49.9862 45.3007C50.6185 45.0501 51.3357 44.7732 51.8611 44.3542C51.9029 44.3181 51.923 44.3001 51.923 44.3001C51.9615 44.2637 51.9799 44.2457 51.9799 44.2457C52.0152 44.2089 52.0321 44.1906 52.0321 44.1906C52.0645 44.1531 52.072 44.1438 52.072 44.1438C52.1019 44.106 52.1091 44.0963 52.1091 44.0963C52.1364 44.0578 52.1433 44.0481 52.1433 44.0481C52.1685 44.009 52.1746 43.9989 52.1746 43.9989C52.1976 43.9587 52.203 43.9487 52.203 43.9487C52.2188 43.9178 52.2239 43.9078 52.2239 43.9078C52.2386 43.8766 52.2433 43.8658 52.2433 43.8658C52.2566 43.8339 52.2609 43.8232 52.2609 43.8232C52.2732 43.7906 52.2771 43.7795 52.2771 43.7795C52.3955 43.4205 52.3793 43.0853 52.3653 42.7249C52.2692 41.3126 51.6074 38.0988 51.3796 36.6563C51.1061 35.1764 50.7685 33.64 49.8599 32.3875C49.4568 31.8274 48.9609 31.3259 48.442 30.8646C47.9205 30.3929 46.7758 29.506 46.2172 29.0565C45.3463 28.3668 43.0201 26.3141 42.1553 25.5637L39.9939 23.7549C39.6672 23.4749 39.2986 23.1453 38.9902 22.8486" stroke="#0056B3" stroke-width="2.75" stroke-miterlimit="10" stroke-linecap="round" stroke-linejoin="round"/>
<path d="M34.1375 148.032L34.0281 149.161C34.0237 149.196 34.0219 149.207 34.0219 149.207C34.0151 149.241 34.0126 149.253 34.0126 149.253C34.0032 149.287 34 149.298 34 149.298C33.9885 149.331 33.9842 149.342 33.9842 149.342C33.9701 149.374 33.9651 149.385 33.9651 149.385C33.9489 149.416 33.9431 149.426 33.9431 149.426C33.9183 149.466 33.9115 149.476 33.9115 149.476C33.883 149.514 33.8755 149.523 33.8755 149.523C33.8438 149.558 33.8355 149.566 33.8355 149.566C33.801 149.599 33.7916 149.607 33.7916 149.607C33.7542 149.636 33.7445 149.643 33.7445 149.643C33.7045 149.669 33.6941 149.675 33.6941 149.675C33.6628 149.693 33.652 149.698 33.652 149.698C33.6192 149.713 33.6084 149.718 33.6084 149.718C33.5746 149.731 33.5635 149.735 33.5635 149.735C33.5289 149.746 33.5174 149.749 33.5174 149.749C33.4821 149.757 33.4703 149.76 33.4703 149.76C33.4346 149.765 33.4224 149.767 33.4224 149.767C33.3864 149.771 33.3742 149.772 33.3742 149.772C33.3378 149.773 33.3259 149.773 33.3259 149.773C33.2766 149.776 26.2933 149.141 26.2501 149.139C26.2141 149.135 26.2022 149.134 26.2022 149.134C26.1666 149.127 26.1547 149.125 26.1547 149.125C26.1198 149.116 26.108 149.112 26.108 149.112C26.0738 149.101 26.0622 149.097 26.0622 149.097C26.0288 149.084 26.0176 149.079 26.0176 149.079C25.9852 149.063 25.9744 149.058 25.9744 149.058C25.9331 149.034 25.923 149.027 25.923 149.027C25.8838 149 25.8744 148.993 25.8744 148.993C25.8377 148.962 25.8291 148.954 25.8291 148.954C25.7952 148.921 25.7873 148.912 25.7873 148.912C25.7567 148.876 25.7495 148.866 25.7495 148.866C25.7222 148.828 25.716 148.818 25.716 148.818C25.6981 148.788 25.6923 148.777 25.6923 148.777C25.6765 148.746 25.6718 148.735 25.6718 148.735C25.6581 148.703 25.6541 148.692 25.6541 148.692C25.643 148.659 25.6398 148.648 25.6398 148.648C25.6311 148.614 25.6286 148.602 25.6286 148.602C25.6225 148.568 25.6207 148.556 25.6207 148.556C25.6167 148.522 25.616 148.51 25.616 148.51C25.6146 148.475 25.6146 148.463 25.6146 148.463C25.6156 148.428 25.6167 148.417 25.6167 148.417C25.6178 148.405 25.733 147.217 25.733 147.217C25.7369 147.183 25.7387 147.172 25.7387 147.172C25.7452 147.139 25.7477 147.128 25.7477 147.128C25.7564 147.096 25.7596 147.085 25.7596 147.085C25.7704 147.053 25.7743 147.042 25.7743 147.042C25.7873 147.011 25.7923 147.001 25.7923 147.001" fill="white"/>
<path d="M34.1375 148.032L34.0281 149.161C34.0237 149.196 34.0219 149.207 34.0219 149.207C34.0151 149.241 34.0126 149.253 34.0126 149.253C34.0032 149.287 34 149.298 34 149.298C33.9885 149.331 33.9842 149.342 33.9842 149.342C33.9701 149.374 33.9651 149.385 33.9651 149.385C33.9489 149.416 33.9431 149.426 33.9431 149.426C33.9183 149.466 33.9115 149.476 33.9115 149.476C33.883 149.514 33.8755 149.523 33.8755 149.523C33.8438 149.558 33.8355 149.566 33.8355 149.566C33.801 149.599 33.7916 149.607 33.7916 149.607C33.7542 149.636 33.7445 149.643 33.7445 149.643C33.7045 149.669 33.6941 149.675 33.6941 149.675C33.6628 149.693 33.652 149.698 33.652 149.698C33.6192 149.713 33.6084 149.718 33.6084 149.718C33.5746 149.731 33.5635 149.735 33.5635 149.735C33.5289 149.746 33.5174 149.749 33.5174 149.749C33.4821 149.757 33.4703 149.76 33.4703 149.76C33.4346 149.765 33.4224 149.767 33.4224 149.767C33.3864 149.771 33.3742 149.772 33.3742 149.772C33.3378 149.773 33.3259 149.773 33.3259 149.773C33.2766 149.776 26.2933 149.141 26.2501 149.139C26.2141 149.135 26.2022 149.134 26.2022 149.134C26.1666 149.127 26.1547 149.125 26.1547 149.125C26.1198 149.116 26.108 149.112 26.108 149.112C26.0738 149.101 26.0622 149.097 26.0622 149.097C26.0288 149.084 26.0176 149.079 26.0176 149.079C25.9852 149.063 25.9744 149.058 25.9744 149.058C25.9331 149.034 25.923 149.027 25.923 149.027C25.8838 149 25.8744 148.993 25.8744 148.993C25.8377 148.962 25.8291 148.954 25.8291 148.954C25.7952 148.921 25.7873 148.912 25.7873 148.912C25.7567 148.876 25.7495 148.866 25.7495 148.866C25.7222 148.828 25.716 148.818 25.716 148.818C25.6981 148.788 25.6923 148.777 25.6923 148.777C25.6765 148.746 25.6718 148.735 25.6718 148.735C25.6581 148.703 25.6541 148.692 25.6541 148.692C25.643 148.659 25.6398 148.648 25.6398 148.648C25.6311 148.614 25.6286 148.602 25.6286 148.602C25.6225 148.568 25.6207 148.556 25.6207 148.556C25.6167 148.522 25.616 148.51 25.616 148.51C25.6146 148.475 25.6146 148.463 25.6146 148.463C25.6156 148.428 25.6167 148.417 25.6167 148.417C25.6178 148.405 25.733 147.217 25.733 147.217C25.7369 147.183 25.7387 147.172 25.7387 147.172C25.7452 147.139 25.7477 147.128 25.7477 147.128C25.7564 147.096 25.7596 147.085 25.7596 147.085C25.7704 147.053 25.7743 147.042 25.7743 147.042C25.7873 147.011 25.7923 147.001 25.7923 147.001" stroke="#0056B3" stroke-width="2.75" stroke-miterlimit="10" stroke-linecap="round" stroke-linejoin="round"/>
<path d="M25.9222 136.58C25.4824 138.601 25.1294 140.693 25.0229 142.756C24.9862 143.673 25.0034 144.611 25.187 145.515C25.3136 146.119 25.5317 146.779 25.9787 147.208C26.0107 147.238 26.0215 147.248 26.0215 147.248C26.0543 147.276 26.0651 147.285 26.0651 147.285C26.3389 147.505 26.6196 147.634 26.9244 147.755C27.2436 147.877 27.5808 147.97 27.9152 148.046C29.0927 148.309 30.3198 148.39 31.5261 148.373C32.0947 148.362 32.6864 148.344 33.2485 148.258C33.6267 148.2 34.0661 148.097 34.3807 147.916C34.4224 147.891 34.4361 147.883 34.4361 147.883C34.4753 147.857 34.4879 147.848 34.4879 147.848C34.5246 147.821 34.5365 147.812 34.5365 147.812C34.5707 147.785 34.5815 147.775 34.5815 147.775C34.6232 147.737 34.6329 147.727 34.6329 147.727C34.6704 147.687 34.6794 147.677 34.6794 147.677C34.7046 147.647 34.7125 147.636 34.7125 147.636C34.7351 147.605 34.7423 147.594 34.7423 147.594C34.7625 147.561 34.7686 147.55 34.7686 147.55C34.9446 147.215 35.0079 146.871 35.0421 146.523C35.0756 146.145 35.0619 145.759 35.0263 145.382C34.9727 144.834 34.8517 144.287 34.6434 143.774C34.5023 143.409 34.3091 143.115 34.1259 142.777C33.7415 142.049 33.4583 141.261 33.2226 140.477C33.029 139.811 32.8325 139.118 32.7612 138.428C32.736 138.169 32.7594 137.914 32.7127 137.659C32.6572 137.309 32.5331 136.97 32.3636 136.656" fill="white"/>
<path d="M25.9222 136.58C25.4824 138.601 25.1294 140.693 25.0229 142.756C24.9862 143.673 25.0034 144.611 25.187 145.515C25.3136 146.119 25.5317 146.779 25.9787 147.208C26.0107 147.238 26.0215 147.248 26.0215 147.248C26.0543 147.276 26.0651 147.285 26.0651 147.285C26.3389 147.505 26.6196 147.634 26.9244 147.755C27.2436 147.877 27.5808 147.97 27.9152 148.046C29.0927 148.309 30.3198 148.39 31.5261 148.373C32.0947 148.362 32.6864 148.344 33.2485 148.258C33.6267 148.2 34.0661 148.097 34.3807 147.916C34.4224 147.891 34.4361 147.883 34.4361 147.883C34.4753 147.857 34.4879 147.848 34.4879 147.848C34.5246 147.821 34.5365 147.812 34.5365 147.812C34.5707 147.785 34.5815 147.775 34.5815 147.775C34.6232 147.737 34.6329 147.727 34.6329 147.727C34.6704 147.687 34.6794 147.677 34.6794 147.677C34.7046 147.647 34.7125 147.636 34.7125 147.636C34.7351 147.605 34.7423 147.594 34.7423 147.594C34.7625 147.561 34.7686 147.55 34.7686 147.55C34.9446 147.215 35.0079 146.871 35.0421 146.523C35.0756 146.145 35.0619 145.759 35.0263 145.382C34.9727 144.834 34.8517 144.287 34.6434 143.774C34.5023 143.409 34.3091 143.115 34.1259 142.777C33.7415 142.049 33.4583 141.261 33.2226 140.477C33.029 139.811 32.8325 139.118 32.7612 138.428C32.736 138.169 32.7594 137.914 32.7127 137.659C32.6572 137.309 32.5331 136.97 32.3636 136.656" stroke="#0056B3" stroke-width="2.75" stroke-miterlimit="10" stroke-linecap="round" stroke-linejoin="round"/>
<path d="M40.6652 74.9825C40.6404 73.7241 40.3784 72.1465 40.2885 70.8884C40.2129 70.0154 40.2125 69.0107 39.9325 68.1778C39.7839 67.7599 39.5273 67.4493 39.2657 67.1194" fill="white"/>
<path d="M40.6652 74.9825C40.6404 73.7241 40.3784 72.1465 40.2885 70.8884C40.2129 70.0154 40.2125 69.0107 39.9325 68.1778C39.7839 67.7599 39.5273 67.4493 39.2657 67.1194" stroke="#0056B3" stroke-width="2.75" stroke-miterlimit="10" stroke-linecap="round" stroke-linejoin="round"/>
<path d="M23.841 86.5358C24.3599 88.4094 24.7849 90.3427 24.9318 92.2793C25.0052 93.1402 25.0516 94.2538 25.0793 95.1209C25.0916 95.9271 25.3881 107.607 25.3503 108.01C25.373 109.389 25.0207 113.394 24.9307 114.812C24.7004 118.912 24.5176 123.478 24.5539 127.572C24.5816 129.555 24.632 131.687 24.8627 133.654C24.921 134.125 24.9912 134.621 25.0955 135.086C25.1751 135.439 25.2974 135.839 25.4835 136.13C25.5094 136.17 25.5184 136.184 25.5184 136.184C25.5454 136.222 25.5547 136.234 25.5547 136.234C25.5828 136.271 25.5925 136.283 25.5925 136.283C25.6217 136.319 25.6317 136.33 25.6317 136.33C25.662 136.364 25.6724 136.375 25.6724 136.375C25.7041 136.407 25.7149 136.417 25.7149 136.417C25.7476 136.448 25.7588 136.458 25.7588 136.458C25.793 136.487 25.8045 136.496 25.8045 136.496C25.8397 136.524 25.852 136.533 25.852 136.533C25.8887 136.558 25.9013 136.566 25.9013 136.566C25.9394 136.591 25.9524 136.598 25.9524 136.598C25.9815 136.615 25.9959 136.623 25.9959 136.623C26.0258 136.639 26.0409 136.647 26.0409 136.647C26.5264 136.874 27.0122 136.875 27.5207 136.895L28.8047 136.908L30.2079 136.946C30.6268 136.95 31.0651 136.947 31.4804 136.894C31.805 136.853 32.1617 136.773 32.4301 136.621C32.4719 136.597 32.4819 136.59 32.4819 136.59C32.5219 136.565 32.5316 136.558 32.5316 136.558C32.5698 136.531 32.5791 136.524 32.5791 136.524C32.6155 136.495 32.6241 136.488 32.6241 136.488C32.6586 136.458 32.6669 136.45 32.6669 136.45C32.7061 136.412 32.7133 136.404 32.7133 136.404C32.7482 136.365 32.7551 136.357 32.7551 136.357C32.7814 136.325 32.7875 136.317 32.7875 136.317C32.8119 136.283 32.8181 136.274 32.8181 136.274C32.8411 136.239 32.8469 136.23 32.8469 136.23C32.8684 136.194 32.8789 136.176 32.8789 136.176C32.8987 136.138 32.9084 136.119 32.9084 136.119C32.9267 136.08 32.9354 136.06 32.9354 136.06C33.0574 135.765 33.0855 135.498 33.1056 135.195C33.1308 134.74 33.0991 134.122 33.1031 133.664C33.098 132.897 33.2568 132.132 33.4759 131.397L33.9617 129.811C34.2014 129.002 34.3644 128.156 34.4735 127.322C34.6689 126.145 35.1353 118.388 35.2451 117.041C35.3865 115.269 35.8432 110.721 35.872 109.024C35.8925 108.207 35.8496 107.054 35.9472 106.251C36.0249 105.544 36.1743 104.809 36.3236 104.113C36.4985 103.387 37.8056 97.5719 37.9819 97.006C38.272 96.0217 38.6253 94.8076 38.8233 93.8077C39.4459 90.7482 39.8424 87.5045 40.1656 84.4016" fill="white"/>
<path d="M23.841 86.5358C24.3599 88.4094 24.7849 90.3427 24.9318 92.2793C25.0052 93.1402 25.0516 94.2538 25.0793 95.1209C25.0916 95.9271 25.3881 107.607 25.3503 108.01C25.373 109.389 25.0207 113.394 24.9307 114.812C24.7004 118.912 24.5176 123.478 24.5539 127.572C24.5816 129.555 24.632 131.687 24.8627 133.654C24.921 134.125 24.9912 134.621 25.0955 135.086C25.1751 135.439 25.2974 135.839 25.4835 136.13C25.5094 136.17 25.5184 136.184 25.5184 136.184C25.5454 136.222 25.5547 136.234 25.5547 136.234C25.5828 136.271 25.5925 136.283 25.5925 136.283C25.6217 136.319 25.6317 136.33 25.6317 136.33C25.662 136.364 25.6724 136.375 25.6724 136.375C25.7041 136.407 25.7149 136.417 25.7149 136.417C25.7476 136.448 25.7588 136.458 25.7588 136.458C25.793 136.487 25.8045 136.496 25.8045 136.496C25.8397 136.524 25.852 136.533 25.852 136.533C25.8887 136.558 25.9013 136.566 25.9013 136.566C25.9394 136.591 25.9524 136.598 25.9524 136.598C25.9815 136.615 25.9959 136.623 25.9959 136.623C26.0258 136.639 26.0409 136.647 26.0409 136.647C26.5264 136.874 27.0122 136.875 27.5207 136.895L28.8047 136.908L30.2079 136.946C30.6268 136.95 31.0651 136.947 31.4804 136.894C31.805 136.853 32.1617 136.773 32.4301 136.621C32.4719 136.597 32.4819 136.59 32.4819 136.59C32.5219 136.565 32.5316 136.558 32.5316 136.558C32.5698 136.531 32.5791 136.524 32.5791 136.524C32.6155 136.495 32.6241 136.488 32.6241 136.488C32.6586 136.458 32.6669 136.45 32.6669 136.45C32.7061 136.412 32.7133 136.404 32.7133 136.404C32.7482 136.365 32.7551 136.357 32.7551 136.357C32.7814 136.325 32.7875 136.317 32.7875 136.317C32.8119 136.283 32.8181 136.274 32.8181 136.274C32.8411 136.239 32.8469 136.23 32.8469 136.23C32.8684 136.194 32.8789 136.176 32.8789 136.176C32.8987 136.138 32.9084 136.119 32.9084 136.119C32.9267 136.08 32.9354 136.06 32.9354 136.06C33.0574 135.765 33.0855 135.498 33.1056 135.195C33.1308 134.74 33.0991 134.122 33.1031 133.664C33.098 132.897 33.2568 132.132 33.4759 131.397L33.9617 129.811C34.2014 129.002 34.3644 128.156 34.4735 127.322C34.6689 126.145 35.1353 118.388 35.2451 117.041C35.3865 115.269 35.8432 110.721 35.872 109.024C35.8925 108.207 35.8496 107.054 35.9472 106.251C36.0249 105.544 36.1743 104.809 36.3236 104.113C36.4985 103.387 37.8056 97.5719 37.9819 97.006C38.272 96.0217 38.6253 94.8076 38.8233 93.8077C39.4459 90.7482 39.8424 87.5045 40.1656 84.4016" stroke="#0056B3" stroke-width="2.75" stroke-miterlimit="10" stroke-linecap="round" stroke-linejoin="round"/>
<path d="M15.5891 133.136L13.1384 132.78L12.8505 121.093" fill="white"/>
<path d="M15.5891 133.136L13.1384 132.78L12.8505 121.093" stroke="#0056B3" stroke-width="2.75" stroke-miterlimit="10" stroke-linecap="round" stroke-linejoin="round"/>
<path d="M15.6942 131.952L14.358 131.772L14.0683 120.003L13.1035 119.917" fill="white"/>
<path d="M15.6942 131.952L14.358 131.772L14.0683 120.003L13.1035 119.917" stroke="#0056B3" stroke-width="2.75" stroke-miterlimit="10" stroke-linecap="round" stroke-linejoin="round"/>
<path d="M6.03941 109.764C5.61332 111.222 5.2682 112.96 4.80432 114.406C4.33001 115.919 3.60127 117.86 3.36015 119.409C3.24175 120.134 3.18525 120.881 3.29393 121.611C3.47171 122.852 4.22385 123.931 5.23617 124.671C6.21863 125.39 7.43644 125.836 8.67549 125.852C9.4233 125.863 10.2373 125.675 10.8347 125.253C11.4447 124.825 11.8075 124.23 12.0979 123.585C12.5143 122.639 12.737 121.589 12.9637 120.588C13.1538 119.71 13.3265 118.795 13.3744 117.898C13.4312 117.082 13.315 115.987 13.2592 115.166C13.2286 114.666 13.2175 114.152 13.2664 113.653C13.3215 113.013 13.5453 112.011 13.668 111.37C13.7598 110.882 13.8242 110.38 13.8256 109.884C13.8332 109.219 13.749 108.532 13.6551 107.873" fill="white"/>
<path d="M6.03941 109.764C5.61332 111.222 5.2682 112.96 4.80432 114.406C4.33001 115.919 3.60127 117.86 3.36015 119.409C3.24175 120.134 3.18525 120.881 3.29393 121.611C3.47171 122.852 4.22385 123.931 5.23617 124.671C6.21863 125.39 7.43644 125.836 8.67549 125.852C9.4233 125.863 10.2373 125.675 10.8347 125.253C11.4447 124.825 11.8075 124.23 12.0979 123.585C12.5143 122.639 12.737 121.589 12.9637 120.588C13.1538 119.71 13.3265 118.795 13.3744 117.898C13.4312 117.082 13.315 115.987 13.2592 115.166C13.2286 114.666 13.2175 114.152 13.2664 113.653C13.3215 113.013 13.5453 112.011 13.668 111.37C13.7598 110.882 13.8242 110.38 13.8256 109.884C13.8332 109.219 13.749 108.532 13.6551 107.873" stroke="#0056B3" stroke-width="2.75" stroke-miterlimit="10" stroke-linecap="round" stroke-linejoin="round"/>
<path d="M4.77827 81.864C4.51592 82.8743 4.28452 83.9178 4.3583 84.9642C4.40076 85.6854 4.61489 86.8111 4.71134 87.5375C4.82506 88.353 4.87508 89.1935 4.84845 90.0162C4.79375 91.9155 4.38061 94.8188 4.22082 96.7232C4.06824 98.4471 4.03369 100.24 4.1215 101.968C4.23126 103.885 4.43927 105.844 4.93661 107.707C5.15902 108.493 5.51349 109.356 6.17566 109.88C6.54238 110.173 6.95803 110.332 7.39527 110.43C8.23378 110.61 9.11151 110.556 9.9475 110.39C10.8537 110.203 11.7462 109.874 12.4882 109.331C12.9787 108.968 13.3623 108.533 13.597 108.01C13.8773 107.384 13.9464 106.689 13.9928 106.015L14.0814 104.337C14.2451 102.032 14.6507 99.7159 15.2125 97.4708C15.6601 95.5989 16.874 92.2887 17.5041 90.4311C17.9493 89.1047 19.1041 85.3003 19.6328 84.071C19.7541 83.7865 19.911 83.435 20.096 83.199C20.1193 83.1699 20.1312 83.1561 20.1312 83.1561C20.1668 83.1162 20.1787 83.1034 20.1787 83.1034C20.2151 83.0673 20.2273 83.0559 20.2273 83.0559C20.2644 83.0237 20.2705 83.0185 20.2705 83.0185C20.3086 82.9894 20.3148 82.9849 20.3148 82.9849C20.3536 82.9589 20.3605 82.955 20.3605 82.955C20.4004 82.9322 20.4072 82.9287 20.4072 82.9287C20.4486 82.9089 20.4555 82.9058 20.4555 82.9058C20.4911 82.8916 20.4979 82.8892 20.4979 82.8892C20.5343 82.8771 20.5469 82.8736 20.5469 82.8736C20.5847 82.8639 20.5976 82.8608 20.5976 82.8608C20.6365 82.8532 20.6498 82.8511 20.6498 82.8511C20.6897 82.8455 20.7031 82.8441 20.7031 82.8441C20.7437 82.8407 20.7574 82.84 20.7574 82.84C20.7988 82.8386 20.8125 82.8382 20.8125 82.8382C20.8542 82.8386 20.8682 82.8389 20.8682 82.8389C21.0601 82.8466 21.2256 82.8868 21.3789 82.9398" fill="white"/>
<path d="M4.77827 81.864C4.51592 82.8743 4.28452 83.9178 4.3583 84.9642C4.40076 85.6854 4.61489 86.8111 4.71134 87.5375C4.82506 88.353 4.87508 89.1935 4.84845 90.0162C4.79375 91.9155 4.38061 94.8188 4.22082 96.7232C4.06824 98.4471 4.03369 100.24 4.1215 101.968C4.23126 103.885 4.43927 105.844 4.93661 107.707C5.15902 108.493 5.51349 109.356 6.17566 109.88C6.54238 110.173 6.95803 110.332 7.39527 110.43C8.23378 110.61 9.11151 110.556 9.9475 110.39C10.8537 110.203 11.7462 109.874 12.4882 109.331C12.9787 108.968 13.3623 108.533 13.597 108.01C13.8773 107.384 13.9464 106.689 13.9928 106.015L14.0814 104.337C14.2451 102.032 14.6507 99.7159 15.2125 97.4708C15.6601 95.5989 16.874 92.2887 17.5041 90.4311C17.9493 89.1047 19.1041 85.3003 19.6328 84.071C19.7541 83.7865 19.911 83.435 20.096 83.199C20.1193 83.1699 20.1312 83.1561 20.1312 83.1561C20.1668 83.1162 20.1787 83.1034 20.1787 83.1034C20.2151 83.0673 20.2273 83.0559 20.2273 83.0559C20.2644 83.0237 20.2705 83.0185 20.2705 83.0185C20.3086 82.9894 20.3148 82.9849 20.3148 82.9849C20.3536 82.9589 20.3605 82.955 20.3605 82.955C20.4004 82.9322 20.4072 82.9287 20.4072 82.9287C20.4486 82.9089 20.4555 82.9058 20.4555 82.9058C20.4911 82.8916 20.4979 82.8892 20.4979 82.8892C20.5343 82.8771 20.5469 82.8736 20.5469 82.8736C20.5847 82.8639 20.5976 82.8608 20.5976 82.8608C20.6365 82.8532 20.6498 82.8511 20.6498 82.8511C20.6897 82.8455 20.7031 82.8441 20.7031 82.8441C20.7437 82.8407 20.7574 82.84 20.7574 82.84C20.7988 82.8386 20.8125 82.8382 20.8125 82.8382C20.8542 82.8386 20.8682 82.8389 20.8682 82.8389C21.0601 82.8466 21.2256 82.8868 21.3789 82.9398" stroke="#0056B3" stroke-width="2.75" stroke-miterlimit="10" stroke-linecap="round" stroke-linejoin="round"/>
<path d="M9.03766 62.4902C9.43424 62.642 12.5842 63.7074 13.0661 63.8727C14.1313 64.2321 17.9622 65.7689 19.0731 66.2017C21.9384 67.2803 24.92 68.2292 27.9868 68.5709C29.924 68.783 31.9066 68.7397 33.8402 68.5093C35.2048 68.3408 36.5857 68.083 37.8952 67.674C38.4592 67.4872 39.0994 67.2758 39.5661 66.9216C39.6064 66.8886 39.6262 66.872 39.6262 66.872C39.664 66.838 39.6824 66.8211 39.6824 66.8211C39.7176 66.7861 39.7346 66.7684 39.7346 66.7684C39.7673 66.7323 39.7831 66.714 39.7831 66.714C39.8137 66.6765 39.8213 66.6672 39.8213 66.6672C39.8429 66.6384 39.8569 66.619 39.8569 66.619C40.0113 66.3979 40.0779 66.1834 40.1362 65.9473C40.192 65.7113 40.2254 65.4614 40.2499 65.2202C40.2852 64.8681 40.3024 64.4657 40.3143 64.1108C40.3409 62.8746 40.3665 61.1618 40.4745 59.9446C40.7793 56.2958 41.3986 52.6117 42.4898 49.1016" fill="white"/>
<path d="M9.03766 62.4902C9.43424 62.642 12.5842 63.7074 13.0661 63.8727C14.1313 64.2321 17.9622 65.7689 19.0731 66.2017C21.9384 67.2803 24.92 68.2292 27.9868 68.5709C29.924 68.783 31.9066 68.7397 33.8402 68.5093C35.2048 68.3408 36.5857 68.083 37.8952 67.674C38.4592 67.4872 39.0994 67.2758 39.5661 66.9216C39.6064 66.8886 39.6262 66.872 39.6262 66.872C39.664 66.838 39.6824 66.8211 39.6824 66.8211C39.7176 66.7861 39.7346 66.7684 39.7346 66.7684C39.7673 66.7323 39.7831 66.714 39.7831 66.714C39.8137 66.6765 39.8213 66.6672 39.8213 66.6672C39.8429 66.6384 39.8569 66.619 39.8569 66.619C40.0113 66.3979 40.0779 66.1834 40.1362 65.9473C40.192 65.7113 40.2254 65.4614 40.2499 65.2202C40.2852 64.8681 40.3024 64.4657 40.3143 64.1108C40.3409 62.8746 40.3665 61.1618 40.4745 59.9446C40.7793 56.2958 41.3986 52.6117 42.4898 49.1016" stroke="#0056B3" stroke-width="2.75" stroke-miterlimit="10" stroke-linecap="round" stroke-linejoin="round"/>
<path d="M44.6007 81.47C44.6533 81.6942 44.5291 82.5925 44.5197 82.8293C44.5053 82.9894 44.4611 83.1356 44.4013 83.2618C44.3812 83.3023 44.3704 83.3224 44.3704 83.3224C44.3481 83.3619 44.3362 83.3814 44.3362 83.3814C44.3117 83.4195 44.2991 83.4385 44.2991 83.4385C44.2725 83.4756 44.2588 83.4936 44.2588 83.4936C44.2304 83.5293 44.2156 83.5467 44.2156 83.5467C44.1854 83.581 44.1696 83.5976 44.1696 83.5976C44.1376 83.6302 44.121 83.6461 44.121 83.6461C44.0872 83.677 44.0699 83.6922 44.0699 83.6922C44.0346 83.7213 44.0163 83.7356 44.0163 83.7356C43.9792 83.7629 43.9605 83.7761 43.9605 83.7761C43.922 83.8018 43.9026 83.8139 43.9026 83.8139C43.863 83.8374 43.8428 83.8489 43.8428 83.8489C43.8018 83.8704 43.7813 83.8808 43.7813 83.8808C43.6042 83.9653 43.4387 84.0045 43.2674 84.017C43.1285 84.0353 42.2453 83.9435 42.1118 83.9376" fill="white"/>
<path d="M44.6007 81.47C44.6533 81.6942 44.5291 82.5925 44.5197 82.8293C44.5053 82.9894 44.4611 83.1356 44.4013 83.2618C44.3812 83.3023 44.3704 83.3224 44.3704 83.3224C44.3481 83.3619 44.3362 83.3814 44.3362 83.3814C44.3117 83.4195 44.2991 83.4385 44.2991 83.4385C44.2725 83.4756 44.2588 83.4936 44.2588 83.4936C44.2304 83.5293 44.2156 83.5467 44.2156 83.5467C44.1854 83.581 44.1696 83.5976 44.1696 83.5976C44.1376 83.6302 44.121 83.6461 44.121 83.6461C44.0872 83.677 44.0699 83.6922 44.0699 83.6922C44.0346 83.7213 44.0163 83.7356 44.0163 83.7356C43.9792 83.7629 43.9605 83.7761 43.9605 83.7761C43.922 83.8018 43.9026 83.8139 43.9026 83.8139C43.863 83.8374 43.8428 83.8489 43.8428 83.8489C43.8018 83.8704 43.7813 83.8808 43.7813 83.8808C43.6042 83.9653 43.4387 84.0045 43.2674 84.017C43.1285 84.0353 42.2453 83.9435 42.1118 83.9376" stroke="#0056B3" stroke-width="2.75" stroke-miterlimit="10" stroke-linecap="round" stroke-linejoin="round"/>
<path d="M35.242 83.3723L32.1089 83.1144C32.0855 83.1123 32.0625 83.1099 32.0625 83.1099C31.9124 83.0926 31.7764 83.0517 31.6598 83.0004C31.6177 82.981 31.5968 82.9706 31.5968 82.9706C31.5558 82.9491 31.5356 82.9377 31.5356 82.9377C31.496 82.9141 31.4763 82.902 31.4763 82.902C31.4377 82.8763 31.419 82.8631 31.419 82.8631C31.382 82.8358 31.364 82.8216 31.364 82.8216C31.3283 82.7924 31.3111 82.7772 31.3111 82.7772C31.2772 82.7463 31.2607 82.7304 31.2607 82.7304C31.2287 82.6978 31.2128 82.6812 31.2128 82.6812C31.1826 82.6472 31.1678 82.6295 31.1678 82.6295C31.1394 82.5938 31.1257 82.5758 31.1257 82.5758C31.0991 82.5387 31.0865 82.52 31.0865 82.52C31.062 82.4819 31.0502 82.4625 31.0502 82.4625C31.0278 82.423 31.0171 82.4032 31.0171 82.4032C30.9015 82.1811 30.8605 81.952 30.8753 81.7284C30.8821 81.6664 30.9739 80.5747 30.9811 80.5716C31.0019 80.4419 31.0415 80.3272 31.0883 80.2285C31.1085 80.1879 31.1193 80.1678 31.1193 80.1678C31.1416 80.1283 31.1534 80.1089 31.1534 80.1089C31.1779 80.0708 31.1905 80.0517 31.1905 80.0517C31.2171 80.0146 31.2308 79.9966 31.2308 79.9966C31.2592 79.9609 31.274 79.9436 31.274 79.9436C31.3042 79.9092 31.3201 79.8926 31.3201 79.8926C31.3521 79.86 31.3686 79.8441 31.3686 79.8441C31.4025 79.8133 31.4198 79.798 31.4198 79.798C31.455 79.7689 31.4734 79.7547 31.4734 79.7547C31.5104 79.7273 31.5292 79.7141 31.5292 79.7141C31.5677 79.6885 31.5871 79.6763 31.5871 79.6763C31.6267 79.6528 31.6468 79.6414 31.6468 79.6414C31.6879 79.6199 31.7084 79.6095 31.7084 79.6095C31.8987 79.5183 32.0823 79.4781 32.2691 79.4708C32.3259 79.4688 32.3752 79.4708 32.409 79.4729C32.4324 79.4746 35.3485 79.7145 35.3485 79.7145" fill="white"/>
<path d="M35.242 83.3723L32.1089 83.1144C32.0855 83.1123 32.0625 83.1099 32.0625 83.1099C31.9124 83.0926 31.7764 83.0517 31.6598 83.0004C31.6177 82.981 31.5968 82.9706 31.5968 82.9706C31.5558 82.9491 31.5356 82.9377 31.5356 82.9377C31.496 82.9141 31.4763 82.902 31.4763 82.902C31.4377 82.8763 31.419 82.8631 31.419 82.8631C31.382 82.8358 31.364 82.8216 31.364 82.8216C31.3283 82.7924 31.3111 82.7772 31.3111 82.7772C31.2772 82.7463 31.2607 82.7304 31.2607 82.7304C31.2287 82.6978 31.2128 82.6812 31.2128 82.6812C31.1826 82.6472 31.1678 82.6295 31.1678 82.6295C31.1394 82.5938 31.1257 82.5758 31.1257 82.5758C31.0991 82.5387 31.0865 82.52 31.0865 82.52C31.062 82.4819 31.0502 82.4625 31.0502 82.4625C31.0278 82.423 31.0171 82.4032 31.0171 82.4032C30.9015 82.1811 30.8605 81.952 30.8753 81.7284C30.8821 81.6664 30.9739 80.5747 30.9811 80.5716C31.0019 80.4419 31.0415 80.3272 31.0883 80.2285C31.1085 80.1879 31.1193 80.1678 31.1193 80.1678C31.1416 80.1283 31.1534 80.1089 31.1534 80.1089C31.1779 80.0708 31.1905 80.0517 31.1905 80.0517C31.2171 80.0146 31.2308 79.9966 31.2308 79.9966C31.2592 79.9609 31.274 79.9436 31.274 79.9436C31.3042 79.9092 31.3201 79.8926 31.3201 79.8926C31.3521 79.86 31.3686 79.8441 31.3686 79.8441C31.4025 79.8133 31.4198 79.798 31.4198 79.798C31.455 79.7689 31.4734 79.7547 31.4734 79.7547C31.5104 79.7273 31.5292 79.7141 31.5292 79.7141C31.5677 79.6885 31.5871 79.6763 31.5871 79.6763C31.6267 79.6528 31.6468 79.6414 31.6468 79.6414C31.6879 79.6199 31.7084 79.6095 31.7084 79.6095C31.8987 79.5183 32.0823 79.4781 32.2691 79.4708C32.3259 79.4688 32.3752 79.4708 32.409 79.4729C32.4324 79.4746 35.3485 79.7145 35.3485 79.7145" stroke="#0056B3" stroke-width="2.75" stroke-miterlimit="10" stroke-linecap="round" stroke-linejoin="round"/>
<path d="M2.93524 77.0472C2.69125 77.0271 2.45445 77.0728 2.25328 77.1622C2.21117 77.1816 2.19066 77.192 2.19066 77.192C2.14964 77.2135 2.12948 77.225 2.12948 77.225C2.08989 77.2485 2.0701 77.261 2.0701 77.261C2.0316 77.2867 2.01288 77.2998 2.01288 77.2998C1.97582 77.3272 1.95782 77.3414 1.95782 77.3414C1.92256 77.3705 1.90492 77.3858 1.90492 77.3858C1.87109 77.4166 1.85454 77.4326 1.85454 77.4326C1.82251 77.4651 1.80668 77.4818 1.80668 77.4818C1.77645 77.5161 1.76169 77.5334 1.76169 77.5334C1.73326 77.5691 1.71959 77.5871 1.71959 77.5871C1.69295 77.6242 1.68036 77.6429 1.68036 77.6429C1.65588 77.6811 1.64437 77.7008 1.64437 77.7008C1.62206 77.7403 1.61126 77.7604 1.61126 77.7604C1.54361 77.8918 1.51014 78.0027 1.48746 78.1219C1.47739 78.1309 1.38346 79.2521 1.37986 79.2788C1.35899 79.5138 1.40649 79.7418 1.49934 79.9356C1.5195 79.9761 1.53029 79.9959 1.53029 79.9959C1.5526 80.0354 1.56448 80.0548 1.56448 80.0548C1.58895 80.0929 1.60191 80.112 1.60191 80.112C1.62854 80.149 1.64221 80.1671 1.64221 80.1671C1.67064 80.2028 1.6854 80.2201 1.6854 80.2201C1.71563 80.2541 1.73146 80.271 1.73146 80.271C1.76349 80.3036 1.78004 80.3196 1.78004 80.3196C1.81387 80.3504 1.83115 80.3657 1.83115 80.3657C1.86677 80.3948 1.88477 80.409 1.88477 80.409C1.92183 80.4364 1.94055 80.4495 1.94055 80.4495C1.97905 80.4752 1.99849 80.4873 1.99849 80.4873C2.03807 80.5109 2.05859 80.522 2.05859 80.522C2.09961 80.5434 2.12048 80.5538 2.12048 80.5538C2.27091 80.6252 2.40191 80.6602 2.5419 80.68C2.56493 80.6828 2.58832 80.6855 2.58832 80.6855C2.61171 80.6876 4.35026 80.8308 4.35026 80.8308" fill="white"/>
<path d="M2.93524 77.0472C2.69125 77.0271 2.45445 77.0728 2.25328 77.1622C2.21117 77.1816 2.19066 77.192 2.19066 77.192C2.14964 77.2135 2.12948 77.225 2.12948 77.225C2.08989 77.2485 2.0701 77.261 2.0701 77.261C2.0316 77.2867 2.01288 77.2998 2.01288 77.2998C1.97582 77.3272 1.95782 77.3414 1.95782 77.3414C1.92256 77.3705 1.90492 77.3858 1.90492 77.3858C1.87109 77.4166 1.85454 77.4326 1.85454 77.4326C1.82251 77.4651 1.80668 77.4818 1.80668 77.4818C1.77645 77.5161 1.76169 77.5334 1.76169 77.5334C1.73326 77.5691 1.71959 77.5871 1.71959 77.5871C1.69295 77.6242 1.68036 77.6429 1.68036 77.6429C1.65588 77.6811 1.64437 77.7008 1.64437 77.7008C1.62206 77.7403 1.61126 77.7604 1.61126 77.7604C1.54361 77.8918 1.51014 78.0027 1.48746 78.1219C1.47739 78.1309 1.38346 79.2521 1.37986 79.2788C1.35899 79.5138 1.40649 79.7418 1.49934 79.9356C1.5195 79.9761 1.53029 79.9959 1.53029 79.9959C1.5526 80.0354 1.56448 80.0548 1.56448 80.0548C1.58895 80.0929 1.60191 80.112 1.60191 80.112C1.62854 80.149 1.64221 80.1671 1.64221 80.1671C1.67064 80.2028 1.6854 80.2201 1.6854 80.2201C1.71563 80.2541 1.73146 80.271 1.73146 80.271C1.76349 80.3036 1.78004 80.3196 1.78004 80.3196C1.81387 80.3504 1.83115 80.3657 1.83115 80.3657C1.86677 80.3948 1.88477 80.409 1.88477 80.409C1.92183 80.4364 1.94055 80.4495 1.94055 80.4495C1.97905 80.4752 1.99849 80.4873 1.99849 80.4873C2.03807 80.5109 2.05859 80.522 2.05859 80.522C2.09961 80.5434 2.12048 80.5538 2.12048 80.5538C2.27091 80.6252 2.40191 80.6602 2.5419 80.68C2.56493 80.6828 2.58832 80.6855 2.58832 80.6855C2.61171 80.6876 4.35026 80.8308 4.35026 80.8308" stroke="#0056B3" stroke-width="2.75" stroke-miterlimit="10" stroke-linecap="round" stroke-linejoin="round"/>
<path d="M11.478 81.4165L13.5606 81.5881C13.6167 81.5926 13.6671 81.5929 13.7005 81.5926C13.8985 81.5891 14.0838 81.5433 14.2425 81.473C14.2846 81.4536 14.3051 81.4432 14.3051 81.4432C14.3462 81.4217 14.3663 81.4103 14.3663 81.4103C14.4059 81.3867 14.4257 81.3742 14.4257 81.3742C14.4642 81.3486 14.4829 81.3354 14.4829 81.3354C14.52 81.308 14.538 81.2938 14.538 81.2938C14.5732 81.2647 14.5909 81.2494 14.5909 81.2494C14.6247 81.2186 14.6413 81.2027 14.6413 81.2027C14.6733 81.1701 14.6891 81.1534 14.6891 81.1534C14.7194 81.1191 14.7341 81.1018 14.7341 81.1018C14.7625 81.0661 14.7762 81.0481 14.7762 81.0481C14.8028 81.011 14.8154 80.9923 14.8154 80.9923C14.8399 80.9542 14.8514 80.9344 14.8514 80.9344C14.8737 80.8949 14.8845 80.8748 14.8845 80.8748C14.9522 80.7434 14.9857 80.6325 15.0083 80.5133C15.0184 80.5043 15.1123 79.3831 15.1159 79.3564C15.1368 79.1215 15.0893 78.8934 14.9965 78.6997C14.9763 78.6591 14.9655 78.6394 14.9655 78.6394C14.9432 78.5999 14.9313 78.5804 14.9313 78.5804C14.9068 78.5423 14.8939 78.5233 14.8939 78.5233C14.8673 78.4862 14.8536 78.4682 14.8536 78.4682C14.8252 78.4325 14.8104 78.4151 14.8104 78.4151C14.7802 78.3812 14.7643 78.3642 14.7643 78.3642C14.7323 78.3316 14.7158 78.3157 14.7158 78.3157C14.6819 78.2848 14.6646 78.2696 14.6646 78.2696C14.629 78.2405 14.611 78.2262 14.611 78.2262C14.574 78.1989 14.5552 78.1857 14.5552 78.1857C14.5167 78.16 14.4973 78.1479 14.4973 78.1479C14.4577 78.1243 14.4372 78.1133 14.4372 78.1133C14.3962 78.0918 14.3753 78.0814 14.3753 78.0814C14.2249 78.01 14.0939 77.975 13.9539 77.9552C13.9309 77.9524 13.9075 77.9497 13.9075 77.9497C13.8841 77.9476 12.0437 77.7961 12.0437 77.7961" fill="white"/>
<path d="M11.478 81.4165L13.5606 81.5881C13.6167 81.5926 13.6671 81.5929 13.7005 81.5926C13.8985 81.5891 14.0838 81.5433 14.2425 81.473C14.2846 81.4536 14.3051 81.4432 14.3051 81.4432C14.3462 81.4217 14.3663 81.4103 14.3663 81.4103C14.4059 81.3867 14.4257 81.3742 14.4257 81.3742C14.4642 81.3486 14.4829 81.3354 14.4829 81.3354C14.52 81.308 14.538 81.2938 14.538 81.2938C14.5732 81.2647 14.5909 81.2494 14.5909 81.2494C14.6247 81.2186 14.6413 81.2027 14.6413 81.2027C14.6733 81.1701 14.6891 81.1534 14.6891 81.1534C14.7194 81.1191 14.7341 81.1018 14.7341 81.1018C14.7625 81.0661 14.7762 81.0481 14.7762 81.0481C14.8028 81.011 14.8154 80.9923 14.8154 80.9923C14.8399 80.9542 14.8514 80.9344 14.8514 80.9344C14.8737 80.8949 14.8845 80.8748 14.8845 80.8748C14.9522 80.7434 14.9857 80.6325 15.0083 80.5133C15.0184 80.5043 15.1123 79.3831 15.1159 79.3564C15.1368 79.1215 15.0893 78.8934 14.9965 78.6997C14.9763 78.6591 14.9655 78.6394 14.9655 78.6394C14.9432 78.5999 14.9313 78.5804 14.9313 78.5804C14.9068 78.5423 14.8939 78.5233 14.8939 78.5233C14.8673 78.4862 14.8536 78.4682 14.8536 78.4682C14.8252 78.4325 14.8104 78.4151 14.8104 78.4151C14.7802 78.3812 14.7643 78.3642 14.7643 78.3642C14.7323 78.3316 14.7158 78.3157 14.7158 78.3157C14.6819 78.2848 14.6646 78.2696 14.6646 78.2696C14.629 78.2405 14.611 78.2262 14.611 78.2262C14.574 78.1989 14.5552 78.1857 14.5552 78.1857C14.5167 78.16 14.4973 78.1479 14.4973 78.1479C14.4577 78.1243 14.4372 78.1133 14.4372 78.1133C14.3962 78.0918 14.3753 78.0814 14.3753 78.0814C14.2249 78.01 14.0939 77.975 13.9539 77.9552C13.9309 77.9524 13.9075 77.9497 13.9075 77.9497C13.8841 77.9476 12.0437 77.7961 12.0437 77.7961" stroke="#0056B3" stroke-width="2.75" stroke-miterlimit="10" stroke-linecap="round" stroke-linejoin="round"/>
<path d="M42.6998 46.8049C42.5199 48.6729 42.3339 50.7184 42.2903 52.5868C42.2468 54.3651 42.3108 57.1232 42.2014 58.8797C42.1007 60.887 41.6123 63.4867 41.4155 65.4969C41.1797 67.6914 41.2067 70.926 41.0279 73.1368C40.9807 73.6078 40.912 74.0882 40.7947 74.5474C40.6284 75.2153 40.3146 75.9212 39.7996 76.3808C39.1792 76.9454 38.3148 77.2778 37.5688 77.6545C36.9289 77.9699 36.3006 78.3684 35.8658 78.9198C35.2551 79.6795 34.8899 80.6205 34.8071 81.5764C34.6225 84.0814 36.7292 84.5129 38.8431 84.481C40.2448 84.4467 41.7462 84.3091 42.9183 83.4988C43.5261 83.0746 44.003 82.4951 44.3776 81.873C44.6939 81.3442 44.9422 80.7702 45.1164 80.1835C45.2578 79.7069 45.3442 79.2054 45.4065 78.7136C45.5148 77.7765 45.6037 76.7593 45.8491 75.8505C46.051 75.0617 46.3637 74.1735 46.643 73.4009C47.19 71.9117 47.9907 69.8145 48.424 68.3166C49.22 65.6563 49.8005 62.8899 50.0218 60.1273C50.2144 57.8157 50.1482 55.2555 50.3346 52.9435C50.3976 52.2035 50.5149 51.4327 50.6592 50.7035C50.829 49.8326 51.1519 48.5014 51.2861 47.6269C51.443 46.6496 51.5387 45.5173 51.624 44.5303" fill="white"/>
<path d="M42.6998 46.8049C42.5199 48.6729 42.3339 50.7184 42.2903 52.5868C42.2468 54.3651 42.3108 57.1232 42.2014 58.8797C42.1007 60.887 41.6123 63.4867 41.4155 65.4969C41.1797 67.6914 41.2067 70.926 41.0279 73.1368C40.9807 73.6078 40.912 74.0882 40.7947 74.5474C40.6284 75.2153 40.3146 75.9212 39.7996 76.3808C39.1792 76.9454 38.3148 77.2778 37.5688 77.6545C36.9289 77.9699 36.3006 78.3684 35.8658 78.9198C35.2551 79.6795 34.8899 80.6205 34.8071 81.5764C34.6225 84.0814 36.7292 84.5129 38.8431 84.481C40.2448 84.4467 41.7462 84.3091 42.9183 83.4988C43.5261 83.0746 44.003 82.4951 44.3776 81.873C44.6939 81.3442 44.9422 80.7702 45.1164 80.1835C45.2578 79.7069 45.3442 79.2054 45.4065 78.7136C45.5148 77.7765 45.6037 76.7593 45.8491 75.8505C46.051 75.0617 46.3637 74.1735 46.643 73.4009C47.19 71.9117 47.9907 69.8145 48.424 68.3166C49.22 65.6563 49.8005 62.8899 50.0218 60.1273C50.2144 57.8157 50.1482 55.2555 50.3346 52.9435C50.3976 52.2035 50.5149 51.4327 50.6592 50.7035C50.829 49.8326 51.1519 48.5014 51.2861 47.6269C51.443 46.6496 51.5387 45.5173 51.624 44.5303" stroke="#0056B3" stroke-width="2.75" stroke-miterlimit="10" stroke-linecap="round" stroke-linejoin="round"/>
<path d="M5.49139 40.2173C5.02896 41.8573 4.54492 43.6501 4.23219 45.3161C3.88707 47.0771 3.57183 50.0355 3.30588 51.8349C3.02878 53.8576 2.32666 56.1481 2.07799 58.1749C1.71668 60.882 2.19747 64.5374 2.36625 67.2722C2.41447 68.0624 2.4483 68.9292 2.42994 69.7187C2.41447 70.6687 2.30075 72.0439 2.25325 73.0008C2.21258 73.8777 2.24317 74.7691 2.43606 75.6289C2.57101 76.2434 2.79414 76.8641 3.13746 77.3944C3.37605 77.7645 3.72153 78.2535 3.877 78.6542C4.02239 79.0077 4.085 79.3373 4.15086 79.7023C4.26638 80.3271 4.329 81.0681 4.6259 81.6375C4.64605 81.6736 4.65648 81.6916 4.65648 81.6916C4.67772 81.7263 4.68887 81.7433 4.68887 81.7433C4.71118 81.7765 4.7227 81.7928 4.7227 81.7928C4.74645 81.8243 4.75833 81.8399 4.75833 81.8399C4.78964 81.8774 4.79576 81.8847 4.79576 81.8847C4.83103 81.9224 4.84326 81.9346 4.84326 81.9346C4.88032 81.9696 4.89328 81.981 4.89328 81.981C4.93251 82.0136 4.94582 82.024 4.94582 82.024C4.98685 82.0541 5.00088 82.0638 5.00088 82.0638C5.02931 82.0825 5.04371 82.0916 5.04371 82.0916C5.07286 82.1092 5.08797 82.1176 5.08797 82.1176C5.1182 82.1338 5.13332 82.1418 5.13332 82.1418C5.16427 82.1571 5.1801 82.1647 5.1801 82.1647C5.21213 82.1789 5.22796 82.1858 5.22796 82.1858C5.66701 82.3591 6.08483 82.3602 6.52747 82.3803C7.12306 82.3851 8.11415 82.4496 8.71658 82.4908C9.31577 82.5165 9.97111 82.5407 10.5379 82.3352C10.5797 82.3189 10.6002 82.3106 10.6002 82.3106C10.6405 82.2929 10.6606 82.2839 10.6606 82.2839C10.6999 82.2649 10.7189 82.2551 10.7189 82.2551C10.7542 82.2361 10.7704 82.2271 10.7704 82.2271C10.8021 82.2084 10.8179 82.199 10.8179 82.199C10.8488 82.1792 10.864 82.1692 10.864 82.1692C10.8938 82.1484 10.9086 82.138 10.9086 82.138C10.9377 82.1162 10.9518 82.1051 10.9518 82.1051C10.9939 82.0708 11.0075 82.059 11.0075 82.059C11.0479 82.0226 11.0612 82.0105 11.0612 82.0105C11.0997 81.9723 11.1126 81.9595 11.1126 81.9595C11.3588 81.7034 11.5027 81.3918 11.61 81.1017C11.7388 80.7434 11.8119 80.4034 11.8842 80.0374C11.9929 79.4648 12.0767 78.876 12.0735 78.2931C12.0713 77.8709 12.013 77.3899 11.832 77.0104C11.6388 76.5969 11.2879 76.2975 10.9255 76.0753C9.95923 75.4837 8.62481 75.1967 7.93098 74.27C7.53152 73.729 7.38109 73.1058 7.30732 72.4622C7.16876 71.1029 7.43435 69.7302 7.73953 68.4069C8.29085 66.1885 8.94726 63.7576 9.16175 61.4899C9.37119 59.6326 9.51047 56.8825 9.99198 55.0955C10.191 54.3414 10.5221 53.6177 10.9086 52.936C11.4588 51.9902 12.1152 50.912 12.4902 49.8931C13.2765 47.8281 13.7181 45.6294 13.9772 43.4481" fill="white"/>
<path d="M5.49139 40.2173C5.02896 41.8573 4.54492 43.6501 4.23219 45.3161C3.88707 47.0771 3.57183 50.0355 3.30588 51.8349C3.02878 53.8576 2.32666 56.1481 2.07799 58.1749C1.71668 60.882 2.19747 64.5374 2.36625 67.2722C2.41447 68.0624 2.4483 68.9292 2.42994 69.7187C2.41447 70.6687 2.30075 72.0439 2.25325 73.0008C2.21258 73.8777 2.24317 74.7691 2.43606 75.6289C2.57101 76.2434 2.79414 76.8641 3.13746 77.3944C3.37605 77.7645 3.72153 78.2535 3.877 78.6542C4.02239 79.0077 4.085 79.3373 4.15086 79.7023C4.26638 80.3271 4.329 81.0681 4.6259 81.6375C4.64605 81.6736 4.65648 81.6916 4.65648 81.6916C4.67772 81.7263 4.68887 81.7433 4.68887 81.7433C4.71118 81.7765 4.7227 81.7928 4.7227 81.7928C4.74645 81.8243 4.75833 81.8399 4.75833 81.8399C4.78964 81.8774 4.79576 81.8847 4.79576 81.8847C4.83103 81.9224 4.84326 81.9346 4.84326 81.9346C4.88032 81.9696 4.89328 81.981 4.89328 81.981C4.93251 82.0136 4.94582 82.024 4.94582 82.024C4.98685 82.0541 5.00088 82.0638 5.00088 82.0638C5.02931 82.0825 5.04371 82.0916 5.04371 82.0916C5.07286 82.1092 5.08797 82.1176 5.08797 82.1176C5.1182 82.1338 5.13332 82.1418 5.13332 82.1418C5.16427 82.1571 5.1801 82.1647 5.1801 82.1647C5.21213 82.1789 5.22796 82.1858 5.22796 82.1858C5.66701 82.3591 6.08483 82.3602 6.52747 82.3803C7.12306 82.3851 8.11415 82.4496 8.71658 82.4908C9.31577 82.5165 9.97111 82.5407 10.5379 82.3352C10.5797 82.3189 10.6002 82.3106 10.6002 82.3106C10.6405 82.2929 10.6606 82.2839 10.6606 82.2839C10.6999 82.2649 10.7189 82.2551 10.7189 82.2551C10.7542 82.2361 10.7704 82.2271 10.7704 82.2271C10.8021 82.2084 10.8179 82.199 10.8179 82.199C10.8488 82.1792 10.864 82.1692 10.864 82.1692C10.8938 82.1484 10.9086 82.138 10.9086 82.138C10.9377 82.1162 10.9518 82.1051 10.9518 82.1051C10.9939 82.0708 11.0075 82.059 11.0075 82.059C11.0479 82.0226 11.0612 82.0105 11.0612 82.0105C11.0997 81.9723 11.1126 81.9595 11.1126 81.9595C11.3588 81.7034 11.5027 81.3918 11.61 81.1017C11.7388 80.7434 11.8119 80.4034 11.8842 80.0374C11.9929 79.4648 12.0767 78.876 12.0735 78.2931C12.0713 77.8709 12.013 77.3899 11.832 77.0104C11.6388 76.5969 11.2879 76.2975 10.9255 76.0753C9.95923 75.4837 8.62481 75.1967 7.93098 74.27C7.53152 73.729 7.38109 73.1058 7.30732 72.4622C7.16876 71.1029 7.43435 69.7302 7.73953 68.4069C8.29085 66.1885 8.94726 63.7576 9.16175 61.4899C9.37119 59.6326 9.51047 56.8825 9.99198 55.0955C10.191 54.3414 10.5221 53.6177 10.9086 52.936C11.4588 51.9902 12.1152 50.912 12.4902 49.8931C13.2765 47.8281 13.7181 45.6294 13.9772 43.4481" stroke="#0056B3" stroke-width="2.75" stroke-miterlimit="10" stroke-linecap="round" stroke-linejoin="round"/>
<path d="M17.5509 33.9588C17.4987 35.5049 17.0715 37.025 16.5788 38.4893C16.1686 39.7148 15.4798 41.324 14.9709 42.5269C14.9123 42.6628 14.8252 42.8503 14.7521 42.9671C14.7284 43.0045 14.7165 43.0225 14.7165 43.0225C14.6924 43.0575 14.6798 43.0742 14.6798 43.0742C14.6485 43.1144 14.642 43.1224 14.642 43.1224C14.6093 43.1598 14.6024 43.1671 14.6024 43.1671C14.5682 43.2017 14.561 43.2083 14.561 43.2083C14.525 43.2402 14.5175 43.2461 14.5175 43.2461C14.4793 43.2752 14.4714 43.2807 14.4714 43.2807C14.4311 43.3071 14.4228 43.3119 14.4228 43.3119C14.3887 43.331 14.38 43.3355 14.38 43.3355C14.3444 43.3528 14.335 43.357 14.335 43.357C14.2972 43.3726 14.2875 43.3764 14.2875 43.3764C14.258 43.3871 14.2429 43.392 14.2429 43.392C14.2123 43.4014 14.1968 43.4059 14.1968 43.4059C14.1652 43.4142 14.1486 43.4183 14.1486 43.4183C14.1155 43.4256 14.0986 43.4291 14.0986 43.4291C13.7772 43.4863 13.5181 43.4637 13.2108 43.4305C12.8401 43.3844 12.4651 43.3012 12.1045 43.2069C10.6348 42.8091 9.20251 42.2133 7.83786 41.5586C7.21096 41.2515 6.55779 40.9095 5.96832 40.5403C5.61169 40.3151 5.20971 40.0468 4.97039 39.7183C4.94628 39.6846 4.93872 39.6732 4.93872 39.6732C4.91605 39.6389 4.90885 39.6275 4.90885 39.6275C4.88762 39.5925 4.88078 39.5807 4.88078 39.5807C4.86099 39.545 4.85451 39.5332 4.85451 39.5332C4.83616 39.4968 4.8304 39.4847 4.8304 39.4847C4.81348 39.4476 4.80809 39.4351 4.80809 39.4351C4.79261 39.3973 4.78757 39.3845 4.78757 39.3845C4.77354 39.3457 4.76922 39.3325 4.76922 39.3325C4.66414 39.0237 4.68105 38.7135 4.71416 38.421C4.75554 38.0956 4.8394 37.7681 4.93476 37.453C5.21403 36.5398 5.64767 35.5884 6.04677 34.7151C7.06594 32.559 8.10129 30.3298 9.59153 28.4319C10.2692 27.5704 11.0677 26.7857 11.9955 26.1729C13.6693 25.0344 15.8368 24.3628 17.7175 23.6097C18.8363 23.1626 20.2719 22.5418 21.4483 22.2778C23.0386 21.9066 24.7005 21.8366 26.3289 21.944" fill="white"/>
<path d="M17.5509 33.9588C17.4987 35.5049 17.0715 37.025 16.5788 38.4893C16.1686 39.7148 15.4798 41.324 14.9709 42.5269C14.9123 42.6628 14.8252 42.8503 14.7521 42.9671C14.7284 43.0045 14.7165 43.0225 14.7165 43.0225C14.6924 43.0575 14.6798 43.0742 14.6798 43.0742C14.6485 43.1144 14.642 43.1224 14.642 43.1224C14.6093 43.1598 14.6024 43.1671 14.6024 43.1671C14.5682 43.2017 14.561 43.2083 14.561 43.2083C14.525 43.2402 14.5175 43.2461 14.5175 43.2461C14.4793 43.2752 14.4714 43.2807 14.4714 43.2807C14.4311 43.3071 14.4228 43.3119 14.4228 43.3119C14.3887 43.331 14.38 43.3355 14.38 43.3355C14.3444 43.3528 14.335 43.357 14.335 43.357C14.2972 43.3726 14.2875 43.3764 14.2875 43.3764C14.258 43.3871 14.2429 43.392 14.2429 43.392C14.2123 43.4014 14.1968 43.4059 14.1968 43.4059C14.1652 43.4142 14.1486 43.4183 14.1486 43.4183C14.1155 43.4256 14.0986 43.4291 14.0986 43.4291C13.7772 43.4863 13.5181 43.4637 13.2108 43.4305C12.8401 43.3844 12.4651 43.3012 12.1045 43.2069C10.6348 42.8091 9.20251 42.2133 7.83786 41.5586C7.21096 41.2515 6.55779 40.9095 5.96832 40.5403C5.61169 40.3151 5.20971 40.0468 4.97039 39.7183C4.94628 39.6846 4.93872 39.6732 4.93872 39.6732C4.91605 39.6389 4.90885 39.6275 4.90885 39.6275C4.88762 39.5925 4.88078 39.5807 4.88078 39.5807C4.86099 39.545 4.85451 39.5332 4.85451 39.5332C4.83616 39.4968 4.8304 39.4847 4.8304 39.4847C4.81348 39.4476 4.80809 39.4351 4.80809 39.4351C4.79261 39.3973 4.78757 39.3845 4.78757 39.3845C4.77354 39.3457 4.76922 39.3325 4.76922 39.3325C4.66414 39.0237 4.68105 38.7135 4.71416 38.421C4.75554 38.0956 4.8394 37.7681 4.93476 37.453C5.21403 36.5398 5.64767 35.5884 6.04677 34.7151C7.06594 32.559 8.10129 30.3298 9.59153 28.4319C10.2692 27.5704 11.0677 26.7857 11.9955 26.1729C13.6693 25.0344 15.8368 24.3628 17.7175 23.6097C18.8363 23.1626 20.2719 22.5418 21.4483 22.2778C23.0386 21.9066 24.7005 21.8366 26.3289 21.944" stroke="#0056B3" stroke-width="2.75" stroke-miterlimit="10" stroke-linecap="round" stroke-linejoin="round"/>
<path d="M21.1456 132.26L23.8299 132.65L24.1181 147.071L25.7325 147.217" fill="white"/>
<path d="M21.1456 132.26L23.8299 132.65L24.1181 147.071L25.7325 147.217" stroke="#0056B3" stroke-width="2.75" stroke-miterlimit="10" stroke-linecap="round" stroke-linejoin="round"/>
<path d="M21.0402 133.446L22.6107 133.657L22.9004 148.161L25.6174 148.405" fill="white"/>
<path d="M21.0402 133.446L22.6107 133.657L22.9004 148.161L25.6174 148.405" stroke="#0056B3" stroke-width="2.75" stroke-miterlimit="10" stroke-linecap="round" stroke-linejoin="round"/>
<path d="M19.4905 105.547L16.8501 135.304L15.4073 135.185L18.1435 104.349C18.1499 104.277 18.16 104.19 18.1705 104.117C18.2068 103.856 18.2867 103.554 18.4008 103.331C18.4209 103.292 18.4314 103.273 18.4314 103.273C18.4526 103.235 18.4634 103.217 18.4634 103.217C18.4857 103.181 18.4969 103.164 18.4969 103.164C18.5203 103.129 18.5321 103.112 18.5321 103.112C18.5566 103.079 18.5688 103.063 18.5688 103.063C18.5944 103.032 18.6073 103.017 18.6073 103.017C18.634 102.987 18.6473 102.972 18.6473 102.972C18.6746 102.944 18.6887 102.93 18.6887 102.93C18.7171 102.903 18.7319 102.89 18.7319 102.89C18.7614 102.865 18.7765 102.852 18.7765 102.852C18.8071 102.829 18.8229 102.817 18.8229 102.817C18.8546 102.795 18.8708 102.784 18.8708 102.784C18.9035 102.763 18.9204 102.753 18.9204 102.753C18.9543 102.734 18.9715 102.724 18.9715 102.724C19.0064 102.706 19.0241 102.698 19.0241 102.698C19.0601 102.682 19.0784 102.674 19.0784 102.674C19.1155 102.659 19.1342 102.652 19.1342 102.652C19.1723 102.638 19.1918 102.632 19.1918 102.632C19.231 102.62 19.2508 102.615 19.2508 102.615C19.2911 102.604 19.3113 102.599 19.3113 102.599C19.5265 102.551 19.7323 102.549 19.9281 102.564C20.2329 102.603 22.3119 102.724 22.5577 102.819C22.5998 102.831 22.6207 102.838 22.6207 102.838C22.6617 102.852 22.6815 102.859 22.6815 102.859C22.7211 102.874 22.7405 102.882 22.7405 102.882C22.7786 102.898 22.7974 102.906 22.7974 102.906C22.8344 102.924 22.8524 102.933 22.8524 102.933C22.888 102.952 22.9057 102.962 22.9057 102.962C22.9399 102.982 22.9568 102.993 22.9568 102.993C22.9899 103.014 23.0061 103.025 23.0061 103.025C23.0378 103.048 23.0532 103.06 23.0532 103.06C23.0835 103.084 23.0986 103.097 23.0986 103.097C23.1277 103.122 23.1418 103.135 23.1418 103.135C23.1831 103.176 23.1965 103.19 23.1965 103.19C23.2224 103.218 23.2353 103.233 23.2353 103.233C23.2602 103.263 23.272 103.278 23.272 103.278C23.2954 103.309 23.3069 103.325 23.3069 103.325C23.3289 103.358 23.3397 103.374 23.3397 103.374C23.3606 103.408 23.3706 103.425 23.3706 103.425C23.3901 103.46 23.3994 103.478 23.3994 103.478C23.4178 103.515 23.4264 103.533 23.4264 103.533C23.4433 103.571 23.4516 103.59 23.4516 103.59C23.4671 103.629 23.4746 103.649 23.4746 103.649C23.5869 103.964 23.6042 104.252 23.597 104.565C23.5945 104.638 23.5891 104.725 23.5826 104.797L20.8465 135.634L19.4037 135.515L22.0441 105.758" fill="white"/>
<path d="M19.4905 105.547L16.8501 135.304L15.4073 135.185L18.1435 104.349C18.1499 104.277 18.16 104.19 18.1705 104.117C18.2068 103.856 18.2867 103.554 18.4008 103.331C18.4209 103.292 18.4314 103.273 18.4314 103.273C18.4526 103.235 18.4634 103.217 18.4634 103.217C18.4857 103.181 18.4969 103.164 18.4969 103.164C18.5203 103.129 18.5321 103.112 18.5321 103.112C18.5566 103.079 18.5688 103.063 18.5688 103.063C18.5944 103.032 18.6073 103.017 18.6073 103.017C18.634 102.987 18.6473 102.972 18.6473 102.972C18.6746 102.944 18.6887 102.93 18.6887 102.93C18.7171 102.903 18.7319 102.89 18.7319 102.89C18.7614 102.865 18.7765 102.852 18.7765 102.852C18.8071 102.829 18.8229 102.817 18.8229 102.817C18.8546 102.795 18.8708 102.784 18.8708 102.784C18.9035 102.763 18.9204 102.753 18.9204 102.753C18.9543 102.734 18.9715 102.724 18.9715 102.724C19.0064 102.706 19.0241 102.698 19.0241 102.698C19.0601 102.682 19.0784 102.674 19.0784 102.674C19.1155 102.659 19.1342 102.652 19.1342 102.652C19.1723 102.638 19.1918 102.632 19.1918 102.632C19.231 102.62 19.2508 102.615 19.2508 102.615C19.2911 102.604 19.3113 102.599 19.3113 102.599C19.5265 102.551 19.7323 102.549 19.9281 102.564C20.2329 102.603 22.3119 102.724 22.5577 102.819C22.5998 102.831 22.6207 102.838 22.6207 102.838C22.6617 102.852 22.6815 102.859 22.6815 102.859C22.7211 102.874 22.7405 102.882 22.7405 102.882C22.7786 102.898 22.7974 102.906 22.7974 102.906C22.8344 102.924 22.8524 102.933 22.8524 102.933C22.888 102.952 22.9057 102.962 22.9057 102.962C22.9399 102.982 22.9568 102.993 22.9568 102.993C22.9899 103.014 23.0061 103.025 23.0061 103.025C23.0378 103.048 23.0532 103.06 23.0532 103.06C23.0835 103.084 23.0986 103.097 23.0986 103.097C23.1277 103.122 23.1418 103.135 23.1418 103.135C23.1831 103.176 23.1965 103.19 23.1965 103.19C23.2224 103.218 23.2353 103.233 23.2353 103.233C23.2602 103.263 23.272 103.278 23.272 103.278C23.2954 103.309 23.3069 103.325 23.3069 103.325C23.3289 103.358 23.3397 103.374 23.3397 103.374C23.3606 103.408 23.3706 103.425 23.3706 103.425C23.3901 103.46 23.3994 103.478 23.3994 103.478C23.4178 103.515 23.4264 103.533 23.4264 103.533C23.4433 103.571 23.4516 103.59 23.4516 103.59C23.4671 103.629 23.4746 103.649 23.4746 103.649C23.5869 103.964 23.6042 104.252 23.597 104.565C23.5945 104.638 23.5891 104.725 23.5826 104.797L20.8465 135.634L19.4037 135.515L22.0441 105.758" stroke="#0056B3" stroke-width="2.75" stroke-miterlimit="10" stroke-linecap="round" stroke-linejoin="round"/>
<path d="M18.963 102.729L19.0677 101.548L23.1652 101.885L23.0605 103.066" fill="white"/>
<path d="M18.963 102.729L19.0677 101.548L23.1652 101.885L23.0605 103.066" stroke="#0056B3" stroke-width="2.75" stroke-miterlimit="10" stroke-linecap="round" stroke-linejoin="round"/>
<path d="M15.6432 163.396C15.5449 163.388 15.4567 163.369 15.383 163.348C15.3409 163.335 15.32 163.328 15.32 163.328C15.2786 163.313 15.2581 163.305 15.2581 163.305C15.2174 163.288 15.1976 163.278 15.1976 163.278C15.158 163.259 15.1386 163.249 15.1386 163.249C15.1001 163.228 15.0814 163.217 15.0814 163.217C15.044 163.195 15.026 163.182 15.026 163.182C14.99 163.158 14.9724 163.145 14.9724 163.145C14.9378 163.118 14.9209 163.105 14.9209 163.105C14.8878 163.077 14.8716 163.062 14.8716 163.062C14.8399 163.032 14.8248 163.017 14.8248 163.017C14.7949 162.986 14.7802 162.97 14.7802 162.97C14.7521 162.937 14.7384 162.92 14.7384 162.92C14.7122 162.886 14.6992 162.868 14.6992 162.868C14.6747 162.833 14.6629 162.815 14.6629 162.815C14.6402 162.778 14.6294 162.76 14.6294 162.76C14.6089 162.722 14.5992 162.703 14.5992 162.703C14.5804 162.664 14.5718 162.645 14.5718 162.645C14.5553 162.605 14.5477 162.585 14.5477 162.585C14.4912 162.436 14.4696 162.283 14.4718 162.147C14.4642 162.129 19.4906 105.588 19.4913 105.547C19.4934 105.526 19.496 105.505 19.496 105.505C19.4988 105.483 19.5021 105.462 19.5021 105.462C19.5057 105.441 19.5096 105.42 19.5096 105.42C19.514 105.4 19.5186 105.379 19.5186 105.379C19.5237 105.358 19.5291 105.338 19.5291 105.338C19.5348 105.317 19.541 105.297 19.541 105.297C19.5543 105.256 19.5618 105.236 19.5618 105.236C19.5773 105.196 19.5859 105.176 19.5859 105.176C19.6036 105.137 19.6129 105.118 19.6129 105.118C19.6327 105.08 19.6432 105.061 19.6432 105.061C19.6651 105.024 19.6763 105.006 19.6763 105.006C19.7 104.97 19.7126 104.953 19.7126 104.953C19.7382 104.918 19.7515 104.901 19.7515 104.901C19.7792 104.868 19.7932 104.852 19.7932 104.852C19.8224 104.82 19.8375 104.804 19.8375 104.804C19.8684 104.774 19.8843 104.759 19.8843 104.759C19.9167 104.73 19.9336 104.716 19.9336 104.716C19.9678 104.689 19.985 104.676 19.985 104.676C20.0207 104.651 20.0387 104.638 20.0387 104.638C20.0754 104.615 20.0941 104.603 20.0941 104.603C20.1322 104.581 20.1513 104.571 20.1513 104.571C20.1905 104.551 20.2103 104.542 20.2103 104.542C20.2506 104.524 20.2708 104.515 20.2708 104.515C20.3118 104.5 20.3327 104.492 20.3327 104.492C20.604 104.398 20.8836 104.398 21.137 104.471C21.1791 104.484 21.2 104.492 21.2 104.492C21.2414 104.506 21.2619 104.515 21.2619 104.515C21.3025 104.532 21.3223 104.541 21.3223 104.541C21.3619 104.56 21.3813 104.57 21.3813 104.57C21.4199 104.591 21.4386 104.602 21.4386 104.602C21.476 104.625 21.494 104.637 21.494 104.637C21.53 104.661 21.5476 104.674 21.5476 104.674C21.5822 104.701 21.5991 104.714 21.5991 104.714C21.6322 104.742 21.6484 104.757 21.6484 104.757C21.68 104.787 21.6952 104.802 21.6952 104.802C21.725 104.833 21.7398 104.85 21.7398 104.85C21.7679 104.882 21.7815 104.899 21.7815 104.899C21.8078 104.933 21.8208 104.951 21.8208 104.951C21.8452 104.986 21.8571 105.004 21.8571 105.004C21.8798 105.041 21.8906 105.059 21.8906 105.059C21.9111 105.097 21.9208 105.116 21.9208 105.116C21.9395 105.155 21.9481 105.174 21.9481 105.174C21.9647 105.214 21.9723 105.234 21.9723 105.234C22.0288 105.383 22.0504 105.536 22.0482 105.673C22.0557 105.691 17.0294 162.231 17.0287 162.272C17.0265 162.294 17.024 162.315 17.024 162.315C17.0211 162.336 17.0179 162.357 17.0179 162.357C17.0143 162.378 17.0103 162.399 17.0103 162.399C17.006 162.42 17.0013 162.44 17.0013 162.44C16.9963 162.461 16.9909 162.482 16.9909 162.482C16.9851 162.502 16.979 162.523 16.979 162.523C16.9657 162.563 16.9581 162.583 16.9581 162.583C16.9427 162.623 16.934 162.643 16.934 162.643C16.9164 162.682 16.907 162.701 16.907 162.701C16.8872 162.739 16.8768 162.758 16.8768 162.758C16.8549 162.795 16.8437 162.813 16.8437 162.813C16.8199 162.849 16.8073 162.866 16.8073 162.866C16.7818 162.901 16.7685 162.918 16.7685 162.918C16.7408 162.951 16.7267 162.968 16.7267 162.968C16.6976 162.999 16.6825 163.015 16.6825 163.015C16.6515 163.046 16.6357 163.06 16.6357 163.06C16.6033 163.089 16.5864 163.103 16.5864 163.103C16.5522 163.13 16.5349 163.143 16.5349 163.143C16.4993 163.169 16.4813 163.181 16.4813 163.181C16.4446 163.205 16.4259 163.216 16.4259 163.216C16.3877 163.238 16.3687 163.248 16.3687 163.248C16.3294 163.268 16.3096 163.277 16.3096 163.277C16.2693 163.295 16.2492 163.304 16.2492 163.304C16.2082 163.32 16.1873 163.327 16.1873 163.327C15.9973 163.392 15.8202 163.41 15.6432 163.396Z" fill="white" stroke="#0056B3" stroke-width="2.75" stroke-miterlimit="10" stroke-linecap="round" stroke-linejoin="round"/>
<path d="M20.406 91.1393L19.4807 101.573L22.7545 101.842L23.6798 91.4086L20.406 91.1393Z" fill="white" stroke="#0056B3" stroke-width="2.75" stroke-miterlimit="10" stroke-linecap="round" stroke-linejoin="round"/>
<path d="M20.0771 90.1671L19.9939 91.1057L24.0917 91.4428L24.175 90.5042L20.0771 90.1671Z" fill="white" stroke="#0056B3" stroke-width="2.75" stroke-miterlimit="10" stroke-linecap="round" stroke-linejoin="round"/>
<path d="M20.6516 88.37L20.4893 90.2009L23.7631 90.4702L23.9254 88.6393L20.6516 88.37Z" fill="white" stroke="#0056B3" stroke-width="2.75" stroke-miterlimit="10" stroke-linecap="round" stroke-linejoin="round"/>
<path d="M21.4928 81.9454L20.921 88.3931L23.6563 88.618L24.2281 82.1704L21.4928 81.9454Z" fill="white" stroke="#0056B3" stroke-width="2.75" stroke-miterlimit="10" stroke-linecap="round" stroke-linejoin="round"/>
<path d="M20.7634 79.1135L14.9633 78.6362" stroke="#0056B3" stroke-width="2.75" stroke-miterlimit="10" stroke-linecap="round" stroke-linejoin="round"/>
<path d="M31.2469 79.9766L25.4468 79.499" stroke="#0056B3" stroke-width="2.75" stroke-miterlimit="10" stroke-linecap="round" stroke-linejoin="round"/>
<path d="M25.2294 81.9492L31.0295 82.4268" stroke="#0056B3" stroke-width="2.75" stroke-miterlimit="10" stroke-linecap="round" stroke-linejoin="round"/>
<path d="M14.7456 81.0864L20.5461 81.5637" stroke="#0056B3" stroke-width="2.75" stroke-miterlimit="10" stroke-linecap="round" stroke-linejoin="round"/>
<path d="M20.7912 78.7952L20.5189 81.8652L25.2023 82.2505L25.4746 79.1805L20.7912 78.7952Z" fill="white" stroke="#0056B3" stroke-width="2.75" stroke-miterlimit="10" stroke-linecap="round" stroke-linejoin="round"/>
</g>
</svg>
