<svg width="160" height="267" viewBox="0 0 160 267" fill="none" xmlns="http://www.w3.org/2000/svg">
<path d="M19.0983 205.539L14.8112 202.763" stroke="black" stroke-opacity="0.63" stroke-width="3"/>
<path d="M14.2735 202.761C12.7506 202.241 28.6009 256.228 29.8353 258.124C31.0697 260.02 48.6234 264.42 48.6234 264.42C75.613 265.674 90.4732 265.899 116.114 264.789C123.23 264.107 127.19 263.663 132.281 258.685C139.094 238.225 141.526 226.172 143.07 203.465" stroke="black" stroke-opacity="0.63" stroke-width="2"/>
<path d="M20.8598 178.483L5.27068 177.251C5.27068 177.251 1.51005 176.542 1.50001 178.377C1.48997 180.212 6.82878 187.352 6.82878 187.352C6.82878 187.352 15.4143 190.839 18.1157 188.56C20.8171 186.281 20.8598 178.483 20.8598 178.483Z" fill="black" fill-opacity="0.63" stroke="black" stroke-opacity="0.63" stroke-width="3"/>
<g opacity="0.59">
<path d="M121.792 171.138L64.543 179.673L88.8736 180.574L82.174 211.718L110.17 210.41L136.566 205.757L121.792 171.138Z" fill="black" fill-opacity="0.7"/>
<path d="M133.072 62.0763L124.555 62.0206L123.304 127.345L128.616 121.441L137.134 121.496L133.072 62.0763Z" fill="black" fill-opacity="0.7"/>
<path d="M138.263 134.496L129.758 132.584L131.278 147.814L135.932 179.397L142.011 180.179L138.263 134.496Z" fill="black" fill-opacity="0.7"/>
<path d="M136.533 210.582L124.724 217.558L109.857 256.809L114.309 258.323L126.161 245.037L136.533 210.582Z" fill="black" fill-opacity="0.7"/>
</g>
<path d="M132.82 18.8691C139.869 25.82 136.11 38.3464 133.957 41.3537C131.805 44.361 132.82 18.8691 132.82 18.8691Z" fill="black" fill-opacity="0.63"/>
<path d="M142.535 178.984C148.497 187.264 148.104 192.727 143.608 203.304L142.535 178.984Z" fill="black" fill-opacity="0.63"/>
<path d="M132.82 18.8691C139.869 25.82 136.11 38.3464 133.957 41.3537C131.805 44.361 132.82 18.8691 132.82 18.8691Z" stroke="black" stroke-opacity="0.63"/>
<path d="M142.535 178.984C148.497 187.264 148.104 192.727 143.608 203.304L142.535 178.984Z" stroke="black" stroke-opacity="0.63"/>
<path d="M30.6083 165.954L20.1786 204.661M30.6083 165.954C44.5598 171.548 54.8843 172.59 75.4771 172.622C92.8606 172.009 114.77 166.415 118.803 166.437M30.6083 165.954L28.2563 6.06985L119.677 6.57003L118.803 166.437M118.803 166.437C122.836 166.459 137.947 205.993 137.947 205.993M137.947 205.993C137.947 205.993 64.2879 219.964 20.1786 204.661M137.947 205.993C135.564 218.627 133.127 226.81 130.367 234.394M137.947 205.993L136.573 194.976M20.1786 204.661C29.4476 240.494 45.1728 256.177 52.6852 259.2C64.4562 260.497 70.6161 261.386 85.7469 261.445C99.5984 261.367 102.384 260.908 113.991 259.535M113.991 259.535C119.053 259.079 121.947 258.587 127.729 255.023C129.324 251.588 129.73 249.471 130.306 245.633C130.591 240.563 130.6 238.131 130.367 234.394M113.991 259.535C119.716 254.889 125.909 246.648 130.367 234.394M15.7302 133.073C15.7302 133.073 21.345 128.615 25.4326 128.997C29.5203 129.38 22.4482 193.351 20.2351 194.34M139.567 135.042C139.567 135.042 133.794 129.59 128.416 129.561C123.038 129.531 136.573 194.976 136.573 194.976M136.573 194.976L143.597 205.336M18.2677 62.4405L25.7965 62.4817L25.4515 125.557" stroke="black" stroke-opacity="0.63" stroke-width="2"/>
<path d="M15.084 202.077L19.6965 194.533L19.6312 206.46L15.084 202.077Z" stroke="black" stroke-opacity="0.63" stroke-width="3"/>
<path d="M137.016 179.451L153.918 178.418C153.918 178.418 157.999 177.765 157.99 179.565C157.98 181.366 152.116 188.312 152.116 188.312C152.116 188.312 142.776 191.637 139.875 189.37C136.975 187.104 137.016 179.451 137.016 179.451Z" fill="black" fill-opacity="0.63" stroke="black" stroke-opacity="0.63" stroke-width="3"/>
<path d="M14.9779 202.733L19.0374 1.36998M19.0374 1.36998C22.5154 3.44597 24.2743 5.68625 28.6934 5.78577L119.846 6.28447C119.846 6.28447 128.53 6.28447 130.356 1.97901M19.0374 1.36998C17.77 1.25991 131.262 0.306253 130.356 1.97901M130.356 1.97901L142.968 203.433L137.127 205.844" stroke="black" stroke-opacity="0.63" stroke-width="2"/>
<path d="M31.5306 234.005C31.5751 239.396 31.733 244.971 35.9655 254.252C45.1689 258.491 48.8699 258.649 53.0299 259.005" stroke="black" stroke-opacity="0.63" stroke-width="2"/>
<path d="M41.617 218.048L57.8169 255.066L108.099 255.341L120.677 217.105" stroke="black" stroke-opacity="0.63" stroke-width="2"/>
<path d="M16.3097 125.474L29.216 125.544" stroke="black" stroke-opacity="0.63" stroke-width="3"/>
<path d="M123.321 126.977L137.096 127.067L133.359 61.661L123.679 61.608L123.321 126.977ZM123.321 126.977L123.14 160.005L118.803 166.404" stroke="black" stroke-opacity="0.63" stroke-width="2"/>
<path d="M51.8814 258.704L59.1589 255.532L108.096 255.8L115.07 259.049" stroke="black" stroke-opacity="0.63" stroke-width="2"/>
<ellipse cx="59.072" cy="222.272" rx="1.88223" ry="1.83494" transform="rotate(0.313465 59.072 222.272)" fill="black"/>
<path d="M59.0789 220.938C59.8543 220.942 60.4583 221.555 60.4544 222.28C60.4504 223.005 59.8397 223.612 59.0643 223.607C58.289 223.603 57.6858 222.99 57.6898 222.265C57.6937 221.54 58.3036 220.933 59.0789 220.938Z" stroke="black" stroke-opacity="0.63"/>
<ellipse cx="101.018" cy="222.502" rx="1.88223" ry="1.83494" transform="rotate(0.313465 101.018 222.502)" fill="black"/>
<path d="M101.025 221.167C101.801 221.172 102.405 221.784 102.401 222.51C102.397 223.235 101.786 223.841 101.01 223.837C100.235 223.833 99.632 223.22 99.636 222.495C99.6399 221.769 100.25 221.163 101.025 221.167Z" stroke="black" stroke-opacity="0.63"/>
<path d="M52.4603 202.052L94.9178 207.101" stroke="black" stroke-opacity="0.63" stroke-width="3"/>
<path d="M61.0376 207.032L103.608 202.866" stroke="black" stroke-opacity="0.63" stroke-width="3"/>
<path d="M37.0299 129.005L113.932 129.426" stroke="black" stroke-opacity="0.63" stroke-width="16"/>
<path d="M36.6479 24.167L113.55 24.5877" stroke="black" stroke-opacity="0.63" stroke-width="16"/>
<path d="M45.978 10.7207L45.8068 140.314" stroke="black" stroke-opacity="0.63" stroke-width="4"/>
<path d="M55.6579 10.7734L55.4867 140.367" stroke="black" stroke-opacity="0.63" stroke-width="4"/>
<path d="M65.3378 10.8267L65.1666 140.42" stroke="black" stroke-opacity="0.63" stroke-width="4"/>
<path d="M75.0177 10.8799L74.8464 140.474" stroke="black" stroke-opacity="0.63" stroke-width="4"/>
<path d="M84.6976 10.9329L84.5263 140.527" stroke="black" stroke-opacity="0.63" stroke-width="4"/>
<path d="M95.3729 11.1267L95.2017 140.72" stroke="black" stroke-opacity="0.63" stroke-width="4"/>
<path d="M106.201 11.0051L106.03 140.599" stroke="black" stroke-opacity="0.63" stroke-width="4"/>
</svg>
