<svg width="126" height="228" viewBox="0 0 126 228" fill="none" xmlns="http://www.w3.org/2000/svg">
<path d="M53.5 17.2061H40.85L30.5 77.7696H53.5V17.2061Z" fill="#0056B3" fill-opacity="0.2" stroke="#0056B3" stroke-opacity="0.2" stroke-width="2"/>
<path d="M41 16.7061L32.5 1.20605H43.5L53 16.7061" stroke="#0056B3" stroke-opacity="0.2" stroke-width="2"/>
<path d="M53 16.7061H41L33 1.70605H44L53 16.7061Z" fill="#0056B3" fill-opacity="0.6" stroke="#0056B3" stroke-opacity="0.2" stroke-width="2"/>
<path d="M30.5 78.2061L27.5 66.7061L36 19.7061L32 10.7061L24 52.7061L22 47.7061L32 0.206055" stroke="#0056B3" stroke-opacity="0.2" stroke-width="2"/>
<path d="M41.5 17.2061L32 1.20605L22 47.7061L24 50.7061L32 10.2061L36 20.2061L27 67.2061L30.5 77.7061L41.5 17.2061Z" fill="#0056B3" fill-opacity="0.59"/>
<path d="M65.5 60.2061H52.85L42.5 120.77H65.5V60.2061Z" fill="#0056B3" fill-opacity="0.2" stroke="#0056B3" stroke-opacity="0.2" stroke-width="2"/>
<path d="M53 59.7061L44.5 44.2061H55.5L65 59.7061" stroke="#0056B3" stroke-opacity="0.2" stroke-width="2"/>
<path d="M65 59.7061H53L45 44.7061H56L65 59.7061Z" fill="#0056B3" fill-opacity="0.6" stroke="#0056B3" stroke-opacity="0.2" stroke-width="2"/>
<path d="M42.5 121.206L39.5 109.706L48 62.7061L44 53.7061L36 95.7061L34 90.7061L44 43.2061" stroke="#0056B3" stroke-opacity="0.2" stroke-width="2"/>
<path d="M53.5 60.2061L44 44.2061L34 90.7061L36 93.7061L44 53.2061L48 63.2061L39 110.206L42.5 120.706L53.5 60.2061Z" fill="#0056B3" fill-opacity="0.59"/>
<path d="M93.5 154.206H80.85L70.5 214.77H93.5V154.206Z" fill="#0056B3" fill-opacity="0.2" stroke="#0056B3" stroke-opacity="0.2" stroke-width="2"/>
<path d="M81 153.706L72.5 138.206H83.5L93 153.706" stroke="#0056B3" stroke-opacity="0.2" stroke-width="2"/>
<path d="M93 153.706H81L73 138.706H84L93 153.706Z" fill="#0056B3" fill-opacity="0.6" stroke="#0056B3" stroke-opacity="0.2" stroke-width="2"/>
<path d="M70.5 215.206L67.5 203.706L76 156.706L72 147.706L64 189.706L62 184.706L72 137.206" stroke="#0056B3" stroke-opacity="0.2" stroke-width="2"/>
<path d="M81.5 154.206L72 138.206L62 184.706L64 187.706L72 147.206L76 157.206L67 204.206L70.5 214.706L81.5 154.206Z" fill="#0056B3" fill-opacity="0.59"/>
<path d="M79.5 107.206H66.85L56.5 167.77H79.5V107.206Z" fill="#0056B3" fill-opacity="0.2" stroke="#0056B3" stroke-opacity="0.2" stroke-width="2"/>
<path d="M67 106.706L58.5 91.2061H69.5L79 106.706" stroke="#0056B3" stroke-opacity="0.2" stroke-width="2"/>
<path d="M79 106.706H67L59 91.7061H70L79 106.706Z" fill="#0056B3" fill-opacity="0.6" stroke="#0056B3" stroke-opacity="0.2" stroke-width="2"/>
<path d="M56.5 168.206L53.5 156.706L62 109.706L58 100.706L50 142.706L48 137.706L58 90.2061" stroke="#0056B3" stroke-opacity="0.2" stroke-width="2"/>
<path d="M67.5 107.206L58 91.2061L48 137.706L50 140.706L58 100.206L62 110.206L53 157.206L56.5 167.706L67.5 107.206Z" fill="#0056B3" fill-opacity="0.59"/>
<path d="M51 227.206L0 28.2061H59L126 227.206H51Z" fill="#0056B3" fill-opacity="0.2"/>
</svg>
