<svg width="248" height="577" viewBox="0 0 248 577" fill="none" xmlns="http://www.w3.org/2000/svg">
<path d="M168.254 55.1039C168.254 55.1039 177.48 25.9685 165.798 14.0723C165.798 14.0723 166.456 13.0925 166.945 13.2802C167.44 13.4843 168.254 10.5091 166.281 10.3134C164.314 10.1136 164.314 8.32959 165.463 8.12607C166.623 7.92622 163.812 5.95443 162.659 6.14694C161.51 6.35099 151.796 -0.195367 146.363 0.00448523C140.938 0.196994 125.951 1.38824 121.336 3.37155C116.722 5.35486 114.419 8.12604 113.274 4.95883C112.12 1.78743 111.131 2.77934 112.456 5.35434C113.759 7.92566 114.257 9.909 112.612 9.32938C110.965 8.72562 108.493 8.9255 109.809 10.1131C111.131 11.3043 109.157 13.4838 108.004 10.3129C106.852 7.13782 109.981 17.4388 114.42 17.2469C118.868 17.047 107.835 30.7266 113.111 37.6606C113.111 37.6606 113.609 42.4151 111.131 46.174C111.131 46.174 105.37 54.8914 110.31 56.6754C110.31 56.6754 112.12 55.4952 112.945 57.0709C112.945 57.0709 114.101 64.2126 115.576 64.2126C115.576 64.2126 114.586 66.7839 115.576 68.3791C115.576 68.3791 117.878 69.7586 117.393 71.7383C117.393 71.7383 116.566 79.6599 120.19 80.0638C120.19 80.0638 130.559 85.6062 132.536 85.8139C132.536 85.8139 126.28 89.973 130.396 96.3069C130.396 96.3069 129.24 99.0938 131.057 103.252C132.865 107.416 131.878 108.391 130.722 110.767C129.572 113.162 127.599 122.875 128.25 126.038C128.914 129.213 125.453 134.156 121.499 144.276C117.552 154.373 109.981 171.812 109.652 180.933C109.32 190.046 110.31 200.943 109.808 202.13C109.808 202.13 106.682 200.547 104.881 200.147C103.061 199.755 103.725 195.196 100.761 195.988C100.761 195.988 96.6385 197.564 95.6549 196.98C95.6549 196.98 88.9039 190.246 87.4226 190.246C87.4226 190.246 86.2699 185.483 85.1298 185.883L80.0105 188.454C80.0105 188.454 80.3491 191.037 81.0102 193.025C81.0102 193.025 80.18 198.367 80.0105 199.959C80.0105 199.959 76.718 206.893 79.3624 209.86C79.3624 209.86 78.0437 215.21 79.6849 216.79C79.6849 216.79 78.6982 221.549 81.0102 223.14C81.0102 223.14 87.9207 223.732 87.5952 222.536L87.9207 223.732C87.9207 223.732 83.8015 231.658 87.7512 232.653L91.2032 231.454C91.2032 231.454 95.3194 249.896 99.4455 247.121C103.559 244.338 106.851 243.554 106.851 243.554L97.2931 255.443L98.4554 257.23C98.4554 257.23 94.0067 264.152 91.8608 265.543C89.7241 266.923 86.103 271.49 84.9564 273.265C83.8006 275.056 78.6974 281.206 79.684 283.773C80.6803 286.357 84.9564 292.291 86.7637 292.495C86.7637 292.495 95.1625 311.129 97.1292 306.163C97.1292 306.163 97.1393 298.245 95.3189 297.053C95.3189 297.053 105.369 303.591 104.88 298.837C104.88 298.837 108.655 297.842 106.359 295.066L104.053 293.291C104.053 293.291 104.053 290.9 103.223 290.12C103.223 290.12 104.053 286.149 103.724 285.169C103.724 285.169 107.505 279.415 108.173 279.019C108.173 279.019 111.625 293.495 113.11 297.054C113.11 297.054 91.714 352.733 91.0433 357.884C90.3856 363.038 86.432 360.859 86.432 371.556C86.432 371.556 82.485 378.901 81.9903 382.264C81.9903 382.264 76.5584 392.369 80.3491 397.524C80.3491 397.524 78.8643 400.295 80.0105 403.074C81.1666 405.845 77.5421 407.828 78.0437 420.308C78.0437 420.308 68.4922 462.927 64.7081 471.833C64.7081 471.833 62.2332 481.55 62.7278 483.134C62.7278 483.134 57.625 480.559 54.658 487.892C51.6946 495.218 51.0369 500.376 49.7208 503.351C48.3925 506.307 46.4283 509.286 45.2726 510.481C44.126 511.673 32.4351 525.148 21.4019 521.77C21.4019 521.77 8.8869 510.281 2.80395 517.219C2.80395 517.219 0.156453 514.24 0 518.407C0 518.407 1.97331 532.871 21.2393 541.988C21.2393 541.988 40.8343 550.505 42.9672 551.297L43.7978 554.872C43.7978 554.872 64.8645 564.789 66.8409 562.394C66.8409 562.394 69.4788 557.843 68.8142 555.656C68.1662 553.477 68.9868 554.872 68.9868 554.872C68.9868 554.872 73.9171 533.863 73.2529 532.279C73.2529 532.279 78.6978 528.908 76.7175 527.124C74.7412 525.349 83.8006 508.486 84.1358 504.136C84.4648 499.773 87.9199 496.806 90.7142 492.243C93.5182 487.685 102.568 452.607 106.521 443.705C110.465 434.78 114.758 411.987 113.607 410.607C112.455 409.216 113.93 408.229 114.099 406.841C114.256 405.45 115.418 402.678 114.757 401.891C114.099 401.095 113.758 399.703 114.917 398.912C116.067 398.124 119.196 395.729 119.196 395.149C119.196 394.556 118.711 394.149 119.04 392.17C119.366 390.19 120.189 384.835 122.98 384.451C125.787 384.052 148.668 354.709 150.322 347.787C150.322 347.787 163.977 392.565 169.086 399.703C169.086 399.703 176.977 426.267 185.05 430.425C185.05 430.425 187.196 431.013 188.016 433.385C188.837 435.776 191.804 439.339 191.804 441.722C191.804 444.098 193.448 445.865 194.774 446.662C196.083 447.465 194.927 447.265 194.927 447.265C194.927 447.265 210.575 496.806 209.581 501.361C209.581 501.361 205.133 509.486 209.581 515.232C209.581 515.232 210.575 522.774 212.379 525.734C212.379 525.734 211.066 527.524 211.728 529.304C212.379 531.084 211.728 530.296 211.728 530.296C211.728 530.296 208.595 535.247 210.076 537.622C210.076 537.622 204.153 546.931 199.053 552.293C193.947 557.635 191.475 556.471 190.658 557.844C190.658 557.844 178.465 553.477 178.794 564.973C178.794 564.973 175.017 568.145 177.811 569.536C180.611 570.92 178.309 569.132 178.309 569.132C178.309 569.132 194.279 578.253 216.336 576.854C216.336 576.854 227.701 573.895 230.828 571.704C230.828 571.704 241.851 574.887 247.615 569.736C247.615 569.736 248.442 562.202 246.296 560.422C246.296 560.422 246.296 541.988 242.675 539.005C242.675 539.005 246.795 534.059 243.675 532.079C240.536 530.099 241.691 524.346 241.522 523.758C241.356 523.162 244.649 513.653 238.393 503.94C232.14 494.235 238.23 498.582 238.393 495.418C238.565 492.243 233.951 466.695 232.632 463.712C231.323 460.741 221.771 413.771 215.349 408.62C215.349 408.62 213.532 404.662 212.217 404.069C210.901 403.462 211.067 400.295 210.575 399.507C210.077 398.715 209.257 397.524 209.257 395.94C209.257 394.353 209.413 390.782 208.1 389.202C206.782 387.619 205.473 383.448 205.964 379.482C206.462 375.527 200.363 344.216 200.526 339.665C200.695 335.107 204.645 321.827 202.998 310.734L204.154 304.592L209.413 303.592C209.413 303.592 207.769 301.213 211.24 302.809C211.24 302.809 213.204 303.004 214.034 301.797C214.858 300.621 213.705 298.046 213.705 298.046L215.673 296.659C215.673 296.659 213.204 289.733 213.035 287.745C213.035 287.745 212.058 256.039 211.393 251.68C210.732 247.313 207.121 214.819 206.619 209.069C206.131 203.323 205.304 191.631 205.633 190.047C205.965 188.455 205.473 189.263 205.473 189.263C205.473 189.263 209.254 195.405 208.596 190.247C208.596 190.247 210.901 194.41 210.413 190.831L210.247 188.263C210.247 188.263 213.204 189.443 211.24 187.479C209.254 185.484 210.901 186.671 210.901 186.671V177.362L212.712 189.647C212.712 189.647 214.36 192.034 214.36 190.642C214.36 190.642 212.058 171.424 211.729 169.832C211.393 168.245 215.35 155.377 211.729 149.027C208.101 142.689 209.094 118.112 201.353 106.024C193.623 93.9433 187.689 73.3219 174.194 71.5542C174.194 71.5542 169.915 62.4255 169.915 60.2539C169.915 60.2539 171.396 53.3083 168.254 55.1039Z" fill="#0056B3"/>
</svg>
