<svg width="546" height="601" viewBox="0 0 546 601" fill="none" xmlns="http://www.w3.org/2000/svg">
<path d="M272.443 41.0887C270.788 41.8982 269.133 42.7077 267.429 43.5418C267.429 43.7442 267.429 43.9465 267.429 44.1551C268.891 43.7607 270.354 43.3644 271.816 42.9669C272.232 42.855 272.648 42.7431 273.076 42.6279C275.324 42.038 275.324 42.038 277.457 41.0887C278.536 41.0291 279.616 41.0091 280.696 41.0121C281.563 41.0097 281.563 41.0097 282.447 41.0073C284.005 41.0821 285.413 41.3134 286.929 41.702C286.929 41.9044 286.929 42.1067 286.929 42.3153C285.825 42.5176 284.722 42.72 283.586 42.9285C285.577 43.6591 287.464 43.7081 289.54 43.8101C292.703 43.9911 295.59 44.3362 298.629 45.3816C298.629 45.584 298.629 45.7863 298.629 45.9948C295.871 46.2984 295.871 46.2984 293.057 46.6081C293.729 46.7567 294.402 46.9054 295.094 47.0585C295.994 47.2657 296.893 47.4734 297.793 47.6813C298.234 47.7778 298.675 47.8742 299.129 47.9736C303.267 48.9443 306.82 50.526 309.98 53.699C310.341 54.0539 310.701 54.4089 311.073 54.7746C312.419 56.2732 313.08 57.2948 313.288 59.41C313.114 61.3265 313.114 61.3265 312.209 62.9363C311.956 63.4169 311.703 63.8976 311.443 64.3928C311.772 65.7316 311.772 65.7316 312.557 66.8459C313.881 69.032 313.987 69.7869 313.671 72.3653C312.94 74.021 312.112 75.3995 310.886 76.6581C309.319 76.9264 309.319 76.9264 308.1 76.6581C308.1 76.2534 308.1 75.8486 308.1 75.4316C308.652 75.2292 309.203 75.0268 309.771 74.8183C310.18 73.5825 310.18 73.5825 310.329 72.3653C309.892 72.1755 309.455 71.9858 309.005 71.7903C307.543 71.1387 307.543 71.1387 306.429 70.5255C306.442 71.1468 306.454 71.7682 306.468 72.4084C306.478 73.2372 306.488 74.0661 306.498 74.895C306.508 75.3029 306.517 75.7108 306.527 76.1311C306.55 78.8016 306.206 80.924 305.314 83.404C306.417 83.404 307.521 83.404 308.657 83.404C309.164 85.3021 309.287 86.2524 308.657 88.1377C308.006 90.4893 308.1 92.2341 308.309 94.6728C308.371 95.4364 308.432 96.2001 308.496 96.9869C308.549 97.564 308.602 98.1411 308.657 98.7357C306.451 99.6464 306.451 99.6464 304.2 100.575C304.016 101.992 303.832 103.409 303.643 104.868C302.907 105.071 302.172 105.273 301.414 105.482C301.311 106.203 301.311 106.203 301.205 106.938C300.857 108.548 300.857 108.548 299.743 109.774C299.435 110.683 299.159 111.605 298.907 112.534C298.414 114.351 298.195 115.158 296.957 116.52C295.157 116.683 295.157 116.683 292.953 116.674C291.872 116.678 291.872 116.678 290.77 116.683C288.539 116.516 286.811 116.053 284.7 115.294C284.293 116.97 284.293 116.97 284.7 118.973C286.142 120.526 287.823 121.618 289.54 122.768C289.995 123.087 290.45 123.406 290.919 123.735C293.095 125.253 295.297 126.726 297.514 128.172C297.152 130.459 296.219 132.067 295.077 133.998C294.57 134.862 294.57 134.862 294.054 135.742C293.43 136.761 292.781 137.762 292.095 138.732C291.278 139.767 291.278 139.767 291.386 141.051C291.862 141.221 292.338 141.391 292.829 141.566C293.444 141.788 294.06 142.01 294.694 142.239C295.308 142.46 295.922 142.68 296.555 142.908C298.071 143.504 298.071 143.504 298.629 144.117C298.539 146.292 298.28 147.936 297.412 149.907C294.362 156.897 293.763 166.205 295.628 173.703C296.458 175.951 297.67 177.869 298.999 179.792C300.209 181.616 301.26 183.549 302.339 185.47C303.184 186.973 304.041 188.468 304.905 189.959C305.163 190.412 305.422 190.865 305.688 191.332C306.481 192.7 306.481 192.7 307.778 194.367C308.893 196.75 308.657 198.138 308.31 200.733C307.238 209.141 308.043 218.197 308.413 226.64C308.444 227.771 308.444 227.771 308.475 228.926C308.721 233.64 308.721 233.64 311.129 237.377C311.788 237.98 312.449 238.579 313.114 239.173C316.193 244.04 315.91 250.677 315.343 256.345C314.751 259.268 313.733 261.573 312.098 263.963C308.855 268.973 308.983 272.934 309.17 278.939C309.342 285.447 308.158 290.985 306.35 297.146C302.132 315.886 312.667 343.956 316.736 362.248C316.864 362.824 316.991 363.399 317.123 363.992C318.37 369.601 319.625 375.208 320.935 380.8C321.414 382.846 321.885 384.895 322.355 386.945C322.574 387.886 322.796 388.826 323.022 389.765C324.955 397.783 325.9 405.601 323.7 413.724C322.355 418.597 322.355 418.597 323.156 423.498C323.404 423.991 323.653 424.485 323.909 424.993C325.623 428.434 326.565 431.681 327.043 435.572C327.139 436.323 327.235 437.074 327.334 437.847C327.534 439.562 327.665 441.268 327.761 442.993C328.203 450.064 329.97 455.081 333.171 461.175C333.644 462.103 334.116 463.032 334.586 463.961C335.305 465.382 336.023 466.803 336.746 468.221C338.725 472.119 340.497 476.076 342.086 480.187C342.318 480.776 342.55 481.366 342.789 481.974C344.384 486.261 345.58 490.64 346.717 495.097C346.866 495.668 347.014 496.239 347.167 496.827C347.996 500.181 348.373 503.083 348.214 506.557C347.295 506.759 346.376 506.962 345.429 507.17C345.429 507.575 345.429 507.98 345.429 508.397C343.59 508.802 341.751 509.206 339.857 509.623C340.291 513.989 341.247 515.973 344.345 518.719C350.058 523.348 355.794 527.581 362.143 531.088C362.143 531.695 362.143 532.302 362.143 532.927C369.291 533.246 369.291 533.246 376.071 531.088C377.847 530.781 377.847 530.781 379.414 531.088C381.408 532.833 382.692 534.48 383.314 537.22C383.349 538.753 383.349 538.753 382.757 540.287C377.757 545.407 370.455 546.72 363.927 547.905C362.209 548.151 362.209 548.151 361.029 548.872C358.71 549.026 356.386 548.989 354.064 548.987C353.051 548.988 353.051 548.988 352.017 548.989C346.599 548.954 341.314 548.509 335.957 547.646C335.957 548.253 335.957 548.86 335.957 549.486C331.411 550.035 326.913 550.211 322.342 550.214C321.708 550.221 321.074 550.229 320.421 550.237C310.612 550.255 310.612 550.255 306.986 548.259C307.295 545.651 307.873 543.611 308.901 541.245C312.153 532.792 311.589 523.533 311.443 514.53C311.811 514.53 312.178 514.53 312.557 514.53C312.316 513.816 312.316 513.816 312.07 513.087C309.995 506.444 309.94 500.575 310.886 493.678C311.327 487.956 310.098 483.471 308.153 478.208C306.785 474.499 305.555 470.762 304.409 466.963C304.159 466.153 304.159 466.153 303.904 465.326C302.997 462.331 302.244 459.364 301.656 456.275C301.327 454.598 300.888 452.967 300.439 451.325C299.358 447.22 298.389 443.09 297.445 438.945C297.303 438.328 297.162 437.711 297.016 437.076C295.618 430.896 294.555 424.703 293.695 418.407C293.355 416.054 292.948 414.238 291.943 412.114C291.607 408.766 291.82 406.003 293.057 402.915C293.145 401.615 293.145 401.615 292.5 400.462C291.397 399.626 290.282 398.81 289.157 398.009C287.791 396.624 287.026 395.678 286.754 393.628C286.688 390.864 287.068 388.906 288.043 386.357C288.469 381.292 286.209 377.348 284.178 372.98C281.875 367.966 279.863 362.984 278.571 357.534C278.204 357.534 277.836 357.534 277.457 357.534C277.431 357.895 277.404 358.256 277.377 358.629C276.133 373.97 273.026 391.152 266.314 404.755C265.94 405.554 265.567 406.354 265.196 407.155C263.364 411.066 261.437 414.858 259.143 418.47C258.479 419.48 258.479 419.48 257.957 420.7C257.589 420.7 257.222 420.7 256.843 420.7C256.693 421.152 256.543 421.604 256.388 422.07C255.754 423.701 255.037 424.944 254.092 426.373C251.041 431.329 250.175 436.995 249.043 442.777C248.946 443.268 248.849 443.758 248.749 444.263C248.018 448.122 247.45 452.011 246.893 455.904C246.566 458.132 246.193 460.315 245.68 462.5C245.204 464.587 244.874 466.595 244.621 468.726C244.255 471.696 243.854 474.653 243.411 477.61C242.33 484.864 241.391 492.176 241.13 499.528C241.104 500.192 241.104 500.192 241.078 500.868C241.037 502.065 241.011 503.263 240.986 504.461C240.634 506.915 239.708 508.205 238.457 510.237C238.466 511.552 238.466 511.552 239.014 512.69C239.161 513.094 239.307 513.499 239.458 513.916C240.66 516.692 241.797 518.139 244.029 520.049C244.029 520.858 244.029 521.668 244.029 522.502C244.349 522.657 244.669 522.812 244.999 522.971C246.408 523.819 247.393 524.811 248.555 526.028C250.796 528.298 253.087 529.878 255.8 531.382C256.144 531.69 256.488 531.997 256.843 532.314C256.997 533.955 256.997 533.955 256.843 535.381C258.167 535.31 259.489 535.232 260.813 535.151C261.183 535.132 261.554 535.113 261.935 535.093C264.325 534.938 266.292 534.39 268.543 533.541C271.163 533.184 273.971 532.84 276.384 534.185C278.193 535.819 279.052 537.071 279.307 539.613C279.129 541.513 279.129 541.513 278.184 542.704C265.527 551.999 249.683 552.893 235.149 549.744C234.019 549.472 232.895 549.176 231.771 548.872C231.771 549.479 231.771 550.087 231.771 550.712C226.493 551.792 221.395 552.128 216.032 552.092C215.31 552.097 214.587 552.101 213.843 552.106C209.983 552.098 206.526 551.84 202.8 550.712C202.607 547.447 203.13 544.936 204.03 541.829C205.156 537.895 205.7 533.952 206.143 529.861C206.908 522.839 206.908 522.839 207.814 519.436C208.366 519.031 208.917 518.626 209.486 518.209C209.892 516.637 209.892 516.637 210.043 515.143C208.756 515.143 207.469 515.143 206.143 515.143C206.365 511.715 206.909 508.543 207.688 505.213C208.529 501.58 209.343 497.943 210.126 494.294C210.226 493.827 210.326 493.36 210.43 492.879C210.742 491.421 211.054 489.962 211.366 488.504C211.81 486.427 212.255 484.35 212.7 482.273C212.809 481.768 212.917 481.262 213.029 480.741C213.623 477.972 214.23 475.207 214.855 472.447C217.209 462.021 219.082 451.5 220.968 440.962C225.79 414.029 225.79 414.029 229.543 404.142C229.911 404.142 230.278 404.142 230.657 404.142C230.705 403.653 230.753 403.165 230.803 402.661C231.305 398.49 231.734 395.993 234.557 393.103C235.295 392.574 235.295 392.574 236.048 392.035C237.526 390.753 237.526 390.753 237.513 388.71C237.434 388.009 237.355 387.309 237.273 386.587C237.203 385.883 237.132 385.18 237.06 384.455C236.873 382.721 236.873 382.721 236.229 381.451C236.079 378.162 236.355 375.993 237.343 372.865C239.022 366.183 240.228 359.465 241.243 352.627C240.594 352.672 239.944 352.716 239.275 352.762C231.755 353.241 224.26 353.311 216.729 353.241C216.584 352.559 216.44 351.878 216.291 351.176C215.819 349.006 215.819 349.006 214.746 348.1C214.228 347.875 214.228 347.875 213.699 347.645C213.308 347.462 212.918 347.279 212.515 347.091C212.067 346.894 211.619 346.698 211.157 346.495C210.053 345.95 208.95 345.4 207.849 344.847C207.327 344.591 206.805 344.336 206.267 344.073C205.029 343.429 205.029 343.429 204.471 342.815C204.415 340.902 204.394 339.003 204.397 337.09C204.397 336.508 204.396 335.926 204.396 335.326C204.395 334.088 204.396 332.849 204.399 331.611C204.402 329.736 204.399 327.861 204.395 325.986C204.396 324.781 204.396 323.576 204.397 322.371C204.396 321.818 204.395 321.264 204.394 320.694C204.405 317.362 204.594 314.097 204.892 310.781C205.121 307.934 205.19 305.083 205.268 302.227C205.308 300.91 205.348 299.592 205.389 298.275C205.409 297.594 205.43 296.912 205.451 296.21C205.809 284.567 206.344 272.986 207.312 261.387C207.348 260.958 207.384 260.529 207.42 260.087C207.456 259.665 207.491 259.244 207.527 258.81C207.814 255.31 207.994 251.81 208.157 248.301C209.601 217.908 211.869 185.111 219.514 155.769C219.645 155.259 219.777 154.749 219.912 154.224C223.69 139.887 229.752 128.477 241.112 119.953C243.247 118.273 244.795 116.482 246.257 114.067C246.504 112.416 246.504 112.416 246.59 110.555C246.634 109.872 246.678 109.189 246.724 108.486C246.765 107.773 246.807 107.059 246.849 106.325C246.935 104.911 247.022 103.498 247.112 102.085C247.149 101.457 247.186 100.83 247.224 100.183C247.371 98.7357 247.371 98.7357 247.929 98.1224C252.077 97.8538 256.096 98.6407 260.186 99.3489C259.85 98.7331 259.513 98.1173 259.167 97.4828C256.677 92.8257 254.633 88.5264 253.417 83.2627C253.01 81.5396 253.01 81.5396 252.105 80.1053C251.048 78.0667 250.739 76.0297 250.401 73.7451C250.176 72.2413 249.915 70.786 249.6 69.2989C249.232 69.0966 248.865 68.8942 248.486 68.6857C248.293 65.1539 248.281 62.5152 250.157 59.4867C252.58 56.8196 254.755 55.835 257.957 54.5806C258.141 54.1758 258.325 53.7711 258.514 53.354C257.551 53.3206 256.588 53.297 255.624 53.2774C255.088 53.2631 254.551 53.2489 253.998 53.2343C252.314 53.3593 251.122 53.8025 249.6 54.5806C250.157 52.7408 250.157 52.7408 251.829 51.5142C253.332 51.3945 253.332 51.3945 254.997 51.4376C255.828 51.4542 255.828 51.4542 256.675 51.4711C257.098 51.4853 257.521 51.4996 257.957 51.5142C257.836 50.6035 257.836 50.6035 257.713 49.6744C257.675 46.7587 259.258 45.2467 261.004 43.2376C261.426 42.781 261.426 42.781 261.857 42.3153C262.409 42.5176 262.96 42.72 263.529 42.9285C262.977 43.738 262.425 44.5475 261.857 45.3816C262.18 45.1302 262.504 44.8788 262.837 44.6198C268.806 40.0878 268.806 40.0878 272.443 41.0887Z" fill="#0056B3"/>
<path d="M305.314 83.4041C306.417 83.4041 307.521 83.4041 308.657 83.4041C309.164 85.3021 309.287 86.2524 308.657 88.1377C308.006 90.4893 308.1 92.2341 308.309 94.6728C308.371 95.4365 308.432 96.2001 308.496 96.9869C308.549 97.564 308.602 98.1411 308.657 98.7357C307.186 99.1404 305.715 99.5452 304.2 99.9622C304.2 98.5456 304.2 97.1289 304.2 95.6694C303.648 95.6694 303.097 95.6694 302.529 95.6694C302.498 94.6091 302.477 93.5486 302.459 92.488C302.446 91.8975 302.433 91.307 302.42 90.6986C302.535 88.8223 302.863 87.5253 303.643 85.8571C304.827 85.3588 304.827 85.3588 305.871 85.2438C305.688 84.6367 305.504 84.0296 305.314 83.4041Z" fill="#0056B3"/>
<path d="M305.871 50.901C307.489 51.7207 308.774 52.6471 310.12 53.929C310.449 54.2381 310.778 54.5472 311.116 54.8657C312.449 56.2857 313.077 57.3385 313.323 59.3717C313.064 61.7928 312.213 63.0888 310.886 65.0061C310.15 64.8037 309.415 64.6013 308.657 64.3928C308.841 63.7857 309.025 63.1786 309.214 62.553C309.514 59.0585 308.992 57.3088 306.986 54.5806C306.618 54.3782 306.25 54.1758 305.871 53.9673C305.871 52.9554 305.871 51.9436 305.871 50.901Z" fill="#0056B3"/>
<path d="M303.643 85.8572C304.757 85.8311 305.872 85.8322 306.986 85.8572C307.17 86.0596 307.353 86.2619 307.543 86.4704C307.409 90.2224 306.533 91.8754 304.2 94.4429C303.648 94.6453 303.097 94.8477 302.529 95.0562C302.323 88.5813 302.323 88.5813 303.643 85.8572Z" fill="#0056B3"/>
<path d="M258.514 53.354C257.957 55.1938 257.957 55.1938 256.743 55.867C256.247 56.0623 255.752 56.2575 255.241 56.4587C253.523 57.1453 252.25 57.7466 250.714 58.8734C250.157 57.0336 250.157 57.0336 250.157 55.8071C249.789 55.6047 249.422 55.4023 249.043 55.1938C249.6 53.9673 249.6 53.9673 250.714 53.2774C253.164 52.4908 256.168 52.0626 258.514 53.354ZM252.386 54.5806C252.018 54.9853 251.65 55.3901 251.271 55.8071C251.823 55.8071 252.375 55.8071 252.943 55.8071C252.759 55.4023 252.575 54.9976 252.386 54.5806Z" fill="#0056B3"/>
<path d="M312 66.8459C313.331 67.9444 313.648 68.5447 313.95 70.3722C313.581 73.0087 312.664 74.8332 310.886 76.6582C309.319 76.9265 309.319 76.9265 308.1 76.6582C308.1 76.2534 308.1 75.8487 308.1 75.4317C308.652 75.2293 309.203 75.0269 309.771 74.8184C310.18 73.5826 310.18 73.5826 310.329 72.3653C308.95 71.7582 308.95 71.7582 307.543 71.1388C309.632 69.9123 309.632 69.9123 310.886 69.9123C311.253 68.9004 311.621 67.8885 312 66.8459Z" fill="#0056B3"/>
<path d="M272.443 41.0888C270.788 41.8983 269.133 42.7079 267.429 43.5419C268.164 43.9466 268.899 44.3514 269.657 44.7684C267.47 46.0296 265.331 47.031 262.971 47.8348C262.971 47.2276 262.971 46.6205 262.971 45.995C262.604 45.7926 262.236 45.5902 261.857 45.3817C268.7 40.0589 268.7 40.0589 272.443 41.0888Z" fill="#0056B3"/>
<path d="M271.329 39.8623C273.167 39.8623 275.006 39.8623 276.9 39.8623C277.084 40.4694 277.268 41.0766 277.457 41.7021C270.501 44.4052 270.501 44.4052 266.871 44.7684C267.055 44.1613 267.239 43.5542 267.429 42.9286C269.413 41.8937 269.413 41.8937 271.329 41.0888C271.329 40.6841 271.329 40.2793 271.329 39.8623Z" fill="#0056B3"/>
<path d="M249.6 60.1C249.784 60.5047 249.968 60.9095 250.157 61.3265C250.709 61.5289 251.26 61.7313 251.829 61.9398C251.645 62.3445 251.461 62.7493 251.271 63.1663C251.142 64.932 251.038 66.6873 250.958 68.4557C250.934 68.9474 250.91 69.4391 250.885 69.9458C250.826 71.161 250.77 72.3764 250.714 73.5918C250.53 73.5918 250.347 73.5918 250.157 73.5918C250.088 72.8961 250.019 72.2005 249.948 71.4837C249.833 70.7627 249.718 70.0418 249.6 69.299C249.232 69.0966 248.865 68.8942 248.486 68.6857C248.28 62.9148 248.28 62.9148 249.6 60.1Z" fill="#0056B3"/>
<path d="M258.514 93.2163C260.134 94.5773 261.274 95.6263 262.414 97.5092C262.275 98.8124 262.275 98.8124 261.857 99.9622C261.306 100.266 261.306 100.266 260.743 100.575C260.743 101.183 260.743 101.79 260.743 102.415C260.375 102.415 260.007 102.415 259.629 102.415C259.629 101.606 259.629 100.796 259.629 99.9622C259.261 99.7598 258.893 99.5575 258.514 99.349C259.066 99.349 259.617 99.349 260.186 99.349C259.772 98.6849 259.772 98.6849 259.35 98.0074C258.47 96.1916 258.357 95.2324 258.514 93.2163Z" fill="#0056B3"/>
<path d="M303.643 85.8572C304.757 85.8311 305.872 85.8322 306.986 85.8572C307.17 86.0596 307.353 86.2619 307.543 86.4704C307.209 90.518 307.209 90.518 305.871 91.9898C305.711 91.3954 305.55 90.8009 305.384 90.1884C304.957 88.2448 304.957 88.2448 303.643 87.697C303.459 88.9112 303.275 90.1255 303.086 91.3766C302.51 89.6666 302.503 89.0046 303.051 87.237C303.246 86.7817 303.442 86.3263 303.643 85.8572Z" fill="#0056B3"/>
<path d="M255.554 51.4377C256.212 51.4487 256.869 51.4598 257.546 51.4712C258.301 51.4925 258.301 51.4925 259.071 51.5143C259.071 52.931 259.071 54.3476 259.071 55.8072C258.152 55.8072 257.233 55.8072 256.286 55.8072C257.021 54.9977 257.757 54.1882 258.514 53.3541C257.551 53.3207 256.588 53.2971 255.624 53.2775C254.819 53.2561 254.819 53.2561 253.998 53.2343C252.314 53.3594 251.122 53.8026 249.6 54.5806C250.65 51.1133 252.608 51.3734 255.554 51.4377Z" fill="#0056B3"/>
<path d="M261.857 42.3153C262.409 42.5177 262.96 42.7201 263.529 42.9286C263.253 43.1942 262.977 43.4598 262.693 43.7335C261.672 44.7668 261.672 44.7668 261.857 46.6082C261.306 47.0129 260.754 47.4177 260.186 47.8347C259.796 48.642 259.424 49.46 259.071 50.2878C258.704 50.6925 258.336 51.0973 257.957 51.5143C257.638 49.1065 257.54 47.8838 258.826 45.844C259.805 44.6271 260.804 43.4544 261.857 42.3153Z" fill="#0056B3"/>
<path d="M305.314 83.4041C306.417 83.4041 307.521 83.4041 308.657 83.4041C309.259 85.8397 309.135 87.3446 308.413 89.7284C308.253 90.2699 308.093 90.8114 307.928 91.3693C307.801 91.7764 307.674 92.1836 307.543 92.603C306.105 90.2296 306.535 89.2 306.986 86.4704C306.986 86.0656 306.986 85.6609 306.986 85.2438C306.618 85.2438 306.25 85.2438 305.871 85.2438C305.688 84.6367 305.504 84.0296 305.314 83.4041Z" fill="#0056B3"/>
<path d="M258.514 53.354C258.33 53.9612 258.147 54.5683 257.957 55.1938C257.589 55.1938 257.222 55.1938 256.843 55.1938C256.843 54.7891 256.843 54.3843 256.843 53.9673C255.188 53.6637 255.188 53.6637 253.5 53.354C253.5 53.7588 253.5 54.1635 253.5 54.5806C252.398 55.0287 251.282 55.4356 250.157 55.8071C249.789 55.6047 249.422 55.4023 249.043 55.1938C249.6 53.9673 249.6 53.9673 250.714 53.2774C253.164 52.4908 256.168 52.0626 258.514 53.354Z" fill="#0056B3"/>
<path d="M306.429 70.5255C309.075 71.6754 309.075 71.6754 310.329 72.3653C310.512 71.7582 310.696 71.151 310.886 70.5255C310.702 71.9422 310.518 73.3588 310.329 74.8184C309.777 74.8184 309.225 74.8184 308.657 74.8184C308.289 74.2112 307.922 73.6041 307.543 72.9786C307.359 73.9905 307.175 75.0023 306.986 76.0449C306.802 76.0449 306.618 76.0449 306.429 76.0449C306.429 74.2235 306.429 72.4021 306.429 70.5255Z" fill="#0056B3"/>
<path d="M297.514 143.504C297.882 143.706 298.25 143.909 298.629 144.117C298.323 146.921 297.839 149.437 296.957 152.09C295.843 150.25 295.843 150.25 295.286 148.41C295.808 146.762 295.808 146.762 296.4 145.344C296.952 145.546 297.503 145.749 298.071 145.957C297.888 145.148 297.704 144.338 297.514 143.504Z" fill="#0056B3"/>
<path d="M280.696 41.0121C281.563 41.0097 281.563 41.0097 282.448 41.0073C284.006 41.0822 285.413 41.3134 286.929 41.702C286.929 41.9044 286.929 42.1068 286.929 42.3153C285.478 42.4513 284.028 42.5777 282.576 42.6986C282.165 42.7381 281.754 42.7776 281.33 42.8184C278.204 43.0675 278.204 43.0675 276.343 41.702C277.841 40.8777 279.024 41.0076 280.696 41.0121Z" fill="#0056B3"/>
<path d="M306.429 53.3541C308.568 54.2793 309.664 55.5132 310.886 57.647C311.3 59.3557 311.389 60.7567 311.443 62.5531C311.075 62.9579 310.707 63.3626 310.329 63.7796C310.274 63.4239 310.219 63.0682 310.163 62.7016C309.591 59.4108 308.819 57.2497 306.986 54.5807C306.802 54.1759 306.618 53.7711 306.429 53.3541Z" fill="#0056B3"/>
<path d="M298.629 44.7683C299.364 45.1731 300.099 45.5778 300.857 45.9948C299.013 47.6321 297.758 47.9645 295.46 47.7196C293.704 47.476 293.228 47.4095 291.943 45.9948C294.149 45.9948 296.355 45.9948 298.629 45.9948C298.629 45.5901 298.629 45.1853 298.629 44.7683Z" fill="#0056B3"/>
<path d="M293.057 136.758C293.614 138.598 293.614 138.598 293.614 140.438C294.166 140.64 294.717 140.843 295.286 141.051C295.47 141.658 295.653 142.265 295.843 142.891C294.188 142.284 292.533 141.677 290.829 141.051C291.427 139.263 291.819 138.121 293.057 136.758Z" fill="#0056B3"/>
<path d="M240.686 505.331C239.923 507.781 238.871 509.501 237.343 511.463C237.159 510.047 236.975 508.63 236.786 507.17C239.432 505.331 239.432 505.331 240.686 505.331Z" fill="#0056B3"/>
<path d="M331.5 459.949C331.868 459.949 332.235 459.949 332.614 459.949C334.41 463.183 334.41 463.183 334.843 464.242C334.659 464.647 334.475 465.051 334.286 465.468C333.55 465.064 332.815 464.659 332.057 464.242C332.057 463.837 332.057 463.432 332.057 463.015C331.322 462.813 330.586 462.611 329.829 462.402C330.196 462.2 330.564 461.997 330.943 461.789C331.127 461.182 331.311 460.575 331.5 459.949Z" fill="#0056B3"/>
<path d="M239.571 120.813C239.939 121.016 240.307 121.218 240.686 121.426C240.502 122.438 240.318 123.45 240.129 124.493C239.577 124.493 239.025 124.493 238.457 124.493C238.457 124.898 238.457 125.302 238.457 125.719C237.722 125.517 236.986 125.315 236.229 125.106C236.913 122.844 237.866 122.209 239.571 120.813Z" fill="#0056B3"/>
<path d="M362.7 530.475C363.619 530.677 364.539 530.879 365.486 531.088C365.302 531.695 365.118 532.302 364.929 532.928C367.135 532.928 369.341 532.928 371.614 532.928C371.614 533.13 371.614 533.332 371.614 533.541C370.349 533.557 369.084 533.569 367.819 533.579C366.762 533.59 366.762 533.59 365.684 533.601C363.814 533.541 363.814 533.541 362.143 532.928C362.327 532.118 362.511 531.309 362.7 530.475Z" fill="#0056B3"/>
<path d="M277.457 357.534C277.825 357.534 278.193 357.534 278.571 357.534C279.123 359.355 279.675 361.176 280.243 363.053C279.14 363.255 278.037 363.458 276.9 363.666C277.084 361.643 277.268 359.619 277.457 357.534Z" fill="#0056B3"/>
<path d="M257.4 94.4429C258.959 95.9931 259.884 97.0211 260.186 99.349C258.899 99.349 257.612 99.349 256.286 99.349C256.653 97.73 257.021 96.111 257.4 94.4429Z" fill="#0056B3"/>
<path d="M305.871 50.901C307.789 51.839 309.338 53.019 310.886 54.5806C310.886 55.1877 310.886 55.7949 310.886 56.4204C309.734 55.7866 308.583 55.1521 307.438 54.5039C306.532 53.9229 306.532 53.9229 305.871 53.9673C305.871 52.9554 305.871 51.9436 305.871 50.901Z" fill="#0056B3"/>
<path d="M307.543 544.58C307.727 544.984 307.911 545.389 308.1 545.806C308.468 545.806 308.835 545.806 309.214 545.806C309.398 546.211 309.582 546.616 309.771 547.033C310.895 547.728 310.895 547.728 312 548.259C311.443 548.872 311.443 548.872 309.806 548.949C308.1 548.872 308.1 548.872 306.986 548.259C307.17 547.045 307.353 545.831 307.543 544.58Z" fill="#0056B3"/>
<path d="M284.7 365.506C284.585 365.961 284.47 366.417 284.352 366.886C284.118 368.771 284.355 369.448 285.257 371.025C284.889 371.43 284.522 371.835 284.143 372.252C281.914 368.112 281.914 368.112 281.914 366.733C283.586 365.506 283.586 365.506 284.7 365.506Z" fill="#0056B3"/>
<path d="M306.986 72.3654C307.721 73.1749 308.457 73.9844 309.214 74.8184C308.663 75.122 308.663 75.122 308.1 75.4317C308.1 75.8364 308.1 76.2412 308.1 76.6582C308.652 76.8606 309.203 77.063 309.771 77.2715C308.668 77.6762 307.565 78.081 306.429 78.498C306.612 76.4742 306.796 74.4505 306.986 72.3654Z" fill="#0056B3"/>
<path d="M271.329 42.3153C272.257 42.339 273.186 42.3429 274.114 42.3153C272.708 43.8637 271.809 43.8836 269.866 44.2317C269.307 44.3345 268.749 44.4373 268.173 44.5432C267.743 44.6175 267.314 44.6918 266.871 44.7683C267.429 42.9285 267.429 42.9285 268.473 42.162C269.657 41.702 269.657 41.702 271.329 42.3153Z" fill="#0056B3"/>
<path d="M304.757 190.725C306.275 192.168 306.882 193.562 307.543 195.632C306.335 195.321 305.314 195.018 304.2 194.405C304.016 195.012 303.832 195.619 303.643 196.245C303.97 194.39 304.326 192.554 304.757 190.725Z" fill="#0056B3"/>
<path d="M300.3 182.753C301.828 184.715 302.88 186.436 303.643 188.886C302.724 188.683 301.804 188.481 300.857 188.272C300.673 186.451 300.489 184.63 300.3 182.753Z" fill="#0056B3"/>
<path d="M284.7 115.294C285.803 115.597 285.803 115.597 286.929 115.907C286.441 118.82 286.441 118.82 285.814 120.2C285.263 119.795 284.711 119.39 284.143 118.973C284.327 117.759 284.511 116.545 284.7 115.294Z" fill="#0056B3"/>
<path d="M235.671 127.559C235.304 128.369 234.936 129.178 234.557 130.012C234.006 129.81 233.454 129.607 232.886 129.399C231.678 129.935 231.678 129.935 230.657 130.625C231.213 129.096 231.597 128.303 232.851 127.368C234 126.946 234 126.946 235.671 127.559Z" fill="#0056B3"/>
<path d="M302.529 104.868C302.896 105.071 303.264 105.273 303.643 105.482C303.091 105.684 302.54 105.886 301.971 106.095C301.971 107.512 301.971 108.928 301.971 110.388C301.42 110.59 300.868 110.793 300.3 111.001C299.932 111.608 299.565 112.215 299.186 112.841C299.081 111.423 299.081 111.423 299.186 109.775C299.987 108.816 299.987 108.816 300.857 107.935C301.053 107.12 301.24 106.302 301.414 105.482C301.782 105.279 302.15 105.077 302.529 104.868Z" fill="#0056B3"/>
<path d="M233.443 394.33C234.178 395.139 234.914 395.949 235.671 396.783C235.12 396.783 234.568 396.783 234 396.783C233.093 397.892 233.093 397.892 232.329 399.236C231.961 399.843 231.593 400.45 231.214 401.076C231.458 398.281 231.688 396.429 233.443 394.33Z" fill="#0056B3"/>
<path d="M248.958 98.0625C250.101 98.0825 251.243 98.1024 252.386 98.1224C252.386 98.3248 252.386 98.5271 252.386 98.7357C250.915 99.1404 249.444 99.5452 247.929 99.9622C247.929 101.784 247.929 103.605 247.929 105.482C247.745 105.482 247.561 105.482 247.371 105.482C247.356 104.37 247.346 103.259 247.337 102.147C247.33 101.528 247.324 100.909 247.317 100.271C247.392 98.1536 247.392 98.1536 248.958 98.0625Z" fill="#0056B3"/>
<path d="M309.214 539.673C309.582 540.28 309.95 540.888 310.329 541.513C310.696 541.311 311.064 541.108 311.443 540.9C311.443 541.912 311.443 542.924 311.443 543.966C310.524 544.169 309.604 544.371 308.657 544.579C308.1 543.353 308.1 543.353 308.622 541.436C308.915 540.564 308.915 540.564 309.214 539.673Z" fill="#0056B3"/>
<path d="M379.414 531.088C378.098 532.637 377.373 533.472 375.514 534.154C374.017 533.579 374.017 533.579 372.729 532.928C372.729 532.725 372.729 532.523 372.729 532.314C375.056 531.338 376.925 530.957 379.414 531.088Z" fill="#0056B3"/>
<path d="M314.786 253.279C314.97 253.279 315.153 253.279 315.343 253.279C315.279 254.173 315.208 255.068 315.134 255.962C315.095 256.46 315.056 256.958 315.016 257.471C314.786 258.798 314.786 258.798 313.671 260.024C312.975 259.066 312.975 259.066 312.557 257.571C313.152 255.995 313.931 254.718 314.786 253.279Z" fill="#0056B3"/>
<path d="M291.386 147.184C292.305 147.184 293.224 147.184 294.171 147.184C293.988 148.196 293.804 149.207 293.614 150.25C292.879 150.25 292.143 150.25 291.386 150.25C291.386 149.238 291.386 148.226 291.386 147.184Z" fill="#0056B3"/>
<path d="M295.843 127.559C296.394 127.762 296.946 127.964 297.514 128.172C297.195 129.931 297.034 130.541 295.843 131.852C295.291 131.447 294.74 131.043 294.171 130.626C294.355 130.018 294.539 129.411 294.729 128.786C295.096 128.786 295.464 128.786 295.843 128.786C295.843 128.381 295.843 127.976 295.843 127.559Z" fill="#0056B3"/>
<path d="M264.086 41.0887C264.637 41.2911 265.189 41.4935 265.757 41.702C264.942 44.3952 263.541 44.6944 261.3 45.9949C261.472 45.6281 261.645 45.2612 261.822 44.8833C262.471 43.4869 262.471 43.4869 262.971 41.702C263.339 41.4996 263.707 41.2973 264.086 41.0887Z" fill="#0056B3"/>
<path d="M286.929 41.702C287.112 42.5115 287.296 43.321 287.486 44.1551C285.241 43.8159 283.017 43.4463 280.8 42.9286C280.8 42.7262 280.8 42.5238 280.8 42.3153C283.834 42.0117 283.834 42.0117 286.929 41.702Z" fill="#0056B3"/>
<path d="M206.7 524.955C207.068 525.562 207.435 526.169 207.814 526.795C208.366 526.795 208.917 526.795 209.486 526.795C208.861 528.171 208.152 529.293 207.257 530.474C206.889 530.474 206.522 530.474 206.143 530.474C206.327 528.653 206.511 526.832 206.7 524.955Z" fill="#0056B3"/>
<path d="M228.986 405.982C229.17 406.386 229.353 406.791 229.543 407.208C229.911 407.208 230.278 407.208 230.657 407.208C230.239 408.665 230.239 408.665 229.543 410.275C228.44 410.882 228.44 410.882 227.314 411.501C227.866 409.68 228.417 407.858 228.986 405.982Z" fill="#0056B3"/>
<path d="M238.457 516.369C239.009 516.369 239.56 516.369 240.129 516.369C241.069 517.596 241.069 517.596 241.8 518.822C240.384 519.602 239.5 519.436 237.9 519.436C238.084 518.424 238.268 517.412 238.457 516.369Z" fill="#0056B3"/>
<path d="M310.886 55.1938C312 56.1904 312 56.1904 313.114 57.6469C313.254 59.64 313.254 59.64 313.114 61.3265C312.93 61.3265 312.747 61.3265 312.557 61.3265C312.373 60.3146 312.189 59.3027 312 58.2602C311.632 58.6649 311.265 59.0697 310.886 59.4867C310.259 56.5737 310.259 56.5737 310.886 55.1938Z" fill="#0056B3"/>
<path d="M272.443 41.0887C270.604 41.8982 268.766 42.7077 266.871 43.5418C266.504 43.137 266.136 42.7323 265.757 42.3152C266.45 41.9874 267.148 41.67 267.846 41.357C268.234 41.1792 268.622 41.0013 269.022 40.818C270.214 40.4755 270.214 40.4755 272.443 41.0887Z" fill="#0056B3"/>
<path d="M252.386 57.0337C252.753 57.2361 253.121 57.4384 253.5 57.647C253.316 58.8612 253.132 60.0755 252.943 61.3265C252.391 60.9218 251.84 60.517 251.271 60.1C250.904 59.8976 250.536 59.6953 250.157 59.4868C250.893 58.6772 251.628 57.8677 252.386 57.0337Z" fill="#0056B3"/>
<path d="M272.443 531.088C274.098 531.391 274.098 531.391 275.786 531.701C275.602 532.308 275.418 532.915 275.229 533.541C274.125 533.541 273.022 533.541 271.886 533.541C272.07 532.731 272.253 531.922 272.443 531.088Z" fill="#0056B3"/>
<path d="M306.429 291.914C306.612 291.914 306.796 291.914 306.986 291.914C306.802 293.533 306.618 295.152 306.429 296.82C306.061 296.618 305.693 296.416 305.314 296.207C305.245 294.751 305.245 294.751 305.314 293.141C305.682 292.736 306.05 292.331 306.429 291.914Z" fill="#0056B3"/>
<path d="M220.071 154.543C220.623 154.543 221.175 154.543 221.743 154.543C221.927 155.352 222.111 156.162 222.3 156.996C221.381 157.401 220.461 157.805 219.514 158.222C219.698 157.008 219.882 155.794 220.071 154.543Z" fill="#0056B3"/>
<path d="M295.843 131.852C294.868 134.842 294.868 134.842 293.614 135.532C293.247 135.127 292.879 134.722 292.5 134.305C294.589 131.852 294.589 131.852 295.843 131.852Z" fill="#0056B3"/>
<path d="M300.3 105.482C300.668 105.482 301.035 105.482 301.414 105.482C301.23 106.494 301.047 107.505 300.857 108.548C300.306 108.548 299.754 108.548 299.186 108.548C299.673 106.172 299.673 106.172 300.3 105.482Z" fill="#0056B3"/>
</svg>
