<svg width="248" height="551" viewBox="0 0 248 551" fill="none" xmlns="http://www.w3.org/2000/svg">
<path d="M158.998 24.8031C158.998 24.8031 161.796 5.24261 152.838 2.28474C143.885 -0.676632 114.781 -3.04844 104.705 10.5753C94.6278 24.2095 98.5495 31.9025 95.1909 43.7555C91.8318 55.609 90.1546 68.6382 86.2362 75.7526C82.3182 82.859 84.559 92.3372 85.6773 100.628C86.7956 108.929 80.6405 139.731 78.3983 142.106C76.1617 144.474 72.8026 149.803 72.8026 149.803L81.7612 150.397C81.7612 150.397 80.0797 185.355 81.198 188.906C82.3182 192.462 76.7211 216.75 75.6024 228.6C74.4841 240.453 76.1598 259.412 69.4459 267.703C62.7282 275.997 55.453 290.808 58.8121 296.141C62.1688 301.47 71.1254 308.58 71.1254 308.58C71.1254 308.58 73.3639 312.143 72.2437 320.43C71.1254 328.724 63.8484 347.684 63.8484 347.684L75.6024 353.606C75.6024 353.606 66.0854 392.116 57.1306 403.372C49.2927 413.447 38.0995 416.408 34.1796 432.997C30.2616 449.577 24.6641 483.946 17.9483 489.873C11.2306 495.795 0.596738 511.196 0.0392549 513.568C-0.522014 515.931 5.07554 519.49 7.87526 523.053C10.6731 526.597 27.4638 537.861 34.1796 546.151C40.8993 554.445 52.6533 549.717 57.6919 549.116C62.7263 548.523 72.2423 546.151 65.526 542.002C58.8102 537.86 39.2197 524.824 39.2197 517.717C39.2197 510.61 31.9431 500.538 42.0175 482.762C52.0925 464.982 66.6443 442.475 71.1221 436.548C75.6028 430.622 75.042 425.293 83.4374 417.002C91.8323 408.701 116.46 360.127 118.139 358.939C119.822 357.751 126.536 357.751 126.536 357.751C126.536 357.751 135.492 366.049 139.968 381.45C144.447 396.858 146.128 418.772 146.686 429.441C147.247 440.103 150.044 452.542 160.119 467.951C170.196 483.355 174.676 505.273 175.795 512.387C176.913 519.49 171.873 533.714 174.675 537.266C177.473 540.821 179.15 540.227 195.384 543.185C211.615 546.15 220.57 546.74 231.206 546.15C241.842 545.56 248 536.672 248 536.672C248 536.672 234.565 534.308 230.087 531.335C225.606 528.377 205.46 517.126 203.221 509.422C200.979 501.717 184.748 460.844 181.948 443.658C179.15 426.476 171.875 407.516 172.994 393.889C174.114 380.27 167.396 354.789 163.478 347.683C165.715 346.495 156.764 304.434 147.247 273.629C145.567 259.404 150.606 241.632 151.165 238.671C151.724 235.713 171.874 262.963 175.792 271.254C179.71 279.548 191.46 306.204 197.058 306.204C202.656 306.204 216.652 310.353 215.53 304.434C214.411 298.507 207.135 285.478 207.135 285.478C207.135 285.478 209.377 284.287 205.457 279.548C201.537 274.809 189.222 262.967 188.104 257.627C186.985 252.298 162.916 216.159 156.759 207.865C161.799 184.764 165.714 175.872 167.395 168.762C169.074 161.651 166.834 151.58 159 139.137C151.164 126.693 145.566 116.035 145.005 108.335C144.446 100.627 138.289 83.4485 146.687 78.1194C155.082 72.7867 161.798 73.3803 164.038 68.6377C166.275 63.9026 166.834 51.4555 166.834 51.4555C166.834 51.4555 169.074 46.7204 166.834 43.1614C164.596 39.6105 155.643 30.7228 158.998 24.8031Z" fill="#0056B3"/>
</svg>
